<svg xmlns="http://www.w3.org/2000/svg" width="500" height="250" viewBox="0,0,500,250"><path fill="#7fe5e5" d="M201.05 116.40L201.06 116.40L201.04 116.39Q183.87 116.34 174.08 110.63L174.22 110.77L174.10 110.65Q187.55 103.30 213.65 80.66L213.80 80.81L213.66 80.67Q217.60 79.71 224.53 76.45L224.62 76.53L224.47 76.39Q217.38 108.25 216.77 142.31L216.71 142.25L216.81 142.35Q216.12 176.34 221.83 208.97L221.92 209.05L221.95 209.09Q212.82 205.05 201.40 204.44L201.53 204.57L201.56 204.60Q200.80 182.22 200.80 160.40L200.89 160.49L200.94 160.54Q200.97 138.54 201.17 116.51ZM199.04 128.46L198.97 206.49L198.97 206.50Q205.67 206.67 210.77 207.69L210.73 207.66L210.65 207.57Q210.99 211.18 212.01 218.52L212.04 218.54L212.10 218.60Q227.33 221.40 240.38 233.43L240.51 233.55L240.35 233.40Q227.13 195.29 226.92 155.32L227.06 155.46L226.89 155.29Q226.61 115.44 236.40 76.69L236.42 76.71L236.45 76.75Q233.46 78.85 224.89 84.77L225.04 84.91L225.03 84.90Q225.92 80.69 227.55 72.53L227.60 72.59L227.60 72.59Q220.43 76.63 212.68 78.67L212.68 78.67L212.62 78.61Q192.56 97.91 169.51 110.14L169.48 110.11L169.40 110.04Q176.97 115.98 189.62 117.81L189.61 117.81L189.71 117.90Q186.13 120.65 179.20 126.36L179.30 126.46L179.24 126.40Q187.27 128.52 199.10 128.52L198.96 128.38Z"/><path fill="#84e5b5" d="M126.28 147.03L126.25 147.00L126.32 147.07Q116.47 146.40 109.84 154.05L109.84 154.04L109.94 154.14Q103.16 161.64 102.14 171.84L102.19 171.88L102.21 171.91Q101.07 183.01 106.89 188.21L106.85 188.17L106.72 188.04Q112.61 193.32 123.83 192.71L123.87 192.75L123.85 192.73Q135.10 191.95 141.02 188.28L141.02 188.28L141.02 188.28Q147.11 182.34 147.11 173.98L147.09 173.96L147.11 173.98Q147.15 171.98 146.75 169.94L146.67 169.87L146.63 169.83Q147.16 160.98 141.25 153.74L141.11 153.60L141.13 153.62Q135.26 146.43 126.29 147.04ZM123.94 206.49L123.97 206.51L124.07 206.61Q100.51 206.50 92.96 202.43L93.07 202.54L93.12 202.58Q87.62 198.51 86.60 189.33L86.48 189.22L86.55 189.29Q86.38 185.65 86.59 181.77L86.45 181.63L86.49 181.68Q87.06 176.34 87.06 173.89L87.20 174.02L87.17 174.00Q89.59 158.67 90.41 155.00L90.46 155.06L90.38 154.98Q92.74 144.49 97.23 136.95L97.35 137.06L97.35 137.07Q111.51 113.50 143.32 79.44L143.37 79.48L143.41 79.52Q157.64 77.84 169.47 73.56L169.55 73.64L169.60 73.69Q132.88 113.66 115.75 136.29L115.61 136.16L115.72 136.27Q120.94 133.53 127.87 133.53L127.94 133.60L127.82 133.48Q145.73 133.64 153.89 144.04L153.76 143.91L153.73 143.89Q160.97 152.76 162.81 171.73L162.86 171.78L162.73 171.65Q163.28 175.66 163.28 178.93L163.16 178.81L163.24 178.89Q163.11 195.48 151.28 201.19L151.36 201.28L151.44 201.35Q144.81 204.52 124.01 206.56ZM136.28 219.44L136.23 219.38L136.35 219.51Q143.15 219.17 153.75 219.57L153.79 219.61L153.73 219.55Q162.65 220.11 171.01 216.24L171.01 216.24L170.95 216.17Q176.78 211.81 176.78 202.22L176.81 202.25L176.94 202.38Q176.89 199.68 175.97 194.38L176.00 194.40L175.94 194.34Q174.96 188.98 174.96 186.53L174.97 186.54L174.95 186.52Q170.34 161.32 161.78 151.12L161.71 151.05L161.66 151.01Q161.33 150.47 160.51 149.24L160.47 149.20L158.99 148.12L158.49 147.83L158.48 147.83Q156.73 145.26 153.47 140.16L153.32 140.01L153.32 140.01Q148.43 134.92 137.83 132.47L137.82 132.47L137.86 132.50Q144.46 124.01 160.37 104.23L160.40 104.26L183.01 75.89L182.97 75.85Q174.65 80.58 161.80 84.66L161.83 84.69L161.77 84.62Q166.59 79.25 176.17 68.64L176.32 68.79L176.31 68.78Q163.48 74.51 142.68 77.57L142.65 77.53L142.50 77.39Q111.91 109.00 96.00 135.51L96.00 135.51L96.01 135.52Q87.89 149.02 84.83 182.46L84.92 182.55L84.90 182.53Q84.55 185.66 84.96 190.75L84.94 190.74L84.94 190.73Q85.24 200.00 91.15 204.90L91.29 205.04L91.10 204.85Q93.14 205.67 92.94 205.87L93.07 206.00L92.98 205.91Q95.01 210.79 99.29 213.04L99.35 213.09L99.42 213.16Q107.18 216.85 117.58 217.87L117.51 217.80L117.61 217.89Q117.52 217.81 136.28 219.44ZM134.95 159.17L134.96 159.17L135.06 159.27Q138.15 158.69 143.24 161.34L143.16 161.26L143.29 161.39Q145.06 166.42 145.06 169.89L145.12 169.95L145.12 169.95Q146.03 179.83 140.93 185.14L141.05 185.25L140.87 185.07Q135.31 189.10 124.10 190.73L124.00 190.63L124.07 190.71Q116.28 190.67 113.43 189.24L113.45 189.26L113.52 189.34Q112.47 186.85 112.47 185.22L112.47 185.22L112.35 185.11Q111.28 167.72 126.98 160.78L126.80 160.60L126.86 160.66Q130.94 158.83 135.02 159.24Z"/><path fill="#69e2a5" d="M382.49 194.09L382.61 194.21L382.60 194.20Q384.25 199.52 387.10 210.33L386.93 210.16L387.11 210.34Q364.36 203.09 339.69 204.52L339.70 204.53L339.79 204.62Q315.24 205.97 293.82 216.58L293.85 216.60L293.89 216.65Q295.05 212.91 295.26 213.32L295.30 213.36L295.25 213.32Q315.32 192.19 336.33 168.53L336.33 168.53L336.16 168.36Q359.86 141.68 366.18 116.60L366.17 116.59L366.25 116.68Q368.64 107.23 361.81 100.91L361.82 100.92L361.79 100.89Q355.03 94.65 345.45 95.46L345.36 95.37L345.45 95.46Q343.67 95.31 341.83 95.31L341.76 95.24L341.76 95.24Q333.49 95.13 326.76 100.02L326.77 100.03L326.77 100.03Q319.84 107.38 321.07 121.66L321.23 121.82L321.10 121.69Q311.47 119.81 304.94 117.36L305.06 117.48L305.04 117.46Q304.00 109.89 303.59 102.14L303.68 102.23L303.70 102.25Q303.28 93.47 306.54 87.35L306.49 87.29L306.42 87.22Q316.03 79.91 333.98 79.91L334.06 79.99L343.35 79.90L343.42 79.97Q355.59 80.11 360.69 80.73L360.72 80.75L360.66 80.69Q383.87 82.90 385.30 95.95L385.33 95.98L385.48 96.13Q385.86 99.17 385.46 103.45L385.32 103.31L385.38 103.38Q385.13 106.79 384.31 110.46L384.42 110.57L384.34 110.49Q375.61 153.97 335.03 190.68L335.04 190.69L335.04 190.70Q342.62 189.91 349.96 189.91L349.99 189.94L349.96 189.91Q367.15 189.77 382.45 194.05ZM379.56 82.67L379.49 82.60L379.55 82.65Q370.92 79.13 361.74 78.72L361.69 78.67L343.28 77.59L343.39 77.70Q319.59 76.33 307.76 82.25L307.68 82.17L307.61 82.09Q301.98 89.52 301.98 100.53L302.02 100.57L301.97 100.52Q302.12 104.34 303.75 119.43L303.74 119.42L303.80 119.48Q306.58 120.63 312.90 122.27L313.06 122.42L313.01 127.88L313.04 127.90Q312.70 130.22 313.11 133.08L313.24 133.21L313.20 133.17Q319.84 133.69 333.10 134.91L333.25 135.07L333.20 135.02Q333.03 133.01 333.03 131.18L333.07 131.22L333.05 131.20Q332.89 121.25 339.42 114.01L339.51 114.09L339.43 114.01Q345.97 106.79 355.55 107.40L355.71 107.56L355.64 107.49Q359.74 107.71 363.82 108.53L363.69 108.40L363.76 108.47Q364.35 110.49 364.76 112.73L364.72 112.69L364.70 112.67Q365.06 115.07 364.65 116.91L364.57 116.83L364.51 116.77Q357.82 142.30 334.16 168.20L334.24 168.27L334.24 168.28Q322.72 180.21 293.56 212.64L293.65 212.73L293.70 212.78Q292.66 217.25 290.83 220.31L290.68 220.16L290.72 220.20Q299.22 215.45 307.38 212.60L307.48 212.69L307.57 212.79Q303.61 215.76 298.51 223.71L298.55 223.75L298.50 223.70Q297.93 225.57 297.31 227.41L297.36 227.45L297.21 227.31Q323.46 216.44 352.83 217.46L352.67 217.30L352.82 217.45Q383.19 218.25 407.66 230.89L407.52 230.75L402.33 219.44L402.27 219.38Q398.87 212.31 397.44 208.03L397.47 208.05L397.42 208.00Q393.58 205.80 387.05 203.55L386.94 203.44L387.06 203.56Q386.28 199.72 384.24 192.37L384.07 192.21L384.14 192.28Q372.25 189.16 360.01 188.14L360.11 188.24L360.14 188.26Q385.21 163.77 393.37 119.52L393.34 119.49L394.30 103.93L394.45 104.09Q394.04 94.49 387.51 90.82L387.42 90.73L387.29 90.81L387.22 90.73Q387.08 90.39 386.68 90.39L386.59 90.31L386.70 90.41Q385.35 85.80 379.43 82.54Z"/><path d="M11 203 C235 153,234 178,488 124" stroke="#e9c352" fill="none"/><path d="M19 92 C263 184,235 171,493 231" stroke="#e36262" fill="none"/><path d="M20 151 C263 65,243 2,484 183" stroke="#e8e887" fill="none"/><path fill="#d4e995" d="M397.16 207.47L397.00 207.31L397.06 207.37Q375.35 208.70 370.04 196.26L369.90 196.12L369.88 196.10Q373.97 191.01 382.33 181.42L382.30 181.39L382.38 181.47Q385.08 192.33 401.19 192.94L401.26 193.01L401.13 192.89Q419.32 193.33 428.09 186.19L428.01 186.11L428.02 186.12Q435.64 177.63 435.23 163.15L435.15 163.07L435.31 163.23Q434.47 136.08 408.77 137.30L408.72 137.25L408.80 137.33Q393.61 138.05 384.23 144.78L384.20 144.75L382.46 143.82L381.43 143.20L381.43 143.20Q383.26 126.27 382.65 111.59L382.57 111.51L382.65 111.58Q381.94 97.41 380.10 79.67L380.07 79.64L380.10 79.67Q399.72 84.81 420.12 84.20L420.09 84.17L420.20 84.29Q440.47 83.75 459.64 77.02L459.64 77.02L456.65 85.25L456.55 85.15Q454.91 89.21 453.89 93.70L454.06 93.87L453.99 93.81Q437.31 99.36 416.51 99.36L416.49 99.34L416.48 99.33Q408.63 99.23 400.67 98.41L400.77 98.50L400.67 98.41Q400.26 102.07 398.42 125.93L398.58 126.09L398.49 126.00Q403.00 123.58 414.01 122.76L413.96 122.71L413.91 122.66Q434.09 124.07 441.84 133.05L441.82 133.03L441.67 132.88Q449.12 141.15 450.55 161.75L450.48 161.67L450.59 161.79Q452.02 184.22 445.49 195.03L445.34 194.87L445.47 195.01Q434.62 205.16 416.87 206.38L416.83 206.34L416.92 206.43Q411.42 206.64 397.15 207.46ZM429.56 219.68L429.44 219.56L429.58 219.70Q447.91 220.09 458.11 214.17L458.15 214.21L458.07 214.14Q463.38 205.99 463.38 194.77L463.44 194.82L463.38 194.77Q463.41 178.28 458.31 156.25L458.17 156.11L458.23 156.17Q456.28 146.88 449.75 139.33L449.67 139.25L449.97 139.75L448.68 138.05L446.90 137.09L446.76 136.95Q445.18 133.13 441.71 129.45L441.67 129.41L441.72 129.67L441.66 129.60Q433.68 120.81 413.90 120.81L413.75 120.66L412.44 120.78L412.38 120.72Q412.82 117.69 413.84 111.78L413.81 111.75L413.74 111.68Q440.48 112.32 462.10 103.55L462.13 103.58L462.12 103.57Q464.35 96.00 469.44 80.91L469.40 80.87L458.29 86.07L458.25 86.04Q460.27 79.90 462.93 73.78L462.86 73.71L462.94 73.80Q442.45 81.65 420.42 82.06L420.27 81.90L420.40 82.03Q398.21 82.48 377.00 76.57L377.19 76.76L377.16 76.73Q380.82 100.37 380.82 124.03L380.74 123.95L380.71 123.93Q380.73 134.15 380.12 144.34L380.19 144.41L380.20 144.42Q381.49 145.30 384.55 146.93L384.73 147.12L384.56 146.94Q386.47 145.79 389.93 143.96L389.98 144.00L389.99 144.01Q389.70 148.00 388.47 156.16L388.46 156.14L388.58 156.27Q390.84 157.30 393.08 158.52L392.90 158.35L392.96 158.40Q407.86 149.04 417.86 149.04L417.80 148.99L417.90 149.08Q425.02 149.06 431.34 152.53L431.44 152.63L431.29 152.47Q433.13 157.99 433.33 163.09L433.41 163.17L433.29 163.05Q433.78 177.00 428.28 182.91L428.33 182.97L428.20 182.84Q421.01 189.52 408.98 190.74L408.95 190.71L408.88 190.63Q403.84 191.11 400.17 190.70L400.12 190.65L400.09 190.62Q395.62 190.02 391.54 188.19L391.57 188.22L391.42 187.05L390.74 187.59L390.76 187.62Q386.46 184.95 383.61 177.81L383.70 177.90L383.68 177.88Q376.40 185.29 367.43 196.71L367.58 196.86L367.55 196.82Q369.13 200.24 373.62 205.34L373.72 205.45L373.58 205.31Q379.26 215.06 394.35 217.71L394.53 217.89L394.33 217.70Q400.71 218.97 429.47 219.59Z"/><path fill="#5698db" d="M238.42 160.42L238.57 160.58L238.41 160.42Q256.10 167.50 276.29 167.50L276.14 167.35L276.24 167.45Q284.70 167.35 293.06 166.12L293.16 166.22L293.10 166.16Q290.62 168.58 287.15 174.90L287.31 175.05L287.24 174.98Q290.53 175.62 294.20 174.40L294.10 174.30L294.15 174.35Q292.05 178.57 292.05 182.86L292.20 183.00L292.09 182.89Q292.19 186.87 293.62 190.74L293.51 190.64L293.61 190.73Q286.00 189.44 276.41 189.65L276.45 189.69L276.45 189.68Q267.11 189.72 259.56 191.15L259.53 191.13L259.54 191.13Q261.73 186.79 261.11 181.49L261.12 181.50L261.21 181.58Q259.67 181.68 258.45 181.47L258.45 181.48L258.56 181.59Q257.29 181.13 255.65 181.13L255.53 181.00L255.59 181.06Q254.86 171.97 238.54 160.55ZM256.51 179.12L256.42 179.04L256.49 179.11Q264.62 180.10 270.73 179.89L270.77 179.93L270.61 179.76Q284.92 179.59 284.92 179.59L284.99 179.66L285.03 179.71Q285.42 173.98 289.30 168.47L289.29 168.47L289.21 168.38Q283.05 169.16 276.73 169.16L276.84 169.27L276.72 169.16Q260.20 169.16 244.70 164.06L244.80 164.16L244.85 164.20Q254.30 170.80 256.34 178.96ZM254.52 183.05L254.50 183.03L254.65 183.18Q256.35 182.84 260.02 183.04L260.07 183.09L260.02 183.04Q259.68 189.03 256.83 193.11L256.93 193.22L256.92 193.20Q264.90 192.01 264.09 192.01L264.23 192.15L264.25 192.17Q261.18 197.25 257.10 201.33L257.13 201.36L257.02 201.25Q267.81 199.40 278.21 199.40L278.27 199.46L278.22 199.41Q302.91 199.43 324.94 208.60L324.92 208.59L311.82 201.19L311.90 201.27Q298.77 192.83 298.77 181.00L298.79 181.03L298.89 181.12Q297.72 181.59 296.29 181.59L296.12 181.42L293.34 181.49L293.25 181.41Q293.73 176.99 296.79 171.89L296.81 171.91L296.74 171.84Q294.60 172.35 289.50 173.37L289.50 173.37L289.45 173.31Q292.14 167.85 297.45 163.77L297.38 163.71L297.40 163.73Q286.95 165.52 276.14 165.52L276.17 165.54L276.20 165.57Q250.75 165.62 230.56 155.63L230.57 155.63L230.46 155.53Q254.02 169.71 254.63 183.17ZM259.39 177.32L259.58 177.50L257.99 177.35L258.04 177.39Q257.45 177.01 256.84 177.01L256.81 176.98L256.75 176.92Q255.87 174.00 253.83 171.75L253.79 171.72L249.58 166.89L249.58 166.89Q262.37 170.91 277.05 170.91L277.08 170.94L277.01 170.87Q281.61 170.98 286.30 170.58L286.24 170.52L285.39 172.32L284.53 173.70L284.51 173.68Q277.77 174.08 270.83 173.87L270.89 173.93L270.98 174.02Q263.68 173.65 256.74 172.22L256.85 172.33L256.87 172.35Q258.65 174.13 259.46 177.39Z"/><path d="M15 122 C251 150,236 220,482 23" stroke="#58bcde" fill="none"/><path fill="#e38ccd" d="M97.89 194.06L97.92 194.10L97.92 194.10Q99.62 199.46 102.47 210.27L102.44 210.24L102.37 210.17Q79.76 203.06 55.08 204.48L55.20 204.61L55.20 204.61Q30.62 205.93 9.21 216.53L9.24 216.57L9.25 216.57Q10.49 212.92 10.70 213.33L10.73 213.36L10.62 213.25Q30.65 192.09 51.66 168.43L51.66 168.43L51.71 168.49Q75.36 141.76 81.68 116.67L81.66 116.65L81.74 116.73Q84.14 107.30 77.31 100.98L77.33 101.01L77.28 100.95Q70.45 94.64 60.87 95.45L60.90 95.48L60.79 95.37Q59.06 95.27 57.22 95.27L57.22 95.28L57.15 95.21Q48.93 95.14 42.20 100.03L42.35 100.19L42.26 100.09Q35.26 107.37 36.48 121.64L36.57 121.73L36.55 121.71Q27.04 119.95 20.51 117.50L20.53 117.52L20.40 117.39Q19.42 109.89 19.01 102.14L18.95 102.07L19.08 102.21Q18.59 93.35 21.85 87.23L21.81 87.19L21.85 87.23Q31.43 79.88 49.37 79.88L49.35 79.85L58.75 79.88L58.81 79.94Q71.03 80.12 76.13 80.74L76.16 80.77L76.15 80.76Q99.42 83.02 100.85 96.07L100.80 96.02L100.90 96.12Q101.24 99.12 100.84 103.40L100.77 103.33L100.91 103.47Q100.66 106.90 99.85 110.57L99.87 110.59L99.83 110.55Q91.05 153.98 50.46 190.69L50.42 190.65L50.37 190.59Q57.91 189.78 65.25 189.78L65.29 189.81L65.32 189.84Q82.75 189.94 98.05 194.22ZM95.00 82.68L94.82 82.50L94.93 82.60Q86.39 79.17 77.21 78.76L77.10 78.65L58.73 77.61L58.71 77.59Q34.92 76.23 23.09 82.15L23.02 82.08L23.13 82.19Q17.45 89.56 17.45 100.57L17.45 100.57L17.49 100.61Q17.70 104.50 19.33 119.59L19.21 119.46L19.17 119.42Q22.11 120.73 28.43 122.36L28.42 122.35L28.32 127.76L28.41 127.85Q28.18 130.27 28.59 133.13L28.69 133.23L28.60 133.13Q35.28 133.70 48.54 134.93L48.63 135.02L48.64 135.03Q48.48 133.03 48.48 131.20L48.41 131.13L48.37 131.08Q48.46 121.39 54.99 114.15L54.86 114.02L54.85 114.01Q61.50 106.90 71.09 107.51L71.04 107.46L70.98 107.40Q75.11 107.65 79.19 108.47L79.21 108.49L79.28 108.56Q79.71 110.42 80.12 112.67L80.14 112.69L80.15 112.70Q80.38 114.97 79.97 116.80L79.95 116.78L79.97 116.80Q73.20 142.25 49.54 168.15L49.62 168.23L49.71 168.32Q38.21 180.27 9.04 212.70L9.10 212.76L8.97 212.62Q8.08 217.24 6.24 220.30L6.17 220.22L6.27 220.32Q14.75 215.55 22.91 212.69L22.90 212.69L22.85 212.63Q19.10 215.82 14.00 223.77L13.84 223.61L13.87 223.64Q13.32 225.54 12.71 227.38L12.69 227.35L12.67 227.33Q38.86 216.41 68.22 217.43L68.09 217.29L68.11 217.31Q98.58 218.21 123.05 230.85L122.98 230.78L117.67 219.36L117.77 219.45Q114.29 212.30 112.86 208.01L112.83 207.98L112.86 208.01Q108.99 205.78 102.47 203.54L102.48 203.55L102.52 203.59Q101.59 199.60 99.55 192.26L99.65 192.36L99.66 192.37Q87.76 189.24 75.53 188.22L75.50 188.20L75.53 188.22Q100.53 163.67 108.69 119.41L108.72 119.44L109.81 104.01L109.89 104.09Q109.38 94.41 102.86 90.74L102.96 90.84L102.68 90.77L102.71 90.80Q102.40 90.28 102.00 90.28L101.99 90.28L101.99 90.28Q100.89 85.92 94.98 82.66Z"/></svg>