<svg xmlns="http://www.w3.org/2000/svg" width="500" height="250" viewBox="0,0,500,250"><path d="M6 66 C263 182,245 170,483 198" stroke="#e55b7e" fill="none"/><path fill="#7feb9a" d="M298.91 116.43L298.91 116.43L298.86 116.38Q281.80 116.46 272.01 110.75L271.95 110.68L272.07 110.80Q285.45 103.38 311.55 80.74L311.51 80.70L311.48 80.67Q315.33 79.63 322.27 76.37L322.33 76.43L322.36 76.46Q315.14 108.19 314.53 142.25L314.65 142.37L314.65 142.37Q313.95 176.34 319.66 208.98L319.67 208.98L319.70 209.01Q310.82 205.23 299.40 204.61L299.40 204.62L299.25 204.47Q298.76 182.36 298.76 160.54L298.77 160.55L298.74 160.51Q298.64 138.40 298.85 116.37ZM296.81 128.40L296.90 206.61L296.80 206.50Q303.35 206.53 308.45 207.55L308.54 207.64L308.56 207.66Q308.84 211.20 309.86 218.54L310.02 218.71L309.88 218.56Q325.21 221.45 338.26 233.49L338.35 233.58L338.31 233.53Q325.08 195.43 324.88 155.45L324.77 155.35L324.78 155.36Q324.46 115.47 334.25 76.72L334.16 76.63L334.26 76.73Q331.41 78.98 322.84 84.89L322.70 84.75L322.71 84.76Q323.76 80.71 325.39 72.55L325.45 72.62L325.33 72.49Q318.36 76.74 310.61 78.78L310.44 78.61L310.62 78.79Q290.32 97.85 267.27 110.08L267.31 110.12L267.26 110.07Q274.88 116.06 287.52 117.89L287.51 117.88L287.59 117.96Q284.01 120.71 277.08 126.42L277.17 126.51L277.17 126.51Q284.96 128.38 296.79 128.38L296.87 128.47Z"/><path fill="#91e7e7" d="M343.81 207.48L343.67 207.34L343.71 207.38Q321.96 208.68 316.66 196.24L316.58 196.15L316.51 196.08Q320.75 191.15 329.11 181.56L329.06 181.51L329.04 181.49Q331.60 192.21 347.71 192.82L347.86 192.97L347.76 192.87Q365.97 193.33 374.74 186.20L374.80 186.26L374.69 186.15Q382.30 177.65 381.89 163.17L381.94 163.21L381.91 163.19Q381.12 136.08 355.42 137.31L355.33 137.22L355.38 137.27Q340.20 137.99 330.82 144.72L330.81 144.72L329.03 143.75L328.07 143.20L327.97 143.10Q329.89 126.26 329.28 111.58L329.18 111.48L329.26 111.56Q328.61 97.45 326.78 79.71L326.71 79.64L326.77 79.70Q346.30 84.75 366.70 84.14L366.84 84.28L366.73 84.17Q387.17 83.81 406.34 77.08L406.24 76.98L403.30 85.26L403.19 85.15Q401.69 89.36 400.67 93.84L400.59 93.76L400.70 93.88Q383.96 99.36 363.16 99.36L363.12 99.32L363.14 99.34Q355.41 99.36 347.46 98.55L347.49 98.58L347.33 98.42Q346.97 102.14 345.14 126.00L345.23 126.10L345.14 126.00Q349.71 123.64 360.72 122.82L360.60 122.71L360.64 122.74Q380.71 124.05 388.46 133.02L388.42 132.99L388.30 132.87Q395.74 141.12 397.17 161.72L397.10 161.65L397.08 161.63Q398.54 184.10 392.02 194.91L392.07 194.96L392.13 195.02Q381.24 205.14 363.50 206.36L363.45 206.32L363.44 206.30Q357.92 206.50 343.65 207.32ZM376.10 219.58L376.18 219.66L376.15 219.63Q394.50 220.03 404.70 214.12L404.66 214.08L404.66 214.08Q410.08 206.04 410.08 194.82L409.95 194.69L409.97 194.72Q409.94 178.16 404.84 156.13L404.87 156.16L404.95 156.24Q402.83 146.78 396.30 139.23L396.24 139.18L396.47 139.61L395.24 137.97L393.51 137.06L393.42 136.97Q391.85 133.15 388.38 129.48L388.38 129.47L388.30 129.60L388.38 129.68Q380.15 120.64 360.37 120.64L360.53 120.80L359.10 120.79L359.02 120.72Q359.39 117.62 360.41 111.71L360.48 111.78L360.38 111.67Q387.10 112.29 408.72 103.52L408.86 103.66L408.87 103.68Q410.97 95.99 416.07 80.90L416.06 80.88L404.89 86.03L404.96 86.10Q407.01 80.00 409.67 73.88L409.68 73.90L409.50 73.72Q389.03 81.59 367.00 82.00L366.92 81.92L367.03 82.03Q344.96 82.59 323.75 76.68L323.64 76.57L323.68 76.60Q327.37 100.29 327.37 123.95L327.38 123.95L327.42 124.00Q327.36 134.13 326.75 144.33L326.81 144.38L326.87 144.45Q328.29 145.46 331.35 147.09L331.28 147.02L331.38 147.12Q333.06 145.74 336.52 143.90L336.61 143.99L336.63 144.01Q336.40 148.06 335.18 156.22L335.25 156.30L335.22 156.27Q337.44 157.26 339.68 158.48L339.73 158.53L339.64 158.44Q354.55 149.09 364.55 149.09L364.57 149.11L364.59 149.13Q371.65 149.05 377.97 152.51L377.96 152.50L377.97 152.51Q379.89 158.11 380.10 163.21L380.05 163.16L379.96 163.07Q380.42 176.99 374.91 182.90L374.88 182.87L374.83 182.82Q367.53 189.39 355.50 190.61L355.63 190.74L355.61 190.73Q350.40 191.03 346.73 190.62L346.75 190.64L346.85 190.73Q342.32 190.08 338.24 188.24L338.31 188.32L337.96 186.94L337.30 187.51L337.39 187.60Q333.21 185.05 330.36 177.91L330.31 177.86L330.35 177.91Q323.11 185.35 314.13 196.77L314.18 196.81L314.24 196.88Q315.75 200.23 320.24 205.32L320.24 205.32L320.34 205.42Q326.04 215.21 341.14 217.86L340.99 217.71L341.07 217.79Q347.47 219.09 376.22 219.70Z"/><path fill="#f0bc88" d="M406.08 188.84L405.99 188.74L406.09 188.84Q412.20 193.73 419.74 192.92L419.64 192.82L419.82 192.99Q435.40 193.88 438.86 175.94L439.01 176.08L438.97 176.05Q442.14 159.02 442.14 140.87L442.21 140.94L442.23 127.10L442.09 126.96Q442.24 120.38 440.40 113.65L440.30 113.54L440.41 113.65Q433.91 126.12 423.30 151.61L423.22 151.52L423.12 151.43Q412.68 177.09 406.16 188.91ZM432.96 100.49L432.94 100.47L432.91 100.44Q426.89 96.26 419.75 96.26L419.64 96.15L419.69 96.20Q411.88 95.52 405.97 100.42L405.91 100.36L405.83 100.29Q400.03 105.29 399.01 113.25L398.91 113.15L398.86 113.09Q397.04 120.45 396.84 128.41L396.97 128.54L396.85 128.42Q396.94 128.51 396.94 143.81L396.94 143.80L396.94 143.81Q396.82 156.33 399.27 175.70L399.25 175.69L399.31 175.74Q409.60 150.34 433.05 100.58ZM441.31 201.23L441.41 201.33L441.27 201.18Q431.90 206.09 419.45 206.09L419.45 206.08L410.73 206.13L410.69 206.09Q393.42 206.16 387.31 196.98L387.23 196.91L387.26 196.94Q383.13 185.47 382.72 169.76L382.70 169.74L382.64 169.68Q382.44 160.30 382.03 141.75L382.10 141.81L381.94 141.65Q381.82 135.21 381.00 118.89L381.08 118.97L381.07 118.96Q380.59 106.65 382.22 96.04L382.15 95.98L382.14 95.97Q384.94 80.41 408.19 79.19L408.20 79.20L408.02 79.02Q412.16 78.87 419.29 79.07L419.26 79.04L419.36 79.14Q449.71 79.92 455.42 98.48L455.43 98.48L455.52 98.57Q458.69 108.68 458.49 118.68L458.57 118.76L458.57 118.76Q458.17 145.48 457.76 152.01L457.77 152.02L457.63 151.88Q456.56 172.22 454.93 179.15L454.98 179.21L455.10 179.32Q451.54 195.96 441.34 201.26ZM467.94 200.12L467.85 200.03L467.85 200.03Q469.16 185.23 468.96 175.64L468.91 175.60L468.38 150.80L468.57 150.99Q468.09 134.80 465.23 105.23L465.21 105.21L465.15 105.15Q462.41 95.48 455.48 91.40L455.51 91.43L455.45 91.37Q447.13 77.75 419.39 76.93L419.34 76.88L419.27 76.80Q414.71 76.73 407.57 76.94L407.48 76.84L407.53 76.90Q383.20 77.25 380.55 93.97L380.61 94.02L380.56 93.98Q378.59 106.49 379.20 117.70L379.16 117.66L379.21 117.71Q380.90 141.02 380.70 158.97L380.81 159.08L380.82 159.09Q380.61 178.86 381.22 184.37L381.26 184.41L381.26 184.41Q383.25 200.89 391.41 205.17L391.34 205.10L391.44 205.20Q399.31 216.94 420.73 218.37L420.72 218.37L420.70 218.34Q439.91 219.61 443.37 219.40L443.30 219.33L443.37 219.40Q458.64 218.55 464.75 209.99L464.78 210.01L464.72 209.95Q467.50 206.41 467.90 200.08ZM421.84 190.94L421.75 190.85L421.72 190.82Q425.54 183.21 431.25 168.73L431.14 168.63L440.28 145.95L440.44 146.10Q440.17 154.81 438.13 172.76L438.14 172.76L438.17 172.80Q434.54 188.14 421.70 190.79ZM411.14 124.96L411.14 124.96L411.11 124.93Q413.53 115.32 417.20 112.26L417.39 112.45L417.37 112.43Q419.75 110.13 426.69 109.11L426.70 109.12L426.71 109.13Q417.54 128.71 407.54 153.59L407.47 153.52L407.50 153.55Q407.46 139.03 411.13 124.96Z"/><path fill="#77e377" d="M157.13 188.89L156.99 188.75L157.09 188.85Q163.12 193.65 170.66 192.83L170.81 192.98L170.75 192.93Q186.48 193.97 189.95 176.02L189.86 175.93L190.00 176.07Q193.13 159.02 193.13 140.87L193.15 140.88L193.21 127.07L193.08 126.95Q193.15 120.29 191.32 113.56L191.41 113.65L191.35 113.59Q184.74 125.95 174.14 151.44L174.19 151.49L174.28 151.59Q163.60 177.00 157.07 188.83ZM184.02 100.55L184.09 100.62L184.06 100.59Q177.81 96.17 170.67 96.17L170.77 96.27L170.67 96.17Q162.87 95.51 156.95 100.40L156.84 100.29L156.93 100.38Q151.01 105.27 149.99 113.22L149.92 113.15L150.02 113.25Q148.14 120.55 147.94 128.50L147.95 128.52L147.96 128.53Q147.95 128.52 147.95 143.81L147.98 143.85L147.88 143.74Q147.93 156.44 150.38 175.81L150.34 175.78L150.38 175.82Q160.47 150.21 183.92 100.45ZM192.44 201.35L192.38 201.30L192.28 201.19Q182.91 206.10 170.47 206.10L170.58 206.21L161.78 206.19L161.81 206.21Q144.48 206.22 138.37 197.04L138.31 196.99L138.39 197.07Q133.99 185.33 133.58 169.63L133.54 169.58L133.61 169.65Q133.42 160.28 133.01 141.73L133.05 141.76L133.00 141.71Q132.73 135.12 131.92 118.81L132.03 118.92L132.09 118.98Q131.55 106.61 133.18 96.01L133.14 95.96L133.30 96.12Q135.93 80.40 159.18 79.17L159.13 79.13L159.02 79.01Q163.29 79.00 170.42 79.20L170.41 79.19L170.28 79.06Q200.73 79.94 206.44 98.50L206.52 98.57L206.49 98.55Q209.77 108.76 209.57 118.76L209.47 118.66L209.41 118.59Q209.15 145.46 208.74 151.99L208.75 151.99L208.58 151.83Q207.65 172.31 206.01 179.24L206.05 179.28L206.11 179.33Q202.49 195.90 192.29 201.21ZM218.78 199.96L218.91 200.09L218.93 200.11Q220.08 185.15 219.87 175.56L219.85 175.53L219.49 150.91L219.42 150.83Q219.04 134.75 216.18 105.18L216.20 105.20L216.13 105.13Q213.45 95.52 206.52 91.44L206.37 91.29L206.41 91.33Q198.07 77.68 170.33 76.87L170.34 76.88L170.29 76.82Q165.69 76.71 158.55 76.92L158.52 76.88L158.52 76.88Q134.15 77.19 131.50 93.92L131.66 94.08L131.65 94.06Q129.52 106.42 130.14 117.64L130.22 117.73L130.24 117.75Q131.90 141.02 131.70 158.97L131.73 159.00L131.70 158.97Q131.54 178.80 132.15 184.30L132.23 184.39L132.27 184.42Q134.16 200.79 142.32 205.07L142.43 205.19L142.31 205.07Q150.31 216.94 171.72 218.37L171.74 218.38L171.72 218.36Q190.90 219.60 194.37 219.40L194.49 219.52L194.38 219.41Q209.76 218.68 215.88 210.12L215.81 210.04L215.86 210.09Q218.54 206.45 218.95 200.13ZM172.82 190.91L172.79 190.88L172.69 190.79Q176.54 183.22 182.25 168.74L182.22 168.71L191.31 145.97L191.35 146.02Q191.13 154.77 189.09 172.72L189.16 172.79L189.01 172.64Q185.62 188.21 172.77 190.86ZM162.12 124.95L162.10 124.92L162.09 124.92Q164.55 115.34 168.22 112.28L168.21 112.27L168.29 112.36Q170.76 110.13 177.70 109.11L177.72 109.13L177.61 109.03Q168.40 128.57 158.40 153.45L158.47 153.52L158.56 153.61Q158.53 139.10 162.20 125.02Z"/><path d="M13 31 C260 149,252 148,492 55" stroke="#52da96" fill="none"/><path fill="#dede6c" d="M49.86 116.38L49.88 116.40L49.95 116.47Q32.71 116.36 22.92 110.65L22.96 110.69L23.09 110.82Q36.36 103.29 62.46 80.65L62.46 80.65L62.51 80.69Q66.41 79.70 73.34 76.44L73.42 76.51L73.34 76.44Q66.29 108.33 65.67 142.39L65.70 142.42L65.70 142.42Q64.97 176.36 70.68 208.99L70.79 209.11L70.71 209.02Q61.70 205.11 50.28 204.50L50.35 204.57L50.30 204.51Q49.80 182.40 49.80 160.58L49.75 160.53L49.79 160.57Q49.65 138.41 49.86 116.38ZM47.89 128.48L47.87 206.58L47.85 206.56Q54.36 206.54 59.46 207.56L59.40 207.50L59.58 207.68Q59.99 211.35 61.01 218.69L60.92 218.61L60.87 218.56Q76.16 221.41 89.21 233.44L89.24 233.46L89.36 233.59Q75.99 195.33 75.78 155.36L75.80 155.38L75.72 155.29Q75.48 115.49 85.27 76.75L85.10 76.58L85.17 76.64Q82.34 78.91 73.77 84.82L73.76 84.81L73.84 84.89Q74.74 80.69 76.37 72.53L76.35 72.52L76.38 72.55Q69.34 76.72 61.59 78.76L61.49 78.66L61.57 78.74Q41.28 97.81 18.23 110.04L18.20 110.02L18.33 110.14Q25.81 115.99 38.45 117.82L38.39 117.76L38.50 117.87Q35.07 120.76 28.14 126.47L28.06 126.40L28.13 126.47Q36.11 128.54 47.94 128.54L47.92 128.51Z"/><path d="M12 81 C262 134,255 128,495 86" stroke="#8cd1e8" fill="none"/><path d="M11 182 C232 87,264 181,494 203" stroke="#f28cd8" fill="none"/><path fill="#ad79e0" d="M108.44 146.98L108.44 146.98L108.56 147.09Q98.80 146.51 92.17 154.16L92.01 154.00L92.17 154.16Q85.37 161.64 84.35 171.83L84.49 171.98L84.50 171.98Q83.29 183.01 89.11 188.21L89.03 188.14L88.93 188.04Q94.87 193.37 106.09 192.76L105.95 192.61L106.11 192.77Q117.18 191.82 123.10 188.15L123.27 188.31L123.16 188.21Q129.23 182.25 129.23 173.89L129.29 173.95L129.20 173.85Q129.22 171.83 128.81 169.79L128.81 169.80L128.85 169.83Q129.30 160.90 123.39 153.66L123.38 153.66L123.29 153.56Q117.50 146.45 108.53 147.06ZM106.20 206.53L106.31 206.64L106.25 206.58Q82.81 206.60 75.27 202.52L75.27 202.52L75.26 202.51Q69.74 198.42 68.72 189.24L68.82 189.34L68.66 189.18Q68.50 185.56 68.71 181.68L68.65 181.62L68.70 181.67Q69.27 176.33 69.27 173.89L69.36 173.98L69.32 173.93Q71.82 158.69 72.64 155.02L72.58 154.96L72.55 154.93Q74.95 144.48 79.44 136.94L79.56 137.06L79.44 136.94Q93.71 113.49 125.53 79.43L125.63 79.53L125.72 79.62Q139.96 77.95 151.79 73.67L151.64 73.52L151.82 73.70Q114.97 113.53 97.84 136.17L97.85 136.18L97.89 136.22Q103.26 133.64 110.19 133.64L110.05 133.49L110.09 133.53Q127.83 133.53 135.99 143.93L135.94 143.88L136.05 143.99Q143.10 152.68 144.94 171.64L144.99 171.70L144.90 171.61Q145.37 175.54 145.37 178.81L145.33 178.77L145.49 178.93Q145.34 195.50 133.52 201.21L133.54 201.24L133.56 201.25Q127.02 204.51 106.22 206.55ZM118.48 219.42L118.52 219.46L118.54 219.48Q125.35 219.16 135.96 219.56L135.95 219.56L135.95 219.56Q144.75 220.00 153.11 216.12L153.21 216.22L153.24 216.25Q159.13 211.94 159.13 202.35L159.08 202.31L159.04 202.27Q159.09 199.66 158.17 194.36L158.06 194.25L158.09 194.28Q157.18 188.98 157.18 186.54L157.23 186.59L157.32 186.67Q152.55 161.31 143.99 151.12L143.90 151.03L144.03 151.16Q143.57 150.49 142.75 149.27L142.74 149.26L141.09 148.02L140.65 147.78L140.75 147.88Q138.92 145.23 135.66 140.13L135.53 140.00L135.54 140.01Q130.70 134.97 120.09 132.52L120.03 132.46L120.18 132.61Q126.60 123.94 142.51 104.16L142.65 104.30L165.20 75.86L165.21 75.87Q156.75 80.46 143.90 84.54L144.01 84.65L144.06 84.70Q148.82 79.26 158.40 68.66L158.48 68.74L158.41 68.66Q145.56 74.37 124.75 77.43L124.91 77.58L124.82 77.50Q94.27 109.15 78.36 135.66L78.24 135.54L78.32 135.61Q70.15 149.07 67.10 182.52L67.07 182.49L67.05 182.47Q66.60 185.49 67.01 190.59L67.02 190.60L67.07 190.65Q67.43 199.98 73.34 204.88L73.36 204.90L73.36 204.89Q75.38 205.69 75.18 205.89L75.16 205.88L75.18 205.90Q77.30 210.87 81.58 213.11L81.55 213.08L81.49 213.03Q89.33 216.78 99.73 217.80L99.71 217.78L99.72 217.79Q99.69 217.76 118.45 219.39ZM117.26 159.26L117.26 159.26L117.33 159.33Q120.27 158.60 125.36 161.25L125.43 161.32L125.40 161.29Q127.17 166.32 127.17 169.79L127.33 169.95L127.25 169.87Q128.25 179.84 123.15 185.14L123.09 185.08L123.20 185.19Q117.38 188.96 106.17 190.59L106.16 190.58L106.31 190.73Q98.40 190.58 95.55 189.15L95.72 189.32L95.69 189.29Q94.58 186.76 94.58 185.12L94.67 185.21L94.60 185.14Q93.46 167.69 109.16 160.75L109.18 160.77L109.14 160.73Q113.20 158.87 117.28 159.28Z"/><path fill="#b6e137" d="M202.95 160.52L202.93 160.50L202.90 160.47Q220.38 167.35 240.57 167.35L240.60 167.38L240.67 167.45Q249.18 167.40 257.54 166.17L257.47 166.10L257.50 166.13Q255.05 168.57 251.58 174.90L251.62 174.93L251.70 175.01Q254.91 175.58 258.58 174.35L258.53 174.30L258.53 174.30Q256.45 178.54 256.45 182.83L256.57 182.94L256.60 182.98Q256.46 186.71 257.88 190.58L257.89 190.59L257.94 190.63Q250.45 189.47 240.87 189.68L240.84 189.65L240.82 189.63Q231.49 189.68 223.95 191.11L223.84 191.00L223.82 190.98Q226.25 186.89 225.64 181.59L225.51 181.45L225.53 181.48Q224.14 181.71 222.91 181.51L222.94 181.54L222.83 181.42Q221.66 181.08 220.03 181.08L220.00 181.05L220.06 181.10Q219.13 171.82 202.82 160.40ZM220.88 179.07L220.92 179.11L220.92 179.11Q228.99 180.04 235.10 179.83L235.19 179.92L235.22 179.95Q249.35 179.60 249.35 179.60L249.50 179.75L249.34 179.59Q249.75 173.88 253.63 168.38L253.69 168.44L253.70 168.45Q247.55 169.23 241.23 169.23L241.18 169.19L241.26 169.26Q224.77 169.30 209.27 164.20L209.28 164.21L209.26 164.19Q218.73 170.80 220.77 178.96ZM219.00 183.11L219.09 183.19L218.98 183.08Q220.80 182.87 224.48 183.07L224.58 183.18L224.49 183.08Q224.10 189.02 221.25 193.10L221.29 193.14L221.29 193.14Q229.43 192.10 228.61 192.10L228.69 192.19L228.64 192.14Q225.54 197.18 221.46 201.26L221.52 201.32L221.47 201.28Q232.34 199.51 242.74 199.51L242.72 199.48L242.67 199.43Q267.41 199.50 289.44 208.67L289.29 208.53L276.39 201.34L276.35 201.29Q263.26 192.90 263.26 181.07L263.25 181.06L263.26 181.07Q262.03 181.47 260.60 181.47L260.59 181.46L257.74 181.46L257.84 181.56Q258.17 177.00 261.23 171.90L261.23 171.90L261.23 171.90Q259.02 172.34 253.92 173.36L253.97 173.41L253.90 173.34Q256.49 167.78 261.80 163.70L261.90 163.80L261.84 163.74Q251.48 165.62 240.67 165.62L240.63 165.58L240.70 165.64Q215.17 165.61 194.98 155.62L194.91 155.54L194.95 155.59Q218.37 169.63 218.98 183.09ZM223.87 177.37L223.94 177.44L222.49 177.41L222.55 177.47Q221.81 176.94 221.20 176.94L221.24 176.98L221.33 177.07Q220.15 173.86 218.12 171.61L218.14 171.64L213.84 166.72L213.82 166.71Q226.77 170.89 241.45 170.89L241.54 170.98L241.44 170.87Q246.02 170.97 250.72 170.56L250.62 170.46L249.86 172.35L249.05 173.79L249.08 173.82Q242.22 174.10 235.28 173.89L235.25 173.86L235.33 173.94Q228.17 173.71 221.24 172.29L221.35 172.40L221.21 172.26Q223.15 174.20 223.97 177.47Z"/></svg>