<svg xmlns="http://www.w3.org/2000/svg" width="500" height="250" viewBox="0,0,500,250"><path fill="#e56fc8" d="M238.55 160.55L238.50 160.51L238.43 160.43Q255.97 167.37 276.16 167.37L276.22 167.44L276.13 167.34Q284.71 167.35 293.07 166.13L293.23 166.29L293.15 166.21Q290.73 168.68 287.26 175.00L287.23 174.97L287.14 174.88Q290.56 175.65 294.23 174.43L294.15 174.35L294.19 174.38Q292.21 178.73 292.21 183.01L292.13 182.93L292.18 182.98Q292.03 186.71 293.46 190.59L293.60 190.73L293.47 190.60Q286.05 189.50 276.46 189.70L276.33 189.57L276.40 189.64Q267.09 189.71 259.55 191.14L259.50 191.10L259.49 191.08Q261.77 186.84 261.16 181.53L261.10 181.47L261.12 181.49Q259.69 181.69 258.46 181.49L258.53 181.56L258.39 181.41Q257.23 181.07 255.60 181.07L255.68 181.15L255.56 181.03Q254.72 171.83 238.41 160.41ZM256.37 178.99L256.39 179.01L256.45 179.07Q264.59 180.07 270.71 179.87L270.63 179.79L270.76 179.91Q285.04 179.72 285.04 179.72L284.89 179.57L284.96 179.64Q285.35 173.91 289.23 168.40L289.25 168.43L289.18 168.36Q283.11 169.22 276.79 169.22L276.86 169.29L276.90 169.34Q260.21 169.16 244.71 164.06L244.81 164.16L244.70 164.06Q254.48 170.98 256.52 179.14ZM254.54 183.07L254.60 183.13L254.63 183.16Q256.39 182.88 260.06 183.09L260.15 183.17L260.13 183.16Q259.72 189.06 256.86 193.14L256.82 193.10L256.77 193.05Q264.96 192.07 264.15 192.07L264.20 192.12L264.22 192.14Q261.10 197.18 257.02 201.26L257.07 201.31L257.03 201.27Q267.77 199.36 278.17 199.36L278.34 199.53L278.25 199.44Q302.88 199.39 324.90 208.57L324.91 208.57L311.90 201.27L311.99 201.36Q298.92 192.99 298.92 181.16L298.93 181.16L298.88 181.12Q297.63 181.50 296.21 181.50L296.24 181.53L293.29 181.44L293.40 181.56Q293.82 177.08 296.88 171.98L296.85 171.95L296.72 171.82Q294.52 172.27 289.42 173.29L289.47 173.34L289.52 173.39Q292.20 167.91 297.50 163.83L297.41 163.74L297.50 163.83Q287.00 165.57 276.20 165.57L276.15 165.53L276.17 165.54Q250.68 165.55 230.49 155.55L230.53 155.60L230.60 155.66Q254.00 169.68 254.61 183.14ZM259.56 177.48L259.42 177.34L258.14 177.49L258.02 177.37Q257.42 176.98 256.81 176.98L256.78 176.95L256.86 177.03Q255.75 173.88 253.71 171.64L253.84 171.77L249.41 166.73L249.51 166.83Q262.43 170.97 277.11 170.97L277.12 170.98L277.00 170.86Q281.58 170.96 286.27 170.55L286.26 170.54L285.39 172.32L284.66 173.83L284.56 173.73Q277.89 174.20 270.96 174.00L270.92 173.96L270.85 173.89Q263.79 173.77 256.86 172.34L256.83 172.31L256.87 172.35Q258.62 174.10 259.44 177.36Z"/><path d="M6 105 C237 177,237 110,480 51" stroke="#dddd78" fill="none"/><path fill="#a089e6" d="M198.05 96.16L198.15 96.27L189.86 96.95L189.83 96.91Q177.77 97.50 176.54 108.31L176.49 108.25L176.51 108.27Q176.08 112.13 176.29 117.43L176.36 117.50L176.37 117.52Q176.43 127.77 183.16 134.91L183.33 135.08L183.18 134.92Q189.92 142.08 200.12 141.26L200.18 141.32L200.13 141.28Q211.22 140.53 215.30 135.64L215.18 135.52L215.19 135.53Q220.94 130.67 222.37 118.64L222.33 118.61L222.44 118.72Q223.86 106.67 217.13 102.19L217.18 102.24L217.16 102.22Q212.47 97.94 198.19 96.30ZM230.63 145.88L230.53 145.77L223.54 157.95L223.55 157.97Q209.14 183.73 188.95 205.55L188.95 205.55L188.91 205.51Q180.15 206.33 165.67 210.62L165.63 210.58L165.77 210.72Q194.31 177.06 211.24 151.36L211.09 151.22L211.27 151.39Q205.74 154.84 196.98 155.25L196.92 155.20L196.97 155.24Q180.70 155.90 172.54 145.30L172.68 145.44L172.70 145.45Q166.11 136.83 160.20 112.36L160.15 112.30L160.25 112.41Q160.20 109.91 159.39 104.91L159.41 104.94L159.48 105.01Q158.51 99.86 158.51 97.41L158.57 97.47L158.63 97.53Q158.65 87.97 164.36 84.70L164.31 84.66L164.34 84.68Q170.90 80.64 180.90 80.64L180.88 80.63L180.71 80.45Q198.03 80.64 198.03 80.64L197.98 80.59L197.89 80.50Q209.49 80.68 216.22 81.70L216.21 81.69L216.23 81.71Q227.64 83.13 232.54 85.78L232.67 85.92L232.51 85.75Q239.87 89.85 240.89 99.23L240.99 99.33L241.01 99.36Q240.89 100.45 239.87 114.73L239.97 114.83L239.96 114.82Q237.83 126.15 236.61 130.64L236.74 130.77L236.74 130.77Q234.71 138.32 230.63 145.87ZM240.81 158.70L240.72 158.61L240.84 158.73Q246.14 146.90 248.99 123.85L248.91 123.77L248.84 123.70Q250.43 112.04 250.23 107.35L250.06 107.18L250.12 107.24Q249.90 97.23 243.58 92.33L243.58 92.34L241.99 91.77L241.95 91.72Q240.50 87.62 235.60 84.16L235.70 84.25L235.71 84.26Q223.32 78.81 197.63 78.00L197.64 78.01L197.67 78.04Q192.56 78.02 179.50 78.02L179.54 78.06L179.51 78.03Q170.27 78.17 162.31 81.84L162.21 81.73L162.14 81.66Q156.14 86.07 156.55 95.86L156.57 95.87L156.62 95.93Q157.64 100.82 158.66 111.63L158.62 111.59L158.54 111.52Q161.86 125.64 163.29 130.13L163.35 130.19L163.35 130.19Q166.38 140.15 171.48 147.09L171.44 147.05L171.48 147.09Q172.82 148.84 174.86 150.88L174.88 150.90L174.80 150.82Q176.25 153.28 179.71 158.18L179.83 158.29L179.81 158.28Q187.75 165.61 198.16 166.63L198.21 166.68L198.21 166.68Q187.87 180.82 179.51 191.01L179.52 191.02L160.14 214.47L160.14 214.47Q172.33 210.55 181.10 208.71L180.91 208.52L180.91 208.52Q176.84 213.23 168.48 222.40L168.52 222.44L168.49 222.42Q185.09 217.60 201.81 217.40L201.71 217.29L201.77 217.35Q214.34 203.62 237.59 164.87L237.54 164.82L237.41 165.10L237.57 165.25Q238.98 161.36 240.82 158.71ZM208.51 109.07L208.57 109.13L208.60 109.16Q211.78 108.46 214.23 109.08L214.34 109.19L214.30 109.15Q217.81 109.80 219.85 110.41L219.83 110.40L219.69 110.25Q220.33 112.33 220.74 114.57L220.76 114.59L220.85 114.68Q221.26 116.92 220.64 118.96L220.47 118.79L220.49 118.81Q220.40 128.10 214.08 134.01L213.95 133.88L213.97 133.90Q208.89 139.43 200.12 139.22L200.13 139.23L200.16 139.26Q197.86 139.21 189.71 137.58L189.87 137.74L189.68 137.56Q188.47 132.87 188.47 129.00L188.52 129.05L188.54 129.07Q188.19 127.70 188.19 126.48L188.07 126.35L188.10 126.39Q188.19 114.65 200.43 110.37L200.35 110.29L200.43 110.37Q204.01 109.05 208.49 109.05Z"/><path fill="#dcdc55" d="M58.85 116.48L58.88 116.51L58.88 116.51Q41.66 116.42 31.87 110.71L31.88 110.72L31.81 110.65Q45.38 103.42 71.49 80.78L71.37 80.67L71.35 80.65Q75.23 79.63 82.16 76.37L82.17 76.38L82.18 76.39Q75.11 108.27 74.50 142.32L74.44 142.27L74.52 142.35Q73.81 176.31 79.52 208.94L79.57 208.99L79.70 209.12Q70.61 205.12 59.19 204.51L59.12 204.45L59.20 204.52Q58.55 182.26 58.55 160.43L58.63 160.51L58.53 160.42Q58.51 138.37 58.72 116.35ZM56.75 128.45L56.68 206.50L56.82 206.63Q63.32 206.61 68.42 207.63L68.39 207.60L68.31 207.52Q68.72 211.19 69.74 218.53L69.77 218.56L69.90 218.70Q85.09 221.44 98.14 233.47L98.17 233.51L98.11 233.44Q84.88 195.33 84.68 155.36L84.79 155.47L84.66 155.34Q84.34 115.46 94.13 76.71L94.01 76.59L94.16 76.74Q91.21 78.89 82.64 84.80L82.73 84.89L82.67 84.83Q83.71 80.76 85.34 72.61L85.35 72.62L85.40 72.67Q78.15 76.63 70.40 78.67L70.51 78.79L70.47 78.74Q50.21 97.84 27.16 110.08L27.17 110.09L27.23 110.15Q34.71 115.99 47.35 117.83L47.28 117.76L47.32 117.80Q43.89 120.69 36.96 126.40L36.90 126.34L37.02 126.47Q44.91 128.44 56.74 128.44L56.82 128.52Z"/><path d="M9 197 C237 153,233 21,482 93" stroke="#829be7" fill="none"/><path fill="#d54267" d="M410.82 147.00L410.91 147.09L410.94 147.12Q401.10 146.46 394.47 154.11L394.44 154.07L394.51 154.14Q387.88 161.79 386.86 171.98L386.73 171.85L386.71 171.84Q385.66 183.02 391.47 188.22L391.42 188.17L391.29 188.04Q397.17 193.31 408.39 192.70L408.40 192.70L408.40 192.71Q419.67 191.94 425.58 188.27L425.59 188.28L425.45 188.14Q431.71 182.36 431.71 174.00L431.56 173.86L431.71 174.01Q431.70 171.96 431.29 169.92L431.23 169.86L431.31 169.93Q431.59 160.84 425.68 153.60L425.79 153.71L425.70 153.62Q419.91 146.50 410.94 147.11ZM408.64 206.61L408.64 206.61L408.67 206.64Q385.09 206.52 377.55 202.44L377.55 202.44L377.62 202.51Q372.05 198.37 371.03 189.20L371.04 189.20L371.16 189.33Q370.81 185.50 371.01 181.63L371.03 181.65L371.16 181.78Q371.62 176.32 371.62 173.87L371.60 173.86L371.60 173.86Q374.11 158.62 374.92 154.95L374.91 154.94L375.02 155.05Q377.32 144.49 381.80 136.95L381.83 136.98L381.80 136.94Q396.26 113.67 428.07 79.61L427.93 79.47L428.05 79.59Q442.18 77.82 454.01 73.54L454.03 73.55L454.16 73.69Q417.34 113.54 400.21 136.18L400.21 136.19L400.15 136.13Q405.56 133.58 412.50 133.58L412.57 133.66L412.49 133.57Q430.16 133.51 438.32 143.91L438.43 144.02L438.32 143.90Q445.45 152.67 447.29 171.64L447.32 171.67L447.45 171.80Q447.71 175.53 447.71 178.79L447.70 178.78L447.71 178.79Q447.81 195.61 435.98 201.32L435.86 201.21L435.99 201.34Q429.50 204.63 408.69 206.67ZM420.90 219.49L420.75 219.33L420.92 219.51Q427.69 219.14 438.30 219.55L438.32 219.57L438.30 219.55Q447.11 220.00 455.48 216.13L455.52 216.17L455.50 216.16Q461.51 211.96 461.51 202.38L461.35 202.22L461.39 202.26Q461.36 199.58 460.45 194.28L460.58 194.42L460.42 194.25Q459.60 189.05 459.60 186.60L459.61 186.61L459.51 186.52Q454.99 161.39 446.42 151.19L446.40 151.17L446.29 151.06Q445.96 150.53 445.14 149.30L445.14 149.30L443.58 148.15L443.11 147.88L442.99 147.76Q441.32 145.28 438.06 140.18L438.02 140.14L437.91 140.03Q433.10 135.01 422.49 132.56L422.52 132.60L422.38 132.46Q429.05 124.03 444.96 104.25L444.85 104.14L467.64 75.95L467.45 75.76Q459.23 80.59 446.38 84.67L446.41 84.70L446.24 84.53Q451.24 79.33 460.83 68.73L460.73 68.63L460.86 68.76Q447.91 74.37 427.11 77.42L427.26 77.57L427.11 77.43Q396.49 109.01 380.59 135.53L380.57 135.51L380.63 135.57Q372.47 149.03 369.41 182.47L369.52 182.58L369.51 182.57Q369.07 185.60 369.47 190.70L369.54 190.76L369.38 190.60Q369.91 200.10 375.82 205.00L375.79 204.97L375.79 204.97Q377.88 205.83 377.67 206.03L377.60 205.96L377.64 206.00Q379.74 210.95 384.02 213.20L383.95 213.12L383.88 213.06Q391.70 216.79 402.10 217.81L402.00 217.71L402.05 217.77Q402.13 217.84 420.89 219.47ZM419.58 159.23L419.58 159.22L419.68 159.32Q422.60 158.58 427.70 161.23L427.78 161.31L427.68 161.21Q429.56 166.35 429.56 169.82L429.59 169.84L429.63 169.89Q430.72 179.96 425.63 185.26L425.56 185.20L425.61 185.24Q419.82 189.03 408.60 190.67L408.67 190.73L408.67 190.74Q400.83 190.65 397.98 189.22L398.04 189.28L398.06 189.31Q397.03 186.85 397.03 185.21L397.05 185.24L397.06 185.25Q395.80 167.67 411.50 160.73L411.46 160.70L411.49 160.72Q415.48 158.79 419.56 159.20Z"/><path d="M18 233 C231 9,246 156,496 174" stroke="#ddbe64" fill="none"/><path d="M6 78 C232 223,239 234,488 44" stroke="#cf8fe4" fill="none"/><path fill="#68aaed" d="M126.74 147.49L126.73 147.48L126.73 147.48Q116.62 147.36 110.09 154.50L110.14 154.55L110.15 154.55Q103.54 161.61 102.72 171.81L102.77 171.86L102.90 171.99Q101.87 183.40 108.40 188.80L108.40 188.80L108.27 188.68Q114.88 194.16 126.30 193.76L126.21 193.66L126.37 193.82Q138.80 192.99 143.89 187.89L143.81 187.80L143.81 187.81Q149.35 180.09 148.74 170.30L148.75 170.31L148.72 170.28Q148.03 160.22 142.22 153.79L142.29 153.86L142.25 153.82Q136.38 147.34 126.59 147.34ZM126.53 96.91L126.56 96.94L126.48 96.85Q118.88 96.19 111.74 98.84L111.79 98.89L111.81 98.91Q104.90 103.21 106.12 113.21L106.10 113.19L106.12 113.21Q108.82 133.25 126.77 133.25L126.65 133.12L126.61 133.08Q134.97 134.10 140.27 127.98L140.39 128.10L140.43 128.14Q145.72 122.01 145.93 113.65L145.87 113.60L145.95 113.67Q146.27 104.20 142.39 100.94L142.29 100.84L142.34 100.88Q133.50 96.54 126.57 96.94ZM125.10 207.03L125.00 206.93L108.69 206.94L108.66 206.91Q100.48 206.89 93.34 202.20L93.46 202.32L93.42 202.27Q86.19 196.26 87.00 180.97L87.01 180.98L86.82 180.79Q89.45 144.26 108.83 138.96L108.67 138.80L108.79 138.92Q96.57 134.05 89.44 105.29L89.45 105.31L89.34 105.20Q87.47 97.62 87.88 93.34L88.01 93.47L87.88 93.33Q89.51 81.91 109.29 81.71L109.27 81.68L109.28 81.69Q132.01 81.38 139.76 82.40L139.69 82.33L139.77 82.41Q160.40 85.30 162.85 96.11L162.83 96.09L162.73 95.98Q163.47 99.38 163.47 101.42L163.36 101.31L163.40 101.35Q163.31 104.93 162.29 108.19L162.30 108.20L162.44 108.34Q159.17 130.97 143.47 139.13L143.42 139.08L143.42 139.09Q162.22 143.40 164.87 171.75L164.92 171.80L164.84 171.72Q164.91 172.60 165.11 179.54L165.11 179.54L164.94 179.37Q165.52 194.22 156.95 199.93L156.81 199.79L156.95 199.92Q149.45 204.46 124.98 206.91ZM137.32 219.45L137.21 219.34L155.26 219.86L155.25 219.85Q164.44 220.27 172.60 216.39L172.55 216.35L172.58 216.38Q178.67 212.47 179.08 202.48L179.08 202.48L179.14 202.54Q179.33 196.61 177.29 186.21L177.29 186.21L177.35 186.27Q172.30 161.24 161.09 151.25L161.12 151.28L160.03 149.17L159.18 147.91L158.22 146.34L158.37 146.49Q166.99 139.00 171.88 116.77L171.89 116.77L171.95 116.84Q171.97 114.82 172.38 110.33L172.31 110.26L172.45 110.40Q172.85 106.72 172.44 103.46L172.41 103.43L172.43 103.45Q171.62 95.70 165.30 93.05L165.14 92.89L165.48 93.03L164.37 92.33L164.47 92.43Q162.89 88.40 156.57 84.12L156.75 84.30L156.93 84.27L156.95 84.29Q146.17 80.45 124.35 79.43L124.50 79.58L124.40 79.48Q116.13 78.96 108.79 79.57L108.83 79.62L108.66 79.44Q104.42 79.69 97.48 80.50L97.57 80.59L97.49 80.51Q87.16 82.62 85.94 91.39L85.99 91.45L85.99 91.44Q85.69 94.00 85.90 98.29L85.91 98.30L85.97 98.36Q86.52 101.15 89.58 113.79L89.61 113.83L89.58 113.80Q93.82 131.09 103.21 138.23L103.26 138.29L103.57 138.59L103.64 138.67Q88.80 145.64 85.94 173.38L85.91 173.34L85.86 173.30Q84.91 185.20 84.91 190.10L84.79 189.98L84.79 189.98Q85.26 199.62 91.59 204.52L91.57 204.50L91.58 204.52Q92.24 204.97 93.67 205.99L93.69 206.01L93.71 206.03Q99.24 218.29 137.38 219.52ZM135.48 160.11L135.53 160.15L135.50 160.13Q140.34 159.66 145.03 162.11L145.01 162.09L145.01 162.09Q147.00 167.34 146.79 170.20L146.79 170.19L146.96 170.36Q146.99 171.82 146.99 173.45L147.15 173.61L147.15 173.61Q147.14 186.25 134.91 190.74L134.89 190.72L134.75 190.57Q130.64 192.38 126.36 191.77L126.26 191.67L126.29 191.70Q120.36 192.29 114.24 189.85L114.26 189.87L114.26 189.87Q112.91 186.48 113.32 181.18L113.14 181.00L113.17 181.03Q114.05 172.53 120.47 166.00L120.47 166.00L120.37 165.89Q126.89 159.47 135.46 160.08ZM136.60 109.22L136.74 109.36L136.69 109.31Q141.04 108.77 143.90 109.58L143.85 109.53L143.79 113.76L143.83 113.80Q143.75 121.26 138.86 126.67L138.99 126.80L138.85 126.67Q134.08 132.19 126.74 131.17L126.71 131.15L126.71 131.15Q121.34 131.08 119.10 129.85L119.13 129.88L119.06 129.82Q118.86 128.39 118.24 124.72L118.31 124.79L118.40 124.87Q116.92 117.28 123.45 112.79L123.43 112.77L123.51 112.86Q129.09 109.05 136.64 109.26Z"/><path fill="#d0ea84" d="M322.38 207.10L322.44 207.16L322.47 207.18Q314.95 207.63 306.59 205.38L306.48 205.27L306.52 205.30Q299.94 200.36 299.13 191.60L299.26 191.73L299.18 191.65Q299.09 190.74 300.11 176.67L299.95 176.51L300.01 176.57Q305.62 175.66 316.43 173.62L316.41 173.60L315.25 177.53L315.28 177.56Q313.92 187.01 321.46 190.07L321.44 190.05L321.52 190.12Q325.79 191.95 337.00 191.95L336.93 191.87L337.00 191.94Q345.58 191.15 346.60 190.74L346.46 190.59L346.49 190.62Q351.35 189.77 355.22 187.12L355.31 187.20L355.33 187.23Q362.92 182.17 361.90 170.95L361.92 170.98L361.86 170.92Q360.75 157.78 351.47 149.41L351.54 149.48L351.59 149.53Q342.26 141.12 329.01 141.12L329.05 141.16L328.94 139.83L328.98 139.87Q330.99 139.64 335.68 139.23L335.81 139.36L335.73 139.28Q345.84 138.58 353.18 131.95L353.19 131.96L353.25 132.02Q360.54 125.34 361.36 115.35L361.36 115.35L361.34 115.33Q361.93 113.67 361.93 111.84L361.79 111.70L361.82 111.73Q361.78 103.54 354.44 98.64L354.53 98.73L354.44 98.64Q348.01 94.45 339.44 95.06L339.38 95.00L339.40 95.02Q332.37 94.11 325.85 96.36L325.96 96.47L325.98 96.49Q318.16 99.27 316.53 105.39L316.57 105.43L316.52 105.38Q315.52 109.48 315.93 113.56L315.90 113.54L316.00 113.64Q310.45 112.37 299.44 108.50L299.36 108.42L299.46 108.52Q298.11 99.41 298.31 94.93L298.43 95.04L298.33 94.94Q298.96 86.81 304.67 83.14L304.73 83.19L304.63 83.10Q312.26 79.91 320.82 79.91L320.91 79.99L320.90 79.99Q337.83 79.79 354.76 81.22L354.70 81.16L354.62 81.08Q381.76 83.33 380.12 103.52L380.27 103.66L380.28 103.68Q379.81 111.57 377.16 119.93L377.08 119.86L377.08 119.85Q372.24 136.43 359.60 141.33L359.56 141.29L359.60 141.32Q373.57 144.08 376.83 162.03L377.01 162.20L376.95 162.15Q378.05 168.14 378.46 178.95L378.65 179.14L378.63 179.12Q379.29 202.83 354.62 205.28L354.75 205.41L354.66 205.32Q350.75 205.69 322.41 207.12ZM350.43 219.24L350.35 219.16L350.41 219.22Q353.70 219.45 368.99 219.85L368.88 219.74L369.00 219.87Q378.33 220.22 387.10 216.76L387.10 216.76L387.04 216.69Q393.48 211.71 392.46 202.33L392.40 202.27L392.45 202.32Q391.74 195.09 390.11 185.70L390.25 185.84L390.12 185.71Q386.36 161.76 375.96 152.99L375.88 152.91L374.86 150.87L374.68 150.49L374.66 150.47Q384.02 142.70 388.10 119.25L388.15 119.30L388.19 119.34Q388.25 116.74 388.86 111.65L388.92 111.71L388.91 111.69Q389.36 107.66 388.96 103.99L389.00 104.04L389.04 104.07Q388.16 95.04 381.23 91.37L381.29 91.43L380.78 91.33L380.77 91.32Q379.12 86.00 373.01 83.15L373.04 83.18L372.99 83.13Q364.80 79.43 337.27 77.80L337.27 77.80L337.34 77.87Q328.44 77.54 319.88 77.54L319.87 77.53L319.87 77.53Q311.23 77.46 303.08 80.93L303.13 80.99L303.14 81.00Q296.52 84.97 296.52 94.36L296.65 94.49L296.61 94.45Q296.62 92.21 298.05 110.16L297.93 110.04L298.01 110.12Q299.60 110.49 308.37 113.76L308.44 113.83L308.48 113.86Q308.49 116.73 308.29 119.38L308.17 119.26L308.21 119.30Q308.12 121.87 308.33 124.72L308.44 124.84L308.44 124.84Q317.89 126.75 328.70 127.36L328.79 127.45L328.72 127.37Q328.41 116.66 334.32 112.17L334.34 112.19L334.29 112.15Q338.85 108.74 349.65 107.52L349.55 107.41L349.68 107.55Q355.74 107.49 358.80 108.51L358.69 108.40L358.87 108.58Q358.88 108.99 359.08 109.60L359.12 109.65L359.22 110.76L359.74 113.73L359.87 113.86Q359.80 114.81 359.59 115.62L359.68 115.71L359.65 115.68Q359.23 124.85 351.07 131.17L351.08 131.18L351.06 131.15Q346.10 135.98 335.29 137.00L335.26 136.97L335.30 137.01Q331.47 137.88 326.78 137.88L326.79 137.88L326.78 137.88Q327.04 139.77 327.86 143.44L327.68 143.26L327.75 143.33Q337.11 143.31 344.86 147.19L344.96 147.28L344.20 147.14L335.95 148.26L335.83 148.15Q336.05 150.00 336.66 153.26L336.82 153.42L336.71 153.32Q348.24 153.01 357.41 160.15L357.34 160.07L357.27 160.00Q358.63 162.18 360.27 170.95L360.25 170.94L360.23 170.92Q361.25 186.62 345.55 188.86L345.52 188.84L345.43 188.74Q334.32 190.28 331.26 190.07L331.25 190.06L331.30 190.11Q328.80 189.46 325.95 189.05L325.91 189.01L325.98 186.63L326.51 184.10L326.78 182.13L326.88 180.40L326.95 180.47Q321.87 180.89 317.59 181.91L317.52 181.84L317.60 181.93Q317.28 180.59 317.28 179.57L317.28 179.57L317.46 179.75Q317.52 178.58 317.52 177.36L317.60 177.43L317.49 177.32Q317.87 175.26 318.68 171.38L318.59 171.29L318.65 171.35Q308.67 172.59 298.68 174.42L298.67 174.41L298.70 174.45Q298.51 176.91 297.90 182.92L298.08 183.10L297.96 182.99Q297.29 188.94 297.29 192.21L297.48 192.39L297.30 192.21Q297.88 203.40 305.22 207.48L305.04 207.29L305.16 207.42Q313.19 219.73 338.48 218.71L338.28 218.51L338.46 218.69Q342.31 218.46 350.46 219.27Z"/></svg>