<svg xmlns="http://www.w3.org/2000/svg" width="500" height="250" viewBox="0,0,500,250"><path fill="#57e4e4" d="M378.45 136.68L378.34 136.57L378.49 136.72Q382.58 136.53 390.13 135.71L390.14 135.73L390.30 135.89Q389.97 139.23 389.97 142.70L389.93 142.65L390.07 149.53L389.95 149.40Q385.46 149.40 380.97 149.81L381.06 149.89L380.96 149.79Q376.57 150.10 372.09 149.89L372.10 149.91L372.13 149.94Q356.68 182.82 338.33 207.50L338.36 207.53L338.37 207.55Q324.98 211.08 318.04 214.34L318.06 214.36L318.10 214.40Q340.01 183.69 356.33 150.04L356.28 149.99L342.28 150.06L342.37 150.16Q342.36 143.01 341.75 135.87L341.67 135.79L341.74 135.87Q351.92 136.66 362.93 136.66L362.94 136.67L373.18 116.93L373.00 116.75Q378.40 106.65 384.92 98.08L384.86 98.02L384.88 98.04Q376.58 98.92 368.02 98.92L367.94 98.84L367.92 98.82Q335.41 98.95 315.22 87.12L315.19 87.09L311.77 77.96L311.72 77.91Q309.84 73.38 307.81 68.69L307.79 68.68L307.85 68.73Q331.14 82.84 361.73 84.07L361.64 83.97L361.73 84.06Q389.29 85.32 416.82 74.72L416.73 74.62L416.75 74.64Q415.69 76.84 413.04 81.53L413.10 81.59L413.01 81.51Q393.61 106.97 378.31 136.54ZM421.65 88.93L421.59 88.86L426.90 78.06L426.99 78.15Q421.82 80.73 412.85 84.61L412.96 84.72L413.82 82.93L413.85 82.96Q414.52 82.20 415.13 81.59L415.04 81.50L415.07 81.52Q417.04 77.79 420.92 70.65L420.97 70.70L421.03 70.76Q392.42 82.94 361.62 81.72L361.70 81.79L361.64 81.73Q329.55 80.43 304.05 64.53L303.86 64.33L303.91 64.39Q309.54 74.50 314.03 88.78L313.85 88.60L313.92 88.67Q319.88 92.18 324.16 93.81L324.10 93.75L324.11 93.76Q325.05 95.72 327.50 105.72L327.32 105.54L327.39 105.61Q344.30 112.32 373.87 111.51L373.92 111.55L373.85 111.49Q372.35 114.67 361.74 134.86L361.72 134.84L361.62 134.73Q350.56 134.69 339.95 133.67L340.14 133.85L340.07 133.79Q340.56 138.35 340.56 143.04L340.39 142.87L340.37 152.03L349.39 152.08L349.43 159.67L349.53 159.77Q328.45 199.26 313.56 218.43L313.61 218.48L313.49 218.36Q322.17 214.39 330.94 211.74L330.79 211.59L330.97 211.77Q327.28 216.64 319.94 225.82L319.95 225.83L319.78 225.66Q336.82 219.86 349.87 218.64L349.77 218.53L349.90 218.67Q365.62 198.49 382.34 162.19L382.32 162.17L400.69 163.20L400.64 163.15Q400.27 158.30 400.27 153.40L400.23 153.36L400.28 143.83L400.14 143.69Q398.84 143.81 395.88 144.02L395.87 144.01L395.74 143.88Q392.90 144.19 391.47 144.19L391.50 144.23L391.39 144.11Q391.50 143.61 391.71 142.80L391.66 142.75L391.57 141.24L391.63 141.29Q405.03 113.70 421.55 88.82Z"/><path fill="#48e970" d="M191.68 136.66L191.64 136.62L191.60 136.58Q195.88 136.58 203.42 135.76L203.43 135.76L203.47 135.80Q203.21 139.22 203.21 142.69L203.30 142.78L203.23 149.43L203.26 149.47Q198.84 149.53 194.35 149.93L194.23 149.82L194.26 149.85Q189.80 150.08 185.31 149.87L185.27 149.82L185.30 149.86Q170.04 182.93 151.68 207.61L151.70 207.63L151.67 207.59Q138.25 211.10 131.31 214.36L131.36 214.41L131.23 214.28Q153.24 183.67 169.55 150.02L169.61 150.08L155.65 150.18L155.53 150.07Q155.63 143.03 155.02 135.89L154.86 135.73L154.86 135.74Q165.17 136.66 176.18 136.66L176.21 136.69L186.40 116.90L186.34 116.84Q191.71 106.71 198.24 98.15L198.23 98.14L198.26 98.17Q189.85 98.94 181.29 98.94L181.33 98.98L181.18 98.83Q148.53 98.81 128.34 86.98L128.43 87.08L124.96 77.90L124.88 77.81Q123.07 73.35 121.03 68.66L121.06 68.70L121.16 68.79Q144.27 82.72 174.86 83.94L175.02 84.10L174.96 84.05Q202.52 85.30 230.05 74.69L229.92 74.56L229.97 74.61Q228.91 76.81 226.26 81.50L226.28 81.52L226.26 81.51Q206.94 107.06 191.65 136.63ZM234.97 88.99L234.91 88.93L240.10 78.01L240.09 78.00Q235.16 80.82 226.19 84.70L226.05 84.56L227.12 82.98L227.22 83.08Q227.75 82.18 228.36 81.57L228.44 81.64L228.39 81.59Q230.42 77.91 234.29 70.77L234.26 70.74L234.28 70.76Q205.64 82.91 174.84 81.69L174.83 81.68L174.97 81.82Q142.62 80.26 117.13 64.35L117.11 64.34L117.19 64.42Q122.68 74.39 127.16 88.66L127.17 88.67L127.11 88.60Q133.11 92.16 137.39 93.79L137.45 93.85L137.49 93.89Q138.29 95.71 140.74 105.70L140.67 105.63L140.68 105.65Q157.49 112.26 187.06 111.45L187.24 111.63L187.08 111.46Q185.56 114.63 174.95 134.82L174.88 134.75L174.94 134.80Q164.00 134.88 153.40 133.86L153.30 133.77L153.21 133.68Q153.77 138.32 153.77 143.01L153.61 142.85L153.69 152.11L162.77 152.21L162.62 159.60L162.76 159.74Q141.76 199.32 126.87 218.49L126.82 218.44L126.75 218.37Q135.43 214.40 144.20 211.75L144.07 211.62L144.17 211.72Q140.47 216.59 133.13 225.76L133.13 225.77L133.11 225.74Q150.13 219.92 163.18 218.69L163.19 218.70L163.07 218.59Q178.79 198.41 195.51 162.11L195.49 162.09L213.84 163.10L213.95 163.21Q213.45 158.23 213.45 153.33L213.45 153.33L213.56 143.86L213.48 143.78Q211.95 143.68 209.00 143.88L209.13 144.01L209.06 143.95Q206.19 144.24 204.76 144.24L204.63 144.11L204.75 144.22Q204.79 143.65 204.99 142.83L204.87 142.71L204.85 141.27L204.94 141.36Q218.36 113.78 234.88 88.90Z"/><path fill="#8b6be9" d="M202.83 160.41L202.92 160.50L202.90 160.48Q220.53 167.50 240.72 167.50L240.64 167.42L240.65 167.43Q249.18 167.40 257.54 166.17L257.59 166.22L257.47 166.10Q255.04 168.56 251.57 174.89L251.56 174.87L251.57 174.89Q254.90 175.56 258.57 174.34L258.62 174.39L258.57 174.34Q256.54 178.63 256.54 182.91L256.53 182.91L256.63 183.00Q256.61 186.85 258.03 190.73L257.96 190.66L257.96 190.65Q250.33 189.35 240.75 189.56L240.93 189.74L240.89 189.70Q231.51 189.70 223.97 191.13L223.88 191.05L223.86 191.02Q226.07 186.70 225.46 181.40L225.57 181.51L225.50 181.45Q224.06 181.64 222.84 181.43L222.88 181.48L222.90 181.49Q221.77 181.18 220.14 181.18L220.07 181.12L220.13 181.17Q219.16 171.85 202.85 160.43ZM220.89 179.08L220.86 179.05L220.80 178.99Q229.06 180.11 235.17 179.90L235.05 179.78L235.21 179.94Q249.47 179.72 249.47 179.72L249.39 179.64L249.45 179.70Q249.81 173.94 253.68 168.43L253.75 168.50L253.69 168.44Q247.54 169.22 241.21 169.22L241.18 169.19L241.20 169.20Q224.77 169.30 209.27 164.20L209.26 164.19L209.28 164.21Q218.82 170.89 220.86 179.05ZM219.00 183.10L219.00 183.10L219.06 183.16Q220.95 183.01 224.62 183.22L224.54 183.13L224.59 183.19Q224.15 189.07 221.29 193.14L221.21 193.06L221.30 193.16Q229.33 192.00 228.51 192.00L228.61 192.11L228.55 192.04Q225.60 197.25 221.53 201.33L221.49 201.30L221.39 201.20Q232.32 199.49 242.73 199.49L242.68 199.44L242.71 199.47Q267.30 199.38 289.32 208.56L289.41 208.65L276.35 201.30L276.33 201.28Q263.20 192.84 263.20 181.01L263.32 181.13L263.37 181.18Q262.11 181.55 260.68 181.55L260.60 181.46L257.73 181.45L257.81 181.53Q258.14 176.97 261.20 171.87L261.16 171.83L261.23 171.90Q259.03 172.35 253.93 173.37L253.85 173.29L253.83 173.27Q256.60 167.88 261.90 163.81L261.82 163.72L261.83 163.73Q251.47 165.61 240.66 165.61L240.56 165.51L240.58 165.53Q215.12 165.56 194.93 155.57L194.96 155.60L195.05 155.68Q218.47 169.72 219.08 183.18ZM223.88 177.38L223.93 177.43L222.54 177.46L222.56 177.48Q221.97 177.10 221.36 177.10L221.34 177.08L221.25 176.99Q220.22 173.92 218.18 171.68L218.25 171.75L213.99 166.87L213.85 166.74Q226.76 170.87 241.44 170.87L241.55 170.98L241.54 170.97Q245.89 170.83 250.58 170.43L250.67 170.52L249.78 172.28L248.91 173.66L248.96 173.70Q242.29 174.17 235.36 173.97L235.36 173.97L235.39 174.00Q228.27 173.81 221.33 172.38L221.28 172.33L221.28 172.33Q223.12 174.17 223.94 177.44Z"/><path fill="#9148d9" d="M338.10 194.17L338.04 194.11L337.99 194.05Q339.79 199.53 342.64 210.34L342.64 210.33L342.52 210.22Q319.86 203.05 295.18 204.48L295.31 204.61L295.27 204.57Q270.73 205.93 249.32 216.53L249.34 216.56L249.30 216.51Q250.62 212.95 250.83 213.35L250.71 213.24L250.81 213.34Q270.75 192.08 291.75 168.42L291.70 168.37L291.68 168.35Q315.37 141.66 321.69 116.58L321.76 116.65L321.83 116.72Q324.23 107.28 317.39 100.96L317.34 100.91L317.32 100.88Q310.54 94.62 300.95 95.43L300.98 95.46L300.85 95.33Q299.04 95.15 297.20 95.15L297.25 95.19L297.26 95.20Q289.17 95.27 282.44 100.17L282.41 100.14L282.36 100.09Q275.50 107.50 276.72 121.78L276.78 121.83L276.67 121.72Q267.11 119.91 260.58 117.46L260.60 117.48L260.65 117.53Q259.46 109.82 259.05 102.07L259.18 102.20L259.19 102.20Q258.66 93.31 261.92 87.20L261.98 87.26L262.06 87.34Q271.55 79.90 289.50 79.90L289.52 79.92L298.87 79.89L298.86 79.87Q311.10 80.08 316.20 80.70L316.26 80.76L316.30 80.80Q339.55 83.04 340.98 96.10L341.01 96.13L340.98 96.09Q341.32 99.09 340.91 103.37L341.02 103.48L340.99 103.45Q340.63 106.76 339.81 110.43L339.94 110.56L339.88 110.50Q331.15 153.97 290.56 190.68L290.59 190.71L290.62 190.74Q298.16 189.92 305.50 189.92L305.38 189.80L305.51 189.92Q322.76 189.84 338.05 194.12ZM334.96 82.53L334.94 82.51L335.01 82.58Q326.48 79.15 317.31 78.74L317.32 78.76L298.93 77.71L298.98 77.76Q274.96 76.17 263.13 82.08L263.23 82.18L263.17 82.12Q257.48 89.48 257.48 100.50L257.56 100.58L257.56 100.58Q257.79 104.48 259.42 119.57L259.37 119.51L259.33 119.47Q262.13 120.65 268.46 122.28L268.61 122.43L268.45 127.78L268.48 127.81Q268.32 130.30 268.73 133.16L268.79 133.22L268.77 133.20Q275.48 133.79 288.73 135.01L288.65 134.93L288.67 134.95Q288.50 132.95 288.50 131.11L288.52 131.13L288.46 131.06Q288.42 121.23 294.94 113.99L295.03 114.08L294.95 114.01Q301.53 106.81 311.11 107.43L311.16 107.48L311.12 107.43Q315.18 107.62 319.26 108.43L319.22 108.40L319.24 108.41Q319.92 110.53 320.33 112.77L320.27 112.71L320.27 112.70Q320.55 115.03 320.14 116.87L320.11 116.83L320.12 116.84Q313.46 142.40 289.80 168.30L289.71 168.21L289.80 168.30Q278.37 180.33 249.21 212.76L249.14 212.69L249.11 212.66Q248.17 217.22 246.34 220.28L246.21 220.16L246.35 220.29Q254.89 215.58 263.05 212.73L263.02 212.70L263.06 212.74Q259.20 215.81 254.10 223.77L254.07 223.73L253.98 223.64Q253.36 225.47 252.75 227.31L252.79 227.35L252.85 227.41Q278.93 216.37 308.30 217.39L308.39 217.48L308.29 217.39Q338.59 218.12 363.07 230.76L363.23 230.93L357.92 219.50L357.84 219.41Q354.29 212.19 352.86 207.91L352.91 207.96L353.00 208.05Q349.16 205.84 342.63 203.60L342.65 203.61L342.57 203.53Q341.71 199.61 339.67 192.27L339.66 192.26L339.74 192.34Q327.87 189.24 315.63 188.22L315.68 188.27L315.60 188.19Q340.71 163.74 348.87 119.49L348.92 119.54L349.95 104.05L349.82 103.92Q349.51 94.43 342.98 90.76L342.91 90.69L342.76 90.73L342.75 90.73Q342.54 90.31 342.13 90.31L342.22 90.40L342.22 90.40Q341.02 85.94 335.11 82.68Z"/><path d="M17 17 C241 203,234 136,485 154" stroke="#79ebeb" fill="none"/><path d="M10 17 C237 39,264 215,490 188" stroke="#66e566" fill="none"/><path fill="#b3d54d" d="M420.44 96.23L420.43 96.22L412.09 96.86L412.14 96.90Q400.10 97.51 398.88 108.32L398.75 108.19L398.93 108.37Q398.36 112.08 398.56 117.38L398.67 117.50L398.68 117.50Q398.84 127.86 405.57 135.00L405.62 135.05L405.54 134.97Q412.38 142.21 422.57 141.40L422.51 141.33L422.45 141.27Q433.46 140.45 437.53 135.55L437.50 135.52L437.66 135.68Q443.32 130.74 444.75 118.71L444.74 118.69L444.72 118.68Q446.24 106.74 439.51 102.25L439.51 102.25L439.40 102.14Q434.63 97.78 420.36 96.15ZM452.89 145.81L452.83 145.75L445.99 158.08L446.03 158.12Q431.41 183.68 411.22 205.50L411.36 205.64L411.25 205.53Q402.53 206.40 388.05 210.68L388.07 210.70L387.96 210.59Q416.58 177.01 433.51 151.31L433.53 151.33L433.42 151.22Q427.91 154.69 419.14 155.09L419.17 155.12L419.21 155.16Q403.13 156.01 394.97 145.41L394.91 145.34L395.02 145.46Q388.41 136.80 382.49 112.33L382.50 112.33L382.60 112.43Q382.56 109.95 381.75 104.95L381.68 104.89L381.80 105.01Q380.93 99.96 380.93 97.51L380.87 97.45L380.84 97.42Q380.97 87.96 386.68 84.70L386.66 84.68L386.52 84.53Q393.18 80.59 403.17 80.59L403.19 80.61L403.19 80.61Q420.16 80.45 420.16 80.45L420.30 80.59L420.23 80.52Q431.91 80.78 438.64 81.80L438.64 81.80L438.51 81.67Q450.05 83.22 454.95 85.87L454.97 85.89L454.94 85.86Q462.31 89.97 463.33 99.35L463.35 99.37L463.19 99.21Q463.25 100.50 462.23 114.77L462.30 114.84L462.30 114.84Q460.29 126.29 459.07 130.78L459.09 130.80L458.94 130.65Q457.01 138.30 452.93 145.85ZM463.16 158.74L463.16 158.73L463.16 158.74Q468.30 146.75 471.16 123.70L471.32 123.86L471.32 123.86Q472.70 111.98 472.50 107.29L472.46 107.26L472.48 107.28Q472.30 97.31 465.98 92.42L465.92 92.35L464.39 91.84L464.39 91.84Q462.96 87.76 458.06 84.30L457.92 84.15L457.89 84.13Q445.78 78.94 420.08 78.13L420.05 78.09L420.14 78.19Q414.96 78.11 401.91 78.11L401.98 78.17L401.90 78.09Q392.59 78.17 384.63 81.84L384.57 81.77L384.50 81.70Q378.45 86.06 378.86 95.85L378.80 95.79L378.92 95.90Q379.89 100.75 380.91 111.56L380.81 111.46L380.95 111.61Q384.10 125.56 385.53 130.05L385.55 130.07L385.51 130.02Q388.65 140.10 393.75 147.03L393.68 146.97L393.79 147.08Q395.17 148.87 397.21 150.91L397.12 150.81L397.24 150.94Q398.68 153.40 402.15 158.29L402.16 158.30L402.01 158.15Q410.15 165.68 420.55 166.70L420.53 166.68L420.42 166.57Q410.29 180.91 401.93 191.11L401.88 191.06L382.43 214.44L382.43 214.44Q394.60 210.50 403.37 208.67L403.27 208.57L403.25 208.55Q399.17 213.23 390.81 222.41L390.97 222.57L390.94 222.54Q407.46 217.65 424.18 217.45L424.09 217.35L424.14 217.40Q436.47 203.42 459.72 164.67L459.76 164.71L459.77 165.13L459.86 165.23Q461.19 161.25 463.02 158.60ZM430.78 109.02L430.78 109.01L430.90 109.13Q434.07 108.43 436.52 109.05L436.54 109.07L436.65 109.17Q440.00 109.68 442.04 110.29L442.01 110.25L442.00 110.24Q442.60 112.28 443.01 114.52L443.03 114.53L443.03 114.54Q443.49 116.83 442.88 118.87L442.90 118.89L442.87 118.86Q442.62 128.00 436.30 133.91L436.33 133.95L436.27 133.88Q431.36 139.58 422.59 139.37L422.52 139.30L422.41 139.19Q420.24 139.26 412.08 137.63L412.00 137.55L412.03 137.58Q410.96 133.05 410.96 129.17L410.91 129.12L410.83 129.04Q410.53 127.72 410.53 126.50L410.54 126.50L410.38 126.35Q410.49 114.63 422.73 110.34L422.79 110.41L422.69 110.31Q426.39 109.12 430.88 109.12Z"/><path fill="#7979e0" d="M89.09 194.16L89.08 194.14L89.14 194.21Q90.76 199.50 93.62 210.31L93.53 210.22L93.57 210.26Q70.94 203.14 46.27 204.56L46.27 204.56L46.24 204.54Q21.71 205.91 0.30 216.52L0.27 216.49L0.26 216.48Q1.53 212.86 1.74 213.26L1.75 213.28L1.72 213.24Q21.75 192.08 42.75 168.42L42.72 168.39L42.73 168.40Q66.43 141.73 72.76 116.64L72.77 116.65L72.84 116.73Q75.13 107.19 68.30 100.87L68.39 100.96L68.43 101.00Q61.59 94.67 52.01 95.49L52.00 95.48L52.04 95.52Q50.02 95.13 48.18 95.13L48.32 95.26L48.19 95.14Q40.15 95.26 33.42 100.15L33.49 100.21L33.44 100.16Q26.38 107.39 27.61 121.66L27.61 121.67L27.63 121.68Q18.16 119.96 11.63 117.51L11.48 117.37L11.57 117.45Q10.51 109.87 10.10 102.12L10.08 102.09L10.13 102.15Q9.68 93.33 12.94 87.21L12.99 87.26L12.97 87.24Q22.63 79.98 40.58 79.98L40.59 79.99L49.81 79.83L49.88 79.90Q62.09 80.08 67.19 80.69L67.23 80.73L67.34 80.84Q90.41 82.90 91.84 95.95L91.95 96.07L91.99 96.11Q92.34 99.11 91.93 103.39L92.00 103.46L91.91 103.37Q91.79 106.92 90.97 110.59L91.00 110.61L90.92 110.53Q82.06 153.88 41.47 190.59L41.56 190.68L41.62 190.74Q49.17 189.93 56.51 189.93L56.44 189.86L56.43 189.84Q73.78 189.86 89.08 194.15ZM85.93 82.50L86.04 82.61L86.05 82.62Q77.39 79.06 68.21 78.65L68.20 78.64L49.81 77.59L49.82 77.59Q25.99 76.20 14.16 82.11L14.31 82.26L14.27 82.22Q8.48 89.49 8.48 100.50L8.48 100.49L8.54 100.56Q8.81 104.49 10.44 119.59L10.38 119.53L10.43 119.58Q13.27 120.79 19.60 122.42L19.49 122.31L19.60 127.93L19.57 127.90Q19.29 130.27 19.69 133.12L19.74 133.17L19.74 133.17Q26.45 133.76 39.71 134.99L39.69 134.97L39.81 135.09Q39.56 133.00 39.56 131.17L39.57 131.18L39.46 131.07Q39.48 121.30 46.00 114.06L46.06 114.11L46.08 114.13Q52.63 106.91 62.21 107.53L62.25 107.56L62.18 107.50Q66.26 107.70 70.34 108.52L70.22 108.39L70.32 108.49Q70.86 110.47 71.27 112.71L71.40 112.84L71.39 112.83Q71.60 115.08 71.19 116.91L71.17 116.89L71.17 116.89Q64.43 142.37 40.77 168.27L40.72 168.22L40.75 168.25Q29.37 180.33 0.21 212.75L0.07 212.62L0.25 212.79Q-0.88 217.17-2.72 220.23L-2.80 220.15L-2.76 220.19Q5.91 215.60 14.07 212.75L14.06 212.74L14.06 212.73Q10.16 215.77 5.06 223.73L4.98 223.64L5.00 223.66Q4.53 225.64 3.92 227.48L3.87 227.42L3.81 227.37Q30.02 216.46 59.39 217.48L59.21 217.30L59.33 217.43Q89.65 218.17 114.12 230.81L114.25 230.94L108.85 219.42L108.82 219.39Q105.31 212.21 103.88 207.93L103.91 207.96L103.88 207.93Q100.01 205.69 93.48 203.44L93.58 203.54L93.63 203.59Q92.83 199.73 90.79 192.39L90.79 192.39L90.67 192.27Q78.97 189.34 66.73 188.32L66.68 188.26L66.65 188.24Q91.74 163.77 99.90 119.52L99.90 119.51L100.87 103.96L100.86 103.96Q100.40 94.32 93.87 90.65L93.87 90.65L93.78 90.76L93.83 90.81Q93.57 90.34 93.16 90.34L93.24 90.42L93.15 90.33Q91.96 85.88 86.05 82.62Z"/><path d="M18 124 C261 51,231 6,482 6" stroke="#e475ad" fill="none"/><path d="M15 191 C254 16,270 196,481 126" stroke="#eac451" fill="none"/><path fill="#b735e3" d="M94.74 207.40L94.64 207.31L94.76 207.43Q72.85 208.56 67.54 196.12L67.68 196.25L67.69 196.27Q71.60 191.00 79.96 181.42L80.09 181.54L80.06 181.51Q82.62 192.22 98.73 192.84L98.73 192.84L98.84 192.95Q116.92 193.29 125.69 186.15L125.63 186.09L125.73 186.19Q133.33 177.68 132.92 163.20L132.79 163.06L132.91 163.19Q132.11 136.08 106.41 137.30L106.28 137.17L106.27 137.16Q91.30 138.09 81.91 144.82L81.81 144.72L79.99 143.71L79.01 143.14L79.09 143.22Q80.95 126.32 80.34 111.63L80.25 111.54L80.27 111.56Q79.66 97.49 77.82 79.75L77.84 79.76L77.81 79.74Q97.32 84.77 117.72 84.16L117.83 84.28L117.85 84.29Q138.09 83.73 157.26 77.00L157.25 76.99L154.30 85.26L154.28 85.24Q152.62 89.28 151.60 93.77L151.72 93.89L151.59 93.76Q134.98 99.38 114.18 99.38L114.04 99.24L114.19 99.40Q106.37 99.33 98.42 98.51L98.45 98.55L98.39 98.48Q98.01 102.18 96.17 126.04L96.14 126.01L96.09 125.96Q100.64 123.57 111.65 122.75L111.63 122.73L111.64 122.74Q131.74 124.08 139.49 133.05L139.32 132.89L139.33 132.90Q146.78 141.16 148.21 161.76L148.17 161.72L148.24 161.79Q149.51 184.07 142.98 194.88L142.97 194.87L143.01 194.90Q132.29 205.19 114.55 206.41L114.56 206.43L114.60 206.47Q108.97 206.55 94.69 207.36ZM127.10 219.58L127.11 219.59L127.23 219.71Q145.47 220.00 155.67 214.09L155.62 214.04L155.62 214.04Q161.07 206.03 161.07 194.81L161.09 194.83L161.08 194.82Q161.10 178.32 156.00 156.30L155.82 156.11L155.82 156.11Q153.93 146.88 147.40 139.33L147.39 139.32L147.51 139.64L146.27 138.00L144.57 137.12L144.58 137.13Q142.92 133.22 139.45 129.55L139.33 129.43L139.30 129.60L139.39 129.69Q131.17 120.66 111.39 120.66L111.52 120.79L109.94 120.64L110.08 120.78Q110.50 117.73 111.52 111.81L111.41 111.71L111.37 111.66Q138.07 112.26 159.68 103.49L159.79 103.59L159.77 103.57Q162.04 96.06 167.14 80.97L167.21 81.03L155.92 86.06L155.93 86.07Q157.87 79.85 160.52 73.73L160.59 73.80L160.60 73.81Q139.95 81.51 117.92 81.92L117.91 81.90L117.93 81.93Q95.99 82.62 74.78 76.71L74.73 76.66L74.67 76.60Q78.39 100.30 78.39 123.96L78.43 124.00L78.36 123.93Q78.48 134.25 77.87 144.45L77.85 144.43L77.71 144.29Q79.29 145.46 82.35 147.09L82.28 147.02L82.35 147.10Q84.10 145.78 87.57 143.95L87.60 143.98L87.67 144.05Q87.41 148.07 86.18 156.23L86.24 156.29L86.09 156.14Q88.39 157.21 90.63 158.44L90.63 158.43L90.58 158.38Q105.52 149.05 115.51 149.05L115.56 149.10L115.43 148.97Q122.57 148.97 128.89 152.43L128.97 152.52L128.92 152.47Q130.74 157.95 130.94 163.05L131.13 163.24L131.00 163.11Q131.52 177.09 126.01 183.00L125.91 182.90L125.90 182.90Q118.53 189.39 106.50 190.61L106.48 190.59L106.63 190.75Q101.47 191.10 97.80 190.69L97.77 190.66L97.72 190.60Q93.24 190.00 89.16 188.17L89.27 188.27L88.99 186.98L88.32 187.53L88.42 187.63Q84.14 184.98 81.28 177.84L81.26 177.82L81.33 177.89Q74.14 185.38 65.17 196.80L65.23 196.86L65.07 196.71Q66.71 200.18 71.20 205.28L71.30 205.38L71.34 205.42Q76.94 215.10 92.03 217.75L92.11 217.83L92.08 217.80Q98.44 219.06 127.20 219.67Z"/></svg>