<svg xmlns="http://www.w3.org/2000/svg" width="500" height="250" viewBox="0,0,500,250"><path fill="#e1e15a" d="M89.09 194.16L88.97 194.04L89.08 194.14Q90.72 199.46 93.58 210.27L93.46 210.15L93.59 210.29Q71.00 203.19 46.32 204.62L46.28 204.58L46.20 204.49Q21.84 206.04 0.43 216.64L0.30 216.51L0.44 216.65Q1.51 212.84 1.72 213.24L1.76 213.29L1.88 213.40Q21.74 192.07 42.75 168.41L42.73 168.39L42.75 168.41Q66.38 141.67 72.70 116.58L72.71 116.60L72.79 116.68Q75.14 107.20 68.31 100.88L68.46 101.03L68.39 100.96Q61.60 94.68 52.02 95.50L51.92 95.40L52.03 95.51Q50.16 95.27 48.33 95.27L48.21 95.15L48.32 95.26Q40.22 95.32 33.49 100.22L33.31 100.04L33.38 100.10Q26.38 107.38 27.60 121.66L27.59 121.65L27.76 121.82Q18.16 119.96 11.63 117.52L11.52 117.41L11.61 117.49Q10.46 109.82 10.05 102.07L10.08 102.09L10.18 102.19Q9.72 93.38 12.98 87.26L12.99 87.26L12.96 87.23Q22.63 79.98 40.58 79.98L40.59 79.98L49.83 79.85L49.98 79.99Q62.16 80.15 67.26 80.76L67.18 80.67L67.25 80.75Q90.50 82.99 91.93 96.04L91.91 96.03L92.02 96.13Q92.32 99.09 91.91 103.37L91.93 103.39L91.88 103.33Q91.77 106.90 90.95 110.57L90.94 110.56L90.92 110.54Q82.10 153.93 41.52 190.63L41.56 190.68L41.62 190.74Q49.18 189.94 56.52 189.94L56.51 189.92L56.35 189.76Q73.79 189.88 89.09 194.16ZM85.91 82.48L85.98 82.55L86.00 82.57Q77.42 79.09 68.24 78.68L68.22 78.65L49.93 77.70L49.99 77.76Q26.07 76.28 14.24 82.19L14.14 82.09L14.23 82.18Q8.56 89.56 8.56 100.58L8.48 100.49L8.56 100.57Q8.65 104.34 10.28 119.43L10.29 119.44L10.39 119.54Q13.17 120.68 19.49 122.32L19.61 122.43L19.60 127.94L19.47 127.80Q19.41 130.39 19.82 133.25L19.81 133.24L19.71 133.14Q26.37 133.68 39.62 134.90L39.72 135.00L39.78 135.06Q39.54 132.98 39.54 131.15L39.46 131.07L39.55 131.16Q39.43 121.25 45.96 114.01L45.94 114.00L46.02 114.07Q52.51 106.80 62.10 107.41L62.13 107.44L62.06 107.37Q66.21 107.65 70.29 108.46L70.23 108.41L70.38 108.55Q71.00 110.60 71.41 112.85L71.32 112.76L71.37 112.81Q71.55 115.03 71.14 116.86L71.10 116.82L71.14 116.86Q64.45 142.40 40.80 168.30L40.70 168.20L40.66 168.17Q29.31 180.26 0.14 212.69L0.20 212.75L0.07 212.61Q-0.85 217.20-2.69 220.26L-2.64 220.31L-2.78 220.17Q5.93 215.62 14.09 212.77L14.09 212.77L14.11 212.79Q10.06 215.68 4.96 223.63L5.07 223.74L5.00 223.67Q4.50 225.61 3.89 227.44L3.79 227.35L3.89 227.44Q29.94 216.38 59.30 217.40L59.23 217.33L59.33 217.43Q89.62 218.14 114.09 230.79L114.07 230.77L108.78 219.35L108.94 219.51Q105.39 212.30 103.96 208.01L103.89 207.94L104.04 208.09Q100.07 205.75 93.54 203.50L93.63 203.60L93.55 203.51Q92.83 199.74 90.79 192.40L90.76 192.36L90.65 192.26Q78.82 189.19 66.59 188.17L66.55 188.14L66.63 188.22Q91.77 163.80 99.93 119.54L99.97 119.59L100.94 104.04L100.92 104.02Q100.47 94.39 93.94 90.72L93.98 90.75L93.86 90.84L93.81 90.79Q93.47 90.25 93.07 90.25L93.21 90.39L93.06 90.25Q91.99 85.91 86.08 82.65Z"/><path d="M11 185 C269 199,248 16,491 189" stroke="#94de7c" fill="none"/><path fill="#6fc8e5" d="M129.41 136.64L129.36 136.59L129.41 136.64Q133.77 136.72 141.32 135.90L141.30 135.89L141.21 135.79Q141.06 139.32 141.06 142.79L141.04 142.77L140.94 149.40L141.09 149.55Q136.60 149.54 132.11 149.95L132.00 149.84L132.11 149.94Q127.59 150.11 123.10 149.91L123.04 149.85L123.11 149.92Q107.81 182.95 89.46 207.63L89.34 207.52L89.39 207.56Q76.01 211.11 69.07 214.37L69.11 214.41L69.03 214.33Q91.08 183.77 107.40 150.11L107.40 150.11L93.38 150.17L93.25 150.04Q93.40 143.05 92.78 135.91L92.62 135.74L92.64 135.77Q102.93 136.67 113.94 136.67L113.87 136.60L124.10 116.85L124.17 116.92Q129.48 106.73 136.01 98.17L136.01 98.17L135.93 98.09Q127.60 98.94 119.03 98.94L119.02 98.92L118.95 98.85Q86.37 98.91 66.18 87.08L66.20 87.10L62.73 77.91L62.73 77.91Q60.79 73.32 58.75 68.63L58.76 68.64L58.76 68.64Q82.04 82.74 112.63 83.97L112.73 84.06L112.63 83.97Q140.11 85.13 167.64 74.53L167.68 74.57L167.75 74.64Q166.72 76.87 164.07 81.56L164.08 81.57L163.98 81.48Q144.65 107.02 129.36 136.59ZM172.70 88.97L172.64 88.91L177.98 78.14L177.97 78.13Q172.87 80.78 163.89 84.65L163.93 84.69L164.81 82.92L164.88 82.98Q165.41 82.09 166.02 81.47L166.02 81.47L166.12 81.57Q168.22 77.97 172.10 70.83L172.05 70.78L172.07 70.80Q143.43 82.95 112.63 81.73L112.73 81.82L112.74 81.84Q80.43 80.31 54.93 64.41L54.88 64.35L54.86 64.33Q60.47 74.43 64.95 88.70L64.99 88.74L64.98 88.73Q70.88 92.18 75.16 93.81L75.23 93.88L75.18 93.83Q75.95 95.62 78.40 105.62L78.45 105.66L78.51 105.72Q95.42 112.44 124.99 111.63L124.90 111.53L124.97 111.60Q123.20 114.53 112.60 134.72L112.76 134.87L112.69 134.81Q101.63 134.76 91.03 133.74L91.12 133.84L91.04 133.76Q91.47 138.27 91.47 142.96L91.56 143.05L91.36 152.03L100.48 152.17L100.41 159.64L100.37 159.61Q79.43 199.24 64.55 218.41L64.54 218.40L64.46 218.33Q73.13 214.35 81.90 211.70L81.90 211.70L81.92 211.72Q78.11 216.48 70.77 225.66L70.83 225.72L70.79 225.68Q87.87 219.91 100.92 218.69L100.90 218.66L100.84 218.61Q116.61 198.48 133.33 162.18L133.35 162.20L151.72 163.23L151.56 163.07Q151.31 158.33 151.31 153.44L151.18 153.31L151.31 143.86L151.16 143.70Q149.84 143.81 146.88 144.02L146.74 143.87L146.88 144.01Q143.96 144.25 142.53 144.25L142.37 144.09L142.47 144.19Q142.47 143.58 142.68 142.77L142.72 142.82L142.69 141.36L142.72 141.38Q156.21 113.88 172.73 89.00Z"/><path d="M19 124 C238 141,236 224,485 2" stroke="#a864eb" fill="none"/><path fill="#e15f80" d="M191.57 136.55L191.63 136.61L191.55 136.53Q195.85 136.55 203.40 135.73L203.50 135.83L203.56 135.89Q203.31 139.32 203.31 142.79L203.26 142.74L203.33 149.54L203.32 149.52Q198.88 149.57 194.39 149.98L194.24 149.82L194.39 149.98Q189.89 150.17 185.41 149.96L185.39 149.95L185.27 149.82Q169.97 182.86 151.61 207.54L151.60 207.52L151.62 207.55Q138.15 211.00 131.22 214.27L131.19 214.24L131.25 214.30Q153.27 183.70 169.59 150.05L169.67 150.14L155.51 150.04L155.51 150.05Q155.59 142.99 154.98 135.86L154.89 135.77L154.92 135.80Q165.19 136.69 176.21 136.69L176.23 136.71L186.35 116.85L186.36 116.86Q191.67 106.67 198.20 98.11L198.26 98.17L198.25 98.16Q189.74 98.83 181.18 98.83L181.32 98.97L181.17 98.82Q148.67 98.95 128.48 87.12L128.45 87.10L124.90 77.84L124.95 77.88Q123.20 73.49 121.16 68.80L121.10 68.73L121.01 68.64Q144.43 82.88 175.02 84.10L174.86 83.95L174.91 84.00Q202.51 85.29 230.04 74.68L230.08 74.72L229.98 74.62Q228.91 76.81 226.26 81.50L226.36 81.60L226.38 81.63Q206.87 106.99 191.58 136.56ZM234.91 88.93L234.94 88.96L240.10 78.01L240.23 78.14Q235.09 80.75 226.11 84.62L226.20 84.71L227.15 83.01L227.23 83.08Q227.73 82.16 228.34 81.54L228.41 81.61L228.37 81.58Q230.42 77.92 234.30 70.78L234.30 70.78L234.33 70.81Q205.77 83.04 174.97 81.82L174.86 81.70L174.85 81.69Q142.61 80.24 117.11 64.34L117.26 64.48L117.12 64.35Q122.77 74.48 127.26 88.75L127.24 88.74L127.30 88.80Q133.19 92.25 137.48 93.88L137.42 93.82L137.34 93.74Q138.23 95.65 140.67 105.64L140.60 105.57L140.58 105.55Q157.63 112.40 187.20 111.58L187.09 111.48L187.21 111.59Q185.57 114.65 174.97 134.84L174.83 134.70L174.91 134.78Q163.94 134.82 153.34 133.80L153.25 133.72L153.33 133.80Q153.71 138.25 153.71 142.94L153.65 142.88L153.63 152.04L162.64 152.08L162.73 159.72L162.73 159.71Q141.59 199.14 126.70 218.31L126.80 218.42L126.85 218.46Q135.32 214.29 144.09 211.64L144.12 211.67L144.12 211.67Q140.53 216.65 133.19 225.82L133.03 225.66L133.13 225.77Q150.08 219.87 163.13 218.65L163.09 218.60L163.09 218.61Q178.71 198.33 195.43 162.03L195.54 162.14L213.78 163.04L213.80 163.06Q213.40 158.17 213.40 153.28L213.47 153.36L213.51 143.80L213.45 143.75Q212.07 143.79 209.11 143.99L208.99 143.88L209.10 143.99Q206.03 144.08 204.61 144.08L204.78 144.26L204.73 144.20Q204.75 143.61 204.96 142.80L204.83 142.68L204.91 141.32L204.84 141.25Q218.42 113.84 234.94 88.96Z"/><path d="M5 91 C250 99,268 212,495 117" stroke="#6a89e5" fill="none"/><path fill="#8161df" d="M419.64 146.93L419.71 147.00L419.68 146.96Q409.98 146.44 403.35 154.09L403.36 154.10L403.38 154.11Q396.67 161.68 395.65 171.88L395.68 171.91L395.65 171.88Q394.43 182.90 400.25 188.10L400.22 188.08L400.18 188.04Q406.15 193.39 417.37 192.78L417.22 192.64L417.35 192.76Q428.61 191.99 434.52 188.32L434.36 188.15L434.51 188.31Q440.46 182.22 440.46 173.86L440.50 173.90L440.52 173.92Q440.48 171.84 440.07 169.80L440.14 169.87L440.19 169.92Q440.57 160.92 434.66 153.68L434.73 153.75L434.54 153.56Q428.63 146.33 419.65 146.94ZM417.53 206.61L417.54 206.62L417.54 206.62Q394.04 206.58 386.50 202.50L386.53 202.53L386.42 202.42Q381.01 198.44 379.99 189.26L379.88 189.16L379.93 189.20Q379.71 185.52 379.92 181.64L379.91 181.63L380.03 181.75Q380.57 176.38 380.57 173.93L380.51 173.87L380.65 174.01Q383.03 158.65 383.85 154.98L383.79 154.93L383.87 155.00Q386.23 144.52 390.72 136.97L390.78 137.03L390.71 136.96Q405.01 113.54 436.83 79.48L436.96 79.61L436.97 79.62Q451.07 77.81 462.90 73.53L462.97 73.60L462.92 73.55Q426.35 113.66 409.22 136.30L409.13 136.21L409.22 136.30Q414.42 133.54 421.35 133.54L421.46 133.65L421.39 133.58Q439.15 133.60 447.31 144.01L447.23 143.92L447.18 143.87Q454.40 152.72 456.23 171.69L456.27 171.73L456.17 171.62Q456.63 175.55 456.63 178.82L456.73 178.91L456.60 178.79Q456.58 195.49 444.75 201.20L444.83 201.28L444.84 201.29Q438.31 204.55 417.51 206.59ZM429.78 219.47L429.67 219.36L429.77 219.46Q436.67 219.23 447.28 219.63L447.32 219.67L447.35 219.71Q456.05 220.04 464.41 216.17L464.37 216.13L464.43 216.19Q470.27 211.83 470.27 202.24L470.34 202.32L470.35 202.33Q470.38 199.70 469.46 194.40L469.44 194.38L469.38 194.32Q468.48 189.03 468.48 186.59L468.56 186.67L468.55 186.65Q463.74 161.25 455.18 151.06L455.14 151.02L455.29 151.16Q454.73 150.41 453.92 149.18L453.99 149.26L452.30 147.98L452.04 147.92L452.02 147.90Q450.19 145.25 446.92 140.15L446.82 140.05L446.94 140.17Q441.87 134.90 431.27 132.45L431.28 132.46L431.30 132.48Q437.87 123.96 453.78 104.18L453.76 104.16L476.42 75.84L476.54 75.95Q468.17 80.63 455.32 84.71L455.18 84.58L455.22 84.61Q460.04 79.24 469.63 68.63L469.62 68.63L469.79 68.80Q456.89 74.45 436.09 77.51L436.12 77.55L435.97 77.40Q405.56 109.19 389.66 135.70L389.65 135.70L389.46 135.51Q381.33 149.00 378.28 182.45L378.30 182.48L378.38 182.56Q377.83 185.47 378.24 190.57L378.42 190.75L378.28 190.61Q378.80 200.10 384.71 205.00L384.65 204.94L384.70 204.98Q386.77 205.83 386.57 206.04L386.52 205.99L386.40 205.87Q388.45 210.77 392.73 213.01L392.88 213.16L392.77 213.05Q400.53 216.73 410.93 217.75L411.06 217.88L411.03 217.85Q411.04 217.87 429.81 219.50ZM428.52 159.27L428.51 159.26L428.52 159.28Q431.52 158.60 436.62 161.25L436.59 161.22L436.66 161.30Q438.56 166.46 438.56 169.93L438.58 169.94L438.50 169.86Q439.61 179.95 434.51 185.25L434.41 185.15L434.50 185.24Q428.68 189.00 417.46 190.63L417.54 190.71L417.58 190.75Q409.72 190.64 406.87 189.22L406.99 189.34L406.91 189.26Q405.78 186.70 405.78 185.07L405.94 185.23L405.82 185.11Q404.75 167.72 420.45 160.79L420.29 160.63L420.35 160.68Q424.40 158.82 428.48 159.23Z"/><path fill="#c1e065" d="M241.22 202.57L241.18 202.53L241.15 202.50Q237.57 202.39 233.90 202.59L233.78 202.47L233.84 202.54Q230.02 203.00 226.35 203.00L226.19 202.84L226.22 202.87Q228.68 184.53 228.68 166.17L228.67 166.15L228.76 166.24Q219.01 166.49 214.11 166.49L214.06 166.44L214.08 166.46Q209.29 166.15 199.50 165.74L199.52 165.76L199.47 165.72Q199.84 164.46 198.82 151.20L198.82 151.19L198.63 151.01Q212.47 154.04 228.38 154.04L228.37 154.03L228.24 153.90Q227.15 130.58 224.91 116.71L224.84 116.65L224.91 116.72Q229.08 117.21 233.36 117.21L233.30 117.15L242.23 117.31L242.18 117.26Q240.95 140.10 240.95 153.97L240.91 153.93L240.96 153.98Q252.66 154.05 269.79 152.22L269.72 152.14L269.76 152.18Q269.13 159.31 269.13 165.83L269.04 165.74L269.13 165.83Q267.70 165.83 263.42 166.03L263.35 165.96L263.39 166.00Q258.00 165.92 254.74 166.12L254.82 166.21L254.90 166.28Q254.84 166.22 240.56 166.22L240.47 166.13L240.51 184.52L240.54 184.56Q240.59 193.38 241.21 202.56ZM271.89 149.42L272.00 149.53L271.99 149.52Q261.67 151.03 251.68 151.44L251.79 151.55L251.78 151.54Q253.20 134.81 255.44 124.81L255.38 124.75L255.48 124.85Q251.52 124.97 243.97 125.78L244.06 125.87L244.92 114.70L244.93 114.71Q230.98 114.83 222.01 114.22L221.95 114.16L221.91 114.13Q225.31 131.19 226.33 151.99L226.31 151.97L226.32 151.98Q216.37 151.21 196.59 147.95L196.62 147.98L196.67 148.03Q198.09 154.34 198.09 168.41L198.09 168.41L206.22 168.39L206.35 168.51Q206.20 172.24 205.39 179.79L205.39 179.79L226.76 178.53L226.77 178.53Q225.50 195.41 223.87 205.20L223.83 205.16L223.75 205.09Q227.81 205.06 235.35 204.45L235.42 204.52L235.44 204.54Q235.43 208.20 235.22 215.33L235.29 215.40L235.19 215.30Q238.00 215.25 257.37 216.07L257.42 216.12L257.38 216.08Q252.65 199.73 251.43 178.52L251.38 178.46L251.40 178.49Q269.10 178.85 280.32 180.89L280.32 180.89L280.28 180.86Q279.22 175.72 279.22 170.62L279.23 170.63L279.32 160.52L279.20 160.41Q277.98 160.41 275.13 160.61L275.20 160.69L270.95 160.72L271.01 160.78Q271.43 156.91 272.04 149.57Z"/><path fill="#e689ce" d="M378.36 136.59L378.37 136.60L378.45 136.68Q382.75 136.70 390.30 135.88L390.31 135.89L390.22 135.81Q389.94 139.20 389.94 142.66L389.95 142.67L390.11 149.57L390.10 149.55Q385.53 149.47 381.05 149.88L380.96 149.79L380.95 149.79Q376.56 150.08 372.07 149.88L372.04 149.85L372.02 149.83Q356.80 182.94 338.45 207.62L338.50 207.67L338.33 207.51Q324.95 211.05 318.01 214.31L318.06 214.36L318.05 214.35Q340.02 183.70 356.33 150.05L356.33 150.05L342.32 150.11L342.20 149.99Q342.39 143.04 341.78 135.90L341.72 135.84L341.78 135.90Q351.81 136.55 362.82 136.55L362.98 136.71L373.07 116.82L373.18 116.93Q378.34 106.59 384.87 98.03L384.92 98.08L384.88 98.04Q376.58 98.92 368.02 98.92L367.99 98.90L368.02 98.93Q335.41 98.94 315.22 87.12L315.14 87.04L311.74 77.93L311.63 77.82Q309.85 73.38 307.81 68.69L307.76 68.64L307.76 68.64Q331.01 82.71 361.60 83.94L361.64 83.98L361.74 84.08Q389.13 85.16 416.66 74.55L416.80 74.70L416.64 74.53Q415.65 76.81 413.00 81.50L413.00 81.49L413.05 81.55Q393.75 107.11 378.46 136.69ZM421.68 88.96L421.53 88.81L426.88 78.04L426.84 78.00Q421.91 80.82 412.94 84.69L412.82 84.57L413.82 82.93L413.82 82.93Q414.51 82.19 415.12 81.57L415.07 81.53L415.09 81.55Q417.12 77.87 421.00 70.73L421.07 70.80L421.10 70.83Q392.41 82.93 361.61 81.70L361.61 81.71L361.69 81.78Q329.41 80.30 303.91 64.39L303.89 64.37L303.96 64.44Q309.45 74.41 313.94 88.69L313.88 88.63L313.99 88.74Q319.82 92.12 324.10 93.75L324.17 93.83L324.21 93.86Q324.94 95.61 327.39 105.60L327.38 105.60L327.44 105.66Q344.41 112.43 373.98 111.61L373.82 111.45L373.95 111.59Q372.29 114.61 361.68 134.80L361.66 134.77L361.74 134.86Q350.71 134.84 340.10 133.82L339.98 133.70L340.03 133.75Q340.39 138.19 340.39 142.88L340.55 143.03L340.36 152.03L349.44 152.13L349.49 159.72L349.43 159.66Q328.39 199.19 313.50 218.36L313.58 218.44L313.46 218.32Q322.09 214.31 330.86 211.66L330.96 211.76L330.96 211.76Q327.27 216.63 319.93 225.81L319.81 225.70L319.79 225.67Q336.77 219.81 349.82 218.58L349.76 218.53L349.90 218.67Q365.58 198.45 382.30 162.15L382.26 162.10L400.70 163.21L400.63 163.14Q400.30 158.33 400.30 153.43L400.20 153.34L400.17 143.72L400.30 143.84Q398.76 143.74 395.81 143.94L395.80 143.93L395.75 143.89Q392.88 144.18 391.46 144.18L391.52 144.25L391.49 144.21Q391.50 143.61 391.70 142.80L391.66 142.75L391.56 141.22L391.70 141.36Q405.16 113.83 421.68 88.95Z"/><path fill="#81e881" d="M298.99 116.51L298.86 116.38L298.92 116.44Q281.86 116.51 272.07 110.80L271.99 110.72L271.90 110.64Q285.37 103.30 311.47 80.66L311.57 80.76L311.65 80.84Q315.36 79.65 322.29 76.39L322.44 76.53L322.34 76.44Q315.28 108.33 314.67 142.39L314.56 142.28L314.66 142.38Q313.94 176.33 319.65 208.96L319.78 209.09L319.64 208.95Q310.76 205.17 299.34 204.56L299.25 204.47L299.34 204.56Q298.62 182.22 298.62 160.39L298.69 160.47L298.71 160.48Q298.72 138.47 298.92 116.45ZM296.87 128.47L296.95 206.66L296.89 206.60Q303.40 206.58 308.50 207.60L308.46 207.56L308.57 207.67Q308.93 211.29 309.95 218.64L309.96 218.65L309.96 218.65Q325.27 221.51 338.32 233.54L338.23 233.45L338.22 233.44Q325.10 195.45 324.90 155.47L324.89 155.46L324.83 155.41Q324.36 115.37 334.15 76.62L334.09 76.57L334.25 76.73Q331.34 78.91 322.77 84.82L322.75 84.80L322.80 84.85Q323.80 80.75 325.43 72.59L325.41 72.57L325.33 72.49Q318.36 76.74 310.61 78.78L310.46 78.63L310.62 78.79Q290.41 97.94 267.37 110.18L267.30 110.11L267.28 110.09Q274.83 116.01 287.48 117.85L287.40 117.77L287.46 117.83Q284.07 120.77 277.14 126.48L277.07 126.41L277.13 126.47Q284.94 128.37 296.77 128.37L296.87 128.46Z"/><path d="M8 86 C255 225,235 110,481 212" stroke="#99db56" fill="none"/></svg>