<svg xmlns="http://www.w3.org/2000/svg" width="500" height="250" viewBox="0,0,500,250"><path d="M10 29 C253 11,268 104,485 6" stroke="#c5e566" fill="none"/><path fill="#e1bc4b" d="M87.88 167.62L87.89 167.62L87.84 167.57Q104.51 165.68 121.64 166.29L121.52 166.17L121.52 166.18Q121.25 152.44 121.25 139.60L121.28 139.62L121.34 139.68Q121.40 126.49 122.42 112.83L122.30 112.70L122.44 112.85Q115.87 121.97 87.93 167.66ZM141.00 207.07L140.84 206.91L140.85 206.91Q131.85 205.26 122.26 204.85L122.41 205.00L122.41 205.00Q121.37 192.33 120.76 179.08L120.81 179.12L120.75 179.07Q92.23 178.08 66.94 185.63L66.84 185.52L66.96 185.65Q67.43 182.85 68.45 177.55L68.42 177.52L68.61 177.71Q78.09 160.67 97.26 127.02L97.36 127.12L97.37 127.14Q112.85 101.02 131.21 80.21L131.08 80.08L131.20 80.20Q135.83 79.12 144.80 77.69L144.73 77.62L144.75 77.64Q134.66 112.22 134.66 149.95L134.66 149.94L134.54 149.83Q134.52 157.76 134.93 165.72L135.08 165.86L141.88 166.34L141.88 166.35Q145.29 166.69 148.55 167.31L148.51 167.26L148.47 167.22Q149.13 172.57 150.56 182.98L150.54 182.95L150.59 183.01Q144.07 181.59 136.12 180.57L136.07 180.52L135.95 180.40Q137.18 191.22 140.86 206.92ZM149.81 165.10L149.81 165.09L149.98 165.27Q148.85 164.75 147.83 164.75L147.89 164.80L145.71 164.67L145.80 164.76Q145.13 156.74 145.13 149.20L145.12 149.19L145.17 149.24Q145.22 115.03 156.24 82.81L156.29 82.86L156.28 82.85Q152.16 84.23 144.41 86.27L144.40 86.26L144.29 86.16Q145.54 82.11 147.99 74.56L147.99 74.56L147.99 74.56Q141.20 76.75 130.19 77.97L130.08 77.86L130.06 77.84Q109.02 101.05 81.08 151.22L81.12 151.27L92.39 131.74L92.30 131.65Q90.06 137.16 88.63 140.22L88.68 140.26L64.93 188.71L64.85 188.64Q68.31 187.81 74.43 185.77L74.37 185.71L73.56 186.95L73.62 187.00Q72.91 190.58 71.28 197.31L71.34 197.36L71.38 197.41Q93.36 190.23 119.26 191.25L119.30 191.28L119.33 191.32Q119.50 196.37 120.51 206.98L120.62 207.08L120.54 207.00Q126.22 206.97 131.93 207.58L131.91 207.57L132.03 207.68Q132.76 211.27 134.19 218.61L134.25 218.67L134.26 218.68Q144.47 219.92 160.58 224.82L160.58 224.81L160.40 224.63Q155.12 213.23 150.22 195.69L150.38 195.85L158.12 198.29L158.13 198.30Q161.73 199.45 165.40 201.28L165.40 201.29L165.36 201.24Q161.19 187.89 160.37 178.92L160.34 178.89L160.25 178.80Q157.14 177.93 151.02 176.71L151.12 176.80L151.12 176.81Q149.82 169.80 149.82 165.11ZM107.16 164.46L107.14 164.44L107.03 164.32Q111.09 157.38 119.45 143.71L119.44 143.70L119.43 143.69Q119.50 148.86 119.30 153.96L119.31 153.97L119.20 153.86Q119.28 159.25 119.49 164.35L119.58 164.44L119.48 164.33Q116.35 164.07 113.29 164.07L113.34 164.11L113.33 164.10Q110.32 164.35 107.06 164.35Z"/><path fill="#70e4aa" d="M462.65 194.22L462.58 194.14L462.48 194.05Q464.29 199.52 467.14 210.33L467.14 210.34L467.07 210.27Q444.41 203.11 419.74 204.53L419.65 204.45L419.68 204.48Q395.26 205.96 373.84 216.56L373.85 216.57L373.76 216.48Q375.03 212.86 375.24 213.26L375.27 213.30L375.29 213.32Q395.25 192.08 416.25 168.42L416.20 168.37L416.29 168.46Q439.94 141.73 446.26 116.65L446.28 116.67L446.31 116.70Q448.69 107.24 441.86 100.92L441.91 100.98L441.95 101.02Q434.97 94.55 425.39 95.36L425.49 95.47L425.46 95.44Q423.69 95.29 421.85 95.29L421.88 95.32L421.88 95.32Q413.68 95.28 406.95 100.18L406.79 100.02L406.84 100.07Q400.05 107.55 401.27 121.83L401.23 121.79L401.24 121.79Q391.61 119.92 385.09 117.47L385.08 117.47L385.00 117.38Q384.01 109.87 383.60 102.12L383.71 102.23L383.59 102.10Q383.24 93.40 386.51 87.28L386.45 87.22L386.51 87.28Q396.09 79.93 414.03 79.93L414.05 79.95L423.45 79.97L423.41 79.93Q435.61 80.10 440.71 80.71L440.84 80.84L440.70 80.69Q463.97 82.97 465.40 96.02L465.47 96.09L465.50 96.12Q465.78 99.05 465.37 103.33L465.40 103.36L465.35 103.31Q465.15 106.77 464.33 110.45L464.37 110.49L464.49 110.61Q455.72 154.05 415.14 190.76L414.99 190.61L415.07 190.69Q422.54 189.80 429.89 189.80L429.96 189.87L429.89 189.81Q447.30 189.88 462.59 194.16ZM459.42 82.49L459.47 82.54L459.52 82.59Q450.97 79.14 441.79 78.73L441.83 78.77L423.35 77.63L423.49 77.77Q399.52 76.23 387.69 82.14L387.63 82.08L387.69 82.14Q382.07 89.57 382.07 100.59L381.99 100.51L382.00 100.52Q382.12 104.30 383.75 119.40L383.83 119.48L383.84 119.49Q386.70 120.71 393.02 122.35L393.10 122.43L393.05 127.88L393.00 127.83Q392.91 130.39 393.31 133.24L393.33 133.26L393.16 133.09Q400.04 133.85 413.30 135.08L413.12 134.90L413.15 134.93Q413.08 133.02 413.08 131.19L412.93 131.04L413.03 131.14Q413.05 121.37 419.58 114.13L419.46 114.01L419.44 114.00Q426.00 106.79 435.59 107.40L435.55 107.36L435.58 107.39Q439.81 107.75 443.89 108.57L443.86 108.54L443.89 108.56Q444.33 110.43 444.74 112.67L444.90 112.83L444.88 112.81Q445.03 115.00 444.62 116.84L444.64 116.87L444.59 116.81Q437.81 142.25 414.15 168.15L414.31 168.31L414.19 168.19Q402.85 180.31 373.69 212.73L373.58 212.63L373.66 212.70Q372.54 217.09 370.70 220.15L370.82 220.27L370.74 220.18Q379.35 215.54 387.50 212.68L387.50 212.68L387.62 212.79Q383.66 215.77 378.56 223.73L378.59 223.75L378.60 223.77Q378.03 225.64 377.42 227.48L377.37 227.42L377.39 227.45Q403.46 216.40 432.83 217.42L432.73 217.33L432.75 217.34Q463.12 218.15 487.60 230.79L487.64 230.83L482.42 219.49L482.30 219.37Q478.88 212.28 477.45 208.00L477.42 207.97L477.39 207.94Q473.67 205.85 467.15 203.61L466.99 203.45L467.00 203.46Q466.34 199.74 464.30 192.40L464.26 192.37L464.14 192.24Q452.38 189.25 440.14 188.23L440.09 188.18L440.22 188.30Q465.21 163.74 473.37 119.49L473.37 119.48L474.49 104.09L474.43 104.03Q473.94 94.36 467.41 90.69L467.54 90.82L467.34 90.81L467.24 90.72Q467.00 90.28 466.59 90.28L466.60 90.28L466.62 90.30Q465.37 85.79 459.45 82.52Z"/><path d="M17 131 C248 90,241 167,487 22" stroke="#bae245" fill="none"/><path fill="#e48ace" d="M298.84 116.36L298.84 116.36L298.85 116.37Q281.70 116.35 271.91 110.64L272.07 110.80L271.98 110.71Q285.54 103.47 311.64 80.83L311.55 80.73L311.46 80.65Q315.42 79.72 322.36 76.45L322.38 76.47L322.44 76.54Q315.28 108.33 314.67 142.39L314.65 142.37L314.70 142.42Q314.08 176.47 319.79 209.10L319.74 209.06L319.69 209.00Q310.80 205.21 299.38 204.60L299.29 204.51L299.28 204.50Q298.74 182.34 298.74 160.52L298.75 160.53L298.69 160.47Q298.72 138.48 298.93 116.45ZM296.93 128.53L296.85 206.56L296.85 206.56Q303.31 206.48 308.40 207.50L308.46 207.56L308.48 207.58Q308.98 211.34 310.00 218.68L309.96 218.64L309.87 218.56Q325.29 221.54 338.34 233.57L338.33 233.55L338.34 233.56Q324.97 195.31 324.76 155.34L324.91 155.48L324.86 155.44Q324.46 115.47 334.25 76.73L334.10 76.57L334.27 76.75Q331.29 78.86 322.73 84.78L322.81 84.86L322.70 84.75Q323.85 80.80 325.48 72.64L325.39 72.55L325.52 72.68Q318.35 76.73 310.60 78.76L310.51 78.67L310.57 78.74Q290.30 97.83 267.25 110.06L267.22 110.03L267.28 110.10Q274.76 115.94 287.40 117.77L287.48 117.85L287.52 117.89Q283.95 120.64 277.02 126.35L277.06 126.39L277.02 126.36Q285.06 128.49 296.89 128.49L296.87 128.47Z"/><path fill="#86d0e8" d="M241.24 202.59L241.24 202.59L241.05 202.40Q237.39 202.21 233.72 202.41L233.90 202.60L233.74 202.43Q230.01 202.98 226.34 202.98L226.25 202.90L226.35 203.00Q228.80 184.64 228.80 166.28L228.72 166.21L228.77 166.26Q218.82 166.31 213.93 166.31L213.96 166.34L214.08 166.45Q209.25 166.11 199.46 165.70L199.50 165.75L199.47 165.71Q199.71 164.32 198.69 151.06L198.65 151.02L198.74 151.11Q212.49 154.05 228.39 154.05L228.29 153.95L228.21 153.87Q227.02 130.45 224.78 116.58L224.87 116.68L224.88 116.69Q229.09 117.23 233.38 117.23L233.49 117.34L242.11 117.19L242.08 117.16Q240.99 140.14 240.99 154.00L240.89 153.91L240.91 153.93Q252.63 154.02 269.76 152.18L269.79 152.21L269.65 152.07Q269.18 159.36 269.18 165.88L269.06 165.76L269.16 165.86Q267.73 165.85 263.44 166.06L263.41 166.02L263.40 166.01Q258.11 166.03 254.85 166.23L254.89 166.27L254.85 166.23Q254.91 166.29 240.63 166.29L240.50 166.16L240.56 184.58L240.53 184.55Q240.56 193.34 241.17 202.52ZM271.90 149.43L271.95 149.48L271.87 149.40Q261.82 151.18 251.83 151.58L251.66 151.42L251.77 151.53Q253.23 134.84 255.47 124.85L255.45 124.82L255.33 124.70Q251.63 125.08 244.09 125.90L244.04 125.85L245.09 114.87L245.09 114.87Q231.01 114.86 222.03 114.25L221.99 114.20L221.97 114.19Q225.22 131.10 226.24 151.90L226.21 151.87L226.17 151.83Q216.49 151.33 196.71 148.07L196.79 148.14L196.75 148.10Q198.06 154.31 198.06 168.38L198.09 168.41L206.33 168.49L206.21 168.38Q206.25 172.30 205.44 179.84L205.47 179.88L226.63 178.39L226.70 178.47Q225.46 195.37 223.83 205.16L223.78 205.12L223.81 205.15Q227.85 205.11 235.40 204.50L235.46 204.56L235.38 204.48Q235.52 208.29 235.32 215.43L235.32 215.44L235.26 215.37Q238.14 215.40 257.52 216.22L257.40 216.10L257.47 216.17Q252.52 199.60 251.30 178.39L251.39 178.48L251.37 178.46Q269.13 178.88 280.34 180.92L280.29 180.86L280.26 180.84Q279.37 175.87 279.37 170.77L279.27 170.67L279.20 160.41L279.20 160.40Q278.12 160.54 275.26 160.75L275.30 160.79L270.83 160.60L271.01 160.78Q271.36 156.84 271.97 149.50Z"/><path fill="#51ea9e" d="M357.95 147.49L357.90 147.44L357.91 147.45Q347.94 147.46 341.41 154.60L341.35 154.54L341.37 154.56Q334.93 161.79 334.12 171.99L334.09 171.96L334.12 171.99Q333.11 183.42 339.64 188.83L339.51 188.70L339.62 188.81Q346.16 194.22 357.58 193.82L357.55 193.79L357.53 193.76Q370.01 193.00 375.11 187.90L374.98 187.76L375.05 187.83Q380.57 180.10 379.96 170.31L379.87 170.22L380.01 170.36Q379.28 160.25 373.46 153.82L373.48 153.84L373.49 153.85Q367.64 147.39 357.86 147.39ZM357.61 96.77L357.60 96.76L357.70 96.86Q350.18 96.28 343.04 98.93L343.05 98.93L343.02 98.91Q336.09 103.20 337.32 113.19L337.39 113.26L337.36 113.23Q340.00 133.21 357.95 133.21L357.85 133.11L357.89 133.15Q366.30 134.22 371.61 128.10L371.49 127.99L371.51 128.01Q376.80 121.87 377.00 113.51L377.09 113.60L377.14 113.65Q377.45 104.17 373.58 100.91L373.50 100.84L373.61 100.94Q364.58 96.40 357.65 96.81ZM356.28 206.99L356.21 206.93L339.95 206.98L340.00 207.03Q331.78 206.97 324.64 202.28L324.59 202.23L324.64 202.28Q317.32 196.19 318.14 180.89L318.07 180.82L318.06 180.81Q320.67 144.27 340.05 138.96L339.91 138.83L340.04 138.96Q327.71 133.97 320.57 105.21L320.51 105.15L320.51 105.15Q318.81 97.74 319.22 93.46L319.23 93.47L319.16 93.39Q320.70 81.89 340.48 81.68L340.56 81.76L340.58 81.78Q363.29 81.45 371.04 82.47L371.02 82.45L370.87 82.30Q391.53 85.21 393.98 96.02L394.03 96.08L394.02 96.06Q394.65 99.34 394.65 101.38L394.64 101.38L394.59 101.32Q394.55 104.95 393.53 108.22L393.62 108.31L393.59 108.28Q390.29 130.88 374.59 139.04L374.59 139.04L374.71 139.16Q393.44 143.41 396.09 171.76L396.01 171.67L396.11 171.78Q396.11 172.59 396.32 179.53L396.24 179.45L396.28 179.49Q396.71 194.20 388.14 199.91L388.02 199.79L388.00 199.76Q380.78 204.58 356.31 207.03ZM368.46 219.39L368.49 219.41L386.39 219.77L386.52 219.91Q395.62 220.24 403.78 216.36L403.88 216.46L403.75 216.33Q409.92 212.51 410.33 202.52L410.30 202.49L410.37 202.56Q410.51 196.58 408.47 186.17L408.43 186.13L408.57 186.28Q403.52 161.24 392.31 151.25L392.37 151.32L391.39 149.31L390.25 147.76L389.50 146.40L389.50 146.40Q398.37 139.16 403.26 116.93L403.19 116.86L403.12 116.79Q403.23 114.86 403.64 110.37L403.51 110.24L403.62 110.35Q404.08 106.73 403.67 103.47L403.62 103.42L403.56 103.36Q402.83 95.69 396.51 93.04L396.36 92.90L396.61 92.95L395.71 92.45L395.65 92.39Q394.22 88.52 387.90 84.23L387.79 84.12L388.16 84.29L387.99 84.12Q377.51 80.57 355.69 79.55L355.69 79.56L355.58 79.45Q347.29 78.91 339.95 79.52L340.01 79.58L339.90 79.47Q335.66 79.72 328.73 80.53L328.77 80.57L328.70 80.50Q318.29 82.54 317.07 91.31L317.09 91.33L317.07 91.31Q316.81 93.91 317.01 98.19L317.16 98.33L317.02 98.19Q317.76 101.17 320.81 113.82L320.74 113.75L320.77 113.78Q324.99 131.05 334.37 138.18L334.39 138.20L334.75 138.57L334.79 138.60Q320.02 145.65 317.16 173.39L317.16 173.39L317.08 173.31Q316.15 185.23 316.15 190.12L316.17 190.14L316.13 190.10Q316.45 199.59 322.77 204.49L322.87 204.58L322.91 204.63Q323.53 205.04 324.95 206.06L324.90 206.01L324.77 205.88Q330.46 218.29 368.59 219.51ZM366.57 159.98L366.57 159.98L366.58 159.99Q371.62 159.72 376.31 162.17L376.24 162.11L376.28 162.14Q378.37 167.50 378.17 170.36L378.05 170.24L378.07 170.26Q378.35 171.97 378.35 173.60L378.33 173.58L378.36 173.61Q378.22 186.11 365.98 190.60L366.03 190.64L366.13 190.74Q361.83 192.36 357.55 191.75L357.43 191.63L357.48 191.68Q351.54 192.26 345.42 189.82L345.38 189.78L345.53 189.93Q344.04 186.39 344.44 181.09L344.49 181.14L344.38 181.02Q345.17 172.44 351.60 165.91L351.77 166.09L351.71 166.02Q358.02 159.39 366.59 160.00ZM367.96 109.36L367.98 109.38L367.98 109.39Q372.23 108.74 375.09 109.56L375.06 109.53L375.09 113.85L375.06 113.82Q375.03 121.33 370.13 126.73L370.13 126.73L370.05 126.65Q365.26 132.16 357.92 131.14L357.96 131.18L357.94 131.16Q352.54 131.07 350.30 129.84L350.38 129.92L350.27 129.82Q350.17 128.49 349.56 124.82L349.48 124.74L349.62 124.88Q348.07 117.21 354.59 112.72L354.54 112.67L354.60 112.73Q360.39 109.14 367.94 109.34Z"/><path d="M14 145 C245 178,239 111,484 127" stroke="#8ce830" fill="none"/><path d="M20 150 C245 1,265 238,497 128" stroke="#a063dd" fill="none"/><path fill="#4168dc" d="M156.94 207.36L157.02 207.44L157.06 207.48Q135.23 208.69 129.93 196.25L129.86 196.18L129.85 196.18Q133.98 191.13 142.34 181.54L142.20 181.41L142.19 181.39Q145.00 192.36 161.12 192.98L161.04 192.90L161.04 192.90Q179.13 193.25 187.90 186.11L187.92 186.13L187.96 186.17Q195.56 177.66 195.15 163.18L195.14 163.17L195.17 163.20Q194.35 136.06 168.65 137.29L168.53 137.17L168.56 137.19Q153.59 138.14 144.21 144.87L144.14 144.80L142.33 143.80L141.35 143.23L141.18 143.06Q143.19 126.31 142.58 111.63L142.40 111.45L142.40 111.45Q141.80 97.39 139.97 79.65L139.97 79.65L139.99 79.66Q159.59 84.79 179.98 84.17L179.98 84.17L179.96 84.15Q200.49 83.88 219.66 77.15L219.64 77.13L216.61 85.31L216.50 85.20Q214.98 89.39 213.96 93.88L213.86 93.79L213.83 93.76Q197.13 99.28 176.33 99.28L176.28 99.24L176.41 99.36Q168.61 99.32 160.66 98.50L160.65 98.49L160.62 98.46Q160.22 102.14 158.38 126.00L158.46 126.08L158.35 125.97Q162.92 123.61 173.94 122.79L173.88 122.74L173.99 122.84Q193.97 124.06 201.72 133.04L201.58 132.90L201.73 133.05Q208.97 141.10 210.40 161.70L210.39 161.69L210.31 161.61Q211.86 184.17 205.34 194.98L205.35 195.00L205.29 194.93Q194.43 205.08 176.69 206.30L176.83 206.45L176.82 206.43Q171.22 206.55 156.94 207.36ZM189.41 219.64L189.43 219.66L189.43 219.66Q207.82 220.10 218.02 214.19L217.95 214.12L218.04 214.21Q223.32 206.03 223.32 194.82L223.17 194.66L223.23 194.72Q223.21 178.18 218.11 156.15L218.15 156.20L218.17 156.22Q216.07 146.78 209.55 139.23L209.51 139.19L209.88 139.76L208.65 138.13L206.65 136.95L206.80 137.10Q205.06 133.11 201.59 129.44L201.55 129.39L201.65 129.71L201.72 129.78Q193.52 120.76 173.74 120.76L173.72 120.74L172.24 120.69L172.20 120.65Q172.68 117.66 173.70 111.75L173.69 111.73L173.65 111.70Q200.36 112.31 221.98 103.54L221.99 103.55L222.10 103.65Q224.36 96.13 229.46 81.03L229.46 81.04L218.14 86.03L218.13 86.02Q220.29 80.02 222.94 73.90L222.76 73.72L222.91 73.87Q202.23 81.54 180.21 81.95L180.21 81.95L180.21 81.96Q158.13 82.51 136.92 76.59L136.89 76.57L136.99 76.67Q140.69 100.35 140.69 124.01L140.74 124.06L140.59 123.92Q140.62 134.14 140.01 144.33L140.14 144.47L140.11 144.44Q141.41 145.33 144.47 146.96L144.52 147.01L144.60 147.10Q146.40 145.84 149.87 144.00L149.81 143.94L149.80 143.94Q149.58 148.00 148.36 156.15L148.35 156.15L148.41 156.20Q150.58 157.15 152.83 158.38L152.98 158.53L152.91 158.46Q167.78 149.06 177.77 149.06L177.84 149.13L177.69 148.98Q184.96 149.11 191.29 152.58L191.23 152.52L191.31 152.60Q192.99 157.95 193.19 163.05L193.19 163.05L193.30 163.16Q193.71 177.03 188.21 182.95L188.21 182.95L188.13 182.87Q180.76 189.37 168.72 190.59L168.71 190.58L168.76 190.62Q163.70 191.07 160.03 190.66L160.11 190.75L160.04 190.67Q155.50 190.01 151.42 188.17L151.37 188.13L151.22 186.95L150.69 187.65L150.70 187.66Q146.44 185.03 143.58 177.89L143.43 177.73L143.54 177.85Q136.38 185.37 127.40 196.79L127.46 196.84L127.38 196.77Q128.94 200.16 133.42 205.26L133.54 205.38L133.53 205.36Q139.33 215.24 154.42 217.89L154.26 217.73L154.39 217.86Q160.69 219.06 189.44 219.67Z"/><path fill="#5398de" d="M88.97 194.04L89.02 194.09L89.12 194.19Q90.77 199.51 93.62 210.32L93.55 210.24L93.61 210.31Q70.96 203.15 46.28 204.58L46.21 204.51L46.27 204.57Q21.67 205.87 0.26 216.48L0.31 216.53L0.37 216.59Q1.49 212.81 1.69 213.22L1.73 213.26L1.73 213.25Q21.85 192.18 42.86 168.52L42.86 168.52L42.81 168.47Q66.34 141.63 72.66 116.55L72.81 116.70L72.69 116.58Q75.15 107.20 68.32 100.88L68.29 100.86L68.45 101.01Q61.50 94.57 51.91 95.39L52.04 95.52L51.86 95.34Q50.14 95.25 48.30 95.25L48.27 95.21L48.36 95.30Q40.19 95.30 33.46 100.19L33.38 100.11L33.37 100.10Q26.54 107.54 27.76 121.82L27.65 121.71L27.62 121.68Q18.11 119.92 11.58 117.47L11.60 117.49L11.57 117.46Q10.46 109.81 10.05 102.06L10.12 102.13L10.15 102.17Q9.70 93.36 12.96 87.24L13.09 87.36L12.94 87.21Q22.58 79.93 40.53 79.93L40.61 80.01L49.99 80.01L49.91 79.93Q62.21 80.19 67.31 80.81L67.18 80.68L67.25 80.75Q90.53 83.02 91.96 96.07L91.90 96.01L91.90 96.02Q92.23 99.00 91.83 103.28L91.93 103.38L91.89 103.35Q91.74 106.86 90.92 110.54L90.83 110.45L90.99 110.61Q82.16 153.99 41.58 190.69L41.51 190.63L41.58 190.70Q49.19 189.95 56.53 189.95L56.45 189.87L56.40 189.82Q73.84 189.92 89.14 194.21ZM85.98 82.56L86.09 82.66L86.05 82.62Q77.38 79.05 68.20 78.64L68.32 78.76L49.92 77.69L49.88 77.66Q26.03 76.24 14.21 82.16L14.19 82.14L14.13 82.08Q8.50 89.50 8.50 100.52L8.48 100.49L8.42 100.44Q8.75 104.44 10.38 119.53L10.44 119.58L10.34 119.49Q13.23 120.75 19.55 122.38L19.59 122.42L19.50 127.83L19.52 127.85Q19.33 130.31 19.74 133.17L19.70 133.12L19.80 133.23Q26.43 133.74 39.69 134.96L39.71 134.99L39.65 134.93Q39.58 133.03 39.58 131.19L39.54 131.15L39.45 131.06Q39.55 121.37 46.08 114.13L46.10 114.15L46.13 114.18Q52.48 106.77 62.06 107.38L62.09 107.41L62.17 107.48Q66.29 107.73 70.37 108.55L70.38 108.55L70.21 108.38Q70.82 110.43 71.23 112.67L71.35 112.79L71.38 112.82Q71.50 114.98 71.09 116.81L71.19 116.91L71.13 116.85Q64.37 142.31 40.71 168.21L40.70 168.20L40.70 168.21Q29.38 180.34 0.22 212.76L0.17 212.72L0.08 212.63Q-0.82 217.23-2.66 220.29L-2.67 220.27L-2.80 220.15Q5.87 215.56 14.03 212.71L14.07 212.75L14.03 212.70Q10.14 215.75 5.04 223.71L5.12 223.79L5.00 223.66Q4.34 225.45 3.73 227.29L3.82 227.38L3.81 227.37Q30.00 216.44 59.37 217.46L59.19 217.29L59.34 217.44Q89.63 218.15 114.10 230.79L114.09 230.78L108.85 219.42L108.86 219.44Q105.42 212.32 103.99 208.04L103.98 208.03L103.94 207.99Q100.18 205.86 93.65 203.62L93.61 203.57L93.56 203.52Q92.71 199.61 90.67 192.27L90.72 192.32L90.70 192.30Q78.85 189.22 66.61 188.20L66.57 188.15L66.60 188.19Q91.81 163.84 99.97 119.58L99.79 119.40L100.84 103.94L100.94 104.04Q100.56 94.48 94.04 90.81L93.94 90.71L93.69 90.67L93.68 90.66Q93.46 90.24 93.06 90.24L93.14 90.32L93.15 90.34Q91.97 85.89 86.05 82.62Z"/></svg>