<svg xmlns="http://www.w3.org/2000/svg" width="500" height="250" viewBox="0,0,500,250"><path fill="#e679cb" d="M241.08 202.43L241.11 202.46L241.14 202.49Q237.53 202.35 233.86 202.56L233.86 202.55L233.75 202.44Q229.89 202.87 226.22 202.87L226.30 202.94L226.26 202.90Q228.69 184.53 228.69 166.18L228.80 166.28L228.68 166.17Q218.89 166.38 214.00 166.38L214.07 166.45L213.95 166.33Q209.33 166.19 199.54 165.78L199.51 165.76L199.45 165.70Q199.80 164.41 198.78 151.16L198.74 151.11L198.82 151.20Q212.39 153.95 228.29 153.95L228.24 153.90L228.23 153.89Q227.11 130.54 224.87 116.67L224.77 116.57L224.79 116.60Q229.05 117.18 233.33 117.18L233.30 117.15L242.21 117.29L242.09 117.18Q240.96 140.11 240.96 153.98L240.99 154.00L240.85 153.86Q252.54 153.93 269.67 152.10L269.74 152.16L269.76 152.19Q269.08 159.25 269.08 165.78L269.08 165.78L269.03 165.73Q267.57 165.69 263.28 165.90L263.46 166.07L263.33 165.94Q258.07 165.99 254.81 166.19L254.74 166.12L254.88 166.27Q254.80 166.18 240.52 166.18L240.56 166.22L240.45 184.46L240.53 184.55Q240.62 193.40 241.23 202.58ZM271.85 149.38L271.88 149.41L272.04 149.57Q261.65 151.01 251.66 151.42L251.77 151.53L251.84 151.60Q253.26 134.87 255.51 124.88L255.43 124.80L255.51 124.88Q251.61 125.06 244.06 125.87L243.91 125.72L244.97 114.75L245.08 114.86Q231.03 114.88 222.06 114.27L222.01 114.22L221.91 114.12Q225.21 131.08 226.23 151.89L226.23 151.89L226.32 151.98Q216.38 151.22 196.60 147.96L196.75 148.11L196.75 148.11Q198.05 154.30 198.05 168.37L198.16 168.48L206.22 168.39L206.18 168.35Q206.25 172.29 205.43 179.83L205.53 179.94L226.71 178.48L226.72 178.49Q225.45 195.37 223.82 205.16L223.88 205.22L223.90 205.24Q227.83 205.09 235.37 204.47L235.37 204.47L235.38 204.48Q235.40 208.17 235.20 215.31L235.27 215.39L235.30 215.41Q238.07 215.33 257.44 216.14L257.39 216.09L257.47 216.17Q252.52 199.60 251.30 178.39L251.33 178.42L251.29 178.38Q269.09 178.84 280.31 180.88L280.27 180.84L280.28 180.86Q279.36 175.86 279.36 170.76L279.35 170.75L279.20 160.40L279.19 160.39Q278.03 160.45 275.17 160.65L275.30 160.78L270.92 160.69L270.87 160.64Q271.41 156.90 272.03 149.56Z"/><path d="M7 126 C239 71,250 120,484 176" stroke="#df5299" fill="none"/><path d="M9 45 C236 162,267 129,491 221" stroke="#cde683" fill="none"/><path fill="#bcec8c" d="M343.89 188.89L343.85 188.86L343.82 188.83Q349.96 193.74 357.50 192.93L357.43 192.85L357.49 192.91Q373.28 194.02 376.75 176.07L376.74 176.07L376.64 175.97Q379.83 158.97 379.83 140.82L380.00 140.98L379.94 127.05L379.86 126.98Q379.93 120.31 378.09 113.58L378.09 113.58L378.04 113.53Q371.61 126.07 361.00 151.56L361.00 151.56L360.94 151.49Q350.41 177.06 343.88 188.89ZM370.68 100.46L370.85 100.63L370.81 100.59Q364.72 96.34 357.58 96.34L357.48 96.23L357.44 96.20Q349.49 95.38 343.58 100.28L343.54 100.24L343.70 100.41Q337.65 105.16 336.63 113.12L336.68 113.16L336.67 113.15Q334.94 120.60 334.74 128.56L334.57 128.39L334.57 128.39Q334.58 128.40 334.58 143.69L334.59 143.70L334.61 143.73Q334.72 156.48 337.17 175.85L337.11 175.80L337.02 175.70Q347.28 150.27 370.73 100.51ZM379.13 201.29L379.01 201.18L379.12 201.29Q369.67 206.11 357.23 206.11L357.33 206.21L348.51 206.16L348.58 206.23Q331.14 206.12 325.02 196.95L324.97 196.90L325.08 197.01Q320.71 185.30 320.30 169.59L320.44 169.73L320.43 169.72Q320.24 160.35 319.83 141.79L319.74 141.70L319.71 141.67Q319.62 135.26 318.80 118.94L318.71 118.85L318.78 118.92Q318.35 106.66 319.98 96.06L320.00 96.08L319.89 95.96Q322.59 80.31 345.84 79.09L345.94 79.19L345.91 79.16Q349.99 78.96 357.13 79.16L357.10 79.13L357.05 79.08Q387.44 79.90 393.15 98.46L393.25 98.56L393.19 98.50Q396.42 108.66 396.22 118.65L396.23 118.67L396.30 118.74Q395.89 145.45 395.48 151.98L395.45 151.94L395.51 152.01Q394.31 172.22 392.68 179.16L392.83 179.30L392.75 179.22Q389.25 195.92 379.06 201.22ZM405.54 199.97L405.68 200.11L405.61 200.04Q406.87 185.19 406.67 175.60L406.70 175.64L406.14 150.81L406.15 150.82Q405.82 134.78 402.96 105.21L403.06 105.31L402.95 105.19Q400.11 95.42 393.18 91.35L393.12 91.29L393.09 91.26Q384.82 77.69 357.09 76.87L357.18 76.96L357.14 76.92Q352.32 76.59 345.18 76.80L345.24 76.86L345.17 76.78Q320.99 77.28 318.34 94.01L318.26 93.93L318.41 94.08Q316.35 106.50 316.96 117.71L316.95 117.70L316.99 117.74Q318.68 141.05 318.48 159.00L318.57 159.09L318.54 159.06Q318.26 178.77 318.87 184.27L318.97 184.37L318.90 184.30Q320.92 200.80 329.07 205.08L329.17 205.17L329.08 205.09Q337.06 216.95 358.48 218.37L358.49 218.38L358.53 218.43Q377.65 219.60 381.12 219.40L381.15 219.43L381.19 219.47Q396.51 218.68 402.63 210.12L402.59 210.07L402.64 210.12Q405.11 206.27 405.52 199.95ZM359.54 190.89L359.50 190.85L359.62 190.97Q363.11 183.03 368.82 168.55L368.91 168.65L378.19 146.11L378.08 146.00Q377.88 154.77 375.84 172.72L375.79 172.66L375.83 172.70Q372.31 188.15 359.46 190.81ZM348.88 124.95L348.88 124.96L348.99 125.07Q351.30 115.34 354.97 112.28L355.00 112.31L354.96 112.27Q357.42 110.05 364.36 109.03L364.35 109.01L364.34 109.00Q355.20 128.62 345.21 153.50L345.16 153.46L345.28 153.58Q345.18 139.00 348.85 124.93Z"/><path fill="#48e999" d="M298.88 116.40L298.94 116.47L298.94 116.47Q281.71 116.37 271.92 110.65L272.01 110.74L271.96 110.69Q285.38 103.31 311.48 80.67L311.46 80.65L311.62 80.81Q315.33 79.63 322.27 76.36L322.39 76.48L322.31 76.41Q315.31 108.36 314.70 142.42L314.63 142.35L314.53 142.25Q314.02 176.41 319.73 209.04L319.67 208.99L319.78 209.09Q310.68 205.09 299.26 204.47L299.26 204.48L299.32 204.54Q298.64 182.24 298.64 160.42L298.69 160.47L298.64 160.42Q298.80 138.55 299.00 116.53ZM296.82 128.41L296.86 206.57L296.86 206.57Q303.50 206.68 308.60 207.70L308.43 207.53L308.47 207.57Q308.89 211.25 309.91 218.59L309.90 218.59L309.95 218.63Q325.12 221.37 338.18 233.40L338.26 233.48L338.31 233.54Q325.05 195.39 324.85 155.42L324.91 155.49L324.80 155.37Q324.40 115.41 334.19 76.66L334.17 76.64L334.17 76.64Q331.37 78.94 322.80 84.85L322.78 84.83L322.80 84.85Q323.89 80.84 325.52 72.68L325.52 72.68L325.46 72.62Q318.31 76.69 310.56 78.73L310.59 78.76L310.63 78.80Q290.27 97.80 267.22 110.03L267.39 110.20L267.23 110.04Q274.93 116.12 287.58 117.95L287.40 117.77L287.57 117.94Q283.98 120.68 277.05 126.39L277.13 126.47L277.04 126.38Q285.10 128.52 296.93 128.52L296.88 128.47Z"/><path fill="#5dc2e3" d="M94.64 207.31L94.82 207.49L94.64 207.31Q72.99 208.71 67.69 196.27L67.69 196.26L67.68 196.26Q71.71 191.11 80.07 181.52L80.09 181.54L80.07 181.52Q82.62 192.23 98.73 192.84L98.80 192.91L98.72 192.83Q117.03 193.39 125.80 186.26L125.71 186.17L125.74 186.20Q133.20 177.55 132.80 163.07L132.92 163.20L132.86 163.13Q132.12 136.08 106.42 137.31L106.32 137.21L106.31 137.20Q91.17 137.97 81.79 144.70L81.78 144.69L79.97 143.69L78.95 143.08L78.99 143.12Q80.93 126.30 80.32 111.62L80.32 111.62L80.18 111.48Q79.59 97.42 77.75 79.68L77.79 79.72L77.89 79.82Q97.33 84.78 117.72 84.16L117.68 84.12L117.83 84.27Q138.10 83.74 157.27 77.01L157.28 77.02L154.22 85.18L154.31 85.27Q152.68 89.35 151.66 93.83L151.67 93.84L151.68 93.85Q134.94 99.34 114.13 99.34L114.13 99.33L114.07 99.27Q106.40 99.35 98.44 98.53L98.32 98.41L98.36 98.46Q98.00 102.17 96.17 126.03L96.11 125.98L96.08 125.95Q100.65 123.58 111.66 122.76L111.65 122.75L111.69 122.80Q131.69 124.04 139.44 133.01L139.31 132.87L139.36 132.93Q146.83 141.21 148.26 161.81L148.06 161.61L148.17 161.72Q149.59 184.15 143.06 194.96L143.12 195.01L143.08 194.98Q132.21 205.11 114.46 206.33L114.53 206.40L114.48 206.35Q109.04 206.62 94.76 207.43ZM127.20 219.68L127.08 219.56L127.07 219.55Q145.54 220.07 155.73 214.15L155.73 214.15L155.66 214.08Q160.96 205.91 160.96 194.70L161.04 194.78L161.02 194.76Q161.09 178.31 155.99 156.28L155.91 156.21L155.83 156.13Q153.80 146.76 147.28 139.21L147.26 139.19L147.50 139.63L146.25 137.98L144.57 137.12L144.50 137.05Q142.87 133.17 139.40 129.50L139.31 129.40L139.47 129.78L139.31 129.62Q131.18 120.67 111.40 120.67L111.47 120.74L110.12 120.81L110.03 120.73Q110.51 117.74 111.53 111.83L111.47 111.77L111.35 111.65Q138.11 112.30 159.73 103.53L159.82 103.62L159.84 103.65Q162.01 96.02 167.11 80.93L167.10 80.92L155.97 86.11L155.82 85.96Q157.93 79.91 160.58 73.79L160.70 73.91L160.65 73.86Q139.99 81.55 117.96 81.95L117.98 81.97L118.00 81.99Q95.93 82.56 74.72 76.65L74.68 76.60L74.73 76.65Q78.37 100.28 78.37 123.94L78.37 123.94L78.41 123.98Q78.36 134.13 77.75 144.33L77.80 144.38L77.70 144.28Q79.28 145.45 82.34 147.08L82.36 147.10L82.28 147.02Q84.06 145.74 87.53 143.91L87.54 143.92L87.67 144.05Q87.40 148.06 86.17 156.22L86.09 156.13L86.20 156.24Q88.37 157.19 90.61 158.42L90.74 158.54L90.70 158.50Q105.43 148.97 115.43 148.97L115.55 149.09L115.57 149.11Q122.76 149.16 129.08 152.63L129.07 152.61L129.00 152.54Q130.79 158.00 130.99 163.10L131.01 163.12L131.12 163.23Q131.50 177.07 125.99 182.98L125.91 182.90L125.91 182.90Q118.54 189.40 106.51 190.62L106.58 190.69L106.52 190.64Q101.50 191.13 97.83 190.72L97.85 190.74L97.74 190.63Q93.36 190.12 89.28 188.28L89.26 188.26L89.00 186.98L88.41 187.62L88.43 187.64Q84.20 185.04 81.34 177.90L81.21 177.77L81.21 177.77Q74.10 185.34 65.13 196.76L65.07 196.71L65.21 196.85Q66.76 200.23 71.24 205.32L71.25 205.33L71.33 205.42Q76.98 215.15 92.08 217.80L92.12 217.84L92.03 217.75Q98.48 219.11 127.24 219.72Z"/><path fill="#e3984e" d="M50.01 116.53L49.83 116.35L49.90 116.42Q32.80 116.46 23.02 110.75L23.04 110.78L22.92 110.65Q36.49 103.42 62.59 80.78L62.59 80.78L62.53 80.71Q66.41 79.70 73.34 76.44L73.27 76.36L73.46 76.56Q66.25 108.30 65.64 142.36L65.69 142.41L65.54 142.26Q64.92 176.31 70.63 208.94L70.75 209.06L70.81 209.12Q61.78 205.19 50.36 204.58L50.23 204.45L50.28 204.50Q49.68 182.28 49.68 160.46L49.67 160.44L49.69 160.47Q49.75 138.50 49.95 116.48ZM47.80 128.39L47.91 206.62L47.79 206.50Q54.32 206.50 59.42 207.52L59.40 207.50L59.43 207.53Q59.97 211.33 60.99 218.67L60.99 218.68L60.88 218.57Q76.21 221.46 89.26 233.49L89.35 233.57L89.27 233.49Q75.97 195.31 75.77 155.34L75.87 155.45L75.89 155.46Q75.47 115.48 85.26 76.73L85.26 76.73L85.21 76.68Q82.35 78.92 73.79 84.84L73.68 84.73L73.76 84.81Q74.75 80.70 76.38 72.54L76.45 72.61L76.44 72.60Q69.37 76.75 61.62 78.79L61.48 78.65L61.44 78.61Q41.38 97.91 18.33 110.15L18.37 110.18L18.21 110.02Q25.91 116.09 38.55 117.93L38.56 117.93L38.58 117.95Q35.11 120.81 28.18 126.52L27.99 126.33L28.16 126.50Q36.13 128.55 47.96 128.55L47.97 128.57Z"/><path fill="#ca81e3" d="M174.45 116.47L174.33 116.35L174.50 116.52Q157.22 116.38 147.43 110.67L147.49 110.72L147.44 110.67Q161.04 103.47 187.14 80.83L187.02 80.71L187.01 80.69Q190.93 79.73 197.87 76.47L197.79 76.39L197.85 76.44Q190.76 108.31 190.15 142.37L190.16 142.38L190.02 142.24Q189.41 176.30 195.12 208.93L195.23 209.04L195.31 209.12Q186.15 205.06 174.73 204.45L174.74 204.46L174.80 204.52Q174.26 182.36 174.26 160.54L174.29 160.57L174.19 160.47Q174.25 138.51 174.46 116.48ZM172.45 128.54L172.34 206.54L172.39 206.59Q178.91 206.59 184.01 207.61L183.98 207.58L184.05 207.65Q184.35 211.21 185.37 218.56L185.48 218.67L185.51 218.70Q200.71 221.45 213.76 233.49L213.70 233.43L213.78 233.50Q200.51 195.35 200.30 155.38L200.40 155.47L200.36 155.43Q199.99 115.50 209.78 76.75L209.62 76.59L209.74 76.71Q206.89 78.96 198.33 84.88L198.22 84.78L198.22 84.77Q199.36 80.82 201.00 72.66L200.95 72.62L200.96 72.62Q193.71 76.59 185.96 78.63L186.08 78.75L186.11 78.78Q165.84 97.87 142.79 110.11L142.77 110.08L142.72 110.03Q150.29 115.97 162.94 117.81L162.94 117.81L163.04 117.92Q159.55 120.74 152.61 126.45L152.59 126.43L152.62 126.46Q160.59 128.51 172.42 128.51L172.31 128.40Z"/><path fill="#b276ee" d="M462.61 194.18L462.58 194.14L462.63 194.19Q464.13 199.37 466.99 210.18L467.07 210.26L467.04 210.24Q444.49 203.18 419.81 204.61L419.64 204.44L419.67 204.47Q395.23 205.92 373.81 216.53L373.87 216.59L373.91 216.63Q375.01 212.83 375.22 213.24L375.29 213.31L375.20 213.23Q395.18 192.01 416.19 168.36L416.23 168.39L416.33 168.50Q439.95 141.74 446.27 116.66L446.27 116.66L446.21 116.59Q448.71 107.26 441.87 100.94L441.84 100.91L441.88 100.95Q435.13 94.71 425.55 95.52L425.39 95.36L425.39 95.37Q423.63 95.24 421.80 95.24L421.69 95.13L421.72 95.17Q413.67 95.28 406.94 100.17L406.87 100.09L406.80 100.03Q400.00 107.50 401.22 121.77L401.11 121.67L401.22 121.78Q391.54 119.84 385.01 117.39L385.07 117.45L385.17 117.55Q383.99 109.84 383.58 102.09L383.73 102.25L383.70 102.22Q383.22 93.38 386.49 87.26L386.42 87.19L386.40 87.17Q396.08 79.93 414.03 79.93L414.04 79.94L423.34 79.86L423.36 79.87Q435.68 80.16 440.78 80.78L440.82 80.82L440.70 80.70Q464.08 83.08 465.51 96.13L465.44 96.06L465.52 96.13Q465.89 99.15 465.48 103.44L465.46 103.42L465.46 103.42Q465.27 106.90 464.45 110.57L464.48 110.59L464.39 110.50Q455.65 153.97 415.06 190.68L415.11 190.73L415.07 190.69Q422.51 189.77 429.86 189.77L429.93 189.84L429.93 189.85Q447.35 189.93 462.65 194.21ZM459.44 82.51L459.42 82.49L459.44 82.51Q450.93 79.10 441.75 78.69L441.75 78.69L423.36 77.63L423.42 77.69Q399.47 76.18 387.64 82.09L387.73 82.18L387.80 82.25Q381.92 89.42 381.92 100.43L382.11 100.62L382.03 100.55Q382.27 104.46 383.90 119.55L383.78 119.43L383.93 119.58Q386.78 120.79 393.10 122.43L393.00 122.33L393.06 127.89L392.94 127.77Q392.89 130.38 393.30 133.23L393.16 133.09L393.29 133.22Q399.87 133.68 413.13 134.91L413.31 135.09L413.24 135.02Q412.99 132.94 412.99 131.10L412.96 131.06L413.10 131.21Q412.98 121.29 419.50 114.05L419.46 114.02L419.63 114.18Q426.09 106.88 435.68 107.49L435.70 107.52L435.72 107.53Q439.68 107.62 443.76 108.43L443.90 108.58L443.81 108.49Q444.46 110.56 444.86 112.80L444.91 112.85L444.82 112.76Q445.13 115.10 444.72 116.94L444.67 116.89L444.57 116.79Q437.85 142.29 414.19 168.19L414.25 168.25L414.26 168.26Q402.75 180.20 373.59 212.63L373.61 212.65L373.59 212.63Q372.57 217.12 370.73 220.18L370.80 220.24L370.71 220.16Q379.32 215.51 387.47 212.65L387.61 212.78L387.44 212.62Q383.65 215.76 378.55 223.72L378.53 223.70L378.61 223.78Q377.85 225.46 377.23 227.29L377.32 227.38L377.24 227.30Q403.50 216.45 432.87 217.47L432.82 217.41L432.80 217.40Q463.24 218.26 487.71 230.90L487.64 230.83L482.43 219.50L482.26 219.33Q478.85 212.26 477.43 207.98L477.41 207.95L477.54 208.08Q473.49 205.67 466.96 203.42L466.96 203.42L466.98 203.45Q466.19 199.59 464.15 192.25L464.20 192.31L464.11 192.21Q452.32 189.19 440.09 188.17L440.15 188.24L440.13 188.22Q465.22 163.75 473.37 119.49L473.34 119.46L474.42 104.01L474.50 104.09Q474.07 94.49 467.54 90.82L467.51 90.78L467.26 90.74L467.24 90.72Q466.98 90.25 466.57 90.25L466.72 90.40L466.68 90.36Q465.49 85.91 459.58 82.65Z"/><path d="M5 238 C247 110,237 7,493 237" stroke="#829be7" fill="none"/><path d="M12 123 C268 246,270 57,483 65" stroke="#88f0d6" fill="none"/></svg>