<svg xmlns="http://www.w3.org/2000/svg" width="500" height="250" viewBox="0,0,500,250"><path fill="#e2b83a" d="M378.42 136.65L378.40 136.63L378.35 136.58Q382.70 136.65 390.25 135.83L390.29 135.88L390.14 135.73Q389.93 139.19 389.93 142.66L389.94 142.67L389.92 149.38L390.04 149.50Q385.49 149.43 381.00 149.83L381.11 149.95L380.95 149.79Q376.57 150.09 372.08 149.89L372.06 149.87L372.13 149.94Q356.86 183.01 338.51 207.68L338.36 207.54L338.48 207.65Q324.98 211.09 318.05 214.35L318.02 214.32L318.10 214.40Q340.15 183.83 356.47 150.18L356.37 150.09L342.31 150.09L342.30 150.09Q342.23 142.88 341.62 135.74L341.62 135.74L341.65 135.77Q351.88 136.62 362.89 136.62L362.95 136.68L373.17 116.92L373.09 116.84Q378.35 106.60 384.87 98.03L384.83 97.99L384.99 98.15Q376.58 98.92 368.02 98.92L367.92 98.82L367.91 98.81Q335.37 98.90 315.18 87.07L315.16 87.05L311.70 77.88L311.81 77.99Q309.93 73.47 307.89 68.78L307.84 68.72L307.79 68.67Q331.17 82.87 361.76 84.10L361.64 83.98L361.61 83.94Q389.25 85.28 416.78 74.67L416.72 74.62L416.76 74.65Q415.81 76.96 413.16 81.65L413.13 81.63L413.15 81.65Q393.73 107.09 378.43 136.66ZM421.72 89.00L421.67 88.94L426.99 78.15L426.89 78.05Q421.84 80.75 412.86 84.62L412.90 84.66L413.94 83.05L413.90 83.01Q414.46 82.14 415.07 81.52L415.01 81.47L415.19 81.65Q417.10 77.85 420.98 70.71L420.96 70.70L420.98 70.72Q392.52 83.04 361.73 81.82L361.70 81.79L361.72 81.81Q329.50 80.39 304.01 64.48L304.02 64.49L303.99 64.46Q309.46 74.42 313.95 88.70L313.97 88.72L313.99 88.74Q319.80 92.11 324.09 93.74L324.06 93.71L324.19 93.85Q324.93 95.60 327.38 105.60L327.33 105.55L327.39 105.60Q344.34 112.35 373.91 111.54L373.91 111.54L373.92 111.55Q372.30 114.62 361.70 134.81L361.70 134.82L361.67 134.78Q350.72 134.85 340.11 133.83L340.00 133.72L340.02 133.74Q340.37 138.16 340.37 142.85L340.46 142.95L340.55 152.21L349.49 152.18L349.39 159.63L349.47 159.70Q328.43 199.24 313.55 218.41L313.57 218.43L313.53 218.40Q322.19 214.41 330.96 211.76L330.81 211.61L330.81 211.61Q327.15 216.52 319.81 225.69L319.79 225.68L319.76 225.65Q336.74 219.79 349.80 218.56L349.85 218.62L349.75 218.52Q365.49 198.37 382.22 162.06L382.25 162.10L400.56 163.07L400.59 163.10Q400.23 158.26 400.23 153.37L400.14 153.27L400.29 143.83L400.13 143.68Q398.81 143.79 395.86 143.99L395.77 143.90L395.79 143.93Q392.78 144.08 391.36 144.08L391.52 144.24L391.54 144.26Q391.45 143.57 391.66 142.75L391.61 142.70L391.60 141.26L391.59 141.25Q405.14 113.81 421.66 88.93Z"/><path fill="#7de798" d="M440.65 136.63L440.67 136.65L440.56 136.54Q444.99 136.69 452.53 135.87L452.40 135.73L452.55 135.89Q452.24 139.24 452.24 142.71L452.24 142.71L452.31 149.51L452.36 149.56Q447.77 149.46 443.28 149.87L443.30 149.88L443.32 149.90Q438.89 150.16 434.40 149.96L434.27 149.83L434.38 149.93Q419.03 182.92 400.67 207.60L400.59 207.51L400.67 207.60Q387.23 211.08 380.29 214.34L380.19 214.24L380.23 214.28Q402.25 183.68 418.56 150.03L418.68 150.15L404.50 150.04L404.64 150.18Q404.57 142.97 403.95 135.83L403.89 135.77L403.98 135.85Q414.17 136.66 425.18 136.66L425.07 136.55L435.24 116.74L435.44 116.94Q440.71 106.71 447.23 98.14L447.13 98.04L447.18 98.09Q438.86 98.94 430.29 98.94L430.21 98.87L430.19 98.84Q397.60 98.89 377.41 87.06L377.51 87.15L373.96 77.89L373.88 77.82Q372.07 73.35 370.03 68.66L370.10 68.73L369.99 68.62Q393.33 82.78 423.92 84.00L423.88 83.96L423.87 83.95Q451.49 85.27 479.03 74.67L478.99 74.63L479.01 74.65Q478.02 76.92 475.36 81.61L475.29 81.53L475.38 81.63Q455.86 106.98 440.57 136.55ZM483.79 88.81L483.86 88.88L489.22 78.13L489.27 78.18Q484.13 80.79 475.15 84.66L475.18 84.69L476.04 82.89L476.15 83.01Q476.72 82.15 477.33 81.54L477.43 81.63L477.42 81.63Q479.30 77.79 483.17 70.65L483.24 70.72L483.23 70.71Q454.72 82.99 423.92 81.77L423.88 81.73L423.90 81.74Q391.66 80.29 366.16 64.39L366.14 64.37L366.30 64.53Q371.63 74.34 376.12 88.61L376.27 88.77L376.12 88.62Q382.03 92.09 386.32 93.72L386.32 93.72L386.45 93.86Q387.23 95.65 389.67 105.64L389.67 105.64L389.70 105.67Q406.64 112.41 436.22 111.60L436.19 111.58L436.08 111.46Q434.49 114.56 423.88 134.75L423.85 134.71L423.86 134.73Q412.83 134.72 402.23 133.70L402.28 133.75L402.34 133.81Q402.74 138.28 402.74 142.98L402.81 143.04L402.71 152.13L411.59 152.03L411.70 159.69L411.75 159.74Q390.66 199.22 375.78 218.39L375.83 218.44L375.72 218.33Q384.37 214.34 393.14 211.69L393.14 211.69L393.19 211.74Q389.54 216.65 382.19 225.83L382.13 225.77L382.11 225.74Q399.00 219.80 412.06 218.57L412.04 218.56L412.03 218.54Q427.71 198.33 444.43 162.03L444.53 162.13L462.83 163.09L462.97 163.23Q462.55 158.33 462.55 153.43L462.51 153.39L462.37 143.67L462.50 143.80Q461.01 143.73 458.05 143.94L458.08 143.96L458.18 144.06Q455.13 144.18 453.70 144.18L453.60 144.07L453.62 144.10Q453.61 143.47 453.82 142.66L453.94 142.79L453.81 141.22L453.85 141.27Q467.37 113.79 483.89 88.91Z"/><path d="M18 207 C250 58,236 53,484 148" stroke="#5ce4c2" fill="none"/><path d="M4 13 C264 83,243 144,492 193" stroke="#85eeee" fill="none"/><path fill="#6ee7e7" d="M49.88 116.40L49.99 116.52L49.95 116.47Q32.78 116.44 23.00 110.73L22.92 110.65L22.95 110.68Q36.55 103.48 62.65 80.84L62.46 80.65L62.55 80.74Q66.37 79.66 73.31 76.40L73.38 76.48L73.44 76.53Q66.27 108.32 65.66 142.38L65.68 142.40L65.64 142.36Q65.08 176.47 70.79 209.10L70.81 209.12L70.62 208.93Q61.80 205.21 50.38 204.60L50.34 204.56L50.26 204.47Q49.79 182.39 49.79 160.57L49.80 160.57L49.80 160.57Q49.77 138.53 49.98 116.50ZM47.91 128.51L47.92 206.62L47.93 206.63Q54.37 206.54 59.46 207.56L59.46 207.56L59.57 207.67Q59.89 211.26 60.91 218.60L60.90 218.58L60.93 218.61Q76.15 221.40 89.20 233.43L89.21 233.43L89.27 233.50Q75.93 195.27 75.72 155.30L75.88 155.45L75.83 155.40Q75.41 115.42 85.20 76.67L85.23 76.70L85.25 76.72Q82.32 78.89 73.76 84.81L73.83 84.88L73.80 84.85Q74.71 80.67 76.35 72.51L76.44 72.60L76.48 72.64Q69.31 76.69 61.56 78.73L61.46 78.63L61.53 78.70Q41.45 97.98 18.40 110.21L18.31 110.12L18.21 110.02Q25.92 116.10 38.57 117.94L38.48 117.85L38.57 117.94Q34.94 120.64 28.01 126.35L28.08 126.42L28.01 126.35Q35.97 128.40 47.80 128.40L47.84 128.43Z"/><path d="M13 239 C230 82,232 119,494 192" stroke="#42d567" fill="none"/><path d="M5 69 C232 22,242 197,479 97" stroke="#8686e8" fill="none"/><path fill="#dc9855" d="M298.94 116.47L298.98 116.50L298.84 116.36Q281.71 116.37 271.92 110.65L271.91 110.64L272.06 110.79Q285.39 103.32 311.49 80.68L311.54 80.73L311.48 80.66Q315.43 79.72 322.36 76.46L322.46 76.55L322.32 76.42Q315.16 108.21 314.55 142.27L314.57 142.29L314.53 142.25Q314.01 176.40 319.72 209.03L319.63 208.94L319.77 209.09Q310.78 205.19 299.35 204.57L299.34 204.56L299.37 204.59Q298.74 182.34 298.74 160.52L298.74 160.52L298.79 160.56Q298.70 138.45 298.90 116.43ZM296.89 128.48L296.79 206.50L296.88 206.59Q303.49 206.67 308.59 207.69L308.54 207.64L308.47 207.57Q308.86 211.23 309.88 218.57L309.96 218.65L309.83 218.51Q325.28 221.52 338.33 233.56L338.22 233.44L338.18 233.41Q325.05 195.39 324.85 155.42L324.84 155.41L324.82 155.40Q324.43 115.44 334.22 76.69L334.17 76.65L334.10 76.57Q331.32 78.90 322.76 84.81L322.81 84.86L322.85 84.90Q323.70 80.65 325.33 72.49L325.45 72.61L325.34 72.51Q318.21 76.59 310.46 78.63L310.62 78.79L310.63 78.80Q290.38 97.91 267.33 110.14L267.33 110.14L267.23 110.04Q274.85 116.03 287.49 117.87L287.47 117.84L287.56 117.93Q284.00 120.69 277.06 126.40L277.09 126.43L277.04 126.38Q284.99 128.42 296.82 128.42L296.78 128.38Z"/><path fill="#43bfe9" d="M191.62 136.60L191.71 136.69L191.59 136.57Q195.95 136.65 203.50 135.84L203.43 135.76L203.43 135.76Q203.33 139.33 203.33 142.80L203.31 142.78L203.32 149.53L203.32 149.52Q198.86 149.55 194.37 149.95L194.34 149.92L194.20 149.78Q189.72 150.00 185.23 149.79L185.23 149.79L185.36 149.91Q169.96 182.86 151.61 207.53L151.72 207.65L151.60 207.52Q138.24 211.09 131.31 214.36L131.19 214.24L131.27 214.32Q153.21 183.64 169.52 149.99L169.67 150.14L155.62 150.16L155.57 150.11Q155.47 142.87 154.86 135.74L154.92 135.79L155.03 135.91Q165.18 136.68 176.20 136.68L176.22 136.70L186.25 116.75L186.26 116.76Q191.69 106.69 198.22 98.13L198.07 97.98L198.13 98.04Q189.89 98.98 181.33 98.98L181.31 98.96L181.27 98.92Q148.51 98.80 128.32 86.97L128.33 86.98L125.04 77.98L125.00 77.93Q123.04 73.32 121.00 68.63L121.12 68.75L121.06 68.69Q144.25 82.71 174.85 83.93L174.99 84.08L174.89 83.98Q202.54 85.32 230.07 74.71L229.97 74.61L229.96 74.60Q228.91 76.81 226.26 81.50L226.40 81.65L226.38 81.63Q207.00 107.12 191.71 136.69ZM234.92 88.94L234.84 88.87L240.19 78.10L240.15 78.06Q235.02 80.68 226.05 84.55L226.12 84.63L227.14 83.00L227.04 82.90Q227.78 82.21 228.39 81.60L228.39 81.60L228.41 81.62Q230.31 77.80 234.18 70.66L234.21 70.70L234.29 70.77Q205.78 83.05 174.98 81.82L174.99 81.83L174.83 81.67Q142.71 80.35 117.22 64.44L117.15 64.38L117.14 64.37Q122.75 74.46 127.23 88.73L127.14 88.64L127.18 88.68Q133.11 92.16 137.39 93.79L137.43 93.83L137.38 93.78Q138.31 95.73 140.76 105.72L140.69 105.66L140.71 105.68Q157.49 112.26 187.06 111.45L187.08 111.47L187.21 111.59Q185.60 114.68 175.00 134.87L174.94 134.81L174.87 134.74Q164.00 134.88 153.39 133.86L153.31 133.77L153.39 133.85Q153.74 138.29 153.74 142.98L153.66 142.89L153.62 152.04L162.73 152.17L162.66 159.65L162.63 159.61Q141.76 199.31 126.87 218.49L126.88 218.50L126.74 218.36Q135.38 214.35 144.15 211.70L144.07 211.62L144.21 211.75Q140.38 216.50 133.04 225.67L133.16 225.79L133.04 225.67Q150.06 219.86 163.12 218.63L163.07 218.58L163.06 218.58Q178.78 198.40 195.50 162.10L195.61 162.21L213.95 163.21L213.91 163.17Q213.54 158.32 213.54 153.43L213.38 153.26L213.40 143.69L213.44 143.73Q212.07 143.80 209.12 144.00L209.18 144.06L209.06 143.95Q206.13 144.18 204.71 144.18L204.60 144.07L204.67 144.15Q204.73 143.59 204.93 142.77L204.89 142.73L204.82 141.24L204.81 141.23Q218.40 113.82 234.92 88.94Z"/><path fill="#e36035" d="M109.29 96.33L109.18 96.22L100.82 96.83L100.79 96.80Q88.83 97.48 87.60 108.29L87.57 108.26L87.67 108.36Q87.16 112.13 87.36 117.44L87.34 117.42L87.31 117.38Q87.49 127.76 94.22 134.90L94.31 134.98L94.38 135.06Q100.99 142.08 111.19 141.26L111.15 141.22L111.21 141.28Q122.25 140.49 126.33 135.60L126.36 135.63L126.28 135.55Q132.09 130.76 133.52 118.73L133.50 118.71L133.51 118.72Q134.91 106.65 128.18 102.16L128.27 102.26L128.21 102.19Q123.49 97.89 109.22 96.26ZM141.66 145.84L141.54 145.71L134.78 158.12L134.65 157.99Q120.20 183.72 100.01 205.54L99.96 205.49L100.01 205.54Q91.26 206.38 76.78 210.66L76.78 210.66L76.73 210.61Q105.35 177.02 122.27 151.33L122.18 151.23L122.32 151.37Q116.74 154.77 107.97 155.18L108.01 155.22L108.03 155.23Q91.87 156.00 83.71 145.39L83.61 145.29L83.75 145.43Q77.25 136.90 71.34 112.43L71.36 112.44L71.23 112.31Q71.35 109.98 70.53 104.99L70.50 104.96L70.53 104.98Q69.61 99.89 69.61 97.44L69.54 97.37L69.62 97.44Q69.74 87.98 75.45 84.72L75.26 84.53L75.33 84.60Q81.82 80.48 91.81 80.48L91.91 80.58L91.93 80.60Q108.98 80.52 108.98 80.52L109.03 80.57L109.08 80.62Q120.58 80.69 127.31 81.71L127.34 81.75L127.31 81.72Q138.83 83.25 143.73 85.90L143.65 85.82L143.58 85.75Q150.96 89.87 151.98 99.25L152.07 99.34L152.00 99.27Q152.07 100.56 151.05 114.84L151.02 114.81L150.98 114.77Q148.90 126.15 147.67 130.63L147.66 130.62L147.83 130.79Q145.80 138.35 141.72 145.89ZM151.85 158.67L151.89 158.71L151.81 158.63Q157.12 146.81 159.97 123.76L160.01 123.80L160.03 123.82Q161.44 111.98 161.24 107.29L161.15 107.19L161.22 107.26Q160.91 97.17 154.59 92.27L154.66 92.35L153.03 91.73L153.05 91.76Q151.72 87.77 146.82 84.30L146.70 84.18L146.74 84.22Q134.53 78.95 108.84 78.13L108.78 78.07L108.89 78.19Q103.75 78.15 90.70 78.15L90.59 78.03L90.74 78.19Q81.17 78.00 73.22 81.67L73.22 81.68L73.38 81.83Q67.11 85.96 67.52 95.75L67.55 95.78L67.61 95.85Q68.58 100.69 69.60 111.50L69.55 111.45L69.70 111.60Q72.98 125.69 74.40 130.17L74.37 130.14L74.35 130.12Q77.40 140.11 82.50 147.04L82.54 147.08L82.57 147.11Q83.95 148.90 85.99 150.94L85.87 150.81L85.89 150.84Q87.37 153.34 90.84 158.23L90.86 158.26L90.77 158.16Q98.84 165.62 109.24 166.64L109.16 166.56L109.21 166.62Q99.10 180.97 90.73 191.17L90.65 191.08L71.20 214.46L71.34 214.60Q83.36 210.51 92.13 208.68L92.03 208.57L92.12 208.66Q87.93 213.24 79.56 222.42L79.55 222.41L79.72 222.57Q96.06 217.50 112.78 217.29L112.84 217.35L112.85 217.36Q125.34 203.54 148.59 164.79L148.58 164.78L148.55 165.16L148.49 165.10Q150.03 161.34 151.86 158.68ZM119.53 109.02L119.60 109.08L119.67 109.16Q122.97 108.58 125.41 109.19L125.23 109.01L125.33 109.11Q128.88 109.80 130.91 110.41L130.84 110.34L130.80 110.29Q131.42 112.34 131.83 114.59L131.81 114.57L131.83 114.59Q132.20 116.79 131.59 118.83L131.59 118.83L131.54 118.78Q131.47 128.09 125.14 134.01L125.02 133.88L125.15 134.01Q120.05 139.51 111.28 139.31L111.23 139.26L111.21 139.24Q109.01 139.29 100.85 137.66L100.75 137.55L100.81 137.61Q99.58 132.92 99.58 129.04L99.66 129.12L99.57 129.03Q99.22 127.66 99.22 126.44L99.19 126.41L99.24 126.46Q99.29 114.68 111.53 110.39L111.50 110.37L111.35 110.22Q115.21 109.18 119.69 109.18Z"/><path fill="#e8e85d" d="M241.12 202.47L241.20 202.55L241.19 202.54Q237.43 202.24 233.75 202.45L233.87 202.57L233.78 202.47Q229.88 202.86 226.21 202.86L226.30 202.94L226.19 202.83Q228.68 184.53 228.68 166.17L228.78 166.27L228.61 166.10Q218.85 166.33 213.96 166.33L213.92 166.30L213.96 166.34Q209.39 166.25 199.60 165.84L199.59 165.83L199.57 165.82Q199.68 164.30 198.66 151.04L198.65 151.02L198.76 151.14Q212.30 153.87 228.21 153.87L228.23 153.89L228.23 153.89Q227.15 130.58 224.90 116.71L224.90 116.70L224.93 116.74Q229.07 117.20 233.35 117.20L233.35 117.21L242.09 117.18L242.24 117.32Q240.98 140.12 240.98 153.99L241.03 154.05L240.93 153.95Q252.51 153.90 269.64 152.06L269.66 152.09L269.76 152.19Q268.99 159.16 268.99 165.69L269.07 165.77L269.14 165.84Q267.60 165.73 263.32 165.93L263.47 166.09L263.36 165.98Q258.12 166.04 254.86 166.25L254.80 166.18L254.76 166.14Q254.77 166.15 240.49 166.15L240.46 166.12L240.60 184.61L240.62 184.63Q240.61 193.39 241.22 202.57ZM271.98 149.51L271.95 149.48L272.03 149.56Q261.82 151.18 251.83 151.59L251.72 151.48L251.66 151.42Q253.14 134.74 255.38 124.75L255.33 124.71L255.41 124.78Q251.60 125.05 244.05 125.87L244.01 125.82L244.96 114.74L245.06 114.84Q230.90 114.75 221.92 114.14L222.07 114.28L221.98 114.19Q225.26 131.14 226.28 151.94L226.22 151.88L226.30 151.96Q216.49 151.33 196.71 148.07L196.69 148.04L196.73 148.09Q198.13 154.38 198.13 168.45L198.05 168.38L206.24 168.40L206.28 168.44Q206.24 172.28 205.42 179.83L205.42 179.82L226.61 178.37L226.71 178.48Q225.45 195.37 223.82 205.16L223.77 205.10L223.86 205.20Q227.79 205.05 235.34 204.44L235.51 204.61L235.51 204.61Q235.47 208.24 235.26 215.38L235.29 215.40L235.30 215.41Q238.18 215.44 257.56 216.26L257.49 216.19L257.39 216.09Q252.66 199.73 251.43 178.52L251.27 178.36L251.30 178.39Q269.06 178.81 280.27 180.85L280.24 180.82L280.37 180.95Q279.24 175.74 279.24 170.64L279.31 170.70L279.23 160.43L279.19 160.39Q278.06 160.48 275.20 160.69L275.30 160.78L270.95 160.71L270.84 160.61Q271.25 156.73 271.86 149.39Z"/></svg>