<svg xmlns="http://www.w3.org/2000/svg" width="500" height="250" viewBox="0,0,500,250"><path d="M11 33 C229 62,232 150,487 228" stroke="#6eecad" fill="none"/><path d="M6 61 C253 190,268 24,492 144" stroke="#dd597a" fill="none"/><path d="M8 171 C263 132,242 239,480 246" stroke="#99e24f" fill="none"/><path d="M19 230 C235 120,252 135,496 4" stroke="#f07fd3" fill="none"/><path fill="#e24091" d="M70.66 116.43L70.71 116.48L70.56 116.34Q53.60 116.50 43.81 110.79L43.73 110.71L43.78 110.76Q57.15 103.33 83.25 80.69L83.36 80.80L83.34 80.78Q87.11 79.65 94.04 76.39L94.10 76.45L94.10 76.45Q87.05 108.35 86.44 142.41L86.33 142.30L86.39 142.36Q85.70 176.34 91.41 208.97L91.40 208.96L91.47 209.03Q82.49 205.15 71.07 204.53L71.15 204.62L70.98 204.45Q70.55 182.40 70.55 160.58L70.44 160.46L70.44 160.47Q70.38 138.38 70.58 116.35ZM68.72 128.57L68.55 206.51L68.67 206.62Q75.15 206.58 80.25 207.60L80.23 207.58L80.19 207.54Q80.58 211.19 81.60 218.53L81.75 218.68L81.71 218.65Q96.92 221.42 109.98 233.45L110.01 233.49L110.00 233.48Q96.75 195.35 96.55 155.38L96.65 155.48L96.61 155.44Q96.25 115.51 106.04 76.76L106.03 76.75L105.89 76.61Q102.99 78.81 94.43 84.73L94.54 84.84L94.62 84.92Q95.54 80.75 97.18 72.59L97.10 72.51L97.25 72.66Q90.03 76.66 82.28 78.70L82.33 78.75L82.35 78.77Q62.07 97.85 39.02 110.08L39.05 110.11L39.03 110.09Q46.65 116.08 59.29 117.91L59.20 117.83L59.23 117.85Q55.70 120.64 48.76 126.35L48.89 126.48L48.89 126.48Q56.84 128.51 68.67 128.51L68.54 128.38Z"/><path fill="#48e9c1" d="M150.71 96.25L150.68 96.22L142.41 96.92L142.26 96.77Q130.34 97.50 129.12 108.31L129.17 108.36L129.15 108.34Q128.76 112.23 128.96 117.53L128.94 117.52L128.88 117.45Q129.15 127.92 135.88 135.06L135.91 135.09L135.87 135.05Q142.57 142.15 152.76 141.33L152.72 141.29L152.69 141.26Q163.84 140.58 167.92 135.69L167.81 135.58L167.79 135.56Q173.61 130.77 175.04 118.74L174.94 118.64L174.94 118.65Q176.49 106.73 169.76 102.25L169.67 102.16L169.63 102.12Q165.08 97.97 150.80 96.34ZM183.11 145.78L183.22 145.89L176.21 158.05L176.29 158.13Q161.76 183.78 141.57 205.60L141.51 205.54L141.48 205.51Q132.83 206.44 118.35 210.72L118.35 210.73L118.28 210.65Q146.85 177.02 163.78 151.33L163.67 151.22L163.75 151.30Q158.24 154.77 149.48 155.18L149.47 155.17L149.52 155.22Q133.42 156.05 125.27 145.45L125.23 145.41L125.13 145.31Q118.62 136.76 112.70 112.29L112.71 112.30L112.83 112.41Q112.67 109.81 111.86 104.81L111.91 104.87L112.03 104.98Q111.16 99.93 111.16 97.49L111.12 97.45L111.04 97.37Q111.07 87.81 116.78 84.55L116.79 84.56L116.81 84.58Q123.47 80.63 133.46 80.63L133.28 80.46L133.29 80.46Q150.50 80.54 150.50 80.54L150.49 80.53L150.47 80.51Q162.14 80.76 168.87 81.78L168.94 81.85L168.88 81.79Q180.27 83.18 185.16 85.83L185.07 85.75L185.26 85.94Q192.48 89.89 193.50 99.27L193.47 99.24L193.49 99.27Q193.51 100.51 192.49 114.78L192.46 114.75L192.43 114.72Q190.51 126.26 189.29 130.75L189.34 130.80L189.18 130.64Q187.12 138.16 183.04 145.71ZM193.35 158.68L193.36 158.69L193.32 158.64Q198.58 146.77 201.43 123.72L201.57 123.86L201.54 123.83Q202.85 111.89 202.65 107.20L202.70 107.25L202.63 107.18Q202.47 97.22 196.14 92.33L196.11 92.30L194.52 91.72L194.59 91.79Q193.17 87.72 188.27 84.25L188.26 84.24L188.26 84.24Q176.04 78.96 150.34 78.14L150.37 78.17L150.25 78.05Q145.28 78.18 132.23 78.18L132.17 78.12L132.06 78.00Q122.70 78.03 114.74 81.70L114.73 81.69L114.91 81.86Q108.66 86.01 109.06 95.80L109.11 95.85L109.02 95.75Q110.07 100.68 111.09 111.49L111.16 111.56L111.17 111.57Q114.36 125.57 115.78 130.05L115.86 130.13L115.88 130.14Q118.90 140.10 124.00 147.04L123.90 146.94L123.97 147.01Q125.33 148.77 127.37 150.81L127.38 150.82L127.40 150.84Q128.98 153.44 132.44 158.34L132.38 158.27L132.36 158.26Q140.37 165.65 150.77 166.67L150.70 166.60L150.71 166.61Q140.46 180.83 132.09 191.03L132.05 190.98L112.76 214.52L112.75 214.51Q124.76 210.41 133.53 208.57L133.60 208.64L133.59 208.64Q129.51 213.32 121.15 222.50L121.22 222.57L121.05 222.41Q137.61 217.55 154.33 217.34L154.36 217.37L154.28 217.29Q166.89 203.59 190.14 164.84L190.13 164.83L190.14 165.25L190.07 165.18Q191.56 161.37 193.39 158.71ZM161.07 109.05L161.05 109.03L161.15 109.14Q164.28 108.39 166.73 109.01L166.89 109.17L166.76 109.04Q170.29 109.71 172.33 110.33L172.39 110.39L172.35 110.34Q172.87 112.29 173.28 114.53L173.25 114.50L173.31 114.57Q173.76 116.85 173.15 118.89L173.12 118.86L173.23 118.97Q173.03 128.16 166.71 134.07L166.69 134.05L166.61 133.97Q161.53 139.49 152.76 139.29L152.82 139.35L152.73 139.26Q150.59 139.36 142.43 137.73L142.34 137.64L142.41 137.71Q141.08 132.91 141.08 129.04L141.06 129.02L141.11 129.07Q140.64 127.58 140.64 126.36L140.70 126.42L140.74 126.45Q140.81 114.70 153.05 110.42L152.92 110.29L152.87 110.24Q156.58 109.05 161.06 109.05Z"/><path fill="#a8e16f" d="M381.76 207.19L381.76 207.19L381.71 207.14Q374.26 207.64 365.90 205.40L365.79 205.29L365.86 205.36Q359.31 200.44 358.49 191.68L358.44 191.62L358.52 191.70Q358.30 190.67 359.32 176.60L359.27 176.54L359.35 176.62Q364.79 175.54 375.60 173.50L375.65 173.55L374.54 177.54L374.60 177.60Q373.21 187.01 380.75 190.07L380.72 190.04L380.77 190.09Q385.09 191.96 396.31 191.96L396.19 191.84L396.16 191.82Q404.74 191.01 405.76 190.61L405.76 190.61L405.90 190.74Q410.64 189.78 414.51 187.13L414.62 187.23L414.64 187.25Q422.21 182.18 421.19 170.96L421.04 170.81L421.08 170.85Q420.05 157.79 410.77 149.43L410.90 149.55L410.86 149.52Q401.45 141.02 388.19 141.02L388.23 141.06L388.33 139.93L388.35 139.96Q390.36 139.72 395.05 139.31L395.02 139.29L394.92 139.18Q405.16 138.62 412.50 131.99L412.56 132.05L412.51 131.99Q419.80 125.31 420.61 115.32L420.64 115.34L420.79 115.50Q421.06 113.52 421.06 111.68L421.06 111.69L421.03 111.65Q421.20 103.67 413.86 98.77L413.75 98.66L413.69 98.60Q407.25 94.40 398.68 95.02L398.76 95.10L398.71 95.04Q391.70 94.15 385.17 96.40L385.27 96.49L385.29 96.51Q377.47 99.30 375.84 105.42L375.76 105.34L375.74 105.32Q374.74 109.41 375.15 113.49L375.15 113.50L375.20 113.55Q369.67 112.31 358.66 108.43L358.67 108.44L358.68 108.45Q357.46 99.48 357.66 94.99L357.64 94.97L357.74 95.07Q358.28 86.83 363.99 83.16L363.99 83.17L364.04 83.21Q371.60 79.97 380.17 79.97L380.11 79.92L380.09 79.90Q397.03 79.70 413.96 81.13L413.95 81.12L413.96 81.13Q441.01 83.30 439.38 103.49L439.54 103.65L439.41 103.52Q439.05 111.53 436.40 119.89L436.48 119.96L436.40 119.89Q431.50 136.41 418.86 141.30L418.88 141.32L418.92 141.36Q433.04 144.26 436.30 162.21L436.30 162.20L436.24 162.15Q437.40 168.20 437.80 179.01L437.85 179.05L437.92 179.12Q438.59 202.84 413.91 205.29L413.90 205.27L413.91 205.29Q410.08 205.74 381.73 207.16ZM409.71 219.23L409.78 219.30L409.76 219.28Q412.90 219.37 428.20 219.78L428.16 219.74L428.23 219.81Q437.69 220.30 446.46 216.83L446.43 216.79L446.35 216.72Q452.70 211.65 451.68 202.27L451.66 202.24L451.70 202.28Q451.04 195.09 449.40 185.71L449.54 185.85L449.55 185.86Q445.52 161.64 435.12 152.87L435.29 153.04L434.12 150.85L433.98 150.51L433.93 150.46Q443.35 142.74 447.43 119.29L447.35 119.21L447.45 119.32Q447.65 116.86 448.26 111.76L448.20 111.70L448.18 111.68Q448.74 107.76 448.33 104.09L448.33 104.08L448.25 104.01Q447.43 95.02 440.49 91.35L440.55 91.41L439.99 91.26L440.00 91.26Q438.36 85.95 432.24 83.10L432.36 83.22L432.36 83.22Q424.27 79.61 396.73 77.98L396.65 77.90L396.55 77.80Q387.73 77.54 379.17 77.54L379.04 77.41L379.15 77.52Q370.55 77.49 362.39 80.96L362.42 80.98L362.36 80.92Q355.77 84.94 355.77 94.32L355.77 94.32L355.78 94.33Q355.92 92.23 357.35 110.18L357.32 110.15L357.32 110.15Q358.98 110.59 367.75 113.85L367.68 113.78L367.77 113.87Q367.75 116.70 367.55 119.35L367.40 119.21L367.56 119.36Q367.42 121.88 367.63 124.74L367.61 124.72L367.77 124.88Q377.33 126.90 388.14 127.51L387.98 127.35L388.12 127.49Q387.58 116.55 393.50 112.06L393.52 112.09L393.56 112.12Q398.11 108.72 408.92 107.50L408.81 107.38L408.98 107.56Q415.07 107.53 418.13 108.55L417.96 108.38L418.03 108.45Q418.30 109.13 418.50 109.74L418.46 109.69L418.41 110.67L418.98 113.69L419.01 113.71Q419.04 114.77 418.84 115.58L418.96 115.71L418.87 115.61Q418.47 124.80 410.31 131.12L410.21 131.02L410.24 131.05Q405.39 135.99 394.58 137.01L394.51 136.94L394.54 136.97Q390.81 137.93 386.12 137.93L386.06 137.87L386.13 137.93Q386.27 139.71 387.09 143.38L387.15 143.45L386.97 143.26Q396.51 143.42 404.26 147.30L404.18 147.22L403.62 147.27L395.21 148.24L395.15 148.18Q395.50 150.17 396.12 153.43L395.99 153.31L396.00 153.31Q407.47 152.96 416.65 160.10L416.55 159.99L416.60 160.04Q417.80 162.07 419.44 170.84L419.39 170.79L419.52 170.92Q420.58 186.66 404.88 188.91L404.81 188.84L404.76 188.79Q393.59 190.27 390.53 190.06L390.61 190.14L390.51 190.04Q388.17 189.53 385.31 189.12L385.13 188.95L385.15 186.51L385.79 184.09L386.03 182.09L386.28 180.51L386.23 180.46Q381.11 180.85 376.83 181.87L376.77 181.80L376.94 181.97Q376.74 180.76 376.74 179.74L376.62 179.62L376.66 179.65Q376.92 178.70 376.92 177.47L376.93 177.48L376.92 177.47Q377.06 175.16 377.88 171.29L377.93 171.34L377.95 171.36Q367.85 172.48 357.85 174.31L357.86 174.31L357.98 174.43Q357.93 177.03 357.31 183.05L357.38 183.11L357.32 183.06Q356.64 189.00 356.64 192.27L356.57 192.20L356.71 192.34Q357.00 203.23 364.34 207.31L364.43 207.40L364.52 207.49Q372.42 219.67 397.71 218.65L397.63 218.58L397.73 218.67Q401.53 218.40 409.69 219.21Z"/><path fill="#63ec86" d="M241.07 202.42L241.18 202.53L241.12 202.47Q237.44 202.26 233.77 202.46L233.74 202.43L233.76 202.46Q229.91 202.88 226.24 202.88L226.33 202.97L226.22 202.87Q228.73 184.58 228.73 166.22L228.75 166.24L228.80 166.28Q218.86 166.34 213.96 166.34L214.07 166.45L214.02 166.40Q209.28 166.14 199.49 165.73L199.60 165.84L199.49 165.74Q199.72 164.34 198.70 151.08L198.71 151.08L198.80 151.18Q212.40 153.97 228.31 153.97L228.25 153.91L228.35 154.01Q227.08 130.51 224.83 116.64L224.77 116.58L224.89 116.70Q229.06 117.19 233.34 117.19L233.39 117.24L242.21 117.29L242.27 117.35Q241.01 140.16 241.01 154.03L240.96 153.97L240.90 153.92Q252.62 154.01 269.75 152.17L269.69 152.12L269.68 152.10Q269.15 159.33 269.15 165.85L269.03 165.73L269.10 165.80Q267.67 165.80 263.39 166.00L263.37 165.98L263.41 166.02Q258.08 166.00 254.82 166.20L254.74 166.13L254.85 166.24Q254.87 166.26 240.60 166.26L240.58 166.24L240.54 184.56L240.57 184.59Q240.50 193.29 241.11 202.46ZM271.94 149.47L271.90 149.43L272.01 149.54Q261.67 151.03 251.68 151.44L251.76 151.52L251.70 151.46Q253.28 134.89 255.52 124.89L255.52 124.89L255.49 124.86Q251.53 124.98 243.98 125.79L243.91 125.72L245.07 114.85L245.01 114.79Q230.85 114.70 221.88 114.09L221.89 114.10L221.97 114.18Q225.30 131.18 226.32 151.98L226.17 151.83L226.19 151.85Q216.41 151.25 196.63 147.99L196.70 148.06L196.74 148.10Q198.17 154.42 198.17 168.49L198.21 168.54L206.20 168.37L206.33 168.50Q206.21 172.25 205.40 179.80L205.52 179.92L226.69 178.45L226.68 178.45Q225.39 195.31 223.76 205.10L223.90 205.24L223.84 205.18Q227.90 205.16 235.44 204.54L235.34 204.44L235.34 204.44Q235.50 208.27 235.30 215.41L235.31 215.42L235.30 215.42Q238.11 215.37 257.49 216.19L257.41 216.11L257.43 216.13Q252.62 199.70 251.40 178.49L251.32 178.40L251.32 178.40Q269.18 178.93 280.40 180.97L280.29 180.87L280.40 180.97Q279.32 175.81 279.32 170.72L279.33 170.73L279.38 160.58L279.19 160.39Q277.99 160.41 275.14 160.62L275.11 160.59L270.89 160.66L270.95 160.72Q271.26 156.74 271.87 149.40Z"/><path fill="#7c5ae1" d="M336.84 136.57L336.83 136.56L336.94 136.67Q341.22 136.66 348.76 135.85L348.80 135.88L348.66 135.75Q348.47 139.23 348.47 142.70L348.60 142.82L348.54 149.50L348.60 149.55Q344.04 149.48 339.56 149.89L339.64 149.98L339.60 149.93Q334.99 150.02 330.50 149.81L330.65 149.96L330.61 149.91Q315.29 182.93 296.93 207.61L296.89 207.57L297.02 207.69Q283.39 211.00 276.46 214.26L276.56 214.36L276.60 214.40Q298.46 183.64 314.77 149.99L314.88 150.10L300.80 150.09L300.74 150.03Q300.71 142.86 300.09 135.72L300.17 135.79L300.27 135.89Q310.44 136.68 321.45 136.68L321.30 136.53L331.56 116.81L331.69 116.94Q336.87 106.62 343.40 98.05L343.45 98.11L343.42 98.08Q334.99 98.83 326.42 98.83L326.47 98.87L326.43 98.83Q293.84 98.88 273.65 87.05L273.74 87.13L270.29 77.97L270.13 77.82Q268.44 73.47 266.40 68.78L266.26 68.64L266.36 68.74Q289.59 82.79 320.18 84.02L320.26 84.10L320.21 84.05Q347.70 85.23 375.23 74.62L375.25 74.64L375.26 74.65Q374.19 76.85 371.54 81.54L371.50 81.49L371.52 81.51Q352.18 107.04 336.88 136.61ZM380.12 88.90L380.18 88.95L385.48 78.14L385.41 78.07Q380.29 80.70 371.32 84.58L371.44 84.70L372.34 82.95L372.37 82.98Q373.07 82.25 373.68 81.64L373.57 81.52L373.66 81.62Q375.55 77.79 379.42 70.65L379.52 70.75L379.45 70.68Q350.99 83.01 320.20 81.79L320.22 81.81L320.19 81.79Q288.02 80.41 262.53 64.50L262.38 64.35L262.36 64.33Q267.92 74.39 272.41 88.66L272.39 88.64L272.43 88.68Q278.28 92.08 282.56 93.72L282.74 93.89L282.67 93.82Q283.37 95.54 285.82 105.54L286.00 105.72L285.99 105.70Q302.89 112.40 332.46 111.59L332.45 111.58L332.37 111.50Q330.77 114.59 320.16 134.78L320.08 134.70L320.10 134.72Q309.11 134.74 298.51 133.72L298.57 133.78L298.47 133.68Q298.93 138.23 298.93 142.92L298.97 142.95L298.92 152.08L308.02 152.21L307.90 159.64L307.96 159.70Q286.85 199.15 271.96 218.32L272.01 218.37L271.94 218.31Q280.51 214.23 289.28 211.58L289.28 211.58L289.45 211.75Q285.73 216.60 278.39 225.78L278.32 225.70L278.44 225.82Q295.21 219.75 308.26 218.53L308.28 218.54L308.39 218.66Q324.08 198.46 340.81 162.15L340.70 162.05L359.20 163.21L359.21 163.22Q358.63 158.16 358.63 153.27L358.80 153.44L358.63 143.67L358.64 143.69Q357.23 143.71 354.28 143.91L354.23 143.87L354.29 143.92Q351.45 144.25 350.02 144.25L349.93 144.15L349.99 144.21Q349.96 143.57 350.16 142.75L350.08 142.67L350.14 141.30L350.05 141.22Q363.53 113.70 380.05 88.82Z"/></svg>