<svg xmlns="http://www.w3.org/2000/svg" width="500" height="250" viewBox="0,0,500,250"><path d="M11 19 C269 123,232 50,480 133" stroke="#df9076" fill="none"/><path fill="#91e53c" d="M462.57 194.14L462.61 194.17L462.48 194.05Q464.29 199.53 467.14 210.34L467.06 210.25L467.13 210.32Q444.32 203.01 419.64 204.44L419.68 204.47L419.76 204.56Q395.35 206.04 373.93 216.65L373.90 216.62L373.84 216.55Q374.98 212.80 375.19 213.21L375.19 213.22L375.31 213.34Q395.18 192.01 416.18 168.35L416.29 168.46L416.37 168.54Q439.97 141.76 446.29 116.68L446.23 116.61L446.33 116.72Q448.76 107.32 441.93 101.00L441.92 100.99L441.92 100.98Q434.99 94.57 425.41 95.38L425.50 95.48L425.37 95.35Q423.71 95.32 421.87 95.32L421.84 95.28L421.76 95.21Q413.69 95.29 406.96 100.19L406.94 100.17L406.82 100.05Q400.04 107.54 401.26 121.82L401.26 121.82L401.17 121.73Q391.57 119.88 385.04 117.43L385.13 117.52L385.11 117.49Q384.07 109.93 383.66 102.18L383.73 102.25L383.66 102.17Q383.23 93.38 386.49 87.26L386.43 87.21L386.49 87.26Q396.18 80.03 414.13 80.03L413.99 79.89L423.50 80.02L423.38 79.90Q435.60 80.08 440.69 80.69L440.71 80.71L440.80 80.79Q463.92 82.91 465.35 95.96L465.50 96.12L465.36 95.98Q465.74 99.01 465.33 103.29L465.42 103.38L465.40 103.36Q465.22 106.85 464.40 110.52L464.33 110.45L464.39 110.50Q455.55 153.87 414.96 190.58L415.02 190.64L414.97 190.59Q422.52 189.77 429.86 189.77L429.84 189.76L429.88 189.80Q447.34 189.92 462.63 194.20ZM459.54 82.61L459.42 82.49L459.57 82.64Q450.94 79.11 441.76 78.70L441.79 78.72L423.45 77.72L423.44 77.72Q399.49 76.19 387.66 82.11L387.64 82.09L387.81 82.26Q382.07 89.58 382.07 100.59L381.94 100.46L381.92 100.43Q382.20 104.38 383.83 119.48L383.79 119.44L383.89 119.53Q386.73 120.75 393.06 122.38L393.12 122.45L393.03 127.86L393.08 127.91Q392.72 130.21 393.13 133.06L393.29 133.22L393.20 133.13Q399.86 133.67 413.12 134.90L413.18 134.96L413.30 135.08Q412.99 132.93 412.99 131.10L413.00 131.11L412.98 131.09Q413.08 121.40 419.61 114.16L419.46 114.01L419.48 114.03Q426.04 106.83 435.63 107.44L435.57 107.38L435.65 107.46Q439.80 107.74 443.88 108.56L443.81 108.49L443.82 108.49Q444.40 110.51 444.81 112.75L444.85 112.79L444.89 112.83Q445.01 114.98 444.60 116.82L444.65 116.87L444.63 116.85Q437.97 142.42 414.32 168.32L414.22 168.23L414.23 168.23Q402.87 180.33 373.71 212.75L373.69 212.73L373.55 212.60Q372.68 217.23 370.84 220.29L370.78 220.23L370.89 220.34Q379.33 215.52 387.48 212.66L387.43 212.61L387.49 212.67Q383.70 215.82 378.61 223.77L378.52 223.68L378.47 223.63Q378.01 225.62 377.40 227.46L377.30 227.36L377.39 227.45Q403.33 216.27 432.69 217.29L432.81 217.40L432.83 217.42Q463.13 218.15 487.60 230.80L487.69 230.89L482.33 219.40L482.39 219.46Q478.82 212.22 477.39 207.94L477.47 208.02L477.37 207.92Q473.52 205.70 467.00 203.46L467.15 203.62L467.02 203.48Q466.19 199.59 464.15 192.25L464.22 192.32L464.24 192.34Q452.40 189.27 440.17 188.25L440.08 188.16L440.08 188.17Q465.25 163.78 473.41 119.53L473.32 119.43L474.35 103.95L474.42 104.02Q473.94 94.36 467.41 90.69L467.50 90.77L467.26 90.73L467.34 90.82Q467.09 90.37 466.68 90.37L466.72 90.40L466.66 90.34Q465.49 85.91 459.57 82.64Z"/><path d="M20 9 C238 120,255 171,479 8" stroke="#dc607f" fill="none"/><path fill="#5fecc9" d="M202.88 160.46L202.92 160.49L202.91 160.49Q220.42 167.39 240.61 167.39L240.63 167.41L240.69 167.47Q249.13 167.34 257.49 166.12L257.56 166.19L257.51 166.14Q255.10 168.62 251.63 174.95L251.60 174.91L251.74 175.06Q254.83 175.49 258.50 174.27L258.60 174.37L258.50 174.27Q256.60 178.69 256.60 182.97L256.59 182.97L256.59 182.97Q256.57 186.82 258.00 190.70L257.94 190.63L257.99 190.69Q250.52 189.54 240.94 189.74L240.89 189.70L240.87 189.68Q231.46 189.65 223.91 191.07L223.93 191.09L223.96 191.12Q226.20 186.83 225.59 181.53L225.63 181.57L225.45 181.40Q224.22 181.79 222.99 181.59L222.82 181.42L222.85 181.45Q221.65 181.06 220.02 181.06L220.13 181.17L220.08 181.12Q219.15 171.83 202.83 160.41ZM220.91 179.10L220.84 179.03L220.90 179.09Q228.97 180.02 235.09 179.82L235.21 179.94L235.22 179.95Q249.36 179.61 249.36 179.61L249.42 179.67L249.38 179.63Q249.76 173.89 253.64 168.39L253.73 168.48L253.70 168.45Q247.56 169.24 241.23 169.24L241.21 169.22L241.32 169.33Q224.68 169.21 209.18 164.11L209.14 164.07L209.28 164.21Q218.90 170.97 220.94 179.13ZM219.09 183.19L218.93 183.03L219.01 183.12Q220.86 182.92 224.53 183.13L224.57 183.16L224.47 183.07Q224.16 189.07 221.30 193.15L221.33 193.19L221.31 193.17Q229.32 192.00 228.51 192.00L228.66 192.15L228.53 192.02Q225.57 197.22 221.49 201.30L221.41 201.21L221.47 201.27Q232.36 199.52 242.76 199.52L242.63 199.39L242.74 199.50Q267.30 199.38 289.32 208.56L289.32 208.55L276.34 201.29L276.42 201.36Q263.30 192.94 263.30 181.11L263.32 181.13L263.24 181.05Q262.13 181.57 260.71 181.57L260.64 181.51L257.72 181.45L257.78 181.51Q258.09 176.92 261.15 171.82L261.32 171.99L261.15 171.82Q258.92 172.25 253.83 173.27L253.95 173.39L253.82 173.26Q256.58 167.87 261.89 163.79L261.85 163.75L261.87 163.77Q251.39 165.53 240.58 165.53L240.54 165.49L240.66 165.60Q215.07 165.51 194.88 155.52L195.00 155.64L194.92 155.56Q218.34 169.60 218.96 183.06ZM223.96 177.46L223.96 177.45L222.59 177.51L222.40 177.32Q221.82 176.95 221.21 176.95L221.26 177.00L221.35 177.09Q220.27 173.98 218.23 171.73L218.14 171.64L213.91 166.80L213.95 166.84Q226.77 170.88 241.45 170.88L241.40 170.84L241.51 170.94Q246.03 170.98 250.72 170.57L250.56 170.41L249.72 172.22L248.91 173.65L249.08 173.82Q242.34 174.22 235.41 174.02L235.37 173.98L235.39 174.00Q228.16 173.70 221.22 172.27L221.21 172.26L221.30 172.35Q223.02 174.07 223.84 177.33Z"/><path d="M1 194 C243 3,245 220,492 203" stroke="#b2e381" fill="none"/><path fill="#eb6feb" d="M49.97 116.49L49.91 116.43L49.93 116.46Q32.73 116.38 22.94 110.67L22.93 110.66L22.89 110.62Q36.44 103.37 62.54 80.73L62.56 80.75L62.57 80.76Q66.35 79.64 73.28 76.38L73.36 76.46L73.33 76.43Q66.28 108.33 65.67 142.39L65.71 142.43L65.64 142.36Q64.91 176.30 70.62 208.93L70.65 208.96L70.66 208.97Q61.70 205.11 50.28 204.50L50.25 204.47L50.23 204.45Q49.62 182.22 49.62 160.39L49.61 160.39L49.71 160.49Q49.71 138.46 49.91 116.43ZM47.83 128.43L47.92 206.63L47.87 206.58Q54.38 206.56 59.48 207.58L59.55 207.65L59.48 207.58Q59.91 211.27 60.93 218.61L60.87 218.55L60.83 218.51Q76.17 221.41 89.22 233.44L89.27 233.49L89.27 233.50Q76.11 195.45 75.91 155.48L75.81 155.38L75.75 155.32Q75.33 115.34 85.12 76.59L85.21 76.69L85.13 76.61Q82.27 78.84 73.71 84.76L73.74 84.79L73.70 84.75Q74.89 80.84 76.52 72.68L76.43 72.59L76.39 72.55Q69.27 76.65 61.52 78.69L61.59 78.76L61.53 78.70Q41.41 97.94 18.37 110.18L18.20 110.01L18.27 110.08Q25.77 115.95 38.42 117.79L38.42 117.80L38.58 117.95Q34.97 120.66 28.03 126.37L28.13 126.47L28.13 126.47Q36.01 128.43 47.84 128.43L47.80 128.39Z"/><path d="M19 204 C254 112,269 33,490 199" stroke="#dfdf57" fill="none"/><path fill="#efa38a" d="M151.31 194.13L151.32 194.14L151.38 194.20Q152.88 199.37 155.74 210.18L155.74 210.18L155.80 210.24Q133.21 203.15 108.53 204.58L108.46 204.51L108.48 204.53Q83.99 205.93 62.57 216.54L62.61 216.58L62.52 216.48Q63.87 212.94 64.07 213.35L64.05 213.32L64.09 213.37Q83.95 192.03 104.96 168.37L104.93 168.34L105.12 168.53Q128.77 141.81 135.09 116.73L134.95 116.59L135.01 116.65Q137.35 107.16 130.52 100.84L130.62 100.94L130.65 100.97Q123.74 94.57 114.15 95.38L114.27 95.50L114.12 95.35Q112.40 95.26 110.57 95.26L110.61 95.31L110.60 95.30Q102.40 95.25 95.67 100.15L95.66 100.13L95.59 100.07Q88.79 107.54 90.01 121.82L89.91 121.72L89.96 121.77Q80.30 119.86 73.78 117.41L73.88 117.52L73.87 117.50Q72.82 109.93 72.41 102.18L72.43 102.19L72.46 102.23Q71.96 93.37 75.23 87.25L75.22 87.24L75.31 87.33Q84.74 79.84 102.69 79.84L102.76 79.91L112.22 79.98L112.16 79.92Q124.48 80.22 129.58 80.83L129.40 80.65L129.51 80.76Q152.73 82.97 154.16 96.03L154.25 96.12L154.20 96.06Q154.53 99.05 154.12 103.33L154.19 103.40L154.08 103.29Q153.90 106.78 153.09 110.45L153.12 110.48L153.13 110.50Q144.39 153.96 103.80 190.67L103.76 190.63L103.76 190.63Q111.25 189.76 118.59 189.76L118.70 189.87L118.65 189.81Q135.93 189.77 151.23 194.05ZM148.18 82.50L148.24 82.56L148.29 82.61Q139.70 79.12 130.52 78.71L130.55 78.74L112.25 77.78L112.08 77.60Q88.36 76.32 76.53 82.23L76.43 82.14L76.51 82.22Q70.67 89.42 70.67 100.43L70.72 100.49L70.74 100.50Q71.04 104.47 72.67 119.57L72.55 119.45L72.67 119.57Q75.47 120.74 81.80 122.37L81.76 122.34L81.85 127.93L81.80 127.88Q81.50 130.23 81.91 133.09L81.92 133.09L81.92 133.10Q88.73 133.79 101.99 135.02L101.91 134.94L101.89 134.92Q101.82 133.01 101.82 131.18L101.72 131.07L101.80 131.16Q101.82 121.39 108.34 114.15L108.24 114.04L108.36 114.17Q114.88 106.91 124.46 107.52L124.32 107.38L124.39 107.45Q128.56 107.75 132.64 108.57L132.64 108.56L132.63 108.56Q133.17 110.52 133.58 112.76L133.54 112.73L133.65 112.83Q133.84 115.07 133.43 116.90L133.42 116.89L133.33 116.80Q126.56 142.25 102.90 168.15L102.98 168.23L102.90 168.15Q91.52 180.23 62.36 212.65L62.48 212.78L62.36 212.65Q61.46 217.26 59.62 220.32L59.49 220.18L59.59 220.29Q68.20 215.64 76.35 212.78L76.31 212.74L76.34 212.76Q72.41 215.77 67.31 223.73L67.26 223.67L67.34 223.75Q66.68 225.54 66.06 227.37L66.13 227.44L66.02 227.33Q92.15 216.35 121.52 217.37L121.57 217.41L121.48 217.32Q151.93 218.20 176.41 230.85L176.49 230.93L171.01 219.34L171.20 219.52Q167.55 212.20 166.12 207.92L166.12 207.92L166.25 208.05Q162.42 205.85 155.90 203.61L155.77 203.48L155.90 203.62Q154.96 199.61 152.92 192.27L152.97 192.32L152.91 192.26Q141.18 189.30 128.94 188.28L128.91 188.24L128.98 188.32Q153.97 163.75 162.12 119.49L162.07 119.43L163.20 104.05L163.19 104.04Q162.84 94.51 156.31 90.83L156.29 90.81L156.09 90.82L156.05 90.78Q155.79 90.32 155.38 90.32L155.47 90.40L155.31 90.24Q154.22 85.88 148.30 82.62Z"/><path fill="#61e5e5" d="M298.81 116.34L298.86 116.38L298.97 116.50Q281.84 116.50 272.05 110.79L272.04 110.77L271.99 110.72Q285.54 103.47 311.64 80.83L311.60 80.78L311.59 80.78Q315.50 79.79 322.43 76.53L322.41 76.51L322.27 76.36Q315.29 108.34 314.67 142.39L314.69 142.41L314.59 142.31Q314.09 176.48 319.80 209.11L319.81 209.12L319.73 209.04Q310.80 205.21 299.38 204.60L299.38 204.60L299.23 204.45Q298.75 182.35 298.75 160.53L298.72 160.50L298.64 160.42Q298.65 138.40 298.85 116.37ZM296.94 128.53L296.84 206.55L296.82 206.53Q303.47 206.65 308.57 207.67L308.56 207.66L308.41 207.51Q308.92 211.28 309.94 218.62L309.95 218.64L309.87 218.56Q325.17 221.42 338.22 233.45L338.25 233.47L338.22 233.44Q325.10 195.44 324.90 155.47L324.76 155.34L324.89 155.46Q324.43 115.44 334.22 76.69L334.28 76.75L334.24 76.71Q331.27 78.85 322.71 84.76L322.68 84.73L322.78 84.83Q323.71 80.66 325.34 72.50L325.32 72.49L325.43 72.60Q318.36 76.74 310.61 78.78L310.54 78.71L310.51 78.67Q290.37 97.90 267.32 110.14L267.21 110.02L267.20 110.02Q274.75 115.93 287.40 117.77L287.46 117.83L287.55 117.92Q284.06 120.75 277.13 126.47L276.99 126.33L277.07 126.41Q285.00 128.42 296.82 128.42L296.86 128.45Z"/><path fill="#cde584" d="M213.47 194.04L213.53 194.09L213.66 194.23Q215.29 199.53 218.15 210.34L218.09 210.28L218.09 210.28Q195.38 203.07 170.70 204.50L170.66 204.46L170.74 204.53Q146.31 206.01 124.90 216.62L124.77 216.48L124.86 216.58Q126.00 212.82 126.20 213.23L126.20 213.23L126.32 213.35Q146.27 192.10 167.28 168.44L167.34 168.51L167.35 168.52Q191.02 141.81 197.34 116.72L197.34 116.73L197.21 116.60Q199.65 107.21 192.82 100.88L192.86 100.93L192.82 100.89Q185.99 94.57 176.41 95.39L176.41 95.38L176.39 95.37Q174.53 95.14 172.70 95.14L172.80 95.25L172.71 95.15Q164.60 95.20 157.87 100.10L157.99 100.21L157.92 100.15Q150.91 107.41 152.13 121.68L152.18 121.73L152.10 121.66Q142.56 119.87 136.04 117.42L136.08 117.46L136.09 117.47Q135.01 109.87 134.60 102.12L134.67 102.18L134.72 102.23Q134.20 93.35 137.46 87.23L137.40 87.18L137.41 87.19Q147.07 79.92 165.02 79.92L165.05 79.95L174.43 79.95L174.44 79.96Q186.63 80.12 191.73 80.73L191.76 80.76L191.67 80.67Q215.08 83.07 216.51 96.13L216.45 96.06L216.40 96.02Q216.79 99.06 216.38 103.34L216.40 103.35L216.34 103.30Q216.21 106.84 215.40 110.51L215.33 110.44L215.50 110.61Q206.72 154.04 166.13 190.75L166.00 190.62L166.08 190.70Q173.67 189.93 181.01 189.93L180.95 189.86L181.03 189.95Q198.32 189.90 213.62 194.19ZM210.47 82.54L210.54 82.61L210.50 82.57Q202.04 79.21 192.87 78.80L192.79 78.73L174.49 77.77L174.49 77.77Q150.47 76.18 138.64 82.09L138.66 82.11L138.73 82.18Q133.06 89.56 133.06 100.57L132.95 100.46L132.95 100.46Q133.24 104.43 134.87 119.52L134.77 119.41L134.85 119.49Q137.80 120.82 144.12 122.45L144.06 122.39L144.04 127.87L143.94 127.78Q143.80 130.28 144.21 133.14L144.21 133.14L144.25 133.18Q150.96 133.77 164.21 134.99L164.26 135.04L164.13 134.91Q163.94 132.89 163.94 131.05L164.05 131.16L163.91 131.02Q164.01 121.33 170.54 114.09L170.60 114.16L170.50 114.05Q177.03 106.82 186.61 107.43L186.58 107.39L186.66 107.47Q190.67 107.61 194.75 108.43L194.78 108.46L194.86 108.53Q195.32 110.43 195.73 112.67L195.90 112.84L195.79 112.73Q196.09 115.06 195.68 116.90L195.70 116.92L195.72 116.94Q188.97 142.42 165.32 168.32L165.26 168.27L165.28 168.28Q153.87 180.32 124.70 212.75L124.69 212.74L124.67 212.72Q123.72 217.27 121.88 220.33L121.78 220.23L121.87 220.32Q130.43 215.62 138.58 212.76L138.57 212.74L138.53 212.70Q134.65 215.76 129.55 223.72L129.63 223.80L129.64 223.81Q129.01 225.63 128.40 227.46L128.26 227.32L128.33 227.38Q154.36 216.30 183.73 217.32L183.88 217.47L183.88 217.47Q214.27 218.29 238.74 230.94L238.57 230.76L233.41 219.48L233.44 219.52Q229.86 212.27 228.43 207.98L228.45 208.00L228.47 208.01Q224.68 205.86 218.15 203.61L218.13 203.59L218.07 203.53Q217.17 199.57 215.13 192.23L215.20 192.30L215.16 192.26Q203.47 189.34 191.23 188.32L191.17 188.26L191.20 188.29Q216.22 163.75 224.38 119.50L224.37 119.48L225.45 104.04L225.44 104.04Q225.08 94.50 218.55 90.82L218.50 90.78L218.19 90.67L218.30 90.78Q218.01 90.29 217.61 90.29L217.65 90.33L217.70 90.39Q216.47 85.89 210.56 82.63Z"/><path fill="#b57bee" d="M357.57 147.11L357.44 146.98L357.46 147.00Q347.76 146.47 341.13 154.12L340.99 153.98L341.04 154.03Q334.38 161.64 333.36 171.84L333.49 171.97L333.38 171.86Q332.16 182.88 337.97 188.08L338.02 188.12L338.07 188.18Q343.83 193.32 355.04 192.71L355.02 192.69L354.95 192.61Q366.20 191.83 372.11 188.16L372.19 188.23L372.10 188.14Q378.28 182.29 378.28 173.93L378.20 173.85L378.28 173.94Q378.28 171.89 377.87 169.85L377.90 169.89L377.83 169.81Q378.31 160.91 372.40 153.67L372.28 153.56L372.43 153.71Q366.45 146.40 357.48 147.01ZM355.23 206.56L355.31 206.64L355.24 206.57Q331.72 206.51 324.18 202.43L324.17 202.42L324.27 202.52Q318.64 198.32 317.62 189.14L317.72 189.25L317.72 189.24Q317.49 185.54 317.69 181.67L317.67 181.64L317.64 181.62Q318.30 176.36 318.30 173.91L318.40 174.02L318.35 173.96Q320.72 158.59 321.53 154.92L321.57 154.96L321.56 154.94Q323.99 144.53 328.48 136.98L328.51 137.01L328.45 136.95Q342.74 113.51 374.56 79.46L374.65 79.55L374.66 79.56Q388.94 77.93 400.77 73.65L400.71 73.59L400.69 73.57Q363.98 113.54 346.84 136.18L346.79 136.12L346.93 136.27Q352.24 133.62 359.17 133.62L359.09 133.53L359.16 133.60Q376.94 133.64 385.10 144.04L385.03 143.97L385.10 144.04Q392.17 152.75 394.01 171.72L393.95 171.66L394.02 171.73Q394.33 175.50 394.33 178.76L394.45 178.89L394.31 178.74Q394.37 195.53 382.54 201.24L382.66 201.36L382.59 201.29Q376.14 204.62 355.33 206.66ZM367.40 219.34L367.45 219.39L367.40 219.34Q374.51 219.31 385.11 219.72L385.11 219.71L385.01 219.62Q393.72 219.97 402.08 216.09L402.12 216.13L402.11 216.12Q408.06 211.87 408.06 202.29L408.15 202.38L408.01 202.24Q408.08 199.65 407.16 194.35L407.13 194.32L407.25 194.44Q406.27 189.08 406.27 186.63L406.25 186.61L406.22 186.58Q401.49 161.25 392.93 151.05L392.99 151.12L392.89 151.02Q392.52 150.44 391.70 149.22L391.84 149.35L390.04 147.97L389.71 147.84L389.75 147.88Q387.80 145.11 384.54 140.01L384.69 140.17L384.54 140.02Q379.79 135.06 369.18 132.61L369.09 132.52L369.09 132.52Q375.69 124.03 391.59 104.24L391.59 104.24L414.13 75.79L414.20 75.86Q405.90 80.61 393.05 84.69L392.99 84.63L392.94 84.59Q397.97 79.42 407.55 68.81L407.49 68.75L407.55 68.81Q394.55 74.36 373.75 77.42L373.83 77.51L373.90 77.57Q343.19 109.07 327.28 135.58L327.29 135.59L327.35 135.65Q319.16 149.07 316.10 182.52L316.07 182.49L316.00 182.42Q315.76 185.64 316.16 190.74L316.10 190.68L316.08 190.65Q316.50 200.06 322.42 204.95L322.31 204.85L322.50 205.03Q324.46 205.77 324.26 205.98L324.34 206.06L324.20 205.91Q326.25 210.83 330.54 213.07L330.66 213.20L330.56 213.10Q338.23 216.68 348.63 217.70L348.72 217.79L348.82 217.89Q348.72 217.79 367.48 219.43ZM366.32 159.33L366.36 159.36L366.25 159.25Q369.33 158.66 374.43 161.31L374.34 161.22L374.42 161.30Q376.23 166.37 376.23 169.84L376.20 169.81L376.19 169.81Q377.19 179.78 372.09 185.08L372.16 185.15L372.23 185.22Q366.47 189.04 355.25 190.67L355.33 190.75L355.24 190.66Q347.50 190.68 344.65 189.25L344.56 189.16L344.69 189.29Q343.70 186.87 343.70 185.24L343.71 185.25L343.56 185.10Q342.34 167.57 358.05 160.64L358.11 160.70L358.14 160.73Q362.26 158.94 366.34 159.34Z"/></svg>