<svg xmlns="http://www.w3.org/2000/svg" width="500" height="250" viewBox="0,0,500,250"><path fill="#7be996" d="M88.97 194.04L88.98 194.05L88.99 194.06Q90.65 199.39 93.51 210.20L93.63 210.32L93.49 210.18Q70.92 203.11 46.25 204.54L46.32 204.62L46.26 204.56Q21.86 206.06 0.44 216.66L0.37 216.58L0.37 216.59Q1.58 212.90 1.78 213.31L1.81 213.33L1.85 213.38Q21.70 192.03 42.71 168.38L42.71 168.37L42.84 168.50Q66.46 141.76 72.79 116.67L72.78 116.66L72.80 116.69Q75.25 107.31 68.42 100.98L68.36 100.93L68.28 100.84Q61.60 94.68 52.02 95.50L52.01 95.48L51.93 95.40Q50.10 95.21 48.27 95.21L48.19 95.14L48.27 95.22Q40.07 95.17 33.34 100.06L33.31 100.03L33.44 100.17Q26.52 107.52 27.74 121.80L27.73 121.78L27.72 121.77Q18.03 119.83 11.50 117.39L11.54 117.42L11.59 117.48Q10.60 109.95 10.19 102.20L10.15 102.16L10.11 102.12Q9.83 93.48 13.09 87.36L12.98 87.25L12.90 87.17Q22.56 79.91 40.51 79.91L40.49 79.88L49.94 79.96L49.94 79.96Q62.09 80.08 67.19 80.69L67.21 80.71L67.33 80.83Q90.43 82.93 91.86 95.98L91.86 95.98L91.92 96.04Q92.24 99.00 91.83 103.29L91.89 103.34L91.99 103.44Q91.71 106.84 90.90 110.51L90.97 110.58L90.96 110.57Q82.21 154.04 41.63 190.75L41.48 190.60L41.49 190.61Q49.19 189.95 56.53 189.95L56.38 189.80L56.49 189.90Q73.75 189.83 89.05 194.11ZM86.03 82.60L86.08 82.65L86.00 82.57Q77.36 79.03 68.18 78.62L68.36 78.80L49.93 77.71L49.83 77.61Q26.07 76.27 14.24 82.19L14.13 82.08L14.19 82.14Q8.45 89.45 8.45 100.46L8.41 100.43L8.54 100.56Q8.66 104.35 10.29 119.44L10.29 119.44L10.34 119.49Q13.17 120.69 19.49 122.32L19.52 122.35L19.53 127.86L19.60 127.93Q19.31 130.30 19.72 133.15L19.76 133.19L19.63 133.06Q26.50 133.81 39.75 135.03L39.62 134.89L39.64 134.92Q39.52 132.96 39.52 131.13L39.53 131.14L39.43 131.04Q39.59 121.41 46.12 114.17L45.95 114.00L46.07 114.13Q52.50 106.79 62.09 107.40L62.17 107.49L62.08 107.39Q66.30 107.74 70.38 108.55L70.37 108.54L70.23 108.40Q70.82 110.42 71.23 112.67L71.39 112.83L71.34 112.78Q71.46 114.94 71.05 116.77L71.03 116.75L71.21 116.94Q64.30 142.24 40.64 168.14L40.71 168.21L40.74 168.24Q29.40 180.35 0.23 212.78L0.08 212.63L0.23 212.78Q-0.77 217.28-2.61 220.34L-2.74 220.21L-2.77 220.18Q5.84 215.53 14.00 212.68L13.99 212.67L14.10 212.78Q10.05 215.66 4.95 223.61L5.05 223.71L5.03 223.69Q4.53 225.64 3.91 227.47L3.81 227.37L3.73 227.29Q29.97 216.41 59.34 217.43L59.34 217.43L59.36 217.45Q89.78 218.30 114.25 230.94L114.22 230.92L108.93 219.50L108.84 219.42Q105.48 212.38 104.05 208.10L103.96 208.00L103.99 208.04Q100.03 205.71 93.51 203.47L93.57 203.54L93.55 203.52Q92.71 199.61 90.67 192.27L90.61 192.21L90.64 192.24Q78.95 189.32 66.71 188.30L66.68 188.27L66.73 188.32Q91.71 163.73 99.86 119.48L99.79 119.41L100.95 104.05L100.95 104.05Q100.51 94.43 93.99 90.76L93.88 90.66L93.83 90.81L93.75 90.73Q93.55 90.32 93.14 90.32L93.21 90.39L93.10 90.29Q91.86 85.78 85.95 82.52Z"/><path fill="#e6984b" d="M202.90 160.48L202.88 160.46L202.93 160.51Q220.44 167.41 240.63 167.41L240.64 167.42L240.57 167.35Q249.12 167.33 257.48 166.11L257.51 166.14L257.53 166.16Q255.08 168.60 251.61 174.92L251.72 175.03L251.59 174.90Q254.88 175.54 258.55 174.32L258.53 174.30L258.52 174.29Q256.58 178.67 256.58 182.95L256.52 182.89L256.54 182.91Q256.64 186.89 258.07 190.76L257.93 190.63L257.91 190.61Q250.49 189.51 240.90 189.71L240.87 189.68L240.75 189.56Q231.55 189.74 224.01 191.17L223.99 191.15L223.98 191.14Q226.06 186.70 225.45 181.40L225.64 181.58L225.52 181.47Q224.17 181.75 222.95 181.54L222.90 181.50L222.89 181.48Q221.61 181.02 219.98 181.02L220.10 181.14L220.03 181.08Q219.26 171.94 202.94 160.52ZM220.94 179.13L220.87 179.06L220.84 179.03Q229.05 180.10 235.16 179.89L235.10 179.83L235.16 179.89Q249.37 179.62 249.37 179.62L249.37 179.62L249.39 179.64Q249.81 173.94 253.69 168.43L253.70 168.45L253.63 168.38Q247.61 169.30 241.29 169.30L241.35 169.35L241.30 169.30Q224.74 169.27 209.24 164.17L209.21 164.13L209.28 164.21Q218.81 170.88 220.85 179.04ZM219.08 183.18L218.99 183.09L218.97 183.07Q220.92 182.99 224.60 183.19L224.43 183.03L224.54 183.14Q224.07 188.98 221.21 193.06L221.23 193.08L221.24 193.09Q229.37 192.05 228.56 192.05L228.68 192.17L228.57 192.06Q225.56 197.21 221.48 201.29L221.56 201.36L221.43 201.24Q232.37 199.53 242.77 199.53L242.61 199.37L242.70 199.47Q267.28 199.36 289.30 208.54L289.42 208.66L276.27 201.22L276.39 201.34Q263.24 192.88 263.24 181.05L263.26 181.07L263.35 181.16Q262.04 181.48 260.61 181.48L260.66 181.52L257.84 181.57L257.81 181.53Q258.14 176.96 261.20 171.87L261.23 171.90L261.15 171.82Q258.90 172.23 253.81 173.25L253.85 173.29L253.97 173.41Q256.49 167.77 261.79 163.69L261.86 163.76L261.93 163.83Q251.47 165.60 240.66 165.60L240.63 165.57L240.63 165.58Q215.09 165.53 194.90 155.53L195.03 155.66L195.02 155.66Q218.43 169.68 219.04 183.14ZM223.91 177.41L223.90 177.40L222.42 177.34L222.55 177.48Q221.90 177.03 221.29 177.03L221.29 177.03L221.28 177.02Q220.19 173.89 218.15 171.65L218.22 171.72L213.90 166.79L213.93 166.82Q226.86 170.98 241.55 170.98L241.38 170.81L241.37 170.81Q245.94 170.88 250.63 170.48L250.53 170.38L249.79 172.29L248.90 173.64L248.98 173.72Q242.20 174.08 235.26 173.87L235.36 173.97L235.43 174.04Q228.29 173.83 221.35 172.40L221.24 172.29L221.29 172.34Q223.10 174.15 223.91 177.41Z"/><path fill="#e14b96" d="M170.73 147.02L170.78 147.07L170.70 146.99Q161.04 146.50 154.41 154.15L154.31 154.05L154.41 154.15Q147.74 161.75 146.72 171.95L146.74 171.97L146.73 171.96Q145.51 182.98 151.32 188.18L151.20 188.05L151.22 188.08Q157.09 193.34 168.31 192.73L168.38 192.80L168.23 192.64Q179.42 191.81 185.34 188.14L185.33 188.13L185.52 188.32Q191.57 182.33 191.57 173.97L191.52 173.92L191.51 173.91Q191.51 171.88 191.10 169.84L191.12 169.86L191.18 169.91Q191.61 160.96 185.69 153.72L185.72 153.75L185.56 153.58Q179.80 146.50 170.83 147.12ZM168.51 206.60L168.49 206.57L168.55 206.63Q145.01 206.54 137.46 202.47L137.41 202.41L137.48 202.48Q131.91 198.34 130.89 189.16L131.00 189.27L130.96 189.23Q130.69 185.49 130.89 181.62L131.07 181.80L130.94 181.67Q131.64 176.45 131.64 174.00L131.49 173.85L131.64 174.00Q133.95 158.57 134.77 154.90L134.87 155.00L134.82 154.96Q137.34 144.62 141.83 137.08L141.82 137.07L141.83 137.09Q156.13 113.65 187.94 79.59L187.91 79.56L187.90 79.55Q202.12 77.86 213.94 73.57L213.90 73.53L213.89 73.52Q177.22 113.53 160.09 136.17L160.14 136.22L160.13 136.21Q165.35 133.48 172.29 133.48L172.41 133.60L172.40 133.60Q190.08 133.53 198.24 143.93L198.18 143.87L198.22 143.91Q205.41 152.73 207.24 171.70L207.21 171.67L207.25 171.71Q207.71 175.63 207.71 178.89L207.61 178.80L207.72 178.90Q207.59 195.50 195.76 201.21L195.87 201.32L195.87 201.32Q189.27 204.51 168.47 206.55ZM180.71 219.40L180.76 219.45L180.64 219.33Q187.74 219.30 198.35 219.71L198.21 219.56L198.26 219.62Q206.96 219.96 215.32 216.08L215.50 216.25L215.30 216.06Q221.32 211.88 221.32 202.30L221.32 202.29L221.25 202.23Q221.38 199.70 220.46 194.40L220.35 194.29L220.41 194.35Q219.45 189.01 219.45 186.56L219.55 186.66L219.53 186.64Q214.71 161.22 206.14 151.02L206.17 151.05L206.29 151.17Q205.78 150.46 204.97 149.23L205.10 149.36L203.45 148.12L202.91 147.79L202.88 147.76Q201.05 145.11 197.79 140.01L197.85 140.07L197.79 140.01Q192.90 134.92 182.29 132.47L182.32 132.50L182.44 132.62Q188.88 123.97 204.79 104.19L204.85 104.25L227.48 75.90L227.43 75.84Q219.15 80.61 206.30 84.69L206.16 84.55L206.13 84.53Q211.08 79.27 220.66 68.67L220.76 68.76L220.62 68.62Q207.77 74.33 186.97 77.39L187.04 77.47L187.03 77.45Q156.55 109.17 140.64 135.69L140.58 135.63L140.47 135.52Q132.41 149.08 129.35 182.52L129.29 182.46L129.40 182.57Q129.03 185.67 129.44 190.77L129.27 190.60L129.33 190.66Q129.81 200.11 135.72 205.01L135.58 204.87L135.70 204.98Q137.71 205.77 137.51 205.97L137.56 206.03L137.48 205.94Q139.55 210.87 143.83 213.12L143.72 213.01L143.83 213.11Q151.56 216.76 161.96 217.78L161.99 217.82L161.93 217.75Q162.04 217.86 180.80 219.50ZM179.57 159.32L179.47 159.22L179.54 159.29Q182.61 158.70 187.71 161.35L187.69 161.32L187.74 161.37Q189.45 166.35 189.45 169.82L189.46 169.82L189.51 169.88Q190.57 179.91 185.47 185.21L185.39 185.13L185.48 185.22Q179.75 189.07 168.53 190.70L168.45 190.62L168.59 190.76Q160.80 190.72 157.94 189.29L157.87 189.22L157.96 189.31Q156.84 186.76 156.84 185.13L156.79 185.08L156.85 185.14Q155.58 167.55 171.28 160.62L171.27 160.60L171.42 160.76Q175.48 158.91 179.56 159.32Z"/><path d="M7 71 C255 145,246 42,485 20" stroke="#e54c99" fill="none"/><path fill="#8d72de" d="M399.23 167.71L399.10 167.58L399.09 167.57Q415.65 165.57 432.78 166.19L432.82 166.22L432.83 166.23Q432.56 152.50 432.56 139.65L432.51 139.61L432.53 139.62Q432.55 126.39 433.57 112.72L433.51 112.67L433.57 112.73Q427.09 121.94 399.15 167.63ZM452.26 207.08L452.24 207.05L452.10 206.92Q443.11 205.27 433.53 204.86L433.57 204.91L433.56 204.89Q432.67 192.38 432.06 179.12L431.99 179.05L431.98 179.05Q403.52 178.12 378.23 185.67L378.05 185.48L378.20 185.64Q378.83 183.01 379.85 177.70L379.83 177.68L379.80 177.65Q389.43 160.76 408.60 127.11L408.49 127.01L408.53 127.05Q423.93 100.85 442.29 80.04L442.29 80.05L442.31 80.07Q447.01 79.06 455.99 77.63L456.00 77.64L456.06 77.70Q445.77 112.08 445.77 149.81L445.87 149.91L445.76 149.80Q445.80 157.79 446.21 165.74L446.18 165.71L453.14 166.36L453.14 166.36Q456.50 166.65 459.76 167.26L459.69 167.19L459.77 167.27Q460.38 172.58 461.81 182.98L461.79 182.96L461.81 182.98Q455.17 181.43 447.22 180.42L447.20 180.40L447.35 180.55Q448.42 191.20 452.09 206.91ZM461.11 165.15L461.09 165.12L461.16 165.19Q460.09 164.74 459.07 164.74L459.19 164.86L457.06 164.77L457.09 164.80Q456.37 156.74 456.37 149.19L456.53 149.35L456.42 149.24Q456.52 115.07 467.53 82.85L467.39 82.71L467.49 82.81Q463.43 84.26 455.68 86.29L455.57 86.19L455.63 86.24Q456.87 82.19 459.32 74.64L459.38 74.70L459.34 74.66Q452.40 76.69 441.39 77.92L441.33 77.86L441.38 77.91Q420.36 101.14 392.42 151.31L392.40 151.29L403.63 131.73L403.61 131.71Q401.43 137.28 400.00 140.34L399.86 140.20L376.04 188.58L376.02 188.56Q379.54 187.79 385.66 185.76L385.63 185.72L384.91 187.04L384.92 187.05Q384.17 190.58 382.54 197.31L382.55 197.32L382.54 197.32Q404.67 190.28 430.57 191.30L430.59 191.32L430.63 191.36Q430.69 196.32 431.71 206.92L431.87 207.08L431.74 206.95Q437.39 206.89 443.10 207.50L443.27 207.67L443.17 207.57Q443.93 211.19 445.35 218.53L445.39 218.57L445.42 218.59Q455.73 219.93 471.84 224.83L471.79 224.77L471.76 224.74Q466.40 213.27 461.51 195.73L461.61 195.83L469.23 198.15L469.28 198.20Q472.97 199.44 476.64 201.28L476.64 201.27L476.74 201.37Q472.39 187.84 471.57 178.87L471.49 178.79L471.52 178.82Q468.53 178.07 462.41 176.84L462.40 176.83L462.44 176.88Q461.18 169.90 461.18 165.21ZM418.27 164.32L418.28 164.32L418.29 164.34Q422.36 157.40 430.73 143.74L430.79 143.80L430.79 143.80Q430.76 148.87 430.56 153.97L430.57 153.98L430.47 153.89Q430.55 159.26 430.75 164.36L430.73 164.34L430.73 164.34Q427.75 164.21 424.69 164.21L424.63 164.15L424.64 164.16Q421.48 164.27 418.22 164.27Z"/><path fill="#3b3be1" d="M378.49 136.72L378.48 136.71L378.39 136.62Q382.58 136.53 390.13 135.71L390.21 135.80L390.28 135.87Q389.99 139.25 389.99 142.71L390.11 142.83L389.97 149.43L389.93 149.38Q385.58 149.52 381.09 149.93L381.02 149.85L380.95 149.79Q376.62 150.14 372.13 149.94L372.10 149.91L372.12 149.93Q356.80 182.94 338.44 207.62L338.40 207.57L338.45 207.62Q324.93 211.03 317.99 214.29L318.03 214.33L318.00 214.30Q340.11 183.79 356.42 150.14L356.40 150.11L342.39 150.17L342.22 150.01Q342.35 143.00 341.73 135.86L341.74 135.86L341.73 135.85Q351.90 136.65 362.92 136.65L362.89 136.62L373.13 116.88L373.09 116.84Q378.49 106.74 385.02 98.18L384.82 97.98L385.02 98.18Q376.60 98.93 368.03 98.93L367.96 98.86L368.03 98.93Q335.31 98.84 315.12 87.02L315.20 87.09L311.63 77.81L311.65 77.83Q309.87 73.40 307.83 68.71L307.79 68.67L307.92 68.80Q331.11 82.81 361.70 84.03L361.57 83.91L361.76 84.10Q389.23 85.26 416.76 74.65L416.66 74.55L416.67 74.56Q415.78 76.93 413.13 81.62L413.01 81.50L413.04 81.54Q393.60 106.96 378.30 136.53ZM421.65 88.92L421.67 88.94L426.87 78.03L426.84 78.00Q421.84 80.75 412.86 84.62L412.85 84.61L413.96 83.07L413.84 82.94Q414.40 82.08 415.01 81.46L415.07 81.52L415.08 81.53Q417.24 77.99 421.12 70.85L421.11 70.84L421.05 70.79Q392.43 82.95 361.63 81.72L361.70 81.79L361.66 81.76Q329.39 80.28 303.90 64.37L303.87 64.35L303.91 64.38Q309.53 74.49 314.02 88.77L313.93 88.68L313.87 88.62Q319.90 92.20 324.18 93.83L324.20 93.85L324.22 93.87Q324.92 95.59 327.36 105.58L327.49 105.70L327.42 105.64Q344.34 112.36 373.91 111.54L373.98 111.61L373.90 111.53Q372.30 114.62 361.69 134.81L361.72 134.84L361.66 134.77Q350.65 134.78 340.05 133.76L339.99 133.70L340.05 133.76Q340.41 138.21 340.41 142.90L340.47 142.96L340.51 152.17L349.52 152.21L349.43 159.67L349.36 159.60Q328.36 199.16 313.47 218.33L313.60 218.47L313.56 218.42Q322.14 214.36 330.91 211.71L330.85 211.65L330.91 211.71Q327.14 216.51 319.80 225.68L319.94 225.82L319.80 225.68Q336.72 219.77 349.78 218.54L349.92 218.69L349.75 218.52Q365.59 198.46 382.31 162.16L382.24 162.09L400.71 163.22L400.59 163.10Q400.15 158.18 400.15 153.29L400.27 153.40L400.19 143.73L400.17 143.72Q398.87 143.84 395.91 144.05L395.91 144.05L395.83 143.96Q392.86 144.15 391.43 144.15L391.51 144.23L391.48 144.20Q391.51 143.62 391.71 142.80L391.71 142.80L391.62 141.28L391.55 141.22Q405.04 113.71 421.56 88.83Z"/><path fill="#b9da57" d="M129.37 136.60L129.36 136.59L129.41 136.64Q133.60 136.55 141.14 135.73L141.20 135.78L141.32 135.91Q140.95 139.21 140.95 142.67L141.04 142.76L141.01 149.46L141.01 149.46Q136.50 149.44 132.01 149.84L132.00 149.84L131.96 149.80Q127.59 150.12 123.10 149.91L123.16 149.97L123.16 149.97Q107.79 182.93 89.43 207.61L89.47 207.64L89.34 207.51Q75.95 211.05 69.02 214.32L69.09 214.39L69.01 214.31Q91.02 183.70 107.34 150.05L107.45 150.16L93.33 150.12L93.21 149.99Q93.28 142.93 92.67 135.80L92.74 135.86L92.78 135.90Q102.82 136.56 113.83 136.56L113.84 136.57L124.06 116.81L124.11 116.86Q129.45 106.70 135.98 98.14L135.99 98.15L135.85 98.01Q127.60 98.93 119.03 98.93L118.92 98.83L118.95 98.85Q86.34 98.87 66.14 87.04L66.12 87.02L62.69 77.87L62.76 77.94Q60.88 73.41 58.84 68.72L58.81 68.69L58.88 68.77Q82.03 82.74 112.63 83.96L112.76 84.09L112.70 84.03Q140.23 85.26 167.76 74.65L167.64 74.53L167.83 74.72Q166.78 76.93 164.12 81.62L164.10 81.59L164.08 81.58Q144.77 107.13 129.47 136.70ZM172.54 88.81L172.54 88.81L177.98 78.14L177.92 78.08Q172.82 80.73 163.84 84.60L163.83 84.59L164.85 82.96L164.90 83.00Q165.47 82.14 166.08 81.53L166.01 81.46L166.02 81.48Q168.20 77.94 172.07 70.80L172.11 70.85L171.94 70.67Q143.37 82.89 112.58 81.67L112.65 81.74L112.68 81.77Q80.37 80.26 54.88 64.36L54.97 64.45L54.86 64.33Q60.46 74.42 64.95 88.70L65.03 88.78L64.85 88.60Q70.76 92.07 75.05 93.70L75.21 93.86L75.21 93.86Q75.91 95.58 78.36 105.58L78.40 105.61L78.41 105.62Q95.25 112.27 124.82 111.45L124.98 111.61L124.91 111.54Q123.27 114.59 112.66 134.78L112.76 134.88L112.69 134.81Q101.66 134.80 91.06 133.78L91.05 133.77L90.99 133.70Q91.41 138.21 91.41 142.90L91.44 142.93L91.36 152.02L100.47 152.16L100.35 159.58L100.53 159.77Q79.40 199.21 64.52 218.38L64.60 218.47L64.48 218.34Q73.02 214.24 81.79 211.59L81.88 211.68L81.80 211.60Q78.21 216.58 70.87 225.76L70.94 225.83L70.89 225.78Q87.75 219.79 100.80 218.57L100.92 218.69L100.87 218.64Q116.63 198.51 133.36 162.20L133.24 162.09L151.57 163.08L151.66 163.17Q151.27 158.29 151.27 153.40L151.26 153.39L151.26 143.81L151.23 143.78Q149.82 143.80 146.87 144.00L146.77 143.90L146.85 143.99Q143.90 144.20 142.48 144.20L142.52 144.24L142.47 144.19Q142.43 143.54 142.64 142.73L142.55 142.65L142.70 141.36L142.67 141.34Q156.14 113.81 172.66 88.93Z"/><path fill="#d85496" d="M338.02 194.09L338.00 194.07L338.03 194.10Q339.79 199.53 342.65 210.34L342.60 210.29L342.54 210.23Q320.00 203.20 295.33 204.62L295.27 204.57L295.19 204.49Q270.70 205.90 249.29 216.50L249.38 216.59L249.26 216.48Q250.67 212.99 250.87 213.40L250.71 213.23L250.84 213.37Q270.68 192.01 291.68 168.35L291.85 168.52L291.81 168.48Q315.51 141.80 321.83 116.72L321.85 116.73L321.66 116.55Q324.29 107.35 317.46 101.03L317.46 101.03L317.38 100.95Q310.58 94.66 301.00 95.48L300.90 95.38L300.92 95.40Q299.15 95.26 297.31 95.26L297.32 95.26L297.26 95.21Q289.03 95.13 282.30 100.02L282.34 100.07L282.44 100.17Q275.37 107.37 276.59 121.65L276.62 121.68L276.61 121.67Q267.15 119.96 260.63 117.51L260.50 117.38L260.57 117.46Q259.52 109.88 259.11 102.13L259.06 102.08L259.19 102.20Q258.69 93.34 261.95 87.22L262.07 87.34L261.98 87.26Q271.56 79.90 289.50 79.90L289.53 79.93L299.00 80.02L298.84 79.85Q311.06 80.05 316.16 80.66L316.27 80.77L316.19 80.69Q339.44 82.93 340.86 95.98L340.84 95.96L340.97 96.08Q341.35 99.12 340.94 103.40L341.01 103.47L340.89 103.35Q340.78 106.90 339.96 110.58L339.83 110.45L339.83 110.44Q331.20 154.02 290.61 190.73L290.58 190.70L290.62 190.74Q298.13 189.88 305.47 189.88L305.43 189.85L305.49 189.91Q322.70 189.78 337.99 194.06ZM335.00 82.57L335.09 82.66L335.08 82.65Q326.45 79.12 317.27 78.71L317.25 78.69L298.98 77.75L298.97 77.75Q275.09 76.29 263.26 82.21L263.25 82.20L263.27 82.22Q257.48 89.48 257.48 100.50L257.49 100.50L257.56 100.57Q257.80 104.49 259.43 119.58L259.27 119.41L259.32 119.46Q262.11 120.62 268.43 122.25L268.49 122.31L268.49 127.82L268.57 127.91Q268.23 130.21 268.64 133.07L268.66 133.09L268.67 133.10Q275.56 133.87 288.81 135.09L288.71 134.99L288.75 135.03Q288.49 132.93 288.49 131.10L288.46 131.07L288.56 131.17Q288.47 121.29 295.00 114.05L295.02 114.07L295.05 114.11Q301.66 106.95 311.25 107.56L311.19 107.51L311.07 107.38Q315.20 107.64 319.28 108.45L319.22 108.40L319.34 108.51Q319.94 110.54 320.34 112.78L320.38 112.82L320.28 112.72Q320.49 114.97 320.09 116.81L320.12 116.84L320.15 116.87Q313.38 142.33 289.73 168.23L289.64 168.14L289.71 168.21Q278.26 180.21 249.09 212.64L249.22 212.77L249.12 212.66Q248.14 217.20 246.31 220.26L246.21 220.15L246.21 220.15Q254.86 215.55 263.02 212.69L263.02 212.69L263.05 212.73Q259.14 215.76 254.05 223.71L254.08 223.75L254.11 223.77Q253.53 225.64 252.92 227.48L252.74 227.30L252.86 227.42Q278.90 216.34 308.27 217.36L308.39 217.48L308.23 217.33Q338.70 218.22 363.17 230.87L363.06 230.75L357.84 219.41L357.80 219.38Q354.42 212.32 352.99 208.04L352.94 207.99L353.00 208.05Q349.18 205.86 342.65 203.62L342.52 203.48L342.54 203.50Q341.80 199.70 339.76 192.36L339.60 192.20L339.71 192.32Q327.89 189.27 315.66 188.25L315.72 188.31L315.66 188.25Q340.62 163.65 348.78 119.40L348.92 119.54L349.81 103.91L349.83 103.93Q349.56 94.48 343.03 90.81L342.96 90.74L342.71 90.68L342.83 90.81Q342.65 90.43 342.24 90.43L342.09 90.28L342.05 90.23Q340.88 85.80 334.97 82.54Z"/><path d="M10 86 C230 188,244 17,493 73" stroke="#e584cd" fill="none"/><path d="M10 49 C238 200,257 229,496 132" stroke="#6ceeee" fill="none"/><path d="M16 177 C238 224,234 163,496 157" stroke="#bc88f1" fill="none"/></svg>