<svg xmlns="http://www.w3.org/2000/svg" width="500" height="250" viewBox="0,0,500,250"><path d="M15 231 C241 156,250 144,492 134" stroke="#7feaea" fill="none"/><path fill="#ea8e8e" d="M357.48 147.02L357.51 147.05L357.58 147.11Q347.70 146.42 341.08 154.06L340.99 153.98L341.12 154.11Q334.45 161.72 333.43 171.91L333.45 171.93L333.46 171.94Q332.23 182.94 338.04 188.14L337.98 188.09L338.02 188.12Q343.82 193.32 355.04 192.71L354.98 192.65L355.08 192.74Q366.29 191.92 372.20 188.25L372.11 188.16L372.24 188.29Q378.29 182.31 378.29 173.95L378.22 173.87L378.24 173.89Q378.35 171.97 377.95 169.93L377.98 169.97L377.97 169.95Q378.29 160.89 372.37 153.65L372.44 153.72L372.35 153.63Q366.56 146.51 357.58 147.12ZM355.16 206.49L355.32 206.65L355.16 206.49Q331.89 206.67 324.34 202.59L324.23 202.48L324.28 202.53Q318.84 198.51 317.82 189.34L317.68 189.20L317.74 189.26Q317.51 185.56 317.71 181.69L317.78 181.75L317.73 181.70Q318.42 176.48 318.42 174.04L318.42 174.04L318.31 173.92Q320.79 158.66 321.60 154.98L321.67 155.05L321.66 155.04Q324.05 144.58 328.53 137.03L328.54 137.04L328.62 137.13Q342.73 113.51 374.55 79.45L374.64 79.54L374.60 79.50Q388.96 77.95 400.79 73.67L400.72 73.60L400.68 73.56Q364.06 113.62 346.93 136.26L346.91 136.24L346.87 136.20Q352.13 133.51 359.06 133.51L359.20 133.64L359.14 133.58Q376.86 133.56 385.01 143.96L384.94 143.88L385.03 143.98Q392.18 152.75 394.01 171.72L393.99 171.70L393.91 171.61Q394.39 175.56 394.39 178.83L394.35 178.79L394.33 178.77Q394.34 195.50 382.52 201.21L382.48 201.18L382.51 201.21Q376.04 204.53 355.23 206.56ZM367.47 219.42L367.48 219.42L367.57 219.51Q374.32 219.12 384.93 219.53L384.95 219.56L385.06 219.66Q393.86 220.11 402.23 216.23L402.23 216.23L402.22 216.23Q407.99 211.80 407.99 202.22L408.10 202.33L408.00 202.23Q408.02 199.60 407.11 194.30L407.10 194.29L407.24 194.43Q406.24 189.05 406.24 186.60L406.14 186.49L406.26 186.62Q401.48 161.24 392.91 151.04L392.88 151.01L392.96 151.08Q392.55 150.47 391.73 149.25L391.67 149.18L390.13 148.06L389.74 147.86L389.81 147.94Q387.90 145.21 384.64 140.11L384.68 140.16L384.56 140.04Q379.74 135.01 369.13 132.56L369.12 132.55L369.08 132.51Q375.61 123.95 391.52 104.17L391.62 104.27L414.21 75.88L414.22 75.88Q405.86 80.58 393.01 84.65L393.06 84.71L393.05 84.69Q397.92 79.36 407.50 68.76L407.42 68.67L407.48 68.74Q394.56 74.37 373.75 77.43L373.81 77.49L373.84 77.51Q343.16 109.03 327.25 135.55L327.25 135.55L327.31 135.61Q319.17 149.09 316.11 182.54L316.16 182.58L316.05 182.47Q315.67 185.56 316.08 190.66L316.09 190.67L316.15 190.72Q316.59 200.14 322.50 205.04L322.37 204.90L322.39 204.92Q324.53 205.84 324.32 206.04L324.17 205.89L324.23 205.95Q326.27 210.84 330.55 213.08L330.55 213.08L330.53 213.07Q338.35 216.80 348.75 217.82L348.74 217.82L348.70 217.78Q348.69 217.76 367.45 219.39ZM366.35 159.36L366.34 159.35L366.27 159.27Q369.26 158.59 374.36 161.24L374.51 161.39L374.39 161.28Q376.21 166.36 376.21 169.82L376.21 169.83L376.20 169.81Q377.30 179.89 372.20 185.19L372.20 185.19L372.20 185.19Q366.38 188.95 355.16 190.58L355.21 190.64L355.34 190.76Q347.55 190.72 344.70 189.30L344.60 189.20L344.72 189.32Q343.72 186.89 343.72 185.26L343.72 185.26L343.70 185.24Q342.43 167.66 358.14 160.73L358.10 160.68L358.20 160.79Q362.17 158.85 366.25 159.26Z"/><path fill="#41e1b9" d="M49.98 116.51L49.98 116.50L49.92 116.44Q32.70 116.36 22.91 110.65L23.01 110.75L22.98 110.71Q36.40 103.33 62.51 80.70L62.47 80.66L62.60 80.79Q66.34 79.63 73.27 76.37L73.35 76.45L73.35 76.45Q66.25 108.30 65.64 142.36L65.66 142.38L65.69 142.41Q65.07 176.46 70.78 209.09L70.72 209.03L70.66 208.97Q61.72 205.13 50.30 204.52L50.37 204.58L50.24 204.46Q49.68 182.29 49.68 160.46L49.79 160.57L49.74 160.51Q49.67 138.42 49.87 116.40ZM47.88 128.48L47.86 206.57L47.87 206.58Q54.42 206.60 59.52 207.62L59.41 207.51L59.59 207.69Q59.92 211.29 60.94 218.63L61.01 218.70L61.02 218.71Q76.19 221.43 89.24 233.46L89.32 233.54L89.36 233.59Q76.08 195.42 75.87 155.45L75.85 155.42L75.84 155.42Q75.31 115.32 85.09 76.57L85.25 76.72L85.19 76.67Q82.44 79.01 73.87 84.92L73.70 84.75L73.82 84.87Q74.87 80.82 76.50 72.66L76.52 72.68L76.36 72.53Q69.35 76.73 61.60 78.77L61.57 78.73L61.45 78.62Q41.31 97.83 18.26 110.07L18.38 110.19L18.39 110.21Q25.83 116.02 38.48 117.85L38.59 117.96L38.45 117.82Q35.08 120.77 28.14 126.48L28.05 126.39L28.15 126.49Q35.98 128.41 47.81 128.41L47.88 128.48Z"/><path fill="#64e6e6" d="M241.15 202.50L241.19 202.54L241.17 202.52Q237.56 202.38 233.89 202.58L233.85 202.54L233.71 202.40Q230.01 202.98 226.34 202.98L226.19 202.84L226.23 202.88Q228.75 184.60 228.75 166.24L228.71 166.20L228.71 166.20Q218.91 166.39 214.01 166.39L214.03 166.41L214.09 166.46Q209.43 166.29 199.64 165.88L199.63 165.87L199.47 165.72Q199.75 164.36 198.73 151.10L198.65 151.02L198.72 151.10Q212.37 153.94 228.28 153.94L228.38 154.04L228.38 154.04Q227.02 130.45 224.78 116.58L224.89 116.70L224.75 116.56Q229.11 117.25 233.39 117.25L233.43 117.29L242.25 117.33L242.24 117.33Q241.02 140.17 241.02 154.04L240.97 153.99L240.99 154.00Q252.58 153.97 269.71 152.14L269.61 152.03L269.71 152.14Q269.00 159.18 269.00 165.70L269.11 165.81L269.09 165.79Q267.57 165.69 263.28 165.90L263.43 166.05L263.29 165.90Q258.13 166.05 254.87 166.25L254.84 166.23L254.91 166.29Q254.82 166.20 240.54 166.20L240.45 166.11L240.51 184.53L240.60 184.61Q240.63 193.41 241.24 202.59ZM271.88 149.41L271.97 149.50L272.02 149.55Q261.81 151.17 251.82 151.58L251.81 151.57L251.66 151.42Q253.18 134.79 255.43 124.80L255.36 124.74L255.40 124.78Q251.62 125.07 244.08 125.89L243.99 125.80L244.99 114.77L245.09 114.87Q230.91 114.76 221.94 114.15L222.06 114.27L221.99 114.20Q225.29 131.17 226.31 151.97L226.36 152.02L226.36 152.02Q216.41 151.24 196.62 147.98L196.60 147.96L196.77 148.13Q198.21 154.47 198.21 168.54L198.15 168.48L206.29 168.46L206.24 168.40Q206.26 172.30 205.45 179.85L205.39 179.79L226.71 178.47L226.71 178.48Q225.44 195.35 223.81 205.14L223.73 205.07L223.84 205.17Q227.84 205.09 235.38 204.48L235.41 204.51L235.42 204.52Q235.44 208.21 235.24 215.35L235.31 215.42L235.13 215.25Q238.12 215.37 257.49 216.19L257.41 216.11L257.37 216.07Q252.49 199.56 251.27 178.35L251.44 178.52L251.39 178.48Q269.16 178.91 280.38 180.95L280.32 180.90L280.24 180.82Q279.37 175.86 279.37 170.77L279.25 170.65L279.20 160.40L279.30 160.50Q278.03 160.45 275.17 160.65L275.28 160.76L270.90 160.67L271.00 160.76Q271.30 156.78 271.91 149.44Z"/><path fill="#6a6ae5" d="M94.77 188.77L94.83 188.84L94.77 188.78Q100.97 193.76 108.52 192.94L108.49 192.92L108.41 192.83Q124.29 194.02 127.75 176.08L127.62 175.95L127.67 176.00Q130.87 159.00 130.87 140.85L130.90 140.88L130.92 127.03L130.93 127.05Q130.96 120.34 129.12 113.61L129.19 113.68L129.04 113.53Q122.59 126.05 111.98 151.54L111.87 151.42L112.02 151.57Q101.31 176.97 94.79 188.80ZM121.65 100.43L121.75 100.53L121.76 100.54Q115.55 96.17 108.41 96.17L108.58 96.34L108.55 96.31Q100.60 95.49 94.68 100.38L94.71 100.42L94.65 100.35Q88.66 105.17 87.64 113.13L87.67 113.15L87.77 113.26Q85.87 120.53 85.66 128.48L85.56 128.37L85.58 128.40Q85.65 128.47 85.65 143.77L85.69 143.80L85.65 143.76Q85.66 156.41 88.10 175.79L88.04 175.72L88.00 175.68Q98.27 150.27 121.73 100.51ZM130.11 201.28L130.04 201.20L130.09 201.26Q120.79 206.23 108.35 206.23L108.27 206.16L99.43 206.08L99.60 206.25Q82.25 206.23 76.13 197.06L75.98 196.91L76.11 197.04Q71.84 185.42 71.43 169.72L71.28 169.57L71.29 169.59Q71.13 160.24 70.72 141.68L70.82 141.78L70.84 141.80Q70.63 135.27 69.82 118.96L69.76 118.90L69.70 118.84Q69.31 106.62 70.94 96.02L70.98 96.06L70.94 96.01Q73.67 80.39 96.92 79.16L96.95 79.20L96.91 79.16Q100.85 78.82 107.99 79.02L108.15 79.18L108.02 79.05Q138.41 79.87 144.12 98.43L144.22 98.53L144.20 98.51Q147.49 108.73 147.29 118.73L147.22 118.66L147.15 118.59Q146.75 145.31 146.34 151.83L146.36 151.86L146.37 151.87Q145.33 172.24 143.70 179.18L143.83 179.31L143.75 179.22Q140.35 196.02 130.15 201.32ZM156.57 200.00L156.61 200.04L156.67 200.10Q157.83 185.15 157.62 175.56L157.66 175.60L157.32 150.99L157.25 150.91Q156.92 134.88 154.06 105.31L154.07 105.31L153.93 105.18Q151.10 95.41 144.16 91.33L144.12 91.29L144.18 91.35Q135.78 77.65 108.04 76.83L108.09 76.87L108.02 76.80Q103.37 76.64 96.23 76.85L96.23 76.85L96.17 76.79Q71.98 77.27 69.33 93.99L69.43 94.10L69.27 93.94Q67.21 106.35 67.82 117.57L67.82 117.57L67.87 117.62Q69.69 141.06 69.49 159.01L69.63 159.16L69.45 158.97Q69.37 178.87 69.98 184.38L69.92 184.32L69.99 184.39Q71.94 200.82 80.09 205.10L80.04 205.05L80.24 205.25Q88.07 216.95 109.48 218.38L109.54 218.44L109.58 218.48Q128.59 219.54 132.06 219.33L132.08 219.36L132.10 219.38Q147.35 218.52 153.47 209.95L153.62 210.11L153.54 210.02Q156.31 206.47 156.72 200.15ZM110.58 190.93L110.51 190.85L110.44 190.78Q114.13 183.05 119.84 168.57L119.84 168.57L129.05 145.97L129.07 145.98Q128.91 154.80 126.87 172.75L126.86 172.74L126.91 172.79Q123.35 188.19 110.50 190.84ZM99.92 125.00L99.96 125.03L99.94 125.02Q102.40 115.45 106.08 112.39L106.01 112.32L106.11 112.42Q108.44 110.06 115.37 109.04L115.36 109.03L115.52 109.19Q106.23 128.66 96.24 153.54L96.27 153.56L96.27 153.57Q96.28 139.10 99.95 125.03Z"/><path fill="#6f4ed4" d="M298.99 116.52L298.84 116.36L298.92 116.45Q281.86 116.52 272.08 110.81L272.07 110.81L272.00 110.74Q285.44 103.37 311.54 80.73L311.48 80.67L311.63 80.82Q315.50 79.79 322.43 76.53L322.28 76.37L322.42 76.52Q315.27 108.32 314.66 142.38L314.65 142.37L314.55 142.27Q313.98 176.37 319.69 209.00L319.66 208.97L319.71 209.02Q310.78 205.19 299.36 204.58L299.27 204.48L299.26 204.48Q298.72 182.32 298.72 160.49L298.75 160.53L298.62 160.40Q298.79 138.54 298.99 116.52ZM296.94 128.54L296.84 206.54L296.83 206.54Q303.48 206.66 308.58 207.68L308.45 207.55L308.42 207.52Q308.82 211.18 309.84 218.52L309.95 218.64L309.96 218.64Q325.17 221.42 338.22 233.45L338.34 233.57L338.37 233.59Q325.00 195.35 324.80 155.37L324.83 155.41L324.79 155.36Q324.31 115.32 334.10 76.57L334.20 76.67L334.20 76.67Q331.37 78.94 322.81 84.86L322.84 84.89L322.82 84.87Q323.81 80.76 325.44 72.60L325.47 72.63L325.49 72.65Q318.37 76.75 310.62 78.79L310.54 78.71L310.63 78.80Q290.29 97.82 267.24 110.05L267.39 110.20L267.37 110.19Q274.80 115.99 287.45 117.82L287.43 117.81L287.40 117.77Q284.06 120.76 277.13 126.47L277.04 126.38L277.01 126.35Q285.07 128.50 296.90 128.50L296.88 128.48Z"/><path fill="#dd9e5f" d="M170.83 147.12L170.82 147.10L170.69 146.98Q161.01 146.47 154.38 154.12L154.30 154.03L154.35 154.09Q147.70 161.72 146.68 171.91L146.70 171.93L146.72 171.95Q145.51 182.98 151.33 188.18L151.27 188.13L151.33 188.19Q156.99 193.23 168.20 192.62L168.29 192.70L168.34 192.76Q179.56 191.94 185.47 188.27L185.52 188.32L185.38 188.17Q191.61 182.38 191.61 174.01L191.56 173.96L191.56 173.97Q191.57 171.94 191.17 169.90L191.09 169.83L191.18 169.92Q191.62 160.98 185.71 153.74L185.61 153.63L185.54 153.56Q179.71 146.41 170.74 147.02ZM168.58 206.66L168.42 206.50L168.47 206.55Q144.97 206.51 137.43 202.43L137.52 202.52L137.54 202.55Q131.97 198.39 130.95 189.22L130.95 189.22L131.06 189.33Q130.84 185.65 131.05 181.77L130.94 181.67L131.04 181.77Q131.57 176.38 131.57 173.93L131.63 173.99L131.68 174.04Q133.96 158.58 134.78 154.91L134.90 155.03L134.91 155.04Q137.30 144.59 141.79 137.04L141.77 137.02L141.84 137.09Q156.11 113.63 187.93 79.58L187.79 79.44L187.89 79.53Q202.05 77.79 213.88 73.51L214.07 73.70L213.90 73.53Q177.23 113.54 160.10 136.18L160.13 136.21L160.04 136.12Q165.38 133.51 172.31 133.51L172.45 133.64L172.42 133.62Q190.04 133.49 198.20 143.89L198.19 143.88L198.34 144.03Q205.35 152.68 207.19 171.64L207.28 171.74L207.28 171.73Q207.57 175.49 207.57 178.76L207.61 178.80L207.65 178.83Q207.63 195.54 195.80 201.25L195.76 201.21L195.82 201.27Q189.27 204.50 168.46 206.54ZM180.74 219.43L180.80 219.49L180.74 219.43Q187.72 219.28 198.33 219.68L198.20 219.56L198.26 219.62Q206.95 219.94 215.31 216.07L215.44 216.20L215.32 216.07Q221.24 211.80 221.24 202.22L221.26 202.24L221.23 202.21Q221.38 199.71 220.47 194.41L220.32 194.26L220.35 194.29Q219.42 188.97 219.42 186.52L219.45 186.56L219.56 186.66Q214.73 161.24 206.16 151.04L206.17 151.05L206.16 151.04Q205.89 150.57 205.08 149.34L205.04 149.31L203.35 148.02L202.95 147.83L203.03 147.91Q201.14 145.20 197.88 140.10L197.88 140.10L197.95 140.17Q192.96 134.99 182.36 132.54L182.27 132.45L182.28 132.46Q188.85 123.93 204.75 104.15L204.74 104.13L227.51 75.93L227.51 75.93Q219.06 80.53 206.21 84.61L206.30 84.69L206.23 84.62Q211.16 79.35 220.74 68.75L220.71 68.71L220.79 68.79Q207.87 74.44 187.07 77.49L187.07 77.49L187.07 77.50Q156.53 109.16 140.63 135.67L140.57 135.62L140.60 135.65Q132.36 149.02 129.30 182.47L129.39 182.56L129.37 182.54Q128.98 185.62 129.39 190.72L129.32 190.65L129.25 190.58Q129.84 200.15 135.76 205.04L135.68 204.96L135.59 204.87Q137.72 205.78 137.52 205.99L137.59 206.06L137.44 205.91Q139.57 210.89 143.85 213.14L143.86 213.14L143.83 213.11Q151.55 216.76 161.95 217.78L162.04 217.86L161.95 217.77Q161.92 217.75 180.69 219.38ZM179.60 159.35L179.56 159.32L179.52 159.27Q182.67 158.75 187.76 161.40L187.67 161.31L187.63 161.26Q189.42 166.32 189.42 169.78L189.55 169.91L189.49 169.86Q190.53 179.87 185.43 185.17L185.47 185.21L185.48 185.22Q179.71 189.03 168.49 190.67L168.43 190.60L168.51 190.69Q160.66 190.58 157.81 189.16L157.86 189.21L157.82 189.17Q156.77 186.69 156.77 185.06L156.89 185.18L156.96 185.25Q155.61 167.58 171.31 160.65L171.26 160.60L171.34 160.68Q175.43 158.86 179.51 159.26Z"/><path d="M21 68 C235 182,253 157,494 102" stroke="#e6e66f" fill="none"/><path fill="#7373ec" d="M399.19 167.67L399.08 167.56L399.17 167.65Q415.66 165.58 432.79 166.19L432.87 166.27L432.72 166.12Q432.66 152.60 432.66 139.76L432.65 139.75L432.51 139.60Q432.53 126.37 433.55 112.71L433.70 112.85L433.55 112.71Q427.14 122.00 399.20 167.68ZM452.24 207.06L452.13 206.95L452.22 207.04Q443.11 205.27 433.53 204.86L433.57 204.91L433.61 204.94Q432.52 192.23 431.91 178.97L432.04 179.10L431.99 179.06Q403.41 178.01 378.12 185.56L378.06 185.50L378.10 185.54Q378.67 182.84 379.69 177.54L379.77 177.62L379.82 177.67Q389.36 160.70 408.53 127.05L408.58 127.10L408.57 127.08Q423.96 100.87 442.31 80.07L442.43 80.19L442.36 80.11Q447.15 79.19 456.12 77.76L456.01 77.65L455.94 77.59Q445.87 112.18 445.87 149.91L445.94 149.97L445.91 149.95Q445.83 157.82 446.24 165.77L446.23 165.77L453.27 166.48L453.12 166.33Q456.54 166.69 459.80 167.30L459.64 167.14L459.74 167.24Q460.39 172.58 461.82 182.98L461.85 183.02L461.74 182.91Q455.17 181.44 447.22 180.42L447.35 180.55L447.37 180.57Q448.59 191.38 452.26 207.08ZM461.24 165.28L461.07 165.11L461.19 165.23Q460.04 164.69 459.02 164.69L459.19 164.86L457.12 164.82L457.10 164.80Q456.39 156.75 456.39 149.21L456.47 149.29L456.48 149.30Q456.35 114.91 467.37 82.69L467.55 82.87L467.37 82.69Q463.40 84.23 455.65 86.27L455.58 86.20L455.73 86.34Q456.78 82.09 459.23 74.55L459.31 74.63L459.25 74.57Q452.41 76.71 441.40 77.93L441.44 77.97L441.26 77.79Q420.27 101.05 392.33 151.22L392.32 151.22L403.54 131.64L403.59 131.69Q401.37 137.22 399.94 140.28L399.94 140.28L376.18 188.71L376.04 188.58Q379.52 187.77 385.64 185.73L385.76 185.85L384.78 186.92L384.90 187.03Q384.20 190.62 382.57 197.35L382.57 197.34L382.60 197.38Q404.67 190.28 430.57 191.30L430.56 191.29L430.57 191.30Q430.85 196.47 431.87 207.08L431.80 207.01L431.82 207.04Q437.56 207.06 443.27 207.67L443.28 207.68L443.12 207.53Q443.93 211.19 445.35 218.53L445.45 218.62L445.52 218.69Q455.59 219.79 471.70 224.68L471.79 224.77L471.71 224.69Q466.42 213.29 461.53 195.75L461.58 195.80L469.29 198.21L469.25 198.17Q472.99 199.46 476.66 201.29L476.69 201.32L476.64 201.27Q472.37 187.83 471.56 178.86L471.64 178.94L471.53 178.83Q468.53 178.08 462.42 176.85L462.33 176.77L462.39 176.82Q461.08 169.80 461.08 165.11ZM418.34 164.39L418.39 164.44L418.25 164.30Q422.40 157.43 430.76 143.77L430.80 143.81L430.74 143.75Q430.67 148.77 430.46 153.87L430.55 153.96L430.62 154.03Q430.55 159.26 430.75 164.36L430.76 164.36L430.70 164.31Q427.65 164.11 424.59 164.11L424.67 164.19L424.60 164.12Q421.52 164.30 418.25 164.30Z"/><path d="M6 236 C261 53,242 77,484 243" stroke="#ebca64" fill="none"/><path d="M16 51 C266 117,252 224,496 143" stroke="#e584e5" fill="none"/></svg>