<svg xmlns="http://www.w3.org/2000/svg" width="500" height="250" viewBox="0,0,500,250"><path fill="#663fde" d="M88.98 194.05L89.02 194.09L89.00 194.07Q90.61 199.35 93.47 210.16L93.48 210.18L93.59 210.29Q70.92 203.11 46.24 204.54L46.21 204.51L46.28 204.58Q21.85 206.05 0.44 216.66L0.26 216.48L0.45 216.67Q1.59 212.91 1.79 213.32L1.85 213.37L1.75 213.28Q21.81 192.14 42.81 168.48L42.84 168.51L42.74 168.41Q66.38 141.68 72.71 116.59L72.76 116.65L72.73 116.62Q75.28 107.33 68.44 101.01L68.27 100.84L68.32 100.88Q61.62 94.69 52.03 95.51L51.86 95.34L51.86 95.33Q50.14 95.25 48.30 95.25L48.29 95.24L48.31 95.25Q40.12 95.22 33.39 100.12L33.40 100.12L33.34 100.07Q26.53 107.53 27.75 121.81L27.78 121.83L27.73 121.79Q18.15 119.96 11.62 117.51L11.66 117.55L11.54 117.42Q10.46 109.82 10.05 102.07L10.13 102.14L10.22 102.24Q9.72 93.38 12.98 87.26L12.91 87.19L13.06 87.33Q22.66 80.00 40.60 80.00L40.50 79.90L49.87 79.89L49.84 79.86Q62.23 80.21 67.32 80.82L67.31 80.81L67.25 80.74Q90.55 83.04 91.98 96.09L91.88 95.99L91.87 95.98Q92.34 99.11 91.93 103.39L91.87 103.33L91.88 103.33Q91.63 106.75 90.81 110.43L90.87 110.49L90.94 110.56Q82.18 154.01 41.60 190.72L41.49 190.60L41.56 190.68Q49.15 189.90 56.49 189.90L56.36 189.78L56.44 189.86Q73.86 189.94 89.15 194.22ZM86.06 82.63L85.94 82.51L86.05 82.62Q77.44 79.11 68.27 78.70L68.26 78.70L49.81 77.59L49.90 77.67Q26.11 76.32 14.28 82.23L14.13 82.08L14.30 82.25Q8.58 89.58 8.58 100.60L8.55 100.57L8.46 100.48Q8.71 104.40 10.34 119.49L10.34 119.49L10.44 119.59Q13.28 120.79 19.60 122.43L19.44 122.26L19.59 127.92L19.62 127.95Q19.24 130.22 19.65 133.08L19.63 133.06L19.80 133.23Q26.55 133.86 39.80 135.08L39.69 134.97L39.77 135.05Q39.53 132.97 39.53 131.14L39.43 131.04L39.44 131.05Q39.57 121.39 46.10 114.15L46.07 114.12L45.94 114.00Q52.65 106.93 62.23 107.55L62.14 107.45L62.23 107.54Q66.27 107.71 70.35 108.52L70.40 108.58L70.24 108.42Q70.97 110.58 71.38 112.82L71.32 112.76L71.25 112.69Q71.51 114.98 71.10 116.82L71.09 116.81L71.07 116.79Q64.48 142.43 40.83 168.33L40.78 168.28L40.83 168.33Q29.25 180.21 0.09 212.64L0.15 212.69L0.05 212.60Q-0.91 217.15-2.74 220.20L-2.63 220.32L-2.78 220.17Q5.87 215.57 14.03 212.71L14.05 212.73L14.07 212.75Q10.23 215.84 5.13 223.80L5.06 223.72L5.05 223.72Q4.34 225.46 3.73 227.29L3.81 227.37L3.84 227.40Q29.98 216.43 59.35 217.45L59.24 217.34L59.31 217.40Q89.63 218.15 114.11 230.80L114.18 230.87L108.87 219.44L108.87 219.45Q105.42 212.32 103.99 208.04L103.97 208.02L104.00 208.05Q100.08 205.76 93.55 203.51L93.61 203.57L93.60 203.56Q92.71 199.61 90.67 192.27L90.70 192.30L90.62 192.22Q78.87 189.24 66.63 188.22L66.61 188.20L66.73 188.32Q91.70 163.73 99.85 119.47L99.79 119.41L100.84 103.94L100.94 104.04Q100.43 94.35 93.91 90.68L94.04 90.81L93.79 90.77L93.78 90.76Q93.58 90.36 93.18 90.36L93.06 90.25L93.12 90.30Q91.84 85.76 85.92 82.49Z"/><path d="M3 103 C265 68,239 186,497 56" stroke="#6eddc1" fill="none"/><path fill="#d1e792" d="M406.02 188.78L406.05 188.80L406.13 188.89Q412.13 193.67 419.68 192.85L419.73 192.90L419.80 192.97Q435.50 193.99 438.97 176.04L438.87 175.94L438.93 176.01Q442.12 159.00 442.12 140.85L442.25 140.99L442.23 127.09L442.18 127.04Q442.20 120.33 440.36 113.60L440.30 113.54L440.24 113.48Q433.79 126.00 423.19 151.49L423.11 151.42L423.14 151.44Q412.53 176.93 406.00 188.76ZM433.01 100.54L433.01 100.54L432.91 100.44Q426.79 96.16 419.65 96.16L419.70 96.20L419.72 96.23Q411.75 95.39 405.84 100.29L405.89 100.34L405.87 100.32Q400.04 105.30 399.02 113.25L399.04 113.27L398.87 113.10Q397.12 120.53 396.91 128.48L396.88 128.45L396.96 128.53Q396.85 128.42 396.85 143.72L396.89 143.75L396.97 143.84Q396.88 156.39 399.33 175.77L399.31 175.74L399.30 175.73Q409.51 150.25 432.96 100.49ZM441.40 201.31L441.40 201.32L441.31 201.23Q432.02 206.21 419.58 206.21L419.61 206.24L410.75 206.16L410.70 206.10Q393.50 206.23 387.38 197.06L387.23 196.91L387.27 196.95Q382.96 185.30 382.55 169.59L382.72 169.76L382.61 169.65Q382.48 160.34 382.07 141.78L382.11 141.82L382.05 141.76Q381.75 135.14 380.93 118.82L381.04 118.93L380.90 118.79Q380.51 106.57 382.14 95.97L382.23 96.05L382.20 96.03Q384.84 80.31 408.09 79.09L408.08 79.08L408.07 79.07Q412.21 78.93 419.35 79.13L419.27 79.05L419.36 79.14Q449.66 79.87 455.37 98.43L455.49 98.55L455.52 98.58Q458.63 108.62 458.42 118.61L458.54 118.73L458.47 118.65Q458.03 145.34 457.62 151.87L457.61 151.86L457.75 152.00Q456.64 172.30 455.01 179.23L454.97 179.20L455.10 179.33Q451.59 196.00 441.39 201.30ZM467.91 200.09L467.79 199.97L467.91 200.09Q469.17 185.23 468.96 175.65L468.88 175.57L468.52 150.93L468.52 150.94Q468.06 134.77 465.20 105.20L465.29 105.29L465.14 105.14Q462.39 95.46 455.46 91.38L455.37 91.28L455.35 91.27Q447.00 77.62 419.26 76.80L419.40 76.94L419.24 76.78Q414.57 76.59 407.43 76.79L407.43 76.80L407.54 76.91Q383.27 77.31 380.62 94.04L380.60 94.02L380.57 93.99Q378.54 106.44 379.16 117.66L379.10 117.60L379.13 117.63Q381.02 141.14 380.82 159.09L380.82 159.09L380.81 159.08Q380.65 178.91 381.27 184.42L381.10 184.25L381.23 184.38Q383.15 200.78 391.31 205.07L391.47 205.23L391.38 205.14Q399.40 217.03 420.81 218.46L420.78 218.43L420.67 218.32Q439.91 219.61 443.38 219.41L443.31 219.34L443.48 219.51Q458.65 218.57 464.77 210.00L464.82 210.05L464.76 209.99Q467.43 206.34 467.84 200.02ZM421.72 190.81L421.79 190.89L421.78 190.88Q425.50 183.18 431.21 168.70L431.08 168.56L440.43 146.10L440.25 145.92Q440.23 154.87 438.19 172.81L438.18 172.80L438.00 172.62Q434.62 188.22 421.77 190.87ZM411.08 124.91L411.26 125.08L411.23 125.05Q413.64 115.44 417.31 112.38L417.31 112.38L417.31 112.37Q419.72 110.09 426.65 109.07L426.58 109.00L426.64 109.05Q417.46 128.63 407.47 153.52L407.59 153.64L407.51 153.55Q407.43 139.00 411.10 124.93Z"/><path fill="#8fbfef" d="M241.19 202.54L241.05 202.40L241.08 202.43Q237.41 202.23 233.74 202.43L233.74 202.43L233.76 202.46Q229.87 202.85 226.20 202.85L226.24 202.89L226.30 202.95Q228.68 184.53 228.68 166.17L228.79 166.28L228.61 166.10Q218.97 166.45 214.07 166.45L213.93 166.31L213.98 166.36Q209.29 166.16 199.50 165.75L199.64 165.88L199.63 165.87Q199.73 164.34 198.71 151.09L198.67 151.05L198.80 151.18Q212.37 153.94 228.28 153.94L228.33 153.99L228.25 153.91Q227.11 130.54 224.86 116.67L224.78 116.59L224.88 116.68Q229.05 117.18 233.33 117.18L233.42 117.27L242.26 117.35L242.21 117.30Q240.90 140.04 240.90 153.91L240.90 153.91L241.02 154.03Q252.66 154.05 269.79 152.22L269.78 152.21L269.67 152.09Q269.15 159.33 269.15 165.86L269.09 165.79L269.02 165.72Q267.74 165.87 263.46 166.08L263.41 166.02L263.34 165.95Q258.16 166.08 254.90 166.28L254.88 166.26L254.79 166.17Q254.89 166.27 240.61 166.27L240.50 166.16L240.49 184.50L240.55 184.56Q240.53 193.32 241.15 202.50ZM271.96 149.48L271.91 149.44L271.94 149.47Q261.73 151.09 251.74 151.50L251.73 151.49L251.78 151.54Q253.09 134.70 255.34 124.71L255.40 124.77L255.51 124.88Q251.57 125.02 244.02 125.83L243.96 125.78L244.98 114.76L244.95 114.73Q231.03 114.88 222.05 114.27L221.96 114.18L221.98 114.19Q225.14 131.02 226.16 151.82L226.23 151.89L226.32 151.98Q216.47 151.31 196.69 148.05L196.72 148.08L196.65 148.01Q198.06 154.31 198.06 168.39L198.07 168.40L206.26 168.43L206.33 168.49Q206.25 172.29 205.43 179.84L205.43 179.83L226.66 178.43L226.76 178.53Q225.42 195.34 223.79 205.13L223.81 205.15L223.76 205.10Q227.85 205.11 235.39 204.49L235.35 204.45L235.53 204.63Q235.53 208.30 235.33 215.44L235.33 215.44L235.19 215.30Q238.04 215.30 257.41 216.11L257.51 216.21L257.53 216.23Q252.47 199.55 251.25 178.34L251.31 178.40L251.39 178.48Q269.16 178.91 280.38 180.95L280.32 180.90L280.27 180.85Q279.30 175.79 279.30 170.69L279.35 170.75L279.23 160.43L279.20 160.40Q278.10 160.52 275.24 160.73L275.27 160.75L270.96 160.73L270.90 160.67Q271.24 156.72 271.85 149.38Z"/><path fill="#77e8e8" d="M94.81 207.48L94.68 207.35L94.69 207.36Q72.97 208.69 67.67 196.25L67.54 196.12L67.51 196.09Q71.73 191.13 80.09 181.54L80.12 181.57L80.07 181.52Q82.62 192.22 98.73 192.84L98.88 192.99L98.82 192.93Q116.90 193.27 125.67 186.13L125.71 186.16L125.67 186.13Q133.30 177.64 132.89 163.16L132.86 163.13L132.90 163.17Q131.99 135.96 106.29 137.18L106.30 137.19L106.39 137.28Q91.28 138.07 81.89 144.80L81.94 144.85L80.06 143.78L79.06 143.19L78.99 143.12Q80.83 126.19 80.21 111.51L80.22 111.51L80.30 111.59Q79.71 97.55 77.88 79.81L77.83 79.75L77.70 79.63Q97.35 84.79 117.74 84.18L117.69 84.13L117.82 84.26Q138.16 83.80 157.33 77.07L157.34 77.08L154.35 85.30L154.21 85.17Q152.55 89.22 151.53 93.71L151.55 93.72L151.69 93.86Q134.81 99.21 114.00 99.21L114.01 99.22L114.12 99.33Q106.25 99.21 98.30 98.39L98.47 98.56L98.34 98.44Q97.95 102.12 96.12 125.98L96.23 126.10L96.21 126.07Q100.63 123.56 111.64 122.75L111.65 122.76L111.65 122.76Q131.68 124.02 139.43 133.00L139.30 132.87L139.43 132.99Q146.70 141.08 148.12 161.68L148.18 161.73L148.16 161.71Q149.67 184.23 143.14 195.04L143.03 194.92L143.00 194.89Q132.20 205.10 114.46 206.33L114.45 206.32L114.56 206.42Q108.94 206.51 94.66 207.33ZM127.17 219.65L127.07 219.54L127.07 219.55Q145.47 220.00 155.67 214.09L155.65 214.07L155.69 214.10Q160.99 205.95 160.99 194.73L161.09 194.83L161.04 194.78Q161.01 178.23 155.91 156.21L155.85 156.15L155.92 156.21Q153.81 146.76 147.28 139.22L147.32 139.25L147.61 139.75L146.36 138.09L144.52 137.07L144.48 137.02Q142.93 133.24 139.47 129.57L139.45 129.55L139.38 129.68L139.40 129.70Q131.15 120.63 111.36 120.63L111.40 120.67L109.96 120.65L109.99 120.68Q110.39 117.62 111.41 111.71L111.54 111.84L111.54 111.84Q138.09 112.28 159.71 103.51L159.87 103.68L159.74 103.54Q161.95 95.97 167.05 80.87L167.09 80.92L155.95 86.09L155.88 86.02Q158.03 80.01 160.68 73.90L160.70 73.91L160.69 73.90Q139.94 81.50 117.91 81.91L117.90 81.90L118.05 82.05Q95.96 82.59 74.75 76.68L74.83 76.76L74.81 76.73Q78.39 100.30 78.39 123.96L78.40 123.97L78.45 124.02Q78.39 134.16 77.78 144.36L77.85 144.43L77.87 144.45Q79.26 145.43 82.32 147.07L82.19 146.93L82.25 147.00Q84.07 145.76 87.54 143.92L87.56 143.94L87.60 143.98Q87.31 147.97 86.09 156.13L86.15 156.19L86.25 156.29Q88.46 157.28 90.71 158.51L90.68 158.48L90.56 158.36Q105.62 149.15 115.61 149.15L115.46 149.00L115.53 149.07Q122.58 148.98 128.91 152.45L129.07 152.61L129.08 152.63Q130.83 158.05 131.03 163.15L131.05 163.16L130.97 163.08Q131.53 177.10 126.03 183.02L125.83 182.82L125.91 182.90Q118.54 189.40 106.51 190.62L106.51 190.63L106.60 190.72Q101.52 191.15 97.85 190.74L97.83 190.72L97.69 190.57Q93.38 190.14 89.30 188.30L89.25 188.26L89.01 186.99L88.36 187.57L88.38 187.59Q84.10 184.94 81.24 177.80L81.26 177.82L81.19 177.75Q74.07 185.31 65.10 196.73L65.19 196.83L65.25 196.88Q66.77 200.24 71.25 205.34L71.20 205.29L71.24 205.33Q76.97 215.13 92.06 217.78L92.04 217.76L92.12 217.84Q98.37 218.99 127.12 219.60Z"/><path fill="#8ae4e4" d="M171.47 96.26L171.38 96.17L163.18 96.95L163.12 96.88Q151.02 97.43 149.80 108.24L149.80 108.24L149.93 108.38Q149.42 112.14 149.62 117.44L149.59 117.41L149.72 117.54Q149.77 127.79 156.50 134.93L156.57 135.00L156.60 135.02Q163.28 142.11 173.48 141.30L173.53 141.36L173.44 141.26Q184.52 140.51 188.60 135.62L188.60 135.62L188.65 135.66Q194.31 130.73 195.74 118.69L195.66 118.62L195.74 118.69Q197.19 106.69 190.46 102.20L190.40 102.14L190.43 102.17Q185.83 97.98 171.55 96.34ZM203.92 145.84L203.78 145.70L196.99 158.08L197.00 158.09Q182.41 183.68 162.22 205.50L162.35 205.63L162.30 205.58Q153.57 206.44 139.09 210.72L138.99 210.62L139.02 210.65Q167.55 176.98 184.48 151.28L184.59 151.40L184.42 151.22Q179.02 154.79 170.25 155.20L170.20 155.15L170.19 155.14Q154.04 155.92 145.88 145.31L145.90 145.33L145.96 145.40Q139.45 136.84 133.54 112.37L133.58 112.41L133.49 112.33Q133.62 110.00 132.80 105.01L132.75 104.95L132.71 104.92Q131.99 100.02 131.99 97.57L131.98 97.56L131.87 97.45Q131.83 87.83 137.55 84.56L137.51 84.53L137.69 84.71Q144.21 80.63 154.20 80.63L154.19 80.61L154.09 80.51Q171.19 80.48 171.19 80.48L171.35 80.64L171.16 80.45Q182.86 80.73 189.59 81.75L189.51 81.67L189.58 81.74Q200.96 83.13 205.86 85.78L205.83 85.76L206.00 85.93Q213.19 89.85 214.21 99.23L214.32 99.34L214.22 99.24Q214.38 100.62 213.36 114.90L213.18 114.72L213.33 114.87Q211.32 126.32 210.10 130.81L210.04 130.75L209.91 130.62Q207.98 138.28 203.90 145.82ZM214.11 158.68L214.05 158.62L214.14 158.71Q219.32 146.76 222.18 123.72L222.17 123.71L222.19 123.73Q223.66 111.94 223.45 107.25L223.40 107.20L223.46 107.26Q223.34 97.35 217.02 92.45L217.00 92.43L215.35 91.81L215.31 91.76Q213.81 87.62 208.92 84.15L209.05 84.29L208.95 84.18Q196.75 78.91 171.05 78.10L171.11 78.15L171.13 78.18Q165.86 78.01 152.81 78.01L152.92 78.12L152.97 78.17Q143.56 78.14 135.61 81.81L135.59 81.79L135.52 81.72Q129.48 86.09 129.89 95.88L129.90 95.88L129.75 95.74Q130.81 100.67 131.83 111.48L131.88 111.53L131.98 111.63Q135.21 125.67 136.64 130.16L136.62 130.14L136.59 130.11Q139.57 140.02 144.66 146.95L144.81 147.10L144.72 147.01Q146.20 148.89 148.23 150.93L148.14 150.84L148.21 150.91Q149.58 153.30 153.05 158.19L153.18 158.32L153.15 158.30Q161.06 165.59 171.46 166.61L171.45 166.60L171.49 166.64Q161.35 180.97 152.99 191.17L152.99 191.18L133.58 214.59L133.44 214.45Q145.54 210.44 154.31 208.60L154.39 208.68L154.28 208.58Q150.33 213.39 141.97 222.57L141.86 222.46L141.93 222.53Q158.33 217.52 175.05 217.32L175.12 217.38L175.10 217.36Q187.53 203.48 210.78 164.73L210.77 164.73L210.80 165.17L210.78 165.14Q212.27 161.32 214.10 158.67ZM181.85 109.08L181.87 109.11L181.85 109.09Q185.09 108.45 187.53 109.06L187.57 109.09L187.49 109.02Q191.02 109.69 193.06 110.30L193.03 110.28L193.00 110.24Q193.71 112.39 194.12 114.63L194.11 114.62L194.09 114.59Q194.47 116.81 193.85 118.85L193.82 118.81L193.89 118.89Q193.78 128.15 187.45 134.07L187.37 133.98L187.40 134.01Q182.30 139.52 173.53 139.31L173.59 139.37L173.43 139.21Q171.31 139.33 163.15 137.70L163.11 137.66L163.12 137.67Q161.79 132.88 161.79 129.00L161.97 129.18L161.89 129.10Q161.41 127.60 161.41 126.38L161.55 126.52L161.37 126.33Q161.42 114.56 173.66 110.27L173.66 110.28L173.70 110.32Q177.30 109.02 181.78 109.02Z"/><path fill="#5ca3e9" d="M338.13 194.19L338.08 194.15L338.03 194.10Q339.75 199.49 342.61 210.30L342.61 210.31L342.47 210.16Q319.95 203.15 295.28 204.57L295.20 204.50L295.16 204.46Q270.74 205.94 249.32 216.54L249.32 216.54L249.39 216.61Q250.49 212.81 250.69 213.22L250.75 213.28L250.79 213.31Q270.77 192.10 291.77 168.44L291.82 168.49L291.87 168.54Q315.53 141.82 321.85 116.73L321.66 116.54L321.85 116.73Q324.20 107.26 317.37 100.94L317.39 100.96L317.36 100.93Q310.61 94.69 301.03 95.51L300.92 95.40L300.95 95.43Q299.11 95.22 297.28 95.22L297.36 95.31L297.21 95.15Q289.07 95.17 282.34 100.06L282.33 100.06L282.48 100.20Q275.48 107.48 276.70 121.75L276.60 121.65L276.65 121.70Q267.16 119.96 260.63 117.52L260.57 117.45L260.62 117.51Q259.51 109.87 259.10 102.12L259.05 102.06L259.18 102.19Q258.70 93.35 261.96 87.23L262.09 87.37L261.94 87.22Q271.49 79.84 289.44 79.84L289.56 79.96L298.97 79.99L298.85 79.87Q311.23 80.22 316.33 80.83L316.20 80.70L316.31 80.80Q339.43 82.92 340.86 95.98L340.95 96.07L340.96 96.08Q341.42 99.19 341.01 103.47L340.94 103.40L341.02 103.48Q340.79 106.92 339.97 110.59L339.95 110.56L340.00 110.61Q331.10 153.93 290.52 190.64L290.60 190.72L290.48 190.60Q298.03 189.79 305.37 189.79L305.48 189.89L305.45 189.87Q322.70 189.78 337.99 194.06ZM334.93 82.50L334.93 82.50L335.02 82.59Q326.41 79.08 317.23 78.67L317.35 78.79L298.85 77.63L298.98 77.76Q275.14 76.35 263.31 82.26L263.25 82.20L263.15 82.10Q257.51 89.51 257.51 100.52L257.50 100.51L257.51 100.52Q257.67 104.36 259.31 119.45L259.32 119.47L259.26 119.41Q262.11 120.63 268.43 122.26L268.62 122.44L268.56 127.89L268.55 127.88Q268.41 130.39 268.82 133.25L268.76 133.19L268.72 133.15Q275.55 133.86 288.81 135.09L288.64 134.92L288.71 134.99Q288.52 132.96 288.52 131.12L288.51 131.12L288.49 131.10Q288.50 121.32 295.03 114.08L294.97 114.02L295.01 114.06Q301.57 106.86 311.16 107.47L311.16 107.47L311.18 107.49Q315.26 107.70 319.34 108.52L319.36 108.54L319.26 108.43Q319.83 110.43 320.24 112.68L320.40 112.84L320.41 112.84Q320.51 114.99 320.10 116.82L320.14 116.86L320.04 116.76Q313.49 142.43 289.83 168.34L289.68 168.18L289.68 168.18Q278.40 180.35 249.23 212.78L249.07 212.62L249.20 212.75Q248.11 217.17 246.28 220.23L246.30 220.25L246.23 220.18Q254.81 215.50 262.97 212.65L263.01 212.69L263.10 212.78Q259.24 215.85 254.14 223.81L254.05 223.71L254.04 223.71Q253.51 225.62 252.89 227.45L252.80 227.36L252.89 227.45Q278.94 216.38 308.30 217.40L308.30 217.39L308.27 217.37Q338.60 218.12 363.07 230.77L363.13 230.83L357.79 219.36L357.82 219.39Q354.30 212.20 352.87 207.92L352.91 207.96L353.00 208.05Q349.16 205.84 342.63 203.60L342.54 203.50L342.48 203.44Q341.77 199.67 339.73 192.33L339.78 192.38L339.60 192.20Q327.94 189.31 315.71 188.29L315.62 188.21L315.62 188.20Q340.71 163.73 348.86 119.48L348.96 119.58L349.89 103.98L349.84 103.94Q349.57 94.49 343.05 90.82L343.01 90.78L342.71 90.68L342.66 90.64Q342.58 90.36 342.17 90.36L342.22 90.40L342.24 90.42Q340.95 85.87 335.04 82.61Z"/><path d="M5 137 C238 223,245 78,492 118" stroke="#47dada" fill="none"/><path d="M11 11 C247 195,234 175,485 128" stroke="#cf70ef" fill="none"/><path d="M8 32 C261 43,265 2,493 147" stroke="#eb60eb" fill="none"/><path fill="#d3d34a" d="M336.82 167.56L336.92 167.65L336.92 167.65Q353.42 165.59 370.55 166.20L370.59 166.24L370.49 166.15Q370.26 152.46 370.26 139.61L370.27 139.61L370.31 139.65Q370.33 126.42 371.35 112.75L371.35 112.75L371.31 112.71Q364.92 122.03 336.98 167.71ZM389.92 206.99L389.99 207.06L389.94 207.01Q380.87 205.28 371.28 204.87L371.32 204.91L371.35 204.94Q370.39 192.36 369.78 179.10L369.81 179.13L369.70 179.02Q341.26 178.11 315.97 185.66L315.84 185.52L315.83 185.52Q316.57 182.99 317.59 177.69L317.46 177.56L317.54 177.64Q327.06 160.64 346.23 126.99L346.33 127.10L346.30 127.07Q361.84 101.00 380.20 80.20L380.14 80.15L380.19 80.19Q384.83 79.12 393.80 77.69L393.83 77.72L393.77 77.66Q383.60 112.16 383.60 149.89L383.65 149.93L383.59 149.88Q383.69 157.93 384.10 165.88L383.94 165.72L390.96 166.42L390.86 166.32Q394.27 166.67 397.53 167.28L397.52 167.27L397.42 167.17Q398.13 172.58 399.56 182.98L399.54 182.95L399.58 183.00Q392.94 181.46 384.99 180.44L384.95 180.40L384.95 180.40Q386.20 191.23 389.87 206.94ZM398.83 165.11L398.98 165.26L398.84 165.12Q397.80 164.70 396.78 164.70L396.77 164.68L394.86 164.82L394.72 164.67Q394.16 156.78 394.16 149.23L394.29 149.36L394.14 149.21Q394.23 115.04 405.25 82.82L405.18 82.75L405.31 82.88Q401.21 84.29 393.46 86.33L393.45 86.31L393.44 86.31Q394.58 82.14 397.03 74.60L396.98 74.55L396.98 74.56Q390.05 76.59 379.04 77.82L379.12 77.90L379.08 77.86Q358.08 101.12 330.14 151.29L330.23 151.38L341.38 131.73L341.44 131.79Q339.20 137.30 337.77 140.36L337.80 140.39L313.87 188.65L313.88 188.66Q317.29 187.79 323.41 185.75L323.38 185.72L322.60 186.99L322.71 187.09Q322.01 190.68 320.38 197.41L320.41 197.44L320.41 197.44Q342.40 190.26 368.30 191.28L368.33 191.32L368.39 191.37Q368.56 196.44 369.58 207.04L369.43 206.89L369.56 207.03Q375.30 207.05 381.01 207.66L380.95 207.60L380.96 207.61Q381.72 211.23 383.14 218.57L383.16 218.58L383.12 218.55Q393.37 219.82 409.49 224.72L409.44 224.67L409.48 224.71Q404.20 213.31 399.30 195.77L399.36 195.83L407.10 198.26L407.07 198.23Q410.63 199.35 414.30 201.18L414.34 201.22L414.31 201.19Q410.20 187.90 409.38 178.93L409.22 178.77L409.35 178.90Q406.24 178.03 400.12 176.81L400.20 176.89L400.02 176.71Q398.80 169.77 398.80 165.08ZM356.15 164.45L356.07 164.37L356.02 164.32Q360.18 157.47 368.54 143.80L368.52 143.77L368.52 143.78Q368.58 148.94 368.37 154.04L368.38 154.04L368.28 153.94Q368.33 159.29 368.53 164.39L368.41 164.27L368.54 164.39Q365.51 164.23 362.45 164.23L362.46 164.23L362.46 164.23Q359.31 164.35 356.05 164.35Z"/></svg>