<svg xmlns="http://www.w3.org/2000/svg" width="500" height="250" viewBox="0,0,500,250"><path fill="#5ce95c" d="M326.10 188.89L326.13 188.92L326.09 188.88Q332.13 193.70 339.67 192.88L339.77 192.97L339.78 192.99Q355.48 194.01 358.95 176.06L358.88 175.99L358.96 176.07Q362.22 159.14 362.22 140.99L362.13 140.90L362.22 127.12L362.06 126.96Q362.12 120.29 360.28 113.56L360.33 113.61L360.28 113.56Q353.84 126.09 343.24 151.58L343.18 151.52L343.17 151.51Q332.51 176.94 325.98 188.77ZM352.89 100.46L352.93 100.49L352.93 100.50Q346.82 96.22 339.68 96.22L339.67 96.21L339.63 96.17Q331.77 95.44 325.85 100.34L325.79 100.27L325.93 100.42Q319.91 105.21 318.89 113.16L318.95 113.22L318.83 113.10Q317.12 120.57 316.92 128.52L316.87 128.47L316.87 128.48Q316.91 128.51 316.91 143.81L316.89 143.79L316.83 143.73Q316.77 156.31 319.22 175.69L319.25 175.72L319.28 175.75Q329.45 150.23 352.91 100.47ZM361.36 201.31L361.27 201.22L361.37 201.32Q352.02 206.24 339.57 206.24L339.51 206.18L330.73 206.16L330.68 206.11Q313.46 206.24 307.35 197.06L307.19 196.91L307.25 196.96Q303.08 185.46 302.68 169.75L302.68 169.76L302.67 169.75Q302.47 160.37 302.06 141.81L301.90 141.65L301.89 141.64Q301.82 135.25 301.01 118.94L300.89 118.82L300.88 118.81Q300.63 106.73 302.27 96.13L302.10 95.96L302.23 96.09Q304.89 80.40 328.14 79.17L328.11 79.14L328.10 79.13Q332.07 78.82 339.21 79.02L339.37 79.19L339.25 79.06Q369.76 80.01 375.47 98.57L375.48 98.58L375.38 98.47Q378.59 108.62 378.39 118.61L378.50 118.73L378.44 118.66Q377.95 145.30 377.54 151.82L377.61 151.89L377.61 151.89Q376.57 172.26 374.94 179.20L375.03 179.29L374.97 179.24Q371.59 196.04 361.39 201.35ZM387.82 200.04L387.75 199.96L387.93 200.14Q389.04 185.14 388.83 175.56L388.88 175.60L388.47 150.93L388.37 150.82Q387.96 134.71 385.10 105.14L385.12 105.16L385.09 105.12Q382.29 95.39 375.36 91.31L375.49 91.45L375.39 91.34Q367.03 77.68 339.29 76.86L339.26 76.83L339.33 76.90Q334.59 76.65 327.46 76.86L327.40 76.80L327.45 76.85Q303.27 77.35 300.62 94.07L300.49 93.95L300.51 93.96Q298.53 106.47 299.14 117.68L299.19 117.72L299.20 117.74Q300.98 141.14 300.78 159.08L300.79 159.10L300.69 158.99Q300.49 178.79 301.11 184.29L301.14 184.33L301.20 184.39Q303.20 200.87 311.36 205.15L311.34 205.13L311.41 205.21Q319.33 217.00 340.74 218.42L340.71 218.39L340.70 218.39Q359.85 219.58 363.32 219.38L363.33 219.39L363.40 219.46Q378.60 218.55 384.72 209.99L384.69 209.95L384.76 210.02Q387.48 206.43 387.89 200.11ZM341.72 190.85L341.70 190.83L341.71 190.84Q345.36 183.07 351.07 168.59L351.19 168.71L360.37 146.07L360.35 146.05Q360.00 154.68 357.96 172.63L358.09 172.76L358.11 172.78Q354.57 188.19 341.72 190.85ZM331.14 125.00L331.17 125.03L331.17 125.03Q333.56 115.39 337.23 112.33L337.18 112.28L337.31 112.41Q339.62 110.03 346.55 109.01L346.62 109.07L346.69 109.15Q337.39 128.60 327.40 153.48L327.55 153.64L327.46 153.54Q327.48 139.08 331.15 125.01Z"/><path fill="#c7e56a" d="M126.72 147.47L126.73 147.48L126.78 147.53Q116.72 147.46 110.19 154.60L110.18 154.59L110.18 154.59Q103.67 161.74 102.85 171.93L102.81 171.90L102.86 171.95Q101.79 183.32 108.32 188.72L108.24 188.65L108.30 188.70Q114.83 194.11 126.25 193.70L126.31 193.76L126.28 193.73Q138.80 193.00 143.90 187.90L143.78 187.78L143.75 187.75Q149.35 180.10 148.74 170.31L148.77 170.34L148.79 170.36Q148.09 160.27 142.27 153.85L142.24 153.82L142.36 153.93Q136.44 147.40 126.65 147.40ZM126.39 96.77L126.39 96.77L126.52 96.90Q118.95 96.26 111.81 98.91L111.77 98.87L111.83 98.93Q104.81 103.12 106.03 113.11L106.06 113.14L106.14 113.22Q108.69 133.11 126.64 133.11L126.62 133.10L126.62 133.09Q135.07 134.20 140.37 128.08L140.44 128.15L140.28 127.99Q145.58 121.87 145.78 113.51L145.89 113.61L145.92 113.64Q146.17 104.11 142.30 100.85L142.34 100.89L142.37 100.91Q133.49 96.52 126.55 96.93ZM124.99 206.92L124.96 206.90L108.68 206.93L108.72 206.97Q100.61 207.01 93.47 202.32L93.39 202.25L93.47 202.33Q86.00 196.08 86.82 180.78L86.99 180.96L86.83 180.79Q89.40 144.21 108.77 138.90L108.80 138.93L108.76 138.89Q96.53 134.00 89.39 105.24L89.39 105.25L89.43 105.29Q87.47 97.62 87.88 93.33L88.02 93.47L87.90 93.36Q89.51 81.92 109.30 81.71L109.32 81.74L109.37 81.79Q132.00 81.37 139.75 82.39L139.81 82.45L139.82 82.46Q160.26 85.16 162.71 95.97L162.86 96.12L162.75 96.01Q163.40 99.31 163.40 101.35L163.38 101.33L163.38 101.33Q163.33 104.95 162.31 108.21L162.35 108.25L162.38 108.29Q159.21 131.01 143.51 139.17L143.45 139.12L143.44 139.11Q162.16 143.34 164.81 171.69L164.86 171.74L164.82 171.70Q164.90 172.60 165.10 179.53L165.07 179.50L164.99 179.42Q165.44 194.14 156.87 199.85L156.95 199.93L156.93 199.91Q149.57 204.59 125.10 207.03ZM137.38 219.52L137.20 219.34L155.16 219.76L155.33 219.93Q164.51 220.34 172.67 216.47L172.50 216.30L172.49 216.28Q178.77 212.58 179.18 202.58L179.04 202.44L179.05 202.45Q179.28 196.56 177.24 186.16L177.30 186.22L177.25 186.17Q172.33 161.27 161.12 151.28L161.12 151.28L160.10 149.24L159.06 147.79L158.24 146.36L158.29 146.40Q167.10 139.11 172.00 116.88L171.92 116.80L171.91 116.80Q171.98 114.83 172.39 110.34L172.32 110.27L172.44 110.39Q172.79 106.66 172.38 103.39L172.40 103.41L172.41 103.43Q171.55 95.63 165.23 92.98L165.15 92.90L165.47 93.02L164.42 92.38L164.45 92.40Q163.01 88.52 156.69 84.23L156.64 84.19L156.88 84.22L156.95 84.29Q146.25 80.53 124.43 79.51L124.43 79.51L124.42 79.51Q116.04 78.87 108.69 79.48L108.68 79.46L108.71 79.49Q104.37 79.64 97.43 80.45L97.43 80.45L97.62 80.64Q87.12 82.58 85.90 91.35L85.87 91.32L85.96 91.42Q85.66 93.97 85.86 98.25L85.95 98.34L85.98 98.37Q86.46 101.09 89.52 113.74L89.48 113.69L89.55 113.76Q93.83 131.09 103.21 138.23L103.27 138.30L103.74 138.76L103.58 138.60Q88.79 145.63 85.93 173.37L85.95 173.39L85.94 173.38Q84.90 185.19 84.90 190.08L84.90 190.09L84.79 189.97Q85.24 199.60 91.57 204.50L91.53 204.46L91.58 204.51Q92.19 204.91 93.61 205.93L93.65 205.97L93.68 206.00Q99.18 218.23 137.32 219.45ZM135.39 160.02L135.44 160.06L135.41 160.03Q140.36 159.68 145.05 162.13L144.96 162.04L144.97 162.05Q147.01 167.35 146.81 170.21L146.88 170.28L146.93 170.33Q147.08 171.91 147.08 173.54L147.13 173.59L147.14 173.60Q147.08 186.18 134.84 190.67L134.85 190.68L134.89 190.72Q130.61 192.36 126.33 191.74L126.32 191.73L126.30 191.72Q120.30 192.24 114.18 189.79L114.21 189.82L114.17 189.78Q112.91 186.48 113.32 181.18L113.14 181.01L113.31 181.17Q114.00 172.48 120.42 165.95L120.49 166.02L120.40 165.93Q126.80 159.38 135.36 159.99ZM136.64 109.26L136.68 109.30L136.70 109.32Q140.89 108.61 143.75 109.43L143.74 109.43L143.76 113.73L143.79 113.75Q143.82 121.34 138.93 126.74L138.91 126.73L139.00 126.81Q134.01 132.13 126.67 131.11L126.64 131.08L126.68 131.11Q121.41 131.15 119.17 129.93L119.19 129.95L119.18 129.93Q118.97 128.50 118.36 124.83L118.35 124.82L118.41 124.89Q116.95 117.31 123.48 112.82L123.45 112.79L123.46 112.80Q129.04 109.00 136.58 109.20Z"/><path d="M10 158 C255 221,242 66,488 158" stroke="#9b7ef0" fill="none"/><path fill="#70da4d" d="M272.27 116.47L272.28 116.48L272.28 116.48Q255.06 116.40 245.27 110.69L245.33 110.74L245.35 110.76Q258.78 103.39 284.88 80.75L284.89 80.76L284.92 80.79Q288.66 79.64 295.60 76.37L295.79 76.56L295.61 76.38Q288.48 108.21 287.87 142.27L287.91 142.31L287.92 142.32Q287.27 176.34 292.98 208.97L293.09 209.08L293.13 209.12Q284.11 205.19 272.68 204.58L272.73 204.62L272.70 204.59Q272.12 182.40 272.12 160.58L272.02 160.48L272.01 160.46Q272.11 138.54 272.32 116.52ZM270.23 128.51L270.25 206.63L270.15 206.53Q276.76 206.62 281.86 207.64L281.84 207.62L281.85 207.62Q282.24 211.29 283.26 218.63L283.22 218.58L283.35 218.71Q298.55 221.47 311.60 233.50L311.68 233.58L311.54 233.44Q298.31 195.33 298.11 155.36L298.14 155.39L298.17 155.42Q297.64 115.33 307.43 76.58L307.43 76.58L307.51 76.66Q304.75 78.99 296.18 84.91L296.06 84.79L296.18 84.91Q297.05 80.68 298.68 72.52L298.79 72.63L298.70 72.55Q291.55 76.61 283.81 78.65L283.83 78.68L283.76 78.61Q263.73 97.94 240.69 110.18L240.59 110.08L240.59 110.08Q248.23 116.09 260.88 117.93L260.73 117.78L260.84 117.89Q257.30 120.67 250.36 126.38L250.48 126.50L250.46 126.47Q258.36 128.46 270.19 128.46L270.28 128.55Z"/><path d="M8 45 C258 151,261 59,481 197" stroke="#67a8e9" fill="none"/><path fill="#e287cb" d="M167.40 160.55L167.25 160.39L167.25 160.40Q184.86 167.41 205.05 167.41L205.06 167.41L204.98 167.33Q213.70 167.49 222.06 166.27L222.09 166.29L221.96 166.16Q219.50 168.60 216.03 174.92L215.99 174.88L216.02 174.91Q219.27 175.51 222.95 174.29L223.06 174.40L222.97 174.31Q221.07 178.73 221.07 183.01L220.96 182.91L220.91 182.86Q220.88 186.70 222.30 190.57L222.44 190.71L222.32 190.59Q214.79 189.38 205.21 189.58L205.33 189.71L205.31 189.69Q195.94 189.70 188.40 191.13L188.32 191.06L188.28 191.01Q190.58 186.78 189.97 181.48L190.05 181.56L190.03 181.55Q188.55 181.70 187.33 181.50L187.39 181.56L187.32 181.49Q186.16 181.15 184.53 181.15L184.55 181.17L184.39 181.01Q183.71 171.96 167.39 160.54ZM185.24 179.00L185.19 178.95L185.24 179.00Q193.48 180.11 199.60 179.90L199.61 179.91L199.51 179.81Q213.75 179.57 213.75 179.57L213.88 179.70L213.78 179.60Q214.20 173.90 218.07 168.39L218.02 168.34L218.17 168.49Q211.98 169.23 205.66 169.23L205.75 169.32L205.63 169.21Q189.08 169.18 173.58 164.08L173.70 164.20L173.58 164.07Q183.28 170.92 185.32 179.08ZM183.45 183.13L183.47 183.14L183.42 183.09Q185.34 182.98 189.01 183.18L188.92 183.09L188.98 183.14Q188.52 189.01 185.67 193.09L185.78 193.20L185.74 193.16Q193.84 192.09 193.03 192.09L193.02 192.09L193.08 192.14Q190.00 197.22 185.92 201.30L185.85 201.23L185.96 201.34Q196.72 199.45 207.12 199.45L207.16 199.49L207.17 199.51Q231.83 199.49 253.86 208.67L253.84 208.65L240.66 201.18L240.74 201.26Q227.72 192.93 227.72 181.10L227.74 181.12L227.65 181.03Q226.39 181.41 224.97 181.41L225.09 181.52L222.14 181.44L222.25 181.55Q222.52 176.92 225.58 171.82L225.58 171.82L225.69 171.93Q223.43 172.32 218.33 173.34L218.26 173.27L218.22 173.24Q220.97 167.82 226.27 163.74L226.23 163.70L226.27 163.74Q215.93 165.64 205.12 165.64L205.04 165.55L205.16 165.68Q179.60 165.61 159.40 155.61L159.45 155.66L159.39 155.60Q182.76 169.58 183.37 183.04ZM188.40 177.47L188.43 177.50L186.88 177.37L186.87 177.37Q186.27 176.98 185.66 176.98L185.75 177.06L185.67 176.98Q184.70 173.98 182.66 171.73L182.71 171.78L178.28 166.74L178.27 166.72Q191.11 170.80 205.79 170.80L205.95 170.95L205.90 170.91Q210.47 170.99 215.16 170.58L215.12 170.54L214.14 172.21L213.41 173.73L213.53 173.84Q206.77 174.22 199.83 174.01L199.83 174.01L199.69 173.87Q192.55 173.66 185.61 172.23L185.68 172.30L185.70 172.32Q187.48 174.10 188.30 177.37Z"/><path d="M7 49 C238 10,229 231,490 150" stroke="#e4bb3e" fill="none"/><path fill="#61a5e9" d="M55.14 147.03L55.05 146.95L55.09 146.98Q45.27 146.34 38.64 153.99L38.67 154.01L38.80 154.14Q32.12 161.74 31.10 171.94L30.99 171.83L31.10 171.94Q29.84 182.92 35.65 188.12L35.56 188.02L35.68 188.14Q41.42 193.28 52.64 192.66L52.61 192.63L52.78 192.80Q63.96 191.95 69.87 188.28L69.91 188.31L69.75 188.16Q75.86 182.24 75.86 173.87L75.98 173.99L75.88 173.89Q75.95 171.92 75.55 169.88L75.55 169.89L75.60 169.94Q75.94 160.90 70.03 153.66L70.06 153.69L70.01 153.64Q64.08 146.38 55.10 146.99ZM52.97 206.66L52.84 206.52L52.87 206.55Q29.46 206.60 21.92 202.52L21.91 202.52L21.86 202.47Q16.38 198.42 15.36 189.24L15.30 189.18L15.43 189.30Q15.23 185.64 15.43 181.76L15.40 181.73L15.27 181.60Q15.89 176.31 15.89 173.86L16.06 174.03L16.06 174.03Q18.36 158.59 19.18 154.92L19.20 154.95L19.26 155.00Q21.78 144.67 26.26 137.12L26.16 137.02L26.20 137.06Q40.35 113.48 72.17 79.43L72.30 79.55L72.20 79.46Q86.49 77.83 98.31 73.55L98.37 73.60L98.38 73.62Q61.75 113.67 44.62 136.31L44.47 136.16L44.45 136.14Q49.79 133.53 56.73 133.53L56.81 133.61L56.69 133.49Q74.50 133.56 82.66 143.96L82.58 143.88L82.72 144.02Q89.76 152.69 91.60 171.66L91.68 171.75L91.66 171.72Q92.01 175.54 92.01 178.80L91.98 178.77L92.03 178.83Q92.02 195.54 80.20 201.25L80.15 201.21L80.30 201.36Q73.75 204.59 52.94 206.63ZM65.20 219.50L65.09 219.39L65.10 219.39Q72.07 219.23 82.67 219.63L82.73 219.70L82.68 219.64Q91.34 219.94 99.70 216.07L99.80 216.16L99.83 216.20Q105.67 211.84 105.67 202.25L105.76 202.34L105.80 202.38Q105.68 199.62 104.77 194.31L104.77 194.32L104.72 194.27Q103.89 189.06 103.89 186.61L103.88 186.59L103.89 186.61Q99.24 161.35 90.67 151.16L90.62 151.11L90.56 151.04Q90.22 150.50 89.41 149.28L89.34 149.22L87.77 148.05L87.37 147.86L87.45 147.93Q85.49 145.16 82.23 140.06L82.29 140.12L82.35 140.18Q77.44 135.07 66.83 132.62L66.72 132.50L66.67 132.46Q73.34 124.04 89.25 104.25L89.15 104.15L111.89 75.91L111.84 75.86Q103.56 80.63 90.71 84.71L90.58 84.58L90.55 84.55Q95.50 79.31 105.09 68.70L105.15 68.76L105.03 68.64Q92.33 74.50 71.52 77.56L71.51 77.55L71.53 77.56Q40.87 109.10 24.96 135.61L24.91 135.57L24.94 135.59Q16.81 149.08 13.75 182.53L13.73 182.51L13.81 182.59Q13.29 185.54 13.70 190.64L13.73 190.67L13.75 190.68Q14.22 200.13 20.13 205.02L20.10 204.99L19.98 204.87Q22.17 205.84 21.97 206.04L21.98 206.05L21.99 206.06Q24.02 210.95 28.30 213.19L28.30 213.19L28.17 213.06Q35.95 216.76 46.35 217.78L46.37 217.80L46.29 217.72Q46.44 217.87 65.20 219.50ZM63.89 159.25L64.00 159.36L63.89 159.25Q66.97 158.66 72.07 161.31L72.02 161.26L72.06 161.31Q73.94 166.44 73.94 169.91L73.83 169.81L73.82 169.80Q74.92 179.86 69.82 185.17L69.84 185.19L69.74 185.09Q64.01 188.94 52.80 190.58L52.98 190.76L52.84 190.62Q45.14 190.67 42.29 189.24L42.36 189.32L42.32 189.28Q41.19 186.72 41.19 185.09L41.25 185.15L41.23 185.12Q40.05 167.64 55.76 160.70L55.68 160.62L55.82 160.76Q59.73 158.76 63.81 159.16Z"/><path d="M5 49 C254 4,230 231,487 159" stroke="#5454d8" fill="none"/><path fill="#e0c779" d="M393.53 207.10L393.63 207.21L393.61 207.18Q386.00 207.52 377.63 205.28L377.74 205.39L377.66 205.31Q371.18 200.46 370.36 191.69L370.38 191.70L370.27 191.59Q370.23 190.74 371.25 176.67L371.10 176.51L371.17 176.59Q376.59 175.49 387.40 173.45L387.52 173.56L386.55 177.69L386.42 177.56Q384.98 186.93 392.52 189.99L392.59 190.05L392.55 190.01Q396.84 191.86 408.06 191.86L408.19 191.99L408.06 191.86Q416.75 191.16 417.77 190.76L417.72 190.71L417.62 190.61Q422.56 189.84 426.44 187.19L426.37 187.12L426.47 187.22Q433.92 182.03 432.90 170.81L432.90 170.82L433.05 170.96Q431.92 157.80 422.65 149.44L422.76 149.55L422.63 149.43Q413.41 141.13 400.16 141.13L400.24 141.21L400.04 139.79L400.08 139.83Q402.26 139.77 406.95 139.36L406.94 139.35L406.86 139.26Q416.99 138.59 424.33 131.96L424.41 132.03L424.49 132.11Q431.82 125.48 432.64 115.48L432.51 115.36L432.55 115.39Q433.03 113.63 433.03 111.80L432.96 111.73L432.99 111.76Q433.06 103.67 425.72 98.78L425.62 98.68L425.58 98.64Q419.04 94.34 410.48 94.95L410.59 95.07L410.56 95.03Q403.66 94.25 397.13 96.50L397.17 96.53L397.13 96.50Q389.27 99.24 387.64 105.36L387.75 105.47L387.75 105.47Q386.76 109.58 387.17 113.66L386.99 113.48L387.11 113.60Q381.56 112.33 370.54 108.46L370.50 108.41L370.67 108.58Q369.26 99.43 369.47 94.94L369.48 94.95L369.51 94.98Q370.14 86.84 375.85 83.17L375.95 83.27L375.84 83.16Q383.48 79.99 392.05 79.99L392.03 79.98L391.92 79.86Q409.00 79.82 425.93 81.25L425.82 81.14L425.89 81.21Q453.06 83.49 451.43 103.68L451.36 103.61L451.34 103.59Q450.87 111.49 448.22 119.85L448.26 119.89L448.26 119.89Q443.32 136.36 430.67 141.26L430.70 141.28L430.70 141.29Q444.90 144.27 448.16 162.21L448.13 162.18L448.01 162.06Q449.29 168.23 449.70 179.04L449.70 179.05L449.63 178.97Q450.47 202.87 425.80 205.31L425.91 205.43L425.77 205.29Q421.87 205.67 393.53 207.10ZM421.60 219.26L421.60 219.26L421.49 219.16Q424.76 219.36 440.05 219.77L440.05 219.77L440.07 219.79Q449.41 220.15 458.18 216.69L458.23 216.74L458.27 216.78Q464.61 211.70 463.59 202.31L463.55 202.27L463.52 202.25Q462.96 195.16 461.33 185.78L461.24 185.69L461.24 185.69Q457.38 161.64 446.98 152.87L447.00 152.89L446.08 150.95L445.76 150.43L445.81 150.48Q455.21 142.74 459.29 119.29L459.24 119.24L459.37 119.37Q459.55 116.91 460.16 111.81L460.13 111.77L460.17 111.81Q460.43 107.58 460.02 103.91L460.05 103.95L460.15 104.04Q459.31 95.04 452.37 91.37L452.34 91.34L451.86 91.27L451.85 91.26Q450.39 86.12 444.27 83.27L444.27 83.27L444.29 83.29Q436.01 79.49 408.47 77.86L408.48 77.87L408.51 77.90Q399.51 77.46 390.95 77.46L390.97 77.49L390.88 77.39Q382.45 77.53 374.29 81.00L374.28 80.99L374.23 80.94Q367.75 85.06 367.75 94.44L367.77 94.46L367.71 94.41Q367.70 92.15 369.13 110.10L369.18 110.15L369.10 110.07Q370.72 110.47 379.49 113.74L379.60 113.84L379.53 113.77Q379.61 116.71 379.41 119.36L379.38 119.33L379.33 119.28Q379.41 122.02 379.62 124.87L379.57 124.82L379.61 124.86Q389.09 126.79 399.89 127.41L399.94 127.45L399.86 127.37Q399.61 116.72 405.52 112.23L405.45 112.16L405.39 112.10Q410.02 108.77 420.83 107.55L420.83 107.55L420.74 107.46Q426.92 107.52 429.98 108.54L429.88 108.44L429.98 108.55Q430.05 109.02 430.25 109.63L430.25 109.63L430.30 110.70L430.92 113.77L430.88 113.73Q430.99 114.86 430.79 115.68L430.69 115.58L430.69 115.57Q430.39 124.86 422.23 131.18L422.16 131.12L422.12 131.07Q417.22 135.96 406.41 136.98L406.51 137.08L406.55 137.12Q402.51 137.77 397.82 137.77L397.81 137.76L397.91 137.86Q398.11 139.69 398.93 143.37L398.98 143.42L398.96 143.40Q408.21 143.27 415.96 147.14L416.07 147.25L415.34 147.14L407.01 148.19L407.09 148.27Q407.19 150.00 407.81 153.26L407.97 153.43L407.88 153.34Q419.29 152.92 428.47 160.06L428.51 160.10L428.57 160.16Q429.74 162.14 431.37 170.91L431.25 170.79L431.26 170.81Q432.38 186.61 416.68 188.85L416.66 188.83L416.57 188.75Q405.40 190.22 402.34 190.01L402.29 189.96L402.34 190.01Q399.92 189.43 397.07 189.03L397.03 188.99L397.07 186.58L397.76 184.21L397.84 182.04L398.05 180.42L398.16 180.53Q393.06 180.93 388.77 181.95L388.75 181.93L388.70 181.88Q388.47 180.63 388.47 179.61L388.59 179.73L388.46 179.60Q388.76 178.68 388.76 177.46L388.81 177.50L388.77 177.46Q388.88 175.13 389.69 171.25L389.78 171.33L389.74 171.30Q379.77 172.54 369.78 174.38L369.67 174.27L369.82 174.42Q369.66 176.91 369.05 182.93L369.11 182.99L369.18 183.06Q368.45 188.96 368.45 192.23L368.55 192.32L368.60 192.38Q368.96 203.33 376.30 207.41L376.20 207.31L376.37 207.49Q384.19 219.59 409.48 218.57L409.46 218.55L409.55 218.64Q413.47 218.48 421.63 219.30Z"/></svg>