<svg xmlns="http://www.w3.org/2000/svg" width="500" height="250" viewBox="0,0,500,250"><path fill="#da5cda" d="M420.44 96.23L420.40 96.19L412.04 96.81L412.05 96.81Q400.13 97.53 398.90 108.34L398.74 108.18L398.82 108.26Q398.46 112.18 398.66 117.49L398.65 117.47L398.55 117.37Q398.90 127.92 405.63 135.06L405.56 134.99L405.62 135.05Q412.36 142.19 422.55 141.38L422.57 141.39L422.44 141.26Q433.50 140.49 437.58 135.60L437.49 135.51L437.59 135.61Q443.21 130.62 444.63 118.59L444.69 118.65L444.71 118.67Q446.12 106.62 439.39 102.13L439.46 102.20L439.42 102.16Q434.66 97.81 420.39 96.18ZM452.81 145.73L452.89 145.81L445.91 158.00L445.93 158.02Q431.37 183.64 411.18 205.46L411.37 205.65L411.33 205.61Q402.48 206.34 388.00 210.62L387.95 210.58L388.04 210.67Q416.56 176.99 433.49 151.29L433.59 151.39L433.49 151.29Q428.08 154.86 419.31 155.26L419.30 155.26L419.26 155.21Q403.17 156.05 395.01 145.44L395.05 145.48L394.99 145.42Q388.45 136.84 382.54 112.37L382.51 112.35L382.56 112.40Q382.44 109.83 381.62 104.83L381.74 104.95L381.75 104.95Q380.83 99.86 380.83 97.41L380.95 97.53L380.79 97.37Q380.87 87.87 386.58 84.60L386.62 84.64L386.68 84.70Q393.12 80.54 403.11 80.54L403.18 80.60L403.07 80.49Q420.30 80.59 420.30 80.59L420.34 80.63L420.29 80.58Q431.85 80.72 438.58 81.74L438.68 81.84L438.66 81.82Q450.05 83.22 454.95 85.87L454.84 85.76L454.83 85.76Q462.33 89.99 463.35 99.37L463.32 99.34L463.31 99.33Q463.34 100.59 462.32 114.86L462.23 114.77L462.27 114.81Q460.24 126.24 459.02 130.73L458.92 130.63L459.00 130.72Q457.03 138.33 452.95 145.87ZM463.01 158.59L463.15 158.72L463.12 158.70Q468.33 146.77 471.19 123.73L471.19 123.73L471.15 123.69Q472.69 111.98 472.49 107.28L472.40 107.19L472.42 107.22Q472.23 97.23 465.90 92.34L465.84 92.27L464.35 91.81L464.24 91.69Q462.94 87.74 458.05 84.28L457.99 84.22L457.91 84.14Q445.66 78.82 419.96 78.01L420.11 78.15L420.01 78.05Q414.92 78.07 401.87 78.07L401.94 78.14L401.85 78.05Q392.56 78.14 384.61 81.81L384.59 81.79L384.52 81.73Q378.40 86.01 378.81 95.80L378.85 95.83L378.86 95.85Q379.83 100.69 380.85 111.50L380.93 111.58L380.82 111.47Q384.19 125.65 385.62 130.14L385.49 130.01L385.48 130.00Q388.60 140.05 393.70 146.99L393.72 147.01L393.83 147.12Q395.24 148.94 397.28 150.98L397.26 150.95L397.23 150.93Q398.56 153.28 402.03 158.18L402.00 158.15L402.00 158.14Q410.07 165.60 420.47 166.62L420.45 166.60L420.44 166.59Q410.21 180.83 401.84 191.03L401.81 190.99L382.60 214.61L382.59 214.60Q394.52 210.41 403.29 208.58L403.34 208.63L403.29 208.58Q399.21 213.27 390.85 222.45L390.92 222.52L390.87 222.47Q407.33 217.52 424.06 217.32L424.23 217.49L424.09 217.35Q436.48 203.44 459.73 164.69L459.76 164.71L459.76 165.12L459.72 165.08Q461.18 161.24 463.02 158.59ZM430.76 109.00L430.81 109.05L430.95 109.18Q434.02 108.38 436.47 108.99L436.50 109.03L436.62 109.15Q440.11 109.78 442.15 110.39L442.09 110.34L442.03 110.27Q442.64 112.31 443.05 114.55L443.06 114.57L443.04 114.55Q443.58 116.92 442.97 118.96L442.80 118.79L442.85 118.84Q442.75 128.13 436.43 134.04L436.45 134.06L436.34 133.95Q431.21 139.42 422.44 139.22L422.48 139.26L422.42 139.20Q420.29 139.31 412.13 137.68L412.06 137.61L412.06 137.61Q410.94 133.02 410.94 129.15L410.93 129.14L410.91 129.12Q410.39 127.58 410.39 126.36L410.43 126.40L410.46 126.43Q410.52 114.66 422.76 110.38L422.76 110.38L422.72 110.33Q426.44 109.16 430.93 109.16Z"/><path fill="#b6d84f" d="M357.89 147.42L357.81 147.34L357.85 147.39Q347.84 147.36 341.31 154.50L341.45 154.65L341.43 154.62Q334.88 161.74 334.07 171.94L333.96 171.83L334.01 171.88Q332.92 183.23 339.45 188.64L339.53 188.72L339.63 188.82Q346.05 194.12 357.47 193.71L357.52 193.76L357.42 193.66Q369.93 192.91 375.03 187.82L375.01 187.79L375.12 187.91Q380.47 180.00 379.86 170.21L379.91 170.26L379.83 170.18Q379.38 160.35 373.56 153.92L373.44 153.79L373.52 153.88Q367.64 147.38 357.85 147.38ZM357.76 96.92L357.60 96.76L357.79 96.95Q350.18 96.27 343.04 98.92L343.10 98.99L342.92 98.80Q336.01 103.11 337.24 113.11L337.36 113.23L337.33 113.20Q340.00 133.21 357.95 133.21L357.98 133.24L357.91 133.17Q366.30 134.22 371.60 128.10L371.60 128.09L371.55 128.05Q376.86 121.93 377.06 113.57L377.07 113.58L377.09 113.60Q377.41 104.13 373.53 100.87L373.63 100.96L373.68 101.01Q364.64 96.46 357.71 96.87ZM356.33 207.05L356.19 206.91L340.01 207.04L339.91 206.94Q331.84 207.03 324.70 202.34L324.72 202.36L324.67 202.31Q317.30 196.17 318.12 180.87L318.07 180.82L318.20 180.95Q320.62 144.21 339.99 138.91L339.96 138.87L339.94 138.85Q327.78 134.04 320.64 105.28L320.55 105.19L320.66 105.30Q318.78 97.71 319.19 93.43L319.08 93.32L319.06 93.30Q320.87 82.06 340.65 81.85L340.59 81.79L340.54 81.74Q363.23 81.38 370.98 82.40L370.88 82.30L370.91 82.34Q391.53 85.21 393.98 96.02L393.96 96.01L394.05 96.09Q394.55 99.25 394.55 101.29L394.63 101.36L394.55 101.29Q394.54 104.94 393.52 108.21L393.57 108.26L393.64 108.33Q390.34 130.93 374.63 139.08L374.65 139.10L374.65 139.10Q393.36 143.33 396.01 171.68L396.03 171.70L395.95 171.62Q396.09 172.57 396.29 179.50L396.15 179.36L396.25 179.46Q396.63 194.12 388.06 199.83L388.14 199.91L388.08 199.84Q380.70 204.50 356.23 206.95ZM368.44 219.36L368.41 219.34L386.46 219.84L386.54 219.93Q395.69 220.30 403.85 216.43L403.86 216.44L403.82 216.40Q409.98 212.57 410.39 202.58L410.29 202.47L410.22 202.40Q410.51 196.58 408.47 186.17L408.43 186.14L408.39 186.10Q403.65 161.37 392.43 151.37L392.39 151.33L391.39 149.32L390.42 147.93L389.59 146.49L389.58 146.49Q398.37 139.17 403.27 116.94L403.08 116.75L403.24 116.91Q403.23 114.86 403.63 110.37L403.55 110.28L403.63 110.36Q403.91 106.57 403.51 103.31L403.53 103.33L403.64 103.44Q402.69 95.55 396.36 92.90L396.52 93.06L396.72 93.05L395.65 92.39L395.66 92.40Q394.18 88.47 387.86 84.19L387.83 84.16L388.16 84.29L388.07 84.20Q377.55 80.61 355.73 79.59L355.74 79.61L355.69 79.55Q347.38 78.99 340.04 79.61L340.04 79.61L340.04 79.61Q335.70 79.76 328.77 80.57L328.65 80.46L328.74 80.54Q318.41 82.65 317.18 91.42L317.17 91.41L317.11 91.35Q316.82 93.92 317.03 98.20L317.02 98.20L317.05 98.22Q317.79 101.21 320.85 113.85L320.78 113.78L320.86 113.86Q324.98 131.04 334.36 138.18L334.52 138.33L334.93 138.75L334.87 138.68Q319.97 145.61 317.12 173.34L317.08 173.30L317.11 173.34Q316.18 185.26 316.18 190.15L316.08 190.05L316.09 190.05Q316.51 199.65 322.83 204.55L322.76 204.48L322.80 204.52Q323.40 204.91 324.83 205.93L324.85 205.96L324.83 205.94Q330.42 218.26 368.56 219.48ZM366.68 160.09L366.66 160.07L366.77 160.18Q371.48 159.59 376.17 162.03L376.24 162.11L376.33 162.19Q378.39 167.52 378.18 170.37L378.00 170.19L378.14 170.33Q378.30 171.91 378.30 173.54L378.22 173.46L378.29 173.53Q378.34 186.23 366.11 190.72L366.04 190.65L366.05 190.67Q361.82 192.35 357.54 191.74L357.56 191.76L357.48 191.68Q351.61 192.33 345.49 189.89L345.42 189.82L345.43 189.83Q344.10 186.46 344.51 181.16L344.38 181.03L344.35 180.99Q345.27 172.54 351.70 166.01L351.60 165.91L351.68 165.99Q358.18 159.54 366.74 160.15ZM367.86 109.27L367.96 109.37L367.90 109.31Q372.26 108.77 375.11 109.58L374.97 109.44L374.99 113.74L375.08 113.84Q375.00 121.30 370.11 126.70L370.09 126.69L370.06 126.66Q365.24 132.14 357.90 131.12L357.81 131.03L357.90 131.12Q352.51 131.03 350.27 129.81L350.27 129.81L350.41 129.95Q350.25 128.57 349.64 124.89L349.56 124.82L349.60 124.86Q348.12 117.26 354.65 112.77L354.61 112.74L354.71 112.84Q360.34 109.08 367.88 109.29Z"/><path d="M8 180 C254 94,271 195,488 102" stroke="#e08465" fill="none"/><path d="M2 146 C264 162,238 208,484 18" stroke="#41dc41" fill="none"/><path fill="#486dd9" d="M49.88 116.40L49.84 116.36L49.86 116.39Q32.73 116.38 22.94 110.67L23.03 110.76L22.92 110.65Q36.54 103.47 62.65 80.84L62.61 80.80L62.65 80.84Q66.38 79.68 73.32 76.42L73.41 76.50L73.35 76.45Q66.18 108.23 65.56 142.28L65.59 142.31L65.67 142.39Q65.00 176.39 70.71 209.02L70.75 209.06L70.70 209.02Q61.74 205.15 50.32 204.54L50.32 204.54L50.22 204.44Q49.81 182.41 49.81 160.58L49.74 160.51L49.72 160.50Q49.74 138.49 49.94 116.47ZM47.80 128.39L47.81 206.51L47.78 206.49Q54.39 206.57 59.49 207.59L59.50 207.60L59.44 207.54Q59.83 211.19 60.85 218.53L60.84 218.53L60.93 218.62Q76.13 221.37 89.18 233.41L89.35 233.58L89.27 233.49Q75.97 195.31 75.76 155.34L75.73 155.30L75.86 155.43Q75.31 115.32 85.10 76.57L85.12 76.59L85.18 76.66Q82.37 78.94 73.80 84.85L73.86 84.91L73.69 84.74Q74.71 80.66 76.34 72.50L76.42 72.58L76.44 72.60Q69.32 76.70 61.57 78.74L61.59 78.75L61.44 78.61Q41.38 97.91 18.34 110.15L18.40 110.21L18.28 110.09Q25.77 115.95 38.41 117.78L38.40 117.77L38.50 117.87Q34.94 120.64 28.01 126.35L28.01 126.35L28.11 126.45Q35.98 128.40 47.81 128.40L47.78 128.38Z"/><path d="M4 159 C260 183,255 126,496 8" stroke="#d38e4a" fill="none"/><path fill="#8ce038" d="M202.98 160.56L202.90 160.48L202.84 160.42Q220.47 167.44 240.66 167.44L240.56 167.34L240.68 167.46Q249.23 167.45 257.59 166.22L257.52 166.15L257.57 166.21Q255.08 168.60 251.61 174.93L251.69 175.01L251.63 174.95Q254.96 175.62 258.63 174.40L258.68 174.45L258.52 174.29Q256.58 178.68 256.58 182.96L256.50 182.88L256.45 182.82Q256.47 186.72 257.90 190.59L257.91 190.61L257.98 190.67Q250.41 189.43 240.82 189.63L240.90 189.71L240.92 189.73Q231.51 189.70 223.96 191.13L223.94 191.11L223.98 191.15Q226.16 186.80 225.55 181.49L225.60 181.54L225.62 181.56Q224.20 181.78 222.98 181.57L222.82 181.42L222.98 181.57Q221.77 181.18 220.14 181.18L220.11 181.15L220.11 181.16Q219.19 171.87 202.88 160.45ZM220.90 179.09L220.79 178.98L220.83 179.02Q229.08 180.13 235.20 179.93L235.11 179.83L235.20 179.93Q249.41 179.66 249.41 179.66L249.36 179.61L249.49 179.74Q249.73 173.86 253.60 168.35L253.66 168.41L253.79 168.54Q247.63 169.31 241.31 169.31L241.30 169.31L241.18 169.18Q224.72 169.25 209.22 164.15L209.19 164.12L209.30 164.23Q218.76 170.83 220.79 178.98ZM219.11 183.21L218.95 183.06L219.11 183.21Q220.90 182.96 224.57 183.17L224.55 183.14L224.60 183.20Q224.03 188.95 221.17 193.03L221.32 193.18L221.31 193.16Q229.41 192.08 228.59 192.08L228.64 192.13L228.55 192.04Q225.47 197.12 221.39 201.20L221.46 201.26L221.55 201.36Q232.23 199.39 242.63 199.39L242.59 199.35L242.70 199.46Q267.28 199.36 289.30 208.54L289.40 208.63L276.25 201.20L276.35 201.29Q263.27 192.90 263.27 181.07L263.18 180.99L263.27 181.07Q262.04 181.48 260.61 181.48L260.68 181.54L257.76 181.48L257.81 181.54Q258.09 176.92 261.15 171.82L261.23 171.90L261.22 171.89Q258.99 172.31 253.89 173.33L253.89 173.33L253.82 173.26Q256.46 167.75 261.77 163.67L261.91 163.81L261.80 163.70Q251.37 165.50 240.56 165.50L240.56 165.50L240.72 165.67Q215.23 165.67 195.04 155.68L195.01 155.64L194.91 155.54Q218.46 169.71 219.07 183.17ZM223.85 177.34L223.83 177.33L222.50 177.42L222.53 177.46Q221.82 176.95 221.21 176.95L221.17 176.91L221.28 177.02Q220.16 173.86 218.12 171.62L218.26 171.76L213.83 166.72L213.98 166.87Q226.73 170.85 241.42 170.85L241.45 170.89L241.40 170.83Q246.00 170.95 250.70 170.54L250.63 170.48L249.89 172.39L249.01 173.75L249.08 173.82Q242.18 174.06 235.25 173.86L235.38 173.99L235.35 173.96Q228.17 173.72 221.24 172.29L221.33 172.38L221.20 172.26Q223.19 174.25 224.01 177.51Z"/><path fill="#e4e480" d="M299.01 116.53L298.97 116.49L298.85 116.38Q281.72 116.37 271.93 110.66L271.95 110.68L272.00 110.73Q285.43 103.36 311.54 80.72L311.49 80.68L311.48 80.67Q315.52 79.81 322.45 76.55L322.36 76.46L322.27 76.37Q315.19 108.24 314.58 142.30L314.69 142.41L314.65 142.37Q313.96 176.35 319.67 208.98L319.78 209.09L319.80 209.11Q310.80 205.21 299.38 204.59L299.26 204.48L299.38 204.60Q298.73 182.33 298.73 160.51L298.73 160.51L298.67 160.44Q298.75 138.50 298.95 116.47ZM296.79 128.39L296.97 206.67L296.90 206.60Q303.39 206.57 308.49 207.59L308.45 207.55L308.59 207.69Q308.82 211.18 309.84 218.52L309.99 218.67L309.89 218.58Q325.22 221.46 338.27 233.49L338.30 233.52L338.23 233.45Q325.09 195.44 324.89 155.46L324.82 155.40L324.73 155.31Q324.31 115.32 334.10 76.57L334.20 76.68L334.20 76.67Q331.40 78.97 322.83 84.89L322.82 84.87L322.78 84.83Q323.87 80.82 325.50 72.67L325.51 72.67L325.51 72.67Q318.26 76.64 310.51 78.68L310.48 78.64L310.56 78.73Q290.30 97.83 267.25 110.06L267.31 110.12L267.22 110.03Q274.83 116.01 287.48 117.85L287.41 117.78L287.55 117.93Q284.04 120.73 277.10 126.44L277.14 126.48L277.12 126.46Q285.00 128.43 296.83 128.43L296.94 128.53Z"/><path fill="#7995eb" d="M94.63 207.30L94.65 207.32L94.72 207.39Q72.90 208.62 67.60 196.18L67.61 196.18L67.58 196.15Q71.72 191.12 80.08 181.53L80.00 181.45L80.04 181.49Q82.63 192.23 98.74 192.85L98.75 192.86L98.81 192.92Q116.95 193.32 125.72 186.18L125.68 186.14L125.77 186.23Q133.36 177.70 132.95 163.22L132.85 163.13L132.86 163.13Q131.98 135.95 106.29 137.18L106.43 137.32L106.40 137.29Q91.19 137.99 81.81 144.72L81.89 144.79L80.14 143.86L79.10 143.23L79.05 143.18Q80.78 126.15 80.17 111.47L80.24 111.53L80.24 111.54Q79.64 97.48 77.81 79.73L77.84 79.77L77.88 79.80Q97.39 84.84 117.79 84.23L117.78 84.22L117.85 84.29Q138.07 83.71 157.24 76.98L157.43 77.17L154.22 85.17L154.21 85.17Q152.72 89.39 151.70 93.88L151.53 93.70L151.65 93.82Q134.91 99.32 114.11 99.32L114.01 99.21L114.19 99.39Q106.37 99.33 98.42 98.51L98.31 98.41L98.48 98.57Q98.06 102.23 96.22 126.09L96.12 125.99L96.12 125.99Q100.68 123.61 111.69 122.80L111.63 122.74L111.64 122.74Q131.73 124.07 139.48 133.05L139.40 132.96L139.30 132.87Q146.80 141.18 148.23 161.78L148.14 161.69L148.07 161.62Q149.53 184.08 143.00 194.89L143.03 194.92L143.06 194.95Q132.27 205.16 114.52 206.39L114.54 206.41L114.54 206.41Q108.95 206.53 94.68 207.34ZM127.11 219.59L127.06 219.54L127.14 219.62Q145.55 220.08 155.74 214.16L155.76 214.18L155.68 214.10Q160.94 205.90 160.94 194.69L161.01 194.76L161.00 194.74Q160.93 178.15 155.83 156.12L155.89 156.19L155.81 156.11Q153.93 146.89 147.41 139.34L147.33 139.27L147.53 139.67L146.33 138.06L144.51 137.05L144.58 137.13Q142.79 133.10 139.33 129.43L139.32 129.42L139.48 129.78L139.34 129.64Q131.23 120.71 111.45 120.71L111.54 120.81L110.05 120.74L109.95 120.65Q110.37 117.60 111.39 111.69L111.44 111.73L111.52 111.82Q138.22 112.41 159.84 103.64L159.83 103.63L159.82 103.62Q161.97 95.99 167.07 80.90L167.03 80.85L155.93 86.07L155.90 86.04Q157.94 79.92 160.59 73.80L160.67 73.88L160.59 73.80Q139.99 81.56 117.97 81.96L117.99 81.99L117.87 81.87Q96.05 82.68 74.84 76.76L74.75 76.68L74.83 76.76Q78.42 100.34 78.42 124.00L78.47 124.04L78.36 123.93Q78.45 134.22 77.84 144.42L77.72 144.30L77.76 144.34Q79.28 145.45 82.33 147.08L82.32 147.06L82.29 147.03Q84.05 145.73 87.51 143.89L87.51 143.89L87.65 144.03Q87.41 148.07 86.18 156.23L86.07 156.12L86.24 156.29Q88.31 157.13 90.55 158.35L90.68 158.48L90.74 158.54Q105.44 148.97 115.43 148.97L115.44 148.98L115.50 149.04Q122.76 149.16 129.08 152.63L129.08 152.63L129.04 152.59Q130.73 157.94 130.93 163.04L130.93 163.04L131.01 163.12Q131.51 177.08 126.00 182.99L126.00 182.99L125.85 182.85Q118.60 189.46 106.57 190.68L106.50 190.62L106.50 190.61Q101.46 191.08 97.79 190.68L97.84 190.73L97.82 190.71Q93.32 190.08 89.24 188.25L89.24 188.25L88.96 186.95L88.34 187.55L88.49 187.70Q84.14 184.98 81.28 177.84L81.29 177.84L81.36 177.92Q74.14 185.39 65.17 196.81L65.14 196.77L65.06 196.70Q66.82 200.29 71.31 205.39L71.36 205.44L71.22 205.30Q76.96 215.12 92.05 217.77L92.16 217.88L92.17 217.89Q98.31 218.93 127.07 219.54Z"/><path fill="#c5e26e" d="M150.17 167.65L150.15 167.63L150.20 167.69Q166.75 165.67 183.88 166.28L183.80 166.20L183.85 166.25Q183.68 152.62 183.68 139.77L183.55 139.64L183.61 139.71Q183.57 126.40 184.58 112.74L184.52 112.68L184.63 112.79Q178.14 122.00 150.20 167.69ZM203.08 206.89L203.19 207.01L203.10 206.92Q194.26 205.42 184.68 205.01L184.61 204.95L184.64 204.98Q183.63 192.34 183.01 179.08L182.98 179.04L183.01 179.08Q154.42 178.02 129.13 185.57L129.15 185.59L129.16 185.60Q129.69 182.86 130.71 177.56L130.79 177.64L130.73 177.58Q140.31 160.65 159.48 126.99L159.61 127.12L159.47 126.99Q175.10 101.01 193.46 80.21L193.40 80.15L193.44 80.20Q198.08 79.12 207.05 77.69L207.02 77.66L207.01 77.65Q196.86 112.16 196.86 149.89L196.83 149.87L196.81 149.85Q196.85 157.84 197.26 165.80L197.35 165.88L204.11 166.32L204.22 166.44Q207.52 166.67 210.78 167.28L210.69 167.20L210.81 167.31Q211.23 172.43 212.66 182.83L212.77 182.94L212.73 182.90Q206.31 181.58 198.36 180.56L198.36 180.56L198.36 180.55Q199.51 191.29 203.18 207.00ZM212.10 165.13L212.15 165.18L212.05 165.08Q211.08 164.73 210.07 164.73L210.08 164.74L207.96 164.67L208.10 164.80Q207.47 156.83 207.47 149.29L207.54 149.36L207.55 149.36Q207.51 115.06 218.52 82.84L218.55 82.87L218.40 82.72Q214.29 84.12 206.54 86.16L206.69 86.30L206.64 86.25Q207.79 82.11 210.24 74.56L210.33 74.65L210.27 74.59Q203.34 76.64 192.33 77.86L192.43 77.96L192.40 77.94Q171.29 101.08 143.35 151.25L143.42 151.32L154.69 131.79L154.69 131.80Q152.47 137.32 151.04 140.38L150.93 140.27L127.06 188.60L127.10 188.63Q130.47 187.72 136.59 185.68L136.62 185.72L135.77 186.91L135.89 187.03Q135.35 190.77 133.72 197.50L133.64 197.42L133.66 197.44Q155.68 190.29 181.58 191.31L181.50 191.23L181.49 191.22Q181.74 196.36 182.76 206.97L182.72 206.93L182.87 207.08Q188.54 207.04 194.25 207.65L194.20 207.60L194.10 207.51Q194.98 211.24 196.41 218.58L196.49 218.66L196.38 218.56Q206.68 219.88 222.79 224.78L222.82 224.80L222.76 224.74Q217.54 213.40 212.64 195.86L212.48 195.70L220.25 198.17L220.25 198.17Q224.00 199.47 227.68 201.31L227.58 201.21L227.64 201.28Q223.37 187.82 222.55 178.85L222.49 178.79L222.46 178.76Q219.39 177.93 213.27 176.70L213.32 176.76L213.40 176.84Q212.22 169.94 212.22 165.25ZM169.33 164.38L169.34 164.39L169.41 164.46Q173.32 157.35 181.68 143.69L181.82 143.83L181.68 143.69Q181.66 148.77 181.45 153.86L181.59 154.00L181.64 154.05Q181.57 159.28 181.77 164.38L181.85 164.46L181.83 164.44Q178.60 164.07 175.54 164.07L175.66 164.19L175.72 164.24Q172.49 164.28 169.23 164.28Z"/><path d="M16 211 C230 218,243 96,486 199" stroke="#bae78c" fill="none"/></svg>