<svg xmlns="http://www.w3.org/2000/svg" width="500" height="250" viewBox="0,0,500,250"><path d="M3 66 C243 90,268 108,487 218" stroke="#599bdd" fill="none"/><path d="M11 139 C265 141,230 94,498 190" stroke="#4896e4" fill="none"/><path fill="#db876b" d="M136.29 207.46L136.29 207.46L136.32 207.49Q114.32 208.53 109.01 196.09L109.16 196.23L109.14 196.22Q113.26 191.16 121.62 181.57L121.59 181.54L121.48 181.43Q124.16 192.27 140.27 192.88L140.23 192.83L140.30 192.91Q158.50 193.36 167.27 186.22L167.27 186.23L167.27 186.23Q174.74 177.59 174.33 163.11L174.39 163.17L174.34 163.12Q173.50 135.97 147.81 137.19L147.91 137.29L147.76 137.14Q132.74 138.04 123.36 144.77L123.47 144.87L121.58 143.80L120.54 143.17L120.47 143.10Q122.26 126.13 121.65 111.45L121.83 111.62L121.79 111.58Q121.05 97.38 119.21 79.64L119.32 79.75L119.36 79.79Q138.94 84.89 159.34 84.28L159.34 84.28L159.36 84.30Q179.76 83.90 198.93 77.17L198.80 77.04L195.70 85.16L195.68 85.14Q194.24 89.40 193.22 93.89L193.06 93.74L193.10 93.78Q176.39 99.29 155.58 99.29L155.60 99.31L155.65 99.35Q147.85 99.31 139.90 98.49L139.93 98.52L139.94 98.53Q139.45 102.12 137.62 125.99L137.69 126.06L137.57 125.94Q142.04 123.48 153.06 122.66L153.12 122.72L153.21 122.82Q173.11 123.95 180.86 132.93L180.89 132.95L180.82 132.89Q188.20 141.08 189.63 161.68L189.66 161.72L189.56 161.61Q191.00 184.06 184.48 194.87L184.47 194.87L184.49 194.89Q173.67 205.07 155.93 206.29L155.94 206.31L155.98 206.35Q150.41 206.49 136.14 207.31ZM168.66 219.63L168.69 219.67L168.61 219.59Q186.98 220.01 197.18 214.10L197.15 214.07L197.15 214.07Q202.47 205.93 202.47 194.72L202.44 194.68L202.49 194.73Q202.44 178.17 197.35 156.14L197.31 156.11L197.42 156.22Q195.35 146.81 188.83 139.26L188.87 139.30L189.03 139.67L187.79 138.02L186.08 137.12L185.96 137.00Q184.40 133.20 180.93 129.53L180.96 129.56L180.86 129.67L180.90 129.70Q172.66 120.64 152.87 120.64L152.96 120.73L151.42 120.62L151.56 120.76Q151.87 117.60 152.89 111.69L152.93 111.73L152.92 111.72Q179.70 112.39 201.31 103.62L201.33 103.64L201.22 103.52Q203.45 95.96 208.55 80.87L208.57 80.90L197.47 86.11L197.33 85.97Q199.45 79.93 202.10 73.82L202.06 73.77L202.06 73.77Q181.54 81.60 159.51 82.01L159.51 82.01L159.55 82.05Q137.43 82.57 116.22 76.65L116.28 76.71L116.15 76.58Q119.82 100.24 119.82 123.90L119.99 124.07L119.87 123.94Q119.97 134.24 119.36 144.43L119.22 144.30L119.34 144.42Q120.72 145.39 123.78 147.02L123.75 146.99L123.74 146.98Q125.71 145.89 129.17 144.05L129.15 144.03L129.07 143.95Q128.84 148.00 127.62 156.16L127.61 156.15L127.65 156.19Q129.90 157.22 132.14 158.44L132.24 158.54L132.07 158.37Q147.02 149.05 157.01 149.05L157.05 149.09L156.95 148.99Q164.17 149.07 170.49 152.53L170.41 152.46L170.57 152.62Q172.39 158.11 172.60 163.21L172.47 163.08L172.45 163.06Q172.92 176.99 167.41 182.91L167.35 182.84L167.44 182.93Q159.99 189.35 147.95 190.57L148.13 190.74L148.08 190.69Q142.88 191.00 139.21 190.60L139.19 190.58L139.35 190.73Q134.71 189.97 130.63 188.14L130.65 188.15L130.44 186.92L129.99 187.70L129.90 187.61Q125.57 184.91 122.72 177.78L122.70 177.76L122.74 177.79Q115.67 185.41 106.69 196.83L106.72 196.85L106.67 196.80Q108.23 200.20 112.71 205.29L112.80 205.38L112.69 205.27Q118.51 215.17 133.60 217.83L133.61 217.83L133.51 217.74Q139.94 219.07 168.70 219.68Z"/><path fill="#8cec8c" d="M441.80 194.12L441.77 194.09L441.86 194.18Q443.44 199.42 446.29 210.23L446.26 210.20L446.38 210.32Q423.74 203.19 399.07 204.61L398.98 204.53L399.02 204.56Q374.52 205.97 353.11 216.58L353.12 216.59L353.02 216.48Q354.34 212.92 354.55 213.32L354.47 213.25L354.60 213.38Q374.59 192.17 395.60 168.52L395.58 168.50L395.59 168.50Q419.22 141.76 425.54 116.68L425.55 116.68L425.41 116.55Q428.00 107.31 421.17 100.99L421.16 100.98L421.16 100.97Q414.30 94.63 404.72 95.45L404.61 95.34L404.74 95.47Q402.90 95.26 401.07 95.26L400.95 95.15L401.13 95.32Q392.91 95.27 386.18 100.16L386.20 100.17L386.13 100.10Q379.12 107.38 380.35 121.65L380.52 121.82L380.51 121.82Q370.84 119.90 364.32 117.45L364.29 117.43L364.35 117.48Q363.40 110.01 362.99 102.26L362.80 102.07L362.87 102.14Q362.45 93.35 365.71 87.24L365.72 87.25L365.79 87.32Q375.42 80.02 393.37 80.02L393.19 79.84L402.65 79.91L402.64 79.91Q414.92 80.16 420.02 80.77L419.90 80.65L420.00 80.75Q443.28 83.02 444.70 96.07L444.61 95.98L444.62 95.99Q445.01 99.03 444.60 103.31L444.60 103.30L444.60 103.31Q444.51 106.89 443.69 110.56L443.56 110.43L443.70 110.56Q434.90 153.97 394.31 190.68L394.29 190.66L394.23 190.60Q401.89 189.90 409.24 189.90L409.18 189.85L409.21 189.88Q426.45 189.78 441.74 194.06ZM438.66 82.48L438.70 82.52L438.68 82.50Q430.21 79.13 421.03 78.72L420.93 78.62L402.65 77.67L402.57 77.59Q378.72 76.18 366.89 82.09L366.99 82.19L366.99 82.19Q361.25 89.50 361.25 100.51L361.18 100.45L361.30 100.57Q361.40 104.34 363.03 119.43L363.19 119.58L363.18 119.57Q365.94 120.70 372.26 122.33L372.25 122.32L372.32 127.90L372.23 127.81Q372.10 130.33 372.50 133.18L372.51 133.19L372.48 133.16Q379.14 133.70 392.40 134.92L392.51 135.03L392.48 135.01Q392.36 133.05 392.36 131.21L392.29 131.15L392.19 131.05Q392.18 121.25 398.70 114.01L398.72 114.03L398.74 114.04Q405.32 106.85 414.90 107.46L414.97 107.53L414.81 107.37Q418.89 107.58 422.97 108.40L423.05 108.48L423.14 108.56Q423.73 110.58 424.13 112.82L424.07 112.76L424.07 112.76Q424.22 114.95 423.81 116.78L423.80 116.77L423.77 116.75Q417.15 142.34 393.49 168.24L393.48 168.24L393.56 168.31Q382.02 180.23 352.86 212.66L352.81 212.60L352.92 212.72Q351.92 217.22 350.08 220.28L350.00 220.20L350.04 220.24Q358.60 215.54 366.76 212.68L366.76 212.69L366.85 212.78Q362.90 215.76 357.80 223.72L357.70 223.62L357.84 223.76Q357.21 225.57 356.60 227.41L356.53 227.34L356.58 227.39Q382.71 216.40 412.08 217.42L412.08 217.43L411.99 217.34Q442.35 218.12 466.82 230.76L466.85 230.79L461.60 219.42L461.70 219.52Q458.11 212.27 456.69 207.98L456.74 208.04L456.66 207.96Q452.90 205.83 446.38 203.59L446.39 203.61L446.31 203.52Q445.56 199.71 443.52 192.37L443.47 192.32L443.52 192.37Q431.63 189.25 419.39 188.23L419.31 188.14L419.33 188.16Q444.50 163.78 452.66 119.53L452.58 119.45L453.56 103.91L453.63 103.97Q453.21 94.38 446.69 90.71L446.81 90.84L446.56 90.79L446.46 90.69Q446.30 90.33 445.89 90.33L445.94 90.37L445.99 90.42Q444.67 85.84 438.75 82.57Z"/><path d="M8 97 C265 6,233 245,483 229" stroke="#eb734b" fill="none"/><path fill="#7ff0d3" d="M324.14 202.49L324.24 202.59L324.07 202.42Q320.55 202.37 316.88 202.57L316.85 202.54L316.88 202.57Q312.86 202.83 309.19 202.83L309.28 202.92L309.19 202.83Q311.61 184.45 311.61 166.10L311.64 166.13L311.66 166.15Q301.87 166.35 296.97 166.35L297.01 166.38L296.98 166.36Q292.40 166.27 282.61 165.86L282.56 165.80L282.52 165.76Q282.74 164.36 281.72 151.10L281.79 151.16L281.68 151.06Q295.38 153.95 311.29 153.95L311.40 154.06L311.31 153.97Q310.12 130.55 307.87 116.68L307.92 116.72L307.82 116.63Q312.08 117.21 316.36 117.21L316.35 117.20L325.23 117.31L325.23 117.31Q324.00 140.15 324.00 154.01L323.92 153.94L324.04 154.05Q335.60 153.99 352.73 152.15L352.67 152.09L352.61 152.03Q352.07 159.25 352.07 165.77L352.15 165.85L352.11 165.81Q350.62 165.75 346.34 165.96L346.36 165.97L346.47 166.09Q341.10 166.01 337.83 166.22L337.78 166.16L337.91 166.30Q337.80 166.19 323.53 166.19L323.49 166.15L323.51 184.52L323.62 184.63Q323.52 193.31 324.13 202.48ZM354.88 149.41L354.89 149.42L354.94 149.47Q344.73 151.09 334.74 151.50L334.80 151.56L334.79 151.55Q336.27 134.87 338.51 124.88L338.35 124.72L338.47 124.84Q334.56 125.01 327.01 125.83L326.91 125.72L327.97 114.75L327.98 114.76Q313.91 114.76 304.94 114.15L304.95 114.16L304.91 114.12Q308.26 131.14 309.28 151.94L309.19 151.85L309.22 151.88Q299.46 151.30 279.68 148.04L279.60 147.96L279.68 148.04Q281.02 154.27 281.02 168.35L281.21 168.53L289.19 168.35L289.23 168.40Q289.27 172.31 288.45 179.85L288.48 179.88L309.72 178.48L309.65 178.42Q308.35 195.27 306.72 205.06L306.79 205.13L306.75 205.09Q310.97 205.23 318.52 204.62L318.49 204.59L318.41 204.51Q318.52 208.29 318.32 215.43L318.14 215.26L318.29 215.40Q321.04 215.30 340.42 216.12L340.43 216.12L340.55 216.25Q335.64 199.71 334.42 178.50L334.31 178.40L334.33 178.41Q352.03 178.78 363.25 180.82L363.22 180.80L363.33 180.90Q362.20 175.70 362.20 170.60L362.30 170.69L362.29 160.49L362.27 160.47Q360.97 160.40 358.12 160.60L358.19 160.67L353.83 160.59L353.95 160.72Q354.37 156.86 354.98 149.51Z"/><path d="M9 65 C241 4,244 193,485 233" stroke="#e8e886" fill="none"/><path fill="#b7e03c" d="M109.86 194.18L109.90 194.22L109.75 194.07Q111.50 199.49 114.35 210.30L114.27 210.21L114.23 210.17Q91.72 203.16 67.04 204.59L67.06 204.61L67.00 204.55Q42.53 205.98 21.12 216.59L21.06 216.53L21.10 216.57Q22.35 212.93 22.56 213.33L22.48 213.26L22.53 213.30Q42.45 192.03 63.46 168.38L63.50 168.42L63.46 168.38Q87.16 141.70 93.48 116.62L93.58 116.71L93.56 116.69Q95.93 107.23 89.09 100.91L89.19 101.01L89.11 100.92Q82.26 94.58 72.67 95.40L72.64 95.37L72.62 95.35Q70.89 95.25 69.05 95.25L69.01 95.20L69.03 95.22Q60.92 95.27 54.19 100.17L54.22 100.20L54.23 100.21Q47.11 107.36 48.33 121.64L48.47 121.78L48.42 121.73Q38.91 119.97 32.39 117.52L32.26 117.39L32.37 117.51Q31.31 109.92 30.90 102.17L30.93 102.20L30.84 102.11Q30.39 93.29 33.65 87.18L33.81 87.33L33.82 87.34Q43.39 79.99 61.34 79.99L61.33 79.98L70.61 79.88L70.66 79.93Q82.88 80.11 87.97 80.72L88.06 80.81L87.91 80.66Q111.24 82.98 112.67 96.03L112.65 96.01L112.74 96.11Q113.02 99.04 112.61 103.32L112.76 103.47L112.73 103.44Q112.47 106.85 111.65 110.52L111.66 110.53L111.67 110.54Q102.88 153.95 62.29 190.66L62.31 190.68L62.26 190.63Q69.89 189.90 77.23 189.90L77.26 189.93L77.18 189.84Q94.51 189.84 109.81 194.13ZM106.70 82.52L106.79 82.61L106.74 82.56Q98.18 79.10 89.01 78.69L89.06 78.75L70.74 77.76L70.73 77.76Q46.84 76.30 35.01 82.21L35.01 82.21L34.96 82.16Q29.29 89.54 29.29 100.56L29.35 100.61L29.28 100.55Q29.41 104.34 31.04 119.44L31.03 119.43L31.10 119.50Q33.95 120.71 40.27 122.34L40.26 122.33L40.33 127.91L40.31 127.89Q40.08 130.31 40.49 133.17L40.50 133.18L40.46 133.14Q47.23 133.79 60.48 135.01L60.50 135.03L60.45 134.98Q60.20 132.89 60.20 131.05L60.16 131.02L60.20 131.06Q60.33 121.40 66.85 114.16L66.69 114.00L66.69 113.99Q73.34 106.87 82.92 107.49L82.96 107.52L82.86 107.42Q86.98 107.67 91.06 108.48L91.04 108.46L90.96 108.38Q91.74 110.59 92.15 112.84L92.06 112.75L92.15 112.84Q92.23 114.96 91.83 116.80L91.85 116.82L91.97 116.94Q85.11 142.31 61.46 168.21L61.42 168.18L61.50 168.25Q50.16 180.36 20.99 212.79L20.94 212.74L20.87 212.67Q19.86 217.16 18.02 220.22L18.07 220.27L18.07 220.27Q26.58 215.52 34.74 212.66L34.73 212.66L34.68 212.61Q30.81 215.67 25.71 223.62L25.81 223.72L25.85 223.77Q25.15 225.51 24.54 227.34L24.58 227.38L24.52 227.33Q50.67 216.36 80.04 217.38L80.04 217.39L80.05 217.39Q110.51 218.28 134.98 230.92L134.96 230.90L129.68 219.51L129.68 219.50Q126.06 212.22 124.64 207.94L124.70 208.00L124.66 207.96Q120.74 205.67 114.21 203.43L114.35 203.57L114.38 203.59Q113.46 199.61 111.42 192.27L111.50 192.36L111.54 192.39Q99.64 189.26 87.40 188.24L87.39 188.22L87.45 188.28Q112.42 163.69 120.57 119.44L120.64 119.50L121.69 104.03L121.64 103.99Q121.34 94.51 114.81 90.84L114.74 90.76L114.57 90.80L114.54 90.77Q114.37 90.40 113.97 90.40L113.89 90.32L113.84 90.27Q112.59 85.76 106.68 82.50Z"/><path fill="#b584e5" d="M219.23 188.74L219.31 188.81L219.37 188.88Q225.41 193.70 232.96 192.88L232.94 192.86L232.96 192.88Q248.64 193.88 252.11 175.93L252.19 176.01L252.12 175.94Q255.43 159.07 255.43 140.91L255.40 140.88L255.47 127.09L255.35 126.96Q255.39 120.27 253.55 113.54L253.58 113.57L253.55 113.54Q247.02 125.98 236.42 151.47L236.50 151.55L236.46 151.52Q225.94 177.09 219.41 188.92ZM246.34 100.62L246.15 100.43L246.15 100.43Q240.12 96.23 232.98 96.23L232.94 96.19L232.95 96.20Q225.07 95.47 219.16 100.36L219.15 100.35L219.11 100.31Q213.21 105.22 212.19 113.17L212.15 113.14L212.20 113.19Q210.42 120.58 210.22 128.54L210.08 128.40L210.18 128.50Q210.19 128.51 210.19 143.80L210.10 143.71L210.12 143.74Q210.15 156.41 212.60 175.78L212.54 175.72L212.66 175.85Q222.84 150.33 246.29 100.57ZM254.59 201.25L254.59 201.26L254.57 201.23Q245.22 206.16 232.78 206.16L232.88 206.26L223.94 206.09L224.01 206.16Q206.66 206.15 200.54 196.97L200.55 196.98L200.47 196.90Q196.29 185.37 195.88 169.67L195.88 169.67L195.80 169.59Q195.58 160.20 195.17 141.64L195.29 141.76L195.25 141.72Q194.98 135.12 194.16 118.80L194.33 118.97L194.20 118.84Q193.88 106.69 195.51 96.08L195.47 96.05L195.51 96.09Q198.20 80.42 221.45 79.19L221.32 79.07L221.39 79.14Q225.49 78.96 232.63 79.16L232.49 79.02L232.49 79.02Q262.91 79.87 268.62 98.43L268.73 98.54L268.77 98.58Q271.89 108.63 271.69 118.63L271.69 118.63L271.78 118.72Q271.32 145.38 270.91 151.91L271.00 152.00L271.01 152.01Q269.87 172.28 268.24 179.22L268.22 179.20L268.36 179.34Q264.74 195.91 254.55 201.21ZM281.12 200.05L281.12 200.05L281.12 200.05Q282.44 185.26 282.24 175.68L282.20 175.64L281.64 150.80L281.73 150.90Q281.33 134.80 278.48 105.23L278.53 105.27L278.56 105.31Q275.55 95.36 268.61 91.28L268.70 91.37L268.73 91.40Q260.35 77.72 232.61 76.90L232.63 76.92L232.56 76.85Q227.91 76.69 220.78 76.89L220.76 76.87L220.69 76.80Q196.55 77.34 193.90 94.07L193.77 93.94L193.84 94.01Q191.72 106.37 192.33 117.59L192.41 117.66L192.39 117.64Q194.32 141.19 194.12 159.14L193.94 158.96L193.96 158.98Q193.85 178.86 194.47 184.37L194.48 184.38L194.38 184.28Q196.42 200.80 204.58 205.09L204.62 205.13L204.62 205.13Q212.54 216.92 233.96 218.35L233.98 218.37L234.03 218.43Q253.10 219.55 256.57 219.35L256.72 219.50L256.65 219.43Q271.94 218.61 278.06 210.04L278.12 210.10L277.99 209.97Q280.80 206.46 281.21 200.14ZM235.06 190.91L235.09 190.94L235.07 190.92Q238.68 183.11 244.39 168.63L244.36 168.59L253.67 146.09L253.67 146.09Q253.29 154.68 251.25 172.63L251.37 172.75L251.31 172.68Q247.94 188.29 235.09 190.94ZM224.48 125.06L224.49 125.07L224.35 124.93Q226.96 115.50 230.63 112.44L230.63 112.44L230.64 112.45Q232.97 110.09 239.90 109.07L240.00 109.17L239.93 109.10Q230.71 128.64 220.72 153.52L220.67 153.47L220.80 153.60Q220.66 138.98 224.33 124.91Z"/></svg>