<svg xmlns="http://www.w3.org/2000/svg" width="500" height="250" viewBox="0,0,500,250"><path d="M10 132 C234 164,251 243,487 188" stroke="#e3c25d" fill="none"/><path d="M13 101 C239 246,245 223,483 49" stroke="#4971e8" fill="none"/><path fill="#cbe287" d="M98.04 194.21L97.99 194.17L97.99 194.17Q99.61 199.45 102.46 210.26L102.54 210.34L102.40 210.20Q79.82 203.12 55.14 204.55L55.10 204.50L55.12 204.52Q30.69 206.00 9.28 216.60L9.17 216.49L9.22 216.54Q10.49 212.92 10.70 213.33L10.69 213.32L10.65 213.29Q30.65 192.08 51.65 168.43L51.61 168.38L51.68 168.45Q75.39 141.79 81.71 116.70L81.57 116.56L81.67 116.67Q84.13 107.30 77.30 100.97L77.26 100.93L77.16 100.84Q70.33 94.52 60.75 95.33L60.82 95.40L60.81 95.39Q58.95 95.16 57.11 95.16L57.21 95.26L57.12 95.17Q49.08 95.29 42.35 100.18L42.24 100.07L42.25 100.08Q35.27 107.38 36.49 121.66L36.48 121.64L36.57 121.73Q27.05 119.96 20.52 117.51L20.39 117.38L20.48 117.47Q19.48 109.94 19.07 102.19L18.97 102.09L19.13 102.25Q18.53 93.29 21.79 87.17L21.83 87.21L21.80 87.18Q31.47 79.92 49.42 79.92L49.39 79.90L58.86 79.98L58.87 79.99Q71.06 80.15 76.16 80.77L76.16 80.76L76.14 80.75Q99.43 83.03 100.85 96.08L100.87 96.09L100.85 96.07Q101.28 99.15 100.87 103.43L100.86 103.42L100.91 103.47Q100.69 106.93 99.87 110.60L99.85 110.57L99.87 110.60Q91.06 153.99 50.48 190.70L50.49 190.72L50.40 190.63Q58.07 189.94 65.42 189.94L65.39 189.92L65.28 189.80Q82.76 189.95 98.05 194.23ZM95.00 82.68L94.94 82.62L94.88 82.55Q86.39 79.17 77.22 78.76L77.06 78.61L58.82 77.70L58.86 77.74Q34.98 76.29 23.15 82.21L23.08 82.13L23.02 82.08Q17.45 89.56 17.45 100.57L17.44 100.56L17.31 100.43Q17.58 104.37 19.21 119.47L19.14 119.39L19.22 119.47Q22.00 120.63 28.33 122.26L28.37 122.30L28.45 127.88L28.47 127.91Q28.22 130.31 28.63 133.17L28.55 133.08L28.64 133.18Q35.29 133.70 48.54 134.93L48.63 135.01L48.67 135.06Q48.47 133.02 48.47 131.18L48.42 131.13L48.41 131.13Q48.45 121.38 54.98 114.14L55.02 114.18L54.88 114.04Q61.37 106.77 70.96 107.38L71.01 107.43L70.95 107.37Q75.10 107.64 79.18 108.46L79.10 108.38L79.28 108.56Q79.75 110.46 80.16 112.71L80.24 112.79L80.28 112.83Q80.45 115.03 80.04 116.87L79.95 116.78L79.99 116.81Q73.22 142.27 49.56 168.17L49.64 168.25L49.69 168.30Q38.26 180.32 9.10 212.75L9.02 212.68L9.06 212.72Q7.93 217.09 6.10 220.15L6.25 220.31L6.28 220.33Q14.70 215.50 22.86 212.64L22.81 212.60L22.98 212.76Q19.02 215.73 13.92 223.69L13.95 223.72L13.86 223.63Q13.34 225.56 12.73 227.40L12.74 227.40L12.75 227.41Q38.90 216.45 68.27 217.47L68.11 217.31L68.26 217.46Q98.48 218.11 122.96 230.76L122.97 230.77L117.68 219.37L117.83 219.52Q114.31 212.32 112.88 208.04L112.82 207.97L112.83 207.99Q108.98 205.77 102.45 203.52L102.43 203.50L102.50 203.57Q101.54 199.55 99.50 192.21L99.58 192.29L99.61 192.32Q87.84 189.32 75.61 188.30L75.49 188.18L75.43 188.12Q100.58 163.71 108.73 119.46L108.86 119.59L109.70 103.90L109.82 104.02Q109.36 94.39 102.83 90.71L102.76 90.65L102.67 90.76L102.65 90.74Q102.42 90.30 102.01 90.30L102.01 90.30L102.04 90.33Q100.88 85.91 94.96 82.64Z"/><path fill="#ed7cb5" d="M129.90 116.38L129.96 116.44L129.87 116.36Q112.88 116.50 103.09 110.79L103.07 110.76L102.97 110.67Q116.51 103.41 142.62 80.77L142.67 80.83L142.64 80.80Q146.53 79.78 153.46 76.52L153.41 76.47L153.39 76.45Q146.23 108.24 145.62 142.30L145.61 142.30L145.69 142.38Q144.96 176.32 150.67 208.95L150.81 209.08L150.78 209.06Q141.86 205.23 130.44 204.62L130.32 204.50L130.36 204.55Q129.79 182.35 129.79 160.53L129.73 160.47L129.78 160.52Q129.79 138.50 129.99 116.48ZM127.87 128.43L127.95 206.62L127.93 206.60Q134.50 206.64 139.59 207.66L139.62 207.68L139.54 207.60Q139.93 211.25 140.95 218.60L140.98 218.63L141.00 218.65Q156.29 221.50 169.35 233.54L169.33 233.52L169.29 233.48Q156.09 195.40 155.89 155.42L155.91 155.45L155.80 155.34Q155.38 115.35 165.17 76.60L165.17 76.60L165.23 76.67Q162.43 78.96 153.86 84.88L153.86 84.88L153.75 84.77Q154.90 80.82 156.54 72.66L156.53 72.66L156.46 72.58Q149.31 76.65 141.56 78.69L141.49 78.62L141.52 78.65Q121.29 97.79 98.25 110.02L98.42 110.20L98.30 110.07Q105.78 115.93 118.43 117.76L118.50 117.84L118.57 117.90Q115.04 120.70 108.11 126.41L108.15 126.45L108.15 126.45Q116.06 128.45 127.89 128.45L127.92 128.48Z"/><path d="M6 188 C256 199,235 175,481 227" stroke="#de9177" fill="none"/><path fill="#e9bd39" d="M339.61 146.94L339.78 147.10L339.77 147.09Q330.01 146.51 323.38 154.16L323.23 154.00L323.32 154.09Q316.61 161.66 315.59 171.86L315.61 171.88L315.58 171.84Q314.46 182.96 320.27 188.16L320.31 188.21L320.27 188.16Q325.98 193.26 337.20 192.65L337.29 192.74L337.23 192.68Q348.55 191.97 354.46 188.30L354.44 188.27L354.30 188.13Q360.43 182.24 360.43 173.87L360.52 173.96L360.59 174.03Q360.55 171.95 360.14 169.91L360.08 169.84L360.13 169.90Q360.48 160.86 354.56 153.62L354.56 153.62L354.60 153.66Q348.63 146.37 339.66 146.98ZM337.45 206.56L337.42 206.53L337.46 206.58Q314.08 206.65 306.53 202.57L306.51 202.54L306.45 202.48Q300.97 198.44 299.95 189.26L299.88 189.18L299.93 189.24Q299.64 185.48 299.84 181.60L299.89 181.65L300.02 181.78Q300.64 176.49 300.64 174.04L300.64 174.04L300.62 174.02Q303.07 158.72 303.88 155.05L303.84 155.01L303.90 155.07Q306.24 144.56 310.73 137.02L310.74 137.03L310.70 136.98Q325.12 113.68 356.94 79.62L356.83 79.51L356.81 79.49Q371.12 77.90 382.95 73.61L382.98 73.64L382.95 73.62Q346.14 113.49 329.01 136.12L329.10 136.22L329.04 136.15Q334.40 133.56 341.33 133.56L341.31 133.54L341.26 133.49Q359.13 133.62 367.29 144.02L367.24 143.97L367.22 143.95Q374.45 152.81 376.28 171.77L376.18 171.68L376.30 171.79Q376.67 175.63 376.67 178.89L376.67 178.90L376.64 178.87Q376.65 195.59 364.82 201.30L364.75 201.23L364.88 201.37Q358.30 204.57 337.49 206.61ZM349.68 219.40L349.62 219.35L349.67 219.39Q356.57 219.16 367.18 219.57L367.20 219.59L367.28 219.67Q375.97 220.00 384.34 216.13L384.30 216.09L384.30 216.10Q390.30 211.89 390.30 202.31L390.38 202.39L390.28 202.29Q390.32 199.68 389.41 194.38L389.29 194.27L389.36 194.34Q388.35 188.94 388.35 186.50L388.48 186.62L388.46 186.60Q383.82 161.36 375.25 151.17L375.16 151.07L375.13 151.04Q374.72 150.43 373.90 149.20L374.02 149.32L372.34 148.05L371.93 147.85L371.86 147.77Q370.06 145.15 366.79 140.06L366.84 140.10L366.87 140.14Q362.01 135.07 351.40 132.62L351.42 132.63L351.38 132.60Q357.91 124.03 373.82 104.25L373.85 104.28L396.46 75.91L396.41 75.86Q387.99 80.49 375.14 84.57L375.10 84.53L375.17 84.60Q380.10 79.34 389.69 68.73L389.58 68.62L389.67 68.71Q376.85 74.45 356.05 77.51L355.94 77.40L355.95 77.41Q325.35 109.01 309.44 135.52L309.42 135.51L309.43 135.51Q301.46 149.16 298.40 182.61L298.31 182.52L298.34 182.55Q297.98 185.65 298.38 190.75L298.35 190.71L298.40 190.76Q298.74 200.07 304.65 204.97L304.62 204.94L304.72 205.04Q306.68 205.77 306.47 205.97L306.36 205.87L306.43 205.93Q308.53 210.89 312.81 213.13L312.80 213.12L312.84 213.16Q320.59 216.83 330.99 217.85L330.96 217.82L331.00 217.86Q330.97 217.83 349.74 219.47ZM348.50 159.29L348.39 159.18L348.48 159.27Q351.47 158.58 356.56 161.23L356.66 161.33L356.54 161.21Q358.38 166.32 358.38 169.78L358.56 169.96L358.49 169.89Q359.51 179.89 354.42 185.19L354.35 185.13L354.38 185.15Q348.71 189.07 337.50 190.71L337.50 190.71L337.51 190.72Q329.64 190.60 326.79 189.17L326.94 189.32L326.88 189.27Q325.93 186.89 325.93 185.26L325.88 185.21L325.91 185.24Q324.62 167.63 340.32 160.70L340.33 160.70L340.26 160.63Q344.31 158.77 348.39 159.18Z"/><path d="M21 202 C240 32,251 16,492 148" stroke="#ef89ef" fill="none"/><path fill="#d46c49" d="M276.80 202.58L276.73 202.51L276.77 202.55Q273.12 202.37 269.45 202.57L269.37 202.49L269.31 202.43Q265.57 202.98 261.90 202.98L261.91 202.98L261.77 202.84Q264.26 184.54 264.26 166.18L264.22 166.13L264.19 166.11Q254.40 166.31 249.50 166.31L249.51 166.32L249.68 166.48Q244.81 166.10 235.02 165.69L235.21 165.88L235.11 165.79Q235.32 164.36 234.30 151.10L234.37 151.17L234.27 151.08Q248.05 154.04 263.95 154.04L263.80 153.89L263.86 153.95Q262.73 130.59 260.49 116.72L260.45 116.68L260.32 116.56Q264.72 117.28 269.00 117.28L269.05 117.33L277.75 117.26L277.69 117.20Q276.45 140.02 276.45 153.89L276.55 154.00L276.45 153.89Q288.11 153.93 305.24 152.09L305.32 152.17L305.20 152.05Q304.58 159.18 304.58 165.71L304.70 165.83L304.74 165.87Q303.28 165.83 298.99 166.04L298.86 165.90L299.03 166.08Q293.67 166.01 290.40 166.22L290.32 166.13L290.34 166.15Q290.40 166.21 276.12 166.21L276.05 166.14L276.06 184.50L276.04 184.49Q276.02 193.23 276.63 202.41ZM307.61 149.57L307.46 149.42L307.47 149.43Q297.40 151.19 287.41 151.60L287.42 151.61L287.28 151.47Q288.73 134.77 290.97 124.77L290.99 124.79L291.05 124.85Q287.02 124.90 279.48 125.72L279.63 125.87L280.50 114.71L280.58 114.79Q266.47 114.75 257.50 114.14L257.53 114.18L257.60 114.24Q260.79 131.10 261.81 151.90L261.79 151.88L261.88 151.97Q251.99 151.26 232.21 148.00L232.19 147.98L232.28 148.07Q233.68 154.36 233.68 168.43L233.64 168.39L241.78 168.37L241.82 168.41Q241.94 172.41 241.12 179.95L240.94 179.78L262.25 178.45L262.30 178.49Q260.97 195.31 259.33 205.10L259.32 205.08L259.29 205.05Q263.49 205.18 271.04 204.57L271.07 204.59L271.02 204.55Q270.93 208.13 270.72 215.27L270.84 215.38L270.76 215.30Q273.57 215.26 292.95 216.07L293.02 216.15L293.13 216.26Q288.24 199.74 287.01 178.53L286.90 178.42L286.82 178.33Q304.59 178.77 315.80 180.81L315.87 180.87L315.92 180.93Q314.91 175.84 314.91 170.74L314.90 170.73L314.93 160.56L314.84 160.47Q313.54 160.40 310.69 160.60L310.83 160.74L306.59 160.79L306.58 160.77Q306.84 156.75 307.45 149.41Z"/><path fill="#5a79d7" d="M411.60 96.28L411.54 96.22L403.26 96.91L403.10 96.76Q391.10 97.40 389.87 108.21L389.89 108.22L389.86 108.19Q389.50 112.11 389.70 117.41L389.78 117.50L389.82 117.53Q390.01 127.92 396.74 135.06L396.75 135.07L396.70 135.02Q403.37 142.10 413.57 141.28L413.69 141.40L413.59 141.31Q424.57 140.45 428.64 135.56L428.71 135.63L428.68 135.59Q434.42 130.73 435.85 118.69L435.91 118.76L435.85 118.69Q437.23 106.62 430.50 102.13L430.45 102.08L430.63 102.26Q425.80 97.84 411.53 96.21ZM443.93 145.75L444.05 145.86L437.05 158.04L437.10 158.08Q422.51 183.67 402.32 205.49L402.44 205.62L402.44 205.62Q393.63 206.39 379.15 210.68L379.19 210.71L379.16 210.68Q407.64 176.96 424.57 151.26L424.63 151.33L424.59 151.29Q419.16 154.83 410.40 155.24L410.25 155.10L410.38 155.23Q394.15 155.92 385.99 145.31L385.99 145.31L386.11 145.43Q379.48 136.77 373.57 112.29L373.63 112.36L373.61 112.34Q373.70 109.98 372.89 104.99L372.88 104.98L372.90 105.00Q371.92 99.84 371.92 97.39L371.90 97.37L372.02 97.49Q372.05 87.94 377.76 84.68L377.64 84.55L377.66 84.58Q384.28 80.59 394.27 80.59L394.27 80.58L394.33 80.64Q411.31 80.49 411.31 80.49L411.40 80.59L411.45 80.64Q422.91 80.67 429.64 81.69L429.65 81.70L429.75 81.81Q441.05 83.11 445.95 85.76L446.01 85.82L446.06 85.87Q453.40 89.95 454.42 99.33L454.41 99.33L454.32 99.23Q454.35 100.49 453.33 114.77L453.47 114.90L453.36 114.79Q451.36 126.26 450.14 130.74L450.15 130.75L450.16 130.76Q448.04 138.23 443.96 145.78ZM454.24 158.70L454.11 158.57L454.15 158.61Q459.47 146.80 462.32 123.75L462.36 123.79L462.31 123.75Q463.86 112.03 463.65 107.34L463.65 107.34L463.49 107.18Q463.37 97.27 457.05 92.38L457.06 92.39L455.34 91.69L455.39 91.74Q453.93 87.62 449.03 84.16L449.00 84.12L449.08 84.21Q436.76 78.82 411.06 78.00L411.08 78.02L411.23 78.17Q406.12 78.16 393.07 78.16L392.95 78.04L392.98 78.07Q383.59 78.06 375.63 81.73L375.73 81.82L375.70 81.80Q369.62 86.12 370.03 95.91L369.95 95.83L369.86 95.74Q370.99 100.74 372.01 111.55L372.07 111.61L371.93 111.48Q375.31 125.66 376.74 130.15L376.76 130.17L376.74 130.15Q379.81 140.16 384.91 147.09L384.80 146.99L384.78 146.96Q386.27 148.86 388.31 150.90L388.24 150.83L388.23 150.82Q389.72 153.33 393.19 158.22L393.30 158.33L393.16 158.20Q401.11 165.54 411.52 166.56L411.58 166.62L411.66 166.70Q401.43 180.95 393.07 191.14L393.04 191.12L373.67 214.57L373.69 214.59Q385.67 210.46 394.44 208.62L394.40 208.59L394.38 208.56Q390.31 213.27 381.95 222.44L382.08 222.58L381.98 222.48Q398.59 217.67 415.31 217.46L415.25 217.41L415.25 217.40Q427.59 203.43 450.84 164.68L450.84 164.69L450.94 165.20L450.89 165.14Q452.33 161.28 454.17 158.63ZM421.94 109.07L422.05 109.18L421.88 109.01Q425.20 108.45 427.65 109.07L427.75 109.17L427.75 109.17Q431.05 109.61 433.08 110.22L433.19 110.33L433.10 110.24Q433.82 112.39 434.23 114.63L434.20 114.60L434.13 114.53Q434.66 116.89 434.05 118.93L433.96 118.85L434.06 118.94Q433.75 128.02 427.43 133.93L427.45 133.96L427.40 133.91Q422.46 139.57 413.69 139.36L413.63 139.31L413.58 139.26Q411.38 139.30 403.23 137.67L403.14 137.59L403.13 137.58Q401.95 132.93 401.95 129.06L402.00 129.10L401.88 128.99Q401.54 127.62 401.54 126.40L401.56 126.42L401.60 126.46Q401.48 114.51 413.72 110.23L413.82 110.33L413.75 110.26Q417.46 109.08 421.95 109.08Z"/><path fill="#32e5e5" d="M183.75 207.49L183.61 207.35L183.60 207.34Q161.77 208.56 156.47 196.12L156.44 196.09L156.50 196.15Q160.51 190.98 168.88 181.40L169.00 181.53L169.07 181.59Q171.65 192.33 187.76 192.94L187.77 192.96L187.67 192.85Q205.86 193.30 214.63 186.16L214.64 186.18L214.74 186.27Q222.21 177.63 221.81 163.15L221.88 163.22L221.83 163.18Q220.95 135.98 195.25 137.21L195.20 137.15L195.36 137.32Q180.22 138.09 170.84 144.82L170.79 144.77L169.00 143.80L167.91 143.11L167.95 143.15Q169.86 126.30 169.24 111.61L169.17 111.54L169.21 111.57Q168.57 97.48 166.73 79.73L166.76 79.76L166.81 79.81Q186.38 84.89 206.77 84.28L206.61 84.12L206.71 84.22Q227.00 83.71 246.17 76.98L246.33 77.14L243.14 85.16L243.11 85.14Q241.61 89.34 240.59 93.83L240.51 93.75L240.65 93.89Q223.86 99.33 203.05 99.33L203.05 99.33L203.01 99.29Q195.26 99.28 187.31 98.47L187.27 98.43L187.24 98.40Q186.84 102.08 185.00 125.94L185.16 126.10L184.99 125.93Q189.52 123.53 200.54 122.71L200.49 122.67L200.60 122.78Q220.62 124.04 228.37 133.01L228.39 133.02L228.23 132.87Q235.59 141.05 237.02 161.64L237.18 161.80L237.00 161.62Q238.51 184.14 231.98 194.95L232.02 194.98L232.05 195.02Q221.11 205.08 203.36 206.30L203.41 206.35L203.48 206.42Q198.00 206.65 183.73 207.47ZM215.99 219.54L216.12 219.67L216.01 219.55Q234.51 220.12 244.71 214.20L244.69 214.18L244.60 214.09Q249.99 206.02 249.99 194.80L250.02 194.83L249.96 194.77Q250.03 178.32 244.93 156.30L244.88 156.25L244.83 156.20Q242.86 146.89 236.33 139.34L236.37 139.37L236.40 139.61L235.28 138.08L233.47 137.09L233.35 136.97Q231.69 133.07 228.23 129.40L228.40 129.57L228.29 129.67L228.34 129.72Q220.21 120.77 200.43 120.77L200.47 120.82L199.02 120.79L198.95 120.72Q199.45 117.75 200.47 111.84L200.30 111.67L200.30 111.67Q227.14 112.40 248.75 103.63L248.81 103.68L248.80 103.68Q250.98 96.06 256.08 80.97L255.98 80.87L244.83 86.04L244.84 86.05Q246.84 79.89 249.49 73.77L249.49 73.77L249.55 73.83Q229.01 81.64 206.98 82.05L206.92 81.98L206.82 81.89Q184.85 82.55 163.64 76.64L163.62 76.62L163.57 76.57Q167.34 100.32 167.34 123.98L167.31 123.95L167.43 124.07Q167.39 134.23 166.78 144.43L166.65 144.30L166.73 144.38Q168.05 145.30 171.11 146.93L171.20 147.01L171.26 147.08Q173.14 145.90 176.61 144.06L176.47 143.92L176.47 143.92Q176.25 147.98 175.02 156.14L175.12 156.23L175.15 156.27Q177.39 157.28 179.63 158.51L179.58 158.45L179.57 158.44Q194.41 149.01 204.40 149.01L204.46 149.07L204.46 149.07Q211.66 149.13 217.98 152.60L217.82 152.43L217.97 152.59Q219.74 158.03 219.94 163.13L219.87 163.06L219.93 163.11Q220.40 177.05 214.90 182.96L214.76 182.83L214.77 182.84Q207.54 189.47 195.50 190.69L195.51 190.70L195.45 190.64Q190.38 191.07 186.71 190.67L186.76 190.71L186.68 190.64Q182.25 190.08 178.17 188.24L178.06 188.13L177.87 186.93L177.33 187.61L177.32 187.60Q173.03 184.94 170.17 177.80L170.25 177.88L170.21 177.84Q163.06 185.37 154.09 196.79L154.04 196.75L154.02 196.73Q155.78 200.32 160.26 205.42L160.29 205.45L160.27 205.42Q165.85 215.08 180.94 217.74L180.93 217.72L181.02 217.81Q187.23 218.92 215.98 219.53Z"/></svg>