<svg xmlns="http://www.w3.org/2000/svg" width="500" height="250" viewBox="0,0,500,250"><path fill="#e797d3" d="M340.08 147.40L340.18 147.50L340.18 147.50Q330.09 147.41 323.57 154.55L323.53 154.51L323.62 154.59Q317.03 161.68 316.22 171.87L316.18 171.83L316.31 171.97Q315.25 183.35 321.78 188.75L321.68 188.65L321.75 188.73Q328.20 194.05 339.62 193.64L339.66 193.68L339.79 193.82Q352.10 192.87 357.20 187.77L357.23 187.80L357.23 187.80Q362.77 180.08 362.16 170.29L362.22 170.36L362.09 170.22Q361.51 160.27 355.70 153.85L355.73 153.88L355.63 153.78Q349.98 147.52 340.20 147.52ZM339.92 96.87L339.86 96.81L339.90 96.85Q332.43 96.31 325.29 98.96L325.28 98.96L325.19 98.86Q318.27 103.16 319.49 113.15L319.57 113.23L319.44 113.09Q322.21 133.20 340.16 133.20L340.14 133.18L340.15 133.20Q348.42 134.12 353.72 128.00L353.81 128.09L353.75 128.04Q359.17 122.03 359.37 113.67L359.31 113.60L359.28 113.58Q359.79 104.29 355.91 101.03L355.82 100.94L355.83 100.95Q346.91 96.52 339.98 96.93ZM338.43 206.93L338.53 207.03L322.21 207.03L322.23 207.05Q313.95 206.93 306.81 202.24L306.83 202.26L306.91 202.33Q299.60 196.25 300.42 180.95L300.27 180.80L300.26 180.80Q302.77 144.15 322.14 138.84L322.15 138.85L322.15 138.85Q309.99 134.03 302.85 105.28L302.74 105.17L302.88 105.31Q300.87 97.58 301.27 93.30L301.39 93.41L301.44 93.47Q303.01 81.98 322.79 81.78L322.71 81.69L322.82 81.81Q345.37 81.31 353.12 82.33L353.12 82.33L353.14 82.35Q373.78 85.25 376.23 96.06L376.17 96.00L376.28 96.11Q376.92 99.40 376.92 101.44L376.85 101.37L376.85 101.37Q376.81 105.00 375.79 108.26L375.77 108.24L375.87 108.34Q372.61 130.98 356.90 139.14L356.80 139.04L356.84 139.08Q375.62 143.37 378.27 171.72L378.22 171.67L378.22 171.68Q378.28 172.55 378.49 179.48L378.52 179.52L378.40 179.40Q378.96 194.23 370.39 199.94L370.34 199.89L370.36 199.92Q362.87 204.46 338.40 206.90ZM350.78 219.48L350.82 219.53L368.74 219.91L368.67 219.84Q377.86 220.26 386.02 216.38L385.94 216.31L386.02 216.39Q392.06 212.43 392.47 202.44L392.56 202.53L392.49 202.46Q392.65 196.51 390.61 186.10L390.78 186.27L390.66 186.15Q385.84 161.34 374.62 151.35L374.66 151.39L373.57 149.28L372.46 147.76L371.76 146.45L371.78 146.47Q380.57 139.15 385.46 116.92L385.35 116.80L385.46 116.91Q385.48 114.90 385.89 110.41L385.72 110.24L385.80 110.32Q386.24 106.68 385.83 103.42L385.87 103.46L385.75 103.34Q384.93 95.58 378.61 92.93L378.71 93.03L378.93 93.05L377.80 92.33L377.76 92.28Q376.51 88.59 370.19 84.31L370.08 84.20L370.23 84.14L370.36 84.27Q359.74 80.59 337.92 79.57L337.87 79.53L337.80 79.45Q329.48 78.88 322.14 79.50L322.18 79.54L322.26 79.61Q317.89 79.73 310.96 80.55L310.87 80.46L310.93 80.53Q300.53 82.56 299.30 91.33L299.26 91.28L299.32 91.34Q299.14 94.02 299.35 98.31L299.33 98.29L299.33 98.28Q299.86 101.06 302.92 113.71L303.03 113.82L302.96 113.75Q307.25 131.09 316.63 138.23L316.74 138.34L317.09 138.69L317.01 138.61Q302.14 145.56 299.29 173.30L299.37 173.38L299.24 173.25Q298.23 185.09 298.23 189.99L298.23 189.99L298.24 189.99Q298.71 199.64 305.03 204.53L305.00 204.50L305.12 204.62Q305.58 204.88 307.01 205.90L307.03 205.92L307.12 206.01Q312.49 218.11 350.62 219.33ZM348.79 159.99L348.98 160.18L348.93 160.12Q353.76 159.65 358.45 162.10L358.53 162.18L358.41 162.06Q360.53 167.44 360.32 170.30L360.30 170.27L360.22 170.19Q360.47 171.87 360.47 173.51L360.43 173.46L360.42 173.45Q360.49 186.16 348.25 190.65L348.29 190.69L348.36 190.76Q344.07 192.38 339.78 191.77L339.80 191.79L339.74 191.72Q333.75 192.26 327.63 189.81L327.64 189.82L327.75 189.93Q326.24 186.39 326.65 181.08L326.70 181.13L326.67 181.10Q327.43 172.48 333.85 165.95L333.88 165.98L333.92 166.02Q340.38 159.53 348.95 160.15ZM350.02 109.21L350.05 109.24L350.08 109.27Q354.31 108.61 357.17 109.43L357.24 109.50L357.29 113.83L357.20 113.74Q357.32 121.41 352.43 126.81L352.25 126.64L352.33 126.72Q347.48 132.16 340.14 131.14L340.12 131.12L340.16 131.17Q334.81 131.11 332.56 129.89L332.48 129.81L332.66 129.99Q332.32 128.43 331.71 124.76L331.85 124.89L331.84 124.89Q330.32 117.25 336.85 112.76L336.92 112.83L336.82 112.74Q342.66 109.19 350.20 109.39Z"/><path d="M6 198 C268 161,268 42,486 159" stroke="#8282e2" fill="none"/><path fill="#8eea8e" d="M105.76 167.71L105.68 167.62L105.69 167.64Q122.16 165.55 139.29 166.16L139.24 166.11L139.24 166.11Q139.07 152.48 139.07 139.63L139.04 139.59L139.21 139.77Q139.10 126.40 140.12 112.74L140.12 112.74L140.07 112.69Q133.65 121.97 105.71 167.66ZM158.76 207.05L158.78 207.07L158.62 206.90Q149.65 205.28 140.07 204.87L140.15 204.96L140.20 205.00Q139.18 192.35 138.56 179.10L138.45 178.98L138.43 178.96Q109.96 178.03 84.67 185.57L84.70 185.60L84.65 185.55Q85.22 182.86 86.24 177.56L86.21 177.52L86.28 177.60Q95.89 160.70 115.06 127.04L115.06 127.04L115.14 127.12Q130.63 101.00 148.98 80.20L148.97 80.19L148.87 80.08Q153.51 79.02 162.49 77.60L162.56 77.67L162.63 77.73Q152.41 112.19 152.41 149.91L152.38 149.88L152.39 149.89Q152.33 157.78 152.73 165.73L152.82 165.82L159.75 166.43L159.65 166.33Q163.06 166.67 166.32 167.29L166.21 167.18L166.35 167.31Q166.78 172.44 168.21 182.84L168.37 183.01L168.29 182.92Q161.79 181.52 153.84 180.50L153.87 180.53L153.87 180.54Q154.98 191.23 158.65 206.93ZM167.61 165.11L167.60 165.10L167.58 165.08Q166.59 164.70 165.57 164.70L165.68 164.81L163.62 164.79L163.60 164.77Q162.94 156.77 162.94 149.23L162.93 149.21L162.96 149.25Q162.91 114.93 173.92 82.71L173.95 82.73L173.93 82.71Q169.91 84.20 162.16 86.24L162.18 86.26L162.11 86.19Q163.40 82.18 165.85 74.63L165.80 74.58L165.92 74.70Q158.92 76.68 147.90 77.90L147.97 77.96L147.87 77.87Q126.92 101.17 98.98 151.34L98.89 151.25L110.16 131.73L110.14 131.71Q107.92 137.24 106.50 140.30L106.58 140.39L82.65 188.65L82.61 188.60Q86.00 187.72 92.12 185.68L92.16 185.71L91.41 187.00L91.41 187.00Q90.80 190.68 89.17 197.41L89.17 197.41L89.25 197.49Q111.21 190.29 137.11 191.31L137.02 191.22L137.03 191.22Q137.27 196.36 138.29 206.96L138.38 207.06L138.40 207.08Q144.09 207.05 149.80 207.67L149.79 207.66L149.66 207.53Q150.47 211.20 151.90 218.54L151.98 218.61L151.97 218.60Q162.20 219.86 178.31 224.76L178.37 224.82L178.21 224.66Q172.88 213.21 167.99 195.67L168.07 195.76L175.85 198.23L175.92 198.30Q179.50 199.43 183.17 201.27L183.11 201.21L183.26 201.36Q178.82 187.74 178.00 178.76L178.05 178.82L178.01 178.78Q175.11 178.12 168.99 176.89L168.86 176.76L168.93 176.83Q167.58 169.78 167.58 165.08ZM124.85 164.36L124.84 164.35L124.81 164.32Q128.98 157.48 137.34 143.82L137.20 143.67L137.22 143.69Q137.24 148.82 137.04 153.91L137.05 153.93L137.04 153.91Q137.14 159.32 137.35 164.42L137.27 164.35L137.31 164.38Q134.14 164.06 131.08 164.06L131.22 164.21L131.22 164.21Q128.18 164.43 124.92 164.43Z"/><path d="M15 193 C239 153,237 55,483 219" stroke="#88d6f1" fill="none"/><path fill="#869ee8" d="M411.64 96.33L411.60 96.29L403.23 96.89L403.30 96.95Q391.11 97.41 389.89 108.22L389.87 108.21L389.86 108.19Q389.46 112.08 389.66 117.38L389.65 117.36L389.70 117.41Q389.93 127.84 396.66 134.98L396.63 134.95L396.62 134.94Q403.41 142.13 413.60 141.32L413.51 141.23L413.62 141.33Q424.63 140.51 428.70 135.62L428.60 135.51L428.63 135.54Q434.34 130.65 435.77 118.62L435.81 118.65L435.90 118.75Q437.17 106.56 430.44 102.07L430.53 102.16L430.50 102.13Q425.87 97.91 411.60 96.28ZM444.00 145.81L444.02 145.83L437.06 158.05L437.01 158.00Q422.54 183.70 402.35 205.53L402.48 205.65L402.43 205.61Q393.58 206.34 379.10 210.62L379.07 210.59L379.07 210.59Q407.64 176.96 424.56 151.26L424.53 151.23L424.59 151.28Q419.11 154.77 410.34 155.18L410.29 155.13L410.27 155.12Q394.24 156.01 386.08 145.41L386.00 145.33L386.02 145.35Q379.64 136.92 373.72 112.45L373.64 112.37L373.60 112.33Q373.71 109.99 372.90 105.00L372.81 104.91L372.77 104.87Q372.02 99.94 372.02 97.50L372.08 97.55L372.07 97.54Q372.08 87.96 377.79 84.70L377.74 84.65L377.64 84.56Q384.14 80.45 394.14 80.45L394.13 80.44L394.20 80.51Q411.31 80.49 411.31 80.49L411.43 80.62L411.43 80.61Q422.95 80.71 429.68 81.73L429.70 81.75L429.81 81.86Q441.16 83.21 446.05 85.87L446.02 85.83L446.01 85.83Q453.38 89.93 454.40 99.31L454.37 99.28L454.38 99.30Q454.32 100.46 453.31 114.74L453.39 114.83L453.45 114.88Q451.33 126.22 450.10 130.71L450.03 130.63L450.09 130.69Q448.10 138.29 444.02 145.83ZM454.13 158.59L454.09 158.56L454.11 158.57Q459.57 146.90 462.42 123.85L462.29 123.73L462.28 123.72Q463.80 111.98 463.59 107.28L463.62 107.31L463.53 107.22Q463.29 97.19 456.97 92.30L457.14 92.47L455.35 91.69L455.41 91.76Q453.99 87.69 449.10 84.22L449.11 84.24L449.05 84.17Q436.79 78.85 411.10 78.03L411.22 78.16L411.15 78.09Q405.96 78.00 392.91 78.00L392.91 78.00L393.08 78.17Q383.68 78.15 375.72 81.82L375.75 81.84L375.67 81.77Q369.55 86.05 369.96 95.84L370.02 95.89L370.04 95.92Q370.94 100.69 371.96 111.50L371.95 111.49L371.91 111.46Q375.21 125.56 376.64 130.05L376.71 130.12L376.76 130.17Q379.72 140.07 384.82 147.00L384.80 146.98L384.83 147.01Q386.35 148.94 388.39 150.98L388.34 150.93L388.31 150.89Q389.67 153.28 393.14 158.17L393.12 158.16L393.11 158.15Q401.11 165.53 411.51 166.55L411.58 166.63L411.48 166.53Q401.38 180.90 393.02 191.09L393.09 191.17L373.57 214.48L373.64 214.54Q385.75 210.54 394.52 208.71L394.35 208.53L394.37 208.56Q390.38 213.34 382.02 222.51L382.02 222.52L382.04 222.54Q398.51 217.59 415.24 217.39L415.19 217.35L415.23 217.38Q427.76 203.60 451.01 164.86L450.91 164.76L450.92 165.17L451.00 165.26Q452.35 161.30 454.18 158.65ZM421.98 109.11L422.01 109.14L421.88 109.01Q425.16 108.41 427.60 109.02L427.67 109.09L427.58 109.00Q431.18 109.75 433.22 110.36L433.13 110.26L433.10 110.24Q433.78 112.35 434.19 114.59L434.20 114.60L434.14 114.54Q434.66 116.89 434.04 118.93L434.07 118.96L433.93 118.82Q433.73 127.99 427.40 133.91L427.51 134.01L427.45 133.95Q422.41 139.52 413.64 139.31L413.55 139.22L413.66 139.34Q411.32 139.24 403.16 137.60L403.29 137.74L403.25 137.70Q402.02 132.99 402.02 129.12L401.89 129.00L401.94 129.04Q401.65 127.73 401.65 126.51L401.48 126.33L401.59 126.44Q401.57 114.60 413.81 110.32L413.75 110.26L413.76 110.27Q417.39 109.01 421.88 109.01Z"/><path fill="#55d7d7" d="M167.25 160.40L167.42 160.57L167.36 160.51Q184.86 167.40 205.05 167.40L205.14 167.50L205.09 167.44Q213.72 167.51 222.08 166.28L221.90 166.11L221.95 166.16Q219.49 168.58 216.02 174.91L216.06 174.94L216.16 175.04Q219.41 175.64 223.08 174.42L222.96 174.30L222.94 174.28Q220.95 178.61 220.95 182.90L221.06 183.01L220.91 182.85Q220.88 186.70 222.30 190.57L222.32 190.59L222.40 190.67Q214.78 189.37 205.20 189.58L205.21 189.59L205.27 189.64Q195.96 189.72 188.42 191.15L188.34 191.08L188.42 191.15Q190.60 186.81 189.99 181.51L190.00 181.52L190.04 181.56Q188.47 181.62 187.25 181.42L187.26 181.42L187.35 181.52Q186.03 181.01 184.40 181.01L184.42 181.03L184.55 181.16Q183.57 171.83 167.26 160.41ZM185.25 179.01L185.35 179.11L185.34 179.10Q193.48 180.10 199.60 179.90L199.51 179.81L199.59 179.89Q213.87 179.69 213.87 179.69L213.76 179.58L213.78 179.60Q214.23 173.93 218.10 168.42L218.02 168.34L218.02 168.34Q212.04 169.29 205.71 169.29L205.72 169.30L205.69 169.26Q189.25 169.34 173.75 164.24L173.63 164.13L173.58 164.08Q183.21 170.86 185.25 179.01ZM183.54 183.21L183.45 183.13L183.36 183.04Q185.29 182.93 188.97 183.13L188.95 183.12L189.02 183.19Q188.56 189.05 185.71 193.13L185.76 193.19L185.60 193.02Q193.80 192.04 192.98 192.04L193.02 192.08L193.07 192.14Q190.05 197.27 185.97 201.35L185.81 201.19L185.89 201.27Q196.72 199.46 207.12 199.46L207.02 199.35L207.02 199.35Q231.71 199.37 253.74 208.55L253.80 208.61L240.84 201.36L240.71 201.23Q227.76 192.97 227.76 181.14L227.73 181.10L227.79 181.17Q226.58 181.59 225.15 181.59L225.08 181.52L222.16 181.45L222.13 181.43Q222.65 177.05 225.71 171.95L225.57 171.81L225.58 171.82Q223.47 172.36 218.37 173.38L218.40 173.41L218.38 173.39Q220.97 167.83 226.27 163.75L226.18 163.65L226.31 163.78Q215.97 165.68 205.16 165.68L205.16 165.68L205.03 165.55Q179.66 165.67 159.47 155.68L159.37 155.58L159.35 155.56Q182.92 169.75 183.53 183.21ZM188.34 177.41L188.29 177.36L186.97 177.47L186.86 177.35Q186.21 176.91 185.60 176.91L185.68 176.99L185.77 177.09Q184.60 173.87 182.56 171.63L182.64 171.71L178.38 166.84L178.35 166.81Q191.23 170.92 205.91 170.92L205.82 170.82L205.86 170.87Q210.31 170.83 215.00 170.42L215.02 170.44L214.21 172.28L213.48 173.79L213.34 173.65Q206.72 174.17 199.79 173.97L199.75 173.93L199.86 174.05Q192.53 173.64 185.59 172.21L185.67 172.29L185.60 172.22Q187.52 174.14 188.33 177.40Z"/><path fill="#5ee830" d="M272.33 116.53L272.30 116.50L272.33 116.53Q255.12 116.45 245.33 110.74L245.25 110.66L245.31 110.72Q258.85 103.46 284.95 80.82L284.85 80.72L284.94 80.81Q288.71 79.69 295.65 76.42L295.60 76.38L295.60 76.38Q288.62 108.35 288.01 142.41L288.03 142.43L288.01 142.41Q287.29 176.36 293.00 208.99L293.08 209.07L293.11 209.10Q283.97 205.06 272.55 204.44L272.68 204.58L272.63 204.53Q272.03 182.31 272.03 160.49L272.09 160.55L272.10 160.56Q272.02 138.45 272.22 116.42ZM270.28 128.55L270.28 206.67L270.19 206.57Q276.75 206.61 281.85 207.63L281.76 207.53L281.87 207.65Q282.30 211.34 283.32 218.68L283.30 218.66L283.17 218.54Q298.59 221.52 311.65 233.55L311.63 233.53L311.66 233.56Q298.34 195.36 298.13 155.39L298.09 155.34L298.05 155.31Q297.65 115.33 307.43 76.59L307.43 76.58L307.57 76.72Q304.63 78.88 296.06 84.79L296.17 84.90L296.03 84.76Q297.18 80.81 298.81 72.65L298.79 72.64L298.74 72.58Q291.69 76.74 283.94 78.78L283.95 78.79L283.78 78.63Q263.71 97.91 240.66 110.15L240.62 110.11L240.54 110.03Q248.16 116.01 260.80 117.85L260.82 117.87L260.78 117.83Q257.35 120.72 250.42 126.43L250.43 126.44L250.43 126.45Q258.41 128.51 270.24 128.51L270.23 128.50Z"/><path d="M13 238 C245 56,264 169,493 88" stroke="#d3e98f" fill="none"/><path fill="#e66f8c" d="M58.77 116.40L58.84 116.47L58.84 116.47Q41.63 116.39 31.84 110.68L31.83 110.67L31.95 110.79Q45.29 103.32 71.39 80.69L71.49 80.79L71.46 80.75Q75.25 79.66 82.19 76.39L82.33 76.54L82.19 76.40Q75.19 108.35 74.58 142.40L74.48 142.30L74.60 142.42Q73.81 176.31 79.52 208.94L79.66 209.08L79.63 209.04Q70.64 205.16 59.22 204.55L59.31 204.64L59.24 204.57Q58.56 182.27 58.56 160.44L58.57 160.46L58.66 160.54Q58.52 138.38 58.72 116.35ZM56.84 128.54L56.84 206.65L56.71 206.52Q63.36 206.65 68.46 207.67L68.33 207.54L68.44 207.65Q68.89 211.36 69.91 218.70L69.76 218.55L69.85 218.64Q85.12 221.47 98.17 233.50L98.09 233.42L98.11 233.44Q84.83 195.28 84.63 155.31L84.61 155.30L84.64 155.32Q84.23 115.35 94.02 76.60L94.15 76.73L94.10 76.68Q91.21 78.89 82.65 84.80L82.71 84.86L82.76 84.92Q83.61 80.67 85.24 72.51L85.35 72.62L85.40 72.67Q78.12 76.61 70.37 78.65L70.52 78.80L70.33 78.61Q50.30 97.94 27.26 110.18L27.23 110.15L27.19 110.11Q34.73 116.02 47.38 117.86L47.34 117.81L47.34 117.82Q44.01 120.81 37.07 126.52L36.97 126.42L37.04 126.49Q44.96 128.49 56.79 128.49L56.71 128.42Z"/><path d="M3 109 C236 36,254 104,499 24" stroke="#e56182" fill="none"/></svg>